<svg xmlns="http://www.w3.org/2000/svg" viewBox="0 0 75.36 75.37"><defs><style>.cls-1{fill:none;stroke:#828f8c;stroke-miterlimit:10;stroke-width:3px;}</style></defs><g id="Layer_2" data-name="Layer 2"><g id="Layer_1-2" data-name="Layer 1"><path class="cls-1" d="M27.09,48.29v0A35.32,35.32,0,0,1,29,36.61,36.06,36.06,0,0,1,37.23,23.2a5,5,0,0,1,.45-.49,37,37,0,0,1,8.56-6.37,36.27,36.27,0,0,1,11.19-3.77,36.78,36.78,0,0,1,5.83-.48,36,36,0,0,1,9.47,16.59,36.76,36.76,0,0,1,1,6.53c.06.82.08,1.65.08,2.47a36,36,0,0,1-1,8.35c-.06.29-.14.58-.22.87-.17.65-.35,1.29-.56,1.93a36.26,36.26,0,0,1-8.83,14.43h0A36,36,0,0,1,37.68,73.87,36.1,36.1,0,0,1,27.09,48.29ZM37.68,22.71c-.57-.58-1.17-1.13-1.78-1.66a36,36,0,0,0-8-5.32h0M1.53,38.33a34.46,34.46,0,0,0,.82,7.09,35.21,35.21,0,0,0,2.87,8.23,36,36,0,0,0,6.86,9.61h0a36.14,36.14,0,0,0,51.16,0h0a36.26,36.26,0,0,0,8.83-14.43c.21-.64.39-1.28.56-1.93.08-.29.16-.58.22-.87a36,36,0,0,0,1-8.35c0-.82,0-1.65-.08-2.47a36.76,36.76,0,0,0-1-6.53,36,36,0,0,0-9.47-16.59,33.12,33.12,0,0,0-3.92-3.38A36.17,36.17,0,0,0,12.1,12.09a34.46,34.46,0,0,0-3.78,4.48,35.62,35.62,0,0,0-5.4,11.11,36,36,0,0,0-1.41,10C1.51,37.9,1.51,38.11,1.53,38.33Zm26.36-22.6A36.05,36.05,0,0,0,12.1,12.09a34.46,34.46,0,0,0-3.78,4.48,35.62,35.62,0,0,0-5.4,11.11,36,36,0,0,0-1.41,10,65.8,65.8,0,0,0,.84,7.74,35.21,35.21,0,0,0,2.87,8.23,36,36,0,0,0,6.86,9.61h0A36,36,0,0,0,37.68,73.87a36.11,36.11,0,0,0,10.6-25.58v0a36,36,0,0,0-4-16.45c-.26-.51-.53-1-.84-1.53-.18-.35-.39-.68-.59-1a35.85,35.85,0,0,0-5.2-6.57,5,5,0,0,0-.45.49A35,35,0,0,0,32,30.1M1.5,37.68a34.88,34.88,0,0,1,7.43.78c.31,0,.62.12.91.18.94.23,1.88.47,2.79.78h0a36.3,36.3,0,0,1,14.43,8.85v0a36,36,0,0,1,10.6,25.58A36,36,0,0,1,12.09,63.26h0a35.74,35.74,0,0,1-6.85-9.61,35.87,35.87,0,0,1-3.7-15.32C1.5,38.11,1.5,37.9,1.5,37.68ZM12.09,63.26A36,36,0,0,1,37.68,73.87,36,36,0,0,1,12.09,63.26Zm51.17,0A36,36,0,0,1,37.68,73.87,36,36,0,0,1,63.26,63.26ZM37.68,73.87A36,36,0,0,1,48.27,48.29v0a36.07,36.07,0,0,1,9.61-6.88,34.28,34.28,0,0,1,7.06-2.6h0A34.91,34.91,0,0,1,73.2,37.7c.22,0,.43,0,.65,0a36.55,36.55,0,0,1-1,8.35c-.06.29-.15.58-.23.87-.16.65-.35,1.29-.55,1.93a36.48,36.48,0,0,1-8.83,14.43h0A36,36,0,0,1,37.68,73.87Z"/></g></g></svg>