<?xml version="1.0" encoding="utf-8"?>
<!-- Generator: Adobe Illustrator 24.3.0, SVG Export Plug-In . SVG Version: 6.00 Build 0)  -->
<svg version="1.1" id="Layer_1" xmlns="http://www.w3.org/2000/svg" xmlns:xlink="http://www.w3.org/1999/xlink" x="0px" y="0px"
	 viewBox="0 0 77.5 80.8" style="enable-background:new 0 0 77.5 80.8;" xml:space="preserve">
<style type="text/css">
	.st0{fill:none;stroke:#B0A3A6;stroke-width:3;stroke-miterlimit:10;}
</style>
<g id="Layer_2_1_">
	<g id="Layer_1-2">
		<path class="st0" d="M62.7,30.5c3.9,3.5,8,6.8,12.2,9.9c-4.1,3-8.1,6.2-11.8,9.6C62.5,43.5,62.4,37,62.7,30.5z M38.7,78.1
			c-3.2-4.7-6.6-9.3-10.3-13.6c6.8-0.4,13.6-0.3,20.4,0.4C45.2,69,41.8,73.4,38.7,78.1L38.7,78.1z M28.7,16c3.6-4.2,7-8.6,10-13.3
			c3.2,4.7,6.7,9.3,10.4,13.6C42.3,16.7,35.5,16.6,28.7,16z M14.8,50.3c-3.9-3.6-8-6.9-12.3-10c4.2-3,8.1-6.2,11.9-9.6
			C15,37.2,15.1,43.8,14.8,50.3z M62.7,30.5c3.9,3.5,8,6.8,12.2,9.9c-4.1,3-8.1,6.2-11.8,9.6C62.5,43.5,62.4,37,62.7,30.5z
			 M38.7,78.1c-3.2-4.7-6.6-9.3-10.3-13.6c6.8-0.4,13.6-0.3,20.4,0.4C45.2,69,38.7,78.1,38.7,78.1z M28.7,16c3.6-4.2,7-8.6,10-13.3
			c3.2,4.7,6.7,9.3,10.4,13.6C42.3,16.7,35.5,16.6,28.7,16z M14.8,50.3c-3.9-3.6-8-6.9-12.3-10c4.2-3,8.1-6.2,11.9-9.6
			C15,37.2,15.1,43.8,14.8,50.3z M63.1,50c0.4,5.7,1.2,11.5,2.4,17.1c-5.5-1.1-11.1-1.9-16.6-2.3C53.2,59.5,58,54.6,63.1,50z
			 M28.4,64.4c-5.1,0.2-10.1,0.8-15.2,1.6c0.8-5.2,1.4-10.4,1.6-15.6C19.6,54.7,24.2,59.4,28.4,64.4z M49.1,16.3
			c5.1-0.3,10.2-0.8,15.2-1.6c-0.8,5.2-1.4,10.4-1.6,15.7C57.9,26.1,53.3,21.3,49.1,16.3z M12.1,13.7c5.5,1.1,11,1.9,16.6,2.3
			c-4.4,5.2-9.1,10.2-14.2,14.7C14,25,12.1,13.7,12.1,13.7z M63.1,50c0.4,5.7,1.2,11.5,2.4,17.1c-5.5-1.1-11.1-1.9-16.6-2.3
			C53.2,59.5,58,54.6,63.1,50z M28.4,64.4c-5.1,0.2-10.1,0.8-15.2,1.6c0.8-5.2,1.4-10.4,1.6-15.6C19.6,54.7,24.2,59.4,28.4,64.4z
			 M49.1,16.3c5.1-0.3,10.2-0.8,15.2-1.6c-0.8,5.2-1.4,10.4-1.6,15.7C57.9,26.1,53.3,21.3,49.1,16.3z M28.7,16
			c-4.4,5.2-9.1,10.2-14.2,14.7"/>
	</g>
</g>
</svg>
