<svg xmlns="http://www.w3.org/2000/svg" viewBox="0 0 75.36 75.37"><defs><style>.cls-1{fill:none;stroke:#262e36;stroke-miterlimit:10;stroke-width:3px;}</style></defs><g id="Layer_2" data-name="Layer 2"><g id="Layer_1-2" data-name="Layer 1"><path class="cls-1" d="M72.62,28.31c.12.43.22.87.31,1.29a35.9,35.9,0,0,1-2,22.21,36.13,36.13,0,0,1-23.87-26,35.87,35.87,0,0,1-.79-12.14,35.23,35.23,0,0,1,1.62-7.51A29.8,29.8,0,0,1,49,3.33a26.51,26.51,0,0,1,2.81,1.06A36,36,0,0,1,67.16,16.71,35.91,35.91,0,0,1,72.62,28.31Zm0,0c.12.43.22.87.31,1.29a30.69,30.69,0,0,1-11.49,1.21,30.17,30.17,0,0,1-12.69-4c-.57-.32-1.12-.67-1.65-1A30,30,0,0,1,38.39,17a26.14,26.14,0,0,1-1.48-2.56A30.75,30.75,0,0,1,33.49,1.75a35.32,35.32,0,0,1,6-.2,29.21,29.21,0,0,1,3.85.4A32.92,32.92,0,0,1,49,3.33a26.51,26.51,0,0,1,2.81,1.06A36,36,0,0,1,67.16,16.71,35.91,35.91,0,0,1,72.62,28.31Zm0,0c.12.43.22.87.31,1.29A36.17,36.17,0,0,1,5.37,54,36.62,36.62,0,0,1,2.74,47,36.16,36.16,0,0,1,6.9,18.7,36.06,36.06,0,0,1,21.37,5.38c.89-.44,1.81-.87,2.75-1.23a36.16,36.16,0,0,1,4.19-1.41l1.38-.34a35.93,35.93,0,0,1,3.8-.65,35.32,35.32,0,0,1,6-.2,29.21,29.21,0,0,1,3.85.4A32.92,32.92,0,0,1,49,3.33a26.51,26.51,0,0,1,2.81,1.06A36,36,0,0,1,67.16,16.71,35.91,35.91,0,0,1,72.62,28.31Zm-5.46-11.6A30.79,30.79,0,0,1,53,38.65a30.77,30.77,0,0,1-8.22,3.56,30.47,30.47,0,0,1-22.3-2.56,30.65,30.65,0,0,1-9-7.26A30.24,30.24,0,0,1,7.33,20.6a18.54,18.54,0,0,1-.43-1.9A36.06,36.06,0,0,1,21.37,5.38c.89-.44,1.81-.87,2.75-1.23a36.16,36.16,0,0,1,4.19-1.41l1.38-.34a35.93,35.93,0,0,1,3.8-.65,35.32,35.32,0,0,1,6-.2,29.21,29.21,0,0,1,3.85.4A32.92,32.92,0,0,1,49,3.33a26.51,26.51,0,0,1,2.81,1.06A36,36,0,0,1,67.16,16.71ZM27.45,14.23a35.93,35.93,0,0,1,.05,12.24,35.86,35.86,0,0,1-4.35,12.05c-.22.38-.45.76-.69,1.13A35.87,35.87,0,0,1,5.37,54,36.62,36.62,0,0,1,2.74,47,36.16,36.16,0,0,1,6.9,18.7,36.06,36.06,0,0,1,21.37,5.38c.89-.44,1.81-.87,2.75-1.23a28,28,0,0,1,1.24,2.74A33.6,33.6,0,0,1,27.45,14.23Zm12-12.68a30,30,0,0,1-2.56,12.89,25.37,25.37,0,0,1-1.33,2.66,2.89,2.89,0,0,1-.19.35,31,31,0,0,1-7.89,9,30.64,30.64,0,0,1-14,5.92A30.42,30.42,0,0,1,2,32a36.35,36.35,0,0,1,13-22.41,35.57,35.57,0,0,1,6.43-4.16c.89-.44,1.81-.87,2.75-1.23a36.16,36.16,0,0,1,4.19-1.41l1.38-.34a35.93,35.93,0,0,1,3.8-.65A35.32,35.32,0,0,1,39.47,1.55Z"/></g></g></svg>