<svg xmlns="http://www.w3.org/2000/svg" viewBox="0 0 75.35 75.36"><defs><style>.cls-1{fill:none;stroke:#66695c;stroke-miterlimit:10;stroke-width:3px;}</style></defs><g id="Layer_2" data-name="Layer 2"><g id="Layer_1-2" data-name="Layer 1"><path class="cls-1" d="M12.09,63.26a36.24,36.24,0,0,1,25.6,10.6A36.12,36.12,0,0,1,12.09,63.26Zm25.6,10.6A36,36,0,0,0,27.09,48.3v0a36.17,36.17,0,0,0-13.4-8.49,35.71,35.71,0,0,0-12.2-2.11M12.1,12.1a36.72,36.72,0,0,1,10.63,1.6,36.2,36.2,0,0,1,15,9,37.26,37.26,0,0,1,7.12,10.1,36.1,36.1,0,0,1,3.48,15.47v0a36.13,36.13,0,0,1-10.6,25.56M1.5,37.67A36.29,36.29,0,0,1,5.68,20.74M1.5,37.67A36.29,36.29,0,0,1,5.68,20.74M3.6,49.86A45.54,45.54,0,0,0,9,45.21a41.93,41.93,0,0,0,4.65-5.44,44.21,44.21,0,0,0,5.66-10.13A46.77,46.77,0,0,0,22.73,13.7,46.45,46.45,0,0,0,22.22,5M37.69,1.5A36.18,36.18,0,0,1,73.84,37.67a36.72,36.72,0,0,1-2.1,12.19,36.19,36.19,0,0,1-68.14,0A35.49,35.49,0,0,1,1.5,37.67,36.13,36.13,0,0,1,37.69,1.5Zm0,0A36.22,36.22,0,0,1,69.63,20.74a45.71,45.71,0,0,1-13.69,8.9A45.5,45.5,0,0,1,44.81,32.8a46.53,46.53,0,0,1-7.12.55,47,47,0,0,1-7.16-.55,46.14,46.14,0,0,1-11.18-3.16,46.93,46.93,0,0,1-13.67-8.9,36.15,36.15,0,0,1,32-19.24ZM63.24,12.1a36.45,36.45,0,0,1,6.39,8.64,36,36,0,0,1,4.21,16.93,36.72,36.72,0,0,1-2.1,12.19,36.24,36.24,0,0,1-34,24A36,36,0,0,1,27.09,48.3v0A36.5,36.5,0,0,1,30.53,32.8a37.41,37.41,0,0,1,7.16-10.1,36.06,36.06,0,0,1,14.92-9A36.72,36.72,0,0,1,63.24,12.1ZM53.11,5a47.29,47.29,0,0,0-.5,8.75,47.91,47.91,0,0,0,3.33,15.94,46.39,46.39,0,0,0,5.71,10.13,41.93,41.93,0,0,0,4.65,5.44,41.93,41.93,0,0,0,5.44,4.65m-8.49,13.4a36.09,36.09,0,0,1-25.56,10.6A36,36,0,0,1,48.29,48.3v0a36,36,0,0,1,25.56-10.6,36.7,36.7,0,0,1-2.11,12.2A36.17,36.17,0,0,1,63.25,63.26Zm0,0a36.09,36.09,0,0,1-25.56,10.6A36.08,36.08,0,0,1,63.25,63.26Zm0,0a36.09,36.09,0,0,1-25.56,10.6A36.08,36.08,0,0,1,63.25,63.26Z"/></g></g></svg>