<svg id="Layer_2" data-name="Layer 2" xmlns="http://www.w3.org/2000/svg" xmlns:xlink="http://www.w3.org/1999/xlink" viewBox="0 0 800 800"><defs><style>.cls-1,.cls-7{fill:none;}.cls-2{fill:#6b655d;}.cls-3{fill:#a1988b;}.cls-4{clip-path:url(#clip-path);}.cls-5{clip-path:url(#clip-path-2);}.cls-6{clip-path:url(#clip-path-3);}.cls-7{stroke:#f3efea;stroke-miterlimit:10;stroke-width:3px;}</style><clipPath id="clip-path"><rect class="cls-1" x="1.27" width="800" height="800"/></clipPath><clipPath id="clip-path-2"><rect class="cls-1" x="-207.57" y="-36.01" width="1217.67" height="1217.69"/></clipPath><clipPath id="clip-path-3"><rect class="cls-1" x="-217.69" y="-43.88" width="1237.93" height="1226.69"/></clipPath></defs><path class="cls-2" d="M281.09,396.75l-.92,3.42h-.94l1.3-3.42Zm2.15,0-.92,3.42h-.94l1.29-3.42Z"/><path class="cls-2" d="M284.24,396.75h7.42v.63h-3.34v11.07h-.75V397.38h-3.33Z"/><path class="cls-2" d="M293.44,396.12h.75v5.19a3.38,3.38,0,0,1,3.35-2.1c2,0,3.63,1.22,3.63,3.94v5.3h-.73V403.2c0-2.2-1.22-3.33-3-3.33s-3.22,1.18-3.22,3.69v4.89h-.75Z"/><path class="cls-2" d="M307.76,408.58c-2.54,0-4.4-1.77-4.4-4.67s1.83-4.63,4.4-4.63a4,4,0,0,1,4.21,4,8.06,8.06,0,0,1,0,.9h-7.82a3.52,3.52,0,0,0,3.64,3.72,3.15,3.15,0,0,0,3.36-2.45h.79A3.91,3.91,0,0,1,307.76,408.58Zm-3.64-5h7.1a3.3,3.3,0,0,0-3.48-3.68A3.5,3.5,0,0,0,304.12,403.6Z"/><path class="cls-2" d="M318.94,396.12h.75v12.33h-.75Z"/><path class="cls-2" d="M322.19,396.73a.64.64,0,1,1,1.27,0,.64.64,0,1,1-1.27,0Zm.25,2.67h.75v9.05h-.75Z"/><path class="cls-2" d="M326.29,400.06h-1.37v-.66h1.37v-.63c0-1.85.83-2.8,3.07-2.8v.66c-1.77,0-2.32.67-2.32,2.14v.63h2.35v.66H327v8.39h-.75Z"/><path class="cls-2" d="M335.24,408.58c-2.53,0-4.4-1.77-4.4-4.67s1.83-4.63,4.4-4.63a4,4,0,0,1,4.22,4,6.06,6.06,0,0,1,0,.9h-7.81a3.51,3.51,0,0,0,3.63,3.72,3.16,3.16,0,0,0,3.37-2.45h.78A3.91,3.91,0,0,1,335.24,408.58Zm-3.63-5h7.1a3.3,3.3,0,0,0-3.49-3.68A3.49,3.49,0,0,0,331.61,403.6Z"/><path class="cls-2" d="M350.41,408.58a4.65,4.65,0,1,1,4.48-4.67A4.33,4.33,0,0,1,350.41,408.58Zm0-.67a4,4,0,1,0-3.69-4C346.72,406.66,348.51,407.91,350.41,407.91Z"/><path class="cls-2" d="M357.52,400.06h-1.36v-.66h1.36v-.63c0-1.85.84-2.8,3.07-2.8v.66c-1.77,0-2.32.67-2.32,2.14v.63h2.35v.66h-2.35v8.39h-.75Z"/><path class="cls-2" d="M367,396.73a.63.63,0,0,1,.63-.65.63.63,0,0,1,.64.65.62.62,0,0,1-.64.65A.61.61,0,0,1,367,396.73Zm.25,2.67H368v9.05h-.75Z"/><path class="cls-2" d="M377.74,403.2c0-2.2-1.22-3.33-3-3.33s-3.22,1.18-3.22,3.69v4.89h-.75V399.4h.75v1.91a3.37,3.37,0,0,1,3.33-2.1c2,0,3.65,1.22,3.65,3.94v5.3h-.73Z"/><path class="cls-2" d="M388.12,403.2c0-2.2-1.21-3.33-3-3.33s-3.22,1.18-3.22,3.69v4.89h-.75V399.4h.75v1.91a3.39,3.39,0,0,1,3.34-2.1c2,0,3.64,1.22,3.64,3.94v5.3h-.73Z"/><path class="cls-2" d="M395.44,408.58c-2.53,0-4.4-1.77-4.4-4.67s1.83-4.63,4.4-4.63a4,4,0,0,1,4.21,4,8.06,8.06,0,0,1,0,.9h-7.81a3.51,3.51,0,0,0,3.63,3.72,3.15,3.15,0,0,0,3.36-2.45h.79A3.91,3.91,0,0,1,395.44,408.58Zm-3.63-5h7.09a3.3,3.3,0,0,0-3.48-3.68A3.49,3.49,0,0,0,391.81,403.6Z"/><path class="cls-2" d="M402.67,408.45h-.75V399.4h.75v1.86c.45-1.31,1.57-2.05,3.35-2.05V400h-.25c-1.55,0-3.1.76-3.1,3.23Z"/><path class="cls-2" d="M417,399.28c2.53,0,4.36,1.77,4.36,4.63s-1.83,4.67-4.36,4.67a3.91,3.91,0,0,1-3.83-2.5v6.63h-.75V399.4h.75v2.38A3.88,3.88,0,0,1,417,399.28Zm-.12.65a4,4,0,0,0,0,8c2.2,0,3.72-1.5,3.72-4S419.12,399.93,416.92,399.93Z"/><path class="cls-2" d="M427.61,408.58c-2.54,0-4.4-1.77-4.4-4.67s1.83-4.63,4.4-4.63a4,4,0,0,1,4.21,4,8.06,8.06,0,0,1,0,.9H424a3.52,3.52,0,0,0,3.64,3.72,3.15,3.15,0,0,0,3.36-2.45h.78A3.9,3.9,0,0,1,427.61,408.58Zm-3.64-5h7.1a3.3,3.3,0,0,0-3.48-3.68A3.5,3.5,0,0,0,424,403.6Z"/><path class="cls-2" d="M438,399.28a3.89,3.89,0,0,1,3.83,2.48V399.4h.75v9.05h-.75v-2.39a3.9,3.9,0,0,1-3.83,2.52c-2.53,0-4.37-1.82-4.37-4.67S435.46,399.28,438,399.28Zm.1.65c-2.18,0-3.7,1.49-3.7,4s1.52,4,3.7,4a4,4,0,0,0,0-8Z"/><path class="cls-2" d="M449.22,399.28a3.86,3.86,0,0,1,4.15,3.13h-.78a3.16,3.16,0,0,0-3.37-2.49c-1.93,0-3.61,1.28-3.61,4s1.68,4,3.61,4a3.14,3.14,0,0,0,3.37-2.5h.78a3.9,3.9,0,0,1-4.15,3.15c-2.55,0-4.38-1.77-4.38-4.67S446.67,399.28,449.22,399.28Z"/><path class="cls-2" d="M459.59,408.58c-2.54,0-4.4-1.77-4.4-4.67s1.83-4.63,4.4-4.63a4,4,0,0,1,4.21,4,8.06,8.06,0,0,1,0,.9H456a3.51,3.51,0,0,0,3.63,3.72,3.15,3.15,0,0,0,3.36-2.45h.79A3.91,3.91,0,0,1,459.59,408.58Zm-3.63-5h7.09a3.3,3.3,0,0,0-3.48-3.68A3.49,3.49,0,0,0,456,403.6Z"/><path class="cls-2" d="M465.71,406.7h.86L465,411h-.58Z"/><path class="cls-2" d="M477.74,399.28c2.53,0,4.36,1.77,4.36,4.63s-1.83,4.67-4.36,4.67a3.89,3.89,0,0,1-3.83-2.5v2.37h-.75V396.12h.75v5.66A3.91,3.91,0,0,1,477.74,399.28Zm-.12.65a4,4,0,0,0,0,8c2.2,0,3.72-1.5,3.72-4S479.82,399.93,477.62,399.93Z"/><path class="cls-2" d="M488.3,408.58c-2.53,0-4.39-1.77-4.39-4.67s1.83-4.63,4.39-4.63a4,4,0,0,1,4.22,4,8.06,8.06,0,0,1,0,.9h-7.82a3.52,3.52,0,0,0,3.63,3.72,3.15,3.15,0,0,0,3.37-2.45h.78A3.91,3.91,0,0,1,488.3,408.58Zm-3.63-5h7.1a3.3,3.3,0,0,0-3.48-3.68A3.5,3.5,0,0,0,484.67,403.6Z"/><path class="cls-2" d="M494.54,396.73a.63.63,0,1,1,1.26,0,.63.63,0,1,1-1.26,0Zm.25,2.67h.75v9.05h-.75Z"/><path class="cls-2" d="M505.29,403.2c0-2.2-1.22-3.33-3-3.33s-3.21,1.18-3.21,3.69v4.89h-.75V399.4H499v1.91a3.37,3.37,0,0,1,3.33-2.1c2,0,3.65,1.22,3.65,3.94v5.3h-.73Z"/><path class="cls-2" d="M512.57,399.28a3.89,3.89,0,0,1,3.83,2.47V399.4h.75v9.33a4,4,0,0,1-4.11,4.15,4.06,4.06,0,0,1-4.29-3h.75a3.43,3.43,0,0,0,3.54,2.37,3.27,3.27,0,0,0,3.36-3.5v-2.65a3.91,3.91,0,0,1-3.83,2.5c-2.53,0-4.37-1.82-4.37-4.67S510,399.28,512.57,399.28Zm.1.65c-2.18,0-3.7,1.49-3.7,4s1.52,4,3.7,4a4,4,0,0,0,0-8Z"/><path class="cls-2" d="M251.14,421.12h.75v5.19a3.38,3.38,0,0,1,3.35-2.1c2,0,3.63,1.22,3.63,3.94v5.3h-.73V428.2c0-2.2-1.22-3.33-3-3.33s-3.22,1.18-3.22,3.69v4.89h-.75Z"/><path class="cls-2" d="M265.42,424.28a3.89,3.89,0,0,1,3.83,2.48V424.4H270v9.05h-.75v-2.39a3.89,3.89,0,0,1-3.83,2.52c-2.53,0-4.36-1.82-4.36-4.67S262.89,424.28,265.42,424.28Zm.1.65c-2.18,0-3.7,1.49-3.7,4s1.52,4,3.7,4a4,4,0,0,0,0-8Z"/><path class="cls-2" d="M273.49,433.45h-.75V424.4h.75v1.86c.45-1.31,1.57-2.05,3.35-2.05V425h-.25c-1.55,0-3.1.76-3.1,3.23Z"/><path class="cls-2" d="M292.05,428.2c0-2.2-1.15-3.33-2.9-3.33s-3.1,1.23-3.1,3.76v4.82h-.73V428.2c0-2.2-1.15-3.33-2.9-3.33s-3.1,1.23-3.1,3.76v4.82h-.75V424.4h.75v2a3.48,3.48,0,0,1,6.57.39,3.27,3.27,0,0,1,3.38-2.54c1.93,0,3.52,1.22,3.52,3.94v5.3h-.74Z"/><path class="cls-2" d="M299.44,433.58a4.65,4.65,0,1,1,4.48-4.67A4.33,4.33,0,0,1,299.44,433.58Zm0-.67a4,4,0,1,0-3.68-4C295.76,431.66,297.54,432.91,299.44,432.91Z"/><path class="cls-2" d="M313.2,428.2c0-2.2-1.21-3.33-3-3.33s-3.21,1.18-3.21,3.69v4.89h-.75V424.4H307v1.91a3.37,3.37,0,0,1,3.33-2.1c2,0,3.65,1.22,3.65,3.94v5.3h-.74Z"/><path class="cls-2" d="M316.34,421.73a.63.63,0,0,1,.63-.65.63.63,0,0,1,.64.65.62.62,0,0,1-.64.65A.61.61,0,0,1,316.34,421.73Zm.25,2.67h.75v9.05h-.75Z"/><path class="cls-2" d="M324.07,433.58a4.65,4.65,0,1,1,4.48-4.67A4.33,4.33,0,0,1,324.07,433.58Zm0-.67a4,4,0,1,0-3.68-4C320.39,431.66,322.17,432.91,324.07,432.91Z"/><path class="cls-2" d="M338.49,433.45h-.75v-2a3.34,3.34,0,0,1-3.32,2.12c-2,0-3.66-1.2-3.66-3.94V424.4h.73v5.21c0,2.22,1.22,3.34,3,3.34s3.22-1.19,3.22-3.7V424.4h.75Z"/><path class="cls-2" d="M344.24,433.58c-2,0-3.38-.9-3.55-2.57h.77c.11,1.15,1.06,1.92,2.78,1.92,1.41,0,2.25-.83,2.25-1.82,0-2.5-5.55-1.05-5.55-4.48,0-1.26,1.23-2.35,3-2.35s3.13,1,3.23,2.67h-.75a2.2,2.2,0,0,0-2.5-2c-1.32,0-2.23.78-2.23,1.71,0,2.8,5.5,1.32,5.53,4.48C347.22,432.53,346,433.58,344.24,433.58Z"/><path class="cls-2" d="M358.1,424.28a3.91,3.91,0,0,1,3.84,2.48V424.4h.75v9.05h-.75v-2.39a3.91,3.91,0,0,1-3.84,2.52c-2.53,0-4.36-1.82-4.36-4.67S355.57,424.28,358.1,424.28Zm.1.65c-2.18,0-3.7,1.49-3.7,4s1.52,4,3.7,4a4,4,0,0,0,0-8Z"/><path class="cls-2" d="M372.42,428.2c0-2.2-1.22-3.33-3-3.33s-3.22,1.18-3.22,3.69v4.89h-.75V424.4h.75v1.91a3.38,3.38,0,0,1,3.33-2.1c2,0,3.65,1.22,3.65,3.94v5.3h-.73Z"/><path class="cls-2" d="M379.7,424.28a4,4,0,0,1,3.84,2.48v-5.64h.75v12.33h-.75v-2.4a3.89,3.89,0,0,1-3.84,2.53c-2.53,0-4.36-1.82-4.36-4.67S377.17,424.28,379.7,424.28Zm.1.65c-2.18,0-3.7,1.49-3.7,4s1.52,4,3.7,4a4,4,0,0,0,0-8Z"/><path class="cls-2" d="M390.64,424.4h.78l2.43,8.2,2.9-8.2h.72l2.88,8.16,2.44-8.16h.76l-2.85,9.05H400l-2.89-8-2.9,8h-.71Z"/><path class="cls-2" d="M405,421.73a.63.63,0,0,1,.64-.65.63.63,0,0,1,.63.65.61.61,0,0,1-.63.65A.62.62,0,0,1,405,421.73Zm.25,2.67H406v9.05h-.75Z"/><path class="cls-2" d="M409.07,425.05H407.7v-.65h1.37v-2.3h.75v2.3h2.68v.65h-2.68v6c0,1.37.45,1.75,1.67,1.75h1v.67h-1.13c-1.55,0-2.3-.64-2.3-2.42Z"/><path class="cls-2" d="M414.49,421.12h.75v5.19a3.38,3.38,0,0,1,3.35-2.1c2,0,3.63,1.22,3.63,3.94v5.3h-.73V428.2c0-2.2-1.22-3.33-3-3.33s-3.21,1.18-3.21,3.69v4.89h-.75Z"/><path class="cls-2" d="M428.85,433.58a4.65,4.65,0,1,1,4.48-4.67A4.33,4.33,0,0,1,428.85,433.58Zm0-.67a4,4,0,1,0-3.68-4C425.17,431.66,427,432.91,428.85,432.91Z"/><path class="cls-2" d="M443.27,433.45h-.75v-2a3.33,3.33,0,0,1-3.32,2.12c-2,0-3.66-1.2-3.66-3.94V424.4h.73v5.21c0,2.22,1.22,3.34,3,3.34s3.22-1.19,3.22-3.7V424.4h.75Z"/><path class="cls-2" d="M446.37,425.05H445v-.65h1.37v-2.3h.75v2.3h2.68v.65h-2.68v6c0,1.37.45,1.75,1.67,1.75h1v.67h-1.13c-1.55,0-2.3-.64-2.3-2.42Z"/><path class="cls-2" d="M459.5,433.58c-2,0-3.38-.9-3.55-2.57h.77c.12,1.15,1.07,1.92,2.78,1.92,1.42,0,2.25-.83,2.25-1.82,0-2.5-5.55-1.05-5.55-4.48,0-1.26,1.24-2.35,3-2.35s3.13,1,3.23,2.67h-.74a2.2,2.2,0,0,0-2.5-2c-1.32,0-2.24.78-2.24,1.71,0,2.8,5.5,1.32,5.54,4.48C462.49,432.53,461.24,433.58,459.5,433.58Z"/><path class="cls-2" d="M465.14,425.05h-1.37v-.65h1.37v-2.3h.75v2.3h2.68v.65h-2.68v6c0,1.37.45,1.75,1.66,1.75h1v.67h-1.13c-1.55,0-2.3-.64-2.3-2.42Z"/><path class="cls-2" d="M471.3,433.45h-.75V424.4h.75v1.86c.45-1.31,1.57-2.05,3.35-2.05V425h-.25c-1.55,0-3.1.76-3.1,3.23Z"/><path class="cls-2" d="M480.32,433.58c-2.53,0-4.4-1.77-4.4-4.67s1.83-4.63,4.4-4.63a4,4,0,0,1,4.21,4,8.06,8.06,0,0,1,0,.9h-7.81a3.51,3.51,0,0,0,3.63,3.72,3.15,3.15,0,0,0,3.36-2.45h.79A3.91,3.91,0,0,1,480.32,433.58Zm-3.63-5h7.09a3.3,3.3,0,0,0-3.48-3.68A3.49,3.49,0,0,0,476.69,428.6Z"/><path class="cls-2" d="M489.82,433.58c-2,0-3.38-.9-3.55-2.57H487c.11,1.15,1.06,1.92,2.78,1.92,1.42,0,2.25-.83,2.25-1.82,0-2.5-5.55-1.05-5.55-4.48,0-1.26,1.23-2.35,3-2.35s3.13,1,3.23,2.67H492a2.2,2.2,0,0,0-2.5-2c-1.31,0-2.23.78-2.23,1.71,0,2.8,5.5,1.32,5.53,4.48C492.8,432.53,491.55,433.58,489.82,433.58Z"/><path class="cls-2" d="M498.1,433.58c-2,0-3.38-.9-3.55-2.57h.77c.12,1.15,1.07,1.92,2.78,1.92,1.42,0,2.25-.83,2.25-1.82,0-2.5-5.55-1.05-5.55-4.48,0-1.26,1.24-2.35,3-2.35s3.13,1,3.23,2.67h-.74a2.21,2.21,0,0,0-2.5-2c-1.32,0-2.24.78-2.24,1.71,0,2.8,5.5,1.32,5.53,4.48C501.08,432.53,499.83,433.58,498.1,433.58Z"/><path class="cls-2" d="M503,431.7h.87L502.32,436h-.58Z"/><path class="cls-2" d="M510.2,421.73a.63.63,0,0,1,.64-.65.63.63,0,0,1,.63.65.61.61,0,0,1-.63.65A.62.62,0,0,1,510.2,421.73Zm.25,2.67h.75v9.05h-.75Z"/><path class="cls-2" d="M517,433.58c-2,0-3.38-.9-3.55-2.57h.77c.11,1.15,1.06,1.92,2.78,1.92,1.41,0,2.25-.83,2.25-1.82,0-2.5-5.55-1.05-5.55-4.48,0-1.26,1.23-2.35,3-2.35s3.13,1,3.23,2.67h-.75a2.2,2.2,0,0,0-2.5-2c-1.32,0-2.23.78-2.23,1.71,0,2.8,5.5,1.32,5.53,4.48C520,432.53,518.7,433.58,517,433.58Z"/><path class="cls-2" d="M527.3,425.05h-1.36v-.65h1.36v-2.3h.75v2.3h2.68v.65h-2.68v6c0,1.37.45,1.75,1.67,1.75h1v.67H529.6c-1.55,0-2.3-.64-2.3-2.42Z"/><path class="cls-2" d="M532.72,421.12h.75v5.19a3.38,3.38,0,0,1,3.35-2.1c2,0,3.63,1.22,3.63,3.94v5.3h-.73V428.2c0-2.2-1.22-3.33-3-3.33s-3.21,1.18-3.21,3.69v4.89h-.75Z"/><path class="cls-2" d="M547,433.58c-2.53,0-4.4-1.77-4.4-4.67a4.26,4.26,0,0,1,4.4-4.63,4,4,0,0,1,4.22,4,8.06,8.06,0,0,1,0,.9H543.4a3.52,3.52,0,0,0,3.63,3.72,3.15,3.15,0,0,0,3.37-2.45h.78A3.91,3.91,0,0,1,547,433.58Zm-3.63-5h7.1a3.3,3.3,0,0,0-3.48-3.68A3.5,3.5,0,0,0,543.4,428.6Z"/><path class="cls-2" d="M302.92,458.58c-2.53,0-4.4-1.77-4.4-4.67a4.26,4.26,0,0,1,4.4-4.63,4,4,0,0,1,4.22,4,8.06,8.06,0,0,1,0,.9h-7.82a3.52,3.52,0,0,0,3.63,3.72,3.15,3.15,0,0,0,3.37-2.45h.78A3.91,3.91,0,0,1,302.92,458.58Zm-3.63-5h7.1a3.3,3.3,0,0,0-3.48-3.68A3.5,3.5,0,0,0,299.29,453.6Z"/><path class="cls-2" d="M313.31,449.28a3.89,3.89,0,0,1,3.83,2.48V449.4h.75v9.05h-.75v-2.39a3.9,3.9,0,0,1-3.83,2.52c-2.54,0-4.37-1.82-4.37-4.67S310.77,449.28,313.31,449.28Zm.1.65c-2.19,0-3.7,1.49-3.7,4s1.51,4,3.7,4a4,4,0,0,0,0-8Z"/><path class="cls-2" d="M323.64,458.58c-2,0-3.38-.9-3.55-2.57h.77c.11,1.15,1.06,1.92,2.78,1.92,1.42,0,2.25-.83,2.25-1.82,0-2.5-5.55-1.05-5.55-4.48,0-1.26,1.23-2.35,3-2.35s3.13,1,3.23,2.67h-.75a2.2,2.2,0,0,0-2.5-2c-1.31,0-2.23.78-2.23,1.71,0,2.8,5.5,1.32,5.53,4.48C326.62,457.53,325.37,458.58,323.64,458.58Z"/><path class="cls-2" d="M328.66,446.73a.63.63,0,1,1,1.26,0,.63.63,0,1,1-1.26,0Zm.25,2.67h.75v9.05h-.75Z"/><path class="cls-2" d="M336.34,458.58c-2.53,0-4.4-1.77-4.4-4.67s1.83-4.63,4.4-4.63a4,4,0,0,1,4.22,4,6.06,6.06,0,0,1,0,.9h-7.81a3.51,3.51,0,0,0,3.63,3.72,3.16,3.16,0,0,0,3.37-2.45h.78A3.91,3.91,0,0,1,336.34,458.58Zm-3.63-5h7.1a3.3,3.3,0,0,0-3.49-3.68A3.49,3.49,0,0,0,332.71,453.6Z"/><path class="cls-2" d="M345.84,458.58c-2,0-3.38-.9-3.55-2.57h.77c.11,1.15,1.06,1.92,2.78,1.92,1.42,0,2.25-.83,2.25-1.82,0-2.5-5.55-1.05-5.55-4.48,0-1.26,1.23-2.35,3-2.35s3.13,1,3.23,2.67H348a2.2,2.2,0,0,0-2.5-2c-1.31,0-2.23.78-2.23,1.71,0,2.8,5.5,1.32,5.53,4.48C348.82,457.53,347.57,458.58,345.84,458.58Z"/><path class="cls-2" d="M351.47,450.05h-1.36v-.65h1.36v-2.3h.75v2.3h2.69v.65h-2.69v6c0,1.37.45,1.75,1.67,1.75h1v.67h-1.14c-1.55,0-2.3-.64-2.3-2.42Z"/><path class="cls-2" d="M362,450.05h-1.37v-.65H362v-2.3h.75v2.3h2.68v.65h-2.68v6c0,1.37.45,1.75,1.66,1.75h1v.67h-1.13c-1.55,0-2.3-.64-2.3-2.42Z"/><path class="cls-2" d="M373.67,449.4h.77l-5.27,13.3h-.76l1.68-4.25-3.8-9.05h.82l3.4,8.21Z"/><path class="cls-2" d="M380.69,449.28c2.53,0,4.36,1.77,4.36,4.63s-1.83,4.67-4.36,4.67a3.91,3.91,0,0,1-3.83-2.5v6.63h-.75V449.4h.75v2.38A3.88,3.88,0,0,1,380.69,449.28Zm-.12.65a4,4,0,0,0,0,8c2.2,0,3.72-1.5,3.72-4S382.77,449.93,380.57,449.93Z"/><path class="cls-2" d="M391.26,458.58c-2.54,0-4.4-1.77-4.4-4.67s1.83-4.63,4.4-4.63a4,4,0,0,1,4.21,4,8.06,8.06,0,0,1,0,.9h-7.82a3.52,3.52,0,0,0,3.64,3.72,3.15,3.15,0,0,0,3.36-2.45h.78A3.9,3.9,0,0,1,391.26,458.58Zm-3.64-5h7.1a3.3,3.3,0,0,0-3.48-3.68A3.5,3.5,0,0,0,387.62,453.6Z"/><path class="cls-2" d="M406.42,458.58a4.65,4.65,0,1,1,4.48-4.67A4.33,4.33,0,0,1,406.42,458.58Zm0-.67a4,4,0,1,0-3.68-4C402.74,456.66,404.52,457.91,406.42,457.91Z"/><path class="cls-2" d="M413.54,450.07h-1.37v-.67h1.37v-.63c0-1.85.83-2.8,3.07-2.8v.66c-1.77,0-2.32.67-2.32,2.14v.63h2.35v.67h-2.35v8.38h-.75Z"/><path class="cls-2" d="M427.19,458.58c-2.53,0-4.4-1.77-4.4-4.67s1.83-4.63,4.4-4.63a4,4,0,0,1,4.21,4,8.06,8.06,0,0,1,0,.9h-7.81a3.51,3.51,0,0,0,3.63,3.72,3.15,3.15,0,0,0,3.36-2.45h.79A3.91,3.91,0,0,1,427.19,458.58Zm-3.63-5h7.09a3.3,3.3,0,0,0-3.48-3.68A3.49,3.49,0,0,0,423.56,453.6Z"/><path class="cls-2" d="M435.91,454.46l-2.5,4h-.8l2.91-4.57-2.88-4.48h.85l2.52,3.9,2.46-3.9h.78l-2.88,4.5,2.93,4.55h-.84Z"/><path class="cls-2" d="M440.72,446.73a.63.63,0,0,1,.64-.65.63.63,0,0,1,.63.65.61.61,0,0,1-.63.65A.62.62,0,0,1,440.72,446.73Zm.25,2.67h.75v9.05H441Z"/><path class="cls-2" d="M447.49,458.58c-2,0-3.38-.9-3.55-2.57h.77c.11,1.15,1.06,1.92,2.78,1.92,1.42,0,2.25-.83,2.25-1.82,0-2.5-5.55-1.05-5.55-4.48,0-1.26,1.23-2.35,3-2.35s3.13,1,3.23,2.67h-.75a2.2,2.2,0,0,0-2.5-2c-1.31,0-2.23.78-2.23,1.71,0,2.8,5.5,1.32,5.53,4.48C450.47,457.53,449.22,458.58,447.49,458.58Z"/><path class="cls-2" d="M453.12,450.05h-1.36v-.65h1.36v-2.3h.75v2.3h2.68v.65h-2.68v6c0,1.37.45,1.75,1.67,1.75h1v.67h-1.13c-1.55,0-2.3-.64-2.3-2.42Z"/><path class="cls-2" d="M462.47,458.58c-2.53,0-4.4-1.77-4.4-4.67s1.83-4.63,4.4-4.63a4,4,0,0,1,4.22,4,6.06,6.06,0,0,1,0,.9h-7.81a3.51,3.51,0,0,0,3.63,3.72,3.16,3.16,0,0,0,3.37-2.45h.78A3.91,3.91,0,0,1,462.47,458.58Zm-3.63-5h7.1a3.3,3.3,0,0,0-3.49-3.68A3.49,3.49,0,0,0,458.84,453.6Z"/><path class="cls-2" d="M476,453.2c0-2.2-1.21-3.33-3-3.33s-3.21,1.18-3.21,3.69v4.89H469V449.4h.75v1.91a3.37,3.37,0,0,1,3.33-2.1c2,0,3.65,1.22,3.65,3.94v5.3H476Z"/><path class="cls-2" d="M483.25,449.28a3.86,3.86,0,0,1,4.15,3.13h-.78a3.16,3.16,0,0,0-3.37-2.49c-1.93,0-3.61,1.28-3.61,4s1.68,4,3.61,4a3.14,3.14,0,0,0,3.37-2.5h.78a3.9,3.9,0,0,1-4.15,3.15c-2.55,0-4.38-1.77-4.38-4.67S480.7,449.28,483.25,449.28Z"/><path class="cls-2" d="M493.62,458.58c-2.53,0-4.4-1.77-4.4-4.67s1.83-4.63,4.4-4.63a4,4,0,0,1,4.22,4,6.06,6.06,0,0,1,0,.9H490a3.51,3.51,0,0,0,3.63,3.72,3.16,3.16,0,0,0,3.37-2.45h.78A3.91,3.91,0,0,1,493.62,458.58Zm-3.63-5h7.1a3.3,3.3,0,0,0-3.49-3.68A3.49,3.49,0,0,0,490,453.6Z"/><path class="cls-2" d="M500,458.5a.65.65,0,1,1,0-1.3.65.65,0,0,1,0,1.3Z"/><path class="cls-2" d="M501.84,450.17l.91-3.42h.95l-1.3,3.42Zm2.15,0,.91-3.42h1l-1.3,3.42Z"/><path class="cls-3" d="M315.57,488.91c0-.31,0-.64,0-1h6.29l6.62,0c0,.32,0,.69,0,1h-12.9Zm14.83,2a.05.05,0,0,0,.06-.06v-7.16l-.93,0c0-.29,0-.6,0-.87h2.29c1.36,2,3.17,4.74,4.54,6.88h.09c0-2,0-4-.06-6l-1.18,0c0-.28,0-.6,0-.87H337l1.39,0c0,.28,0,.6,0,.88l-.75,0s0,0,0,0l0,8a3.58,3.58,0,0,1-1.14.19c-1.22-1.61-3-4.07-4.71-6.64h-.08c0,1.89,0,3.75,0,5.61l1.24,0c0,.28,0,.6,0,.88h-3.23c0-.29,0-.59,0-.89Zm10.18.14a3.55,3.55,0,0,1-1-2.67,3.75,3.75,0,0,1,1.64-3.15,4.35,4.35,0,0,1,2.36-.6,3.58,3.58,0,0,1,2.19.63,3.41,3.41,0,0,1,1.36,2.84,4,4,0,0,1-1.2,2.93,3.86,3.86,0,0,1-2.74.92A3.7,3.7,0,0,1,340.58,491Zm4.11-.57a3.34,3.34,0,0,0,.68-2.18,3.65,3.65,0,0,0-.62-2.13,1.7,1.7,0,0,0-1.39-.72A1.81,1.81,0,0,0,342,486a3.22,3.22,0,0,0-.78,2.26,3.12,3.12,0,0,0,.71,2.22,1.83,1.83,0,0,0,1.35.6A1.72,1.72,0,0,0,344.69,490.45Zm3.6.51.7,0a0,0,0,0,0,0,0v-5.26l-.76,0v-.85h2.78a6.81,6.81,0,0,1,1.72.15,1.88,1.88,0,0,1,1.51,1.71,2.07,2.07,0,0,1-1.51,1.9v.05c.53.24.81.85,1.35,1.85.26.49.37.58.51.58l.65.06c0,.25,0,.5,0,.75h-2.07c-.36-.5-1-1.8-1.28-2.33a.9.9,0,0,0-.88-.47,2,2,0,0,0-.48,0l0,1.88.83.05v.83h-3.11C348.28,491.5,348.28,491.22,348.29,491Zm2.29-2.82a1.9,1.9,0,0,0,.46,0c1.13,0,1.64-.64,1.64-1.3,0-.86-.65-1.31-1.57-1.31a1.59,1.59,0,0,0-.51.05ZM356,485.6c0-.3,0-.6,0-.87h2.72c.55,1.29,1.3,3.33,1.92,5h.08c.59-1.6,1.34-3.51,1.95-5h2.56c0,.27,0,.57,0,.87l-.69,0s0,0,0,0c0,1.6,0,3.56,0,5.22l.75.05c0,.29,0,.56,0,.83h-3c0-.27,0-.54,0-.83l.79-.05s.07,0,.07,0c0-1.34,0-3,0-4.44H363c-.83,2.19-1.51,3.75-2.11,5-.21,0-.56,0-.89,0-.64-1.39-1.33-3-2-5.08h-.11c0,1.5,0,3.11,0,4.56l.93.05v.83H356c0-.27,0-.54,0-.83l.69-.05s.06,0,.06,0c0-1.59,0-3.65.05-5.22Zm10.47,5.33a.06.06,0,0,0,.07-.05c.76-1.85,1.79-4.35,2.61-6.22.24,0,.67,0,1.31,0,.73,1.91,1.7,4.5,2.41,6.29l.64,0v.82h-3.07c0-.27,0-.53,0-.82l.77,0s0,0,0-.07c-.11-.32-.25-.72-.38-1,0-.05,0-.05-.07-.05h-2.61c-.12.33-.29.78-.4,1.11l.89,0c0,.29,0,.55,0,.82h-2.77V491Zm3.06-4.73c-.35.93-.74,1.94-1.05,2.75,0,0,0,.05,0,.05l2.11,0c-.31-.84-.67-1.88-1-2.82Zm5.37,4.7s.06,0,.06,0V485.6l-.79,0c0-.3,0-.58,0-.83h2.2c1.13,1.56,2.56,3.68,3.56,5.28H380c0-1.45,0-3-.07-4.42l-1,0c0-.29,0-.58,0-.83h2.87c0,.26,0,.54,0,.84l-.65,0a.06.06,0,0,0,0,.06l0,6a4.54,4.54,0,0,1-1.21.18c-1-1.24-2.41-3.16-3.69-5.11h-.08c0,1.37,0,2.76,0,4.13l1.05,0c0,.29,0,.58,0,.85h-2.93c0-.27,0-.54,0-.83Zm18.73-7.23c-.41,1.1-.94,2.47-1.4,3.65-.54,1.39-1.21,3.14-1.83,4.57a11.88,11.88,0,0,1-1.28,0c-.57-1.49-1.21-3.25-1.69-4.72-.38-1.13-.79-2.39-1.15-3.49a.07.07,0,0,0-.07,0l-.75,0c0-.29,0-.6,0-.87h3.9c0,.27,0,.59,0,.87l-1.18,0c.14.57.62,2.25.81,2.86.33,1.11.68,2.32,1.08,3.53h.09c.38-1.06.75-2.1,1.05-3s.88-2.61,1-3.32c0,0,0-.07,0-.07l-1,0c0-.28,0-.6,0-.87h3.24c0,.27,0,.58,0,.87Zm1.27,1.9c0-.3,0-.58,0-.84h3.39c0,.26,0,.54,0,.84l-.88.05s0,0,0,0l0,5.24.94,0c0,.31,0,.58,0,.85h-3.38v-.86l.84,0s0,0,0,0v-5.23Zm5.25,5.33s.06,0,.06,0V485.6l-.8,0c0-.3,0-.58,0-.83h2.21c1.13,1.56,2.56,3.68,3.56,5.28h.08c0-1.45,0-3-.07-4.42l-1,0c0-.29,0-.58,0-.83h2.88c0,.26,0,.54,0,.84l-.65,0a.06.06,0,0,0,0,.06l0,6a4.54,4.54,0,0,1-1.21.18c-1-1.24-2.42-3.16-3.69-5.11h-.09c0,1.37,0,2.76,0,4.13l1.06,0c0,.29,0,.58,0,.85h-2.93c0-.27,0-.54,0-.83Zm12.82-5c0-.07,0-.13-.09-.15a1.57,1.57,0,0,0-.72-.14,2.17,2.17,0,0,0-1.48.57,3,3,0,0,0-.85,2.2,2.53,2.53,0,0,0,.68,1.95,2.4,2.4,0,0,0,1.67.57,7,7,0,0,0,1.94-.38c.07.31.14.63.18.92a7.92,7.92,0,0,1-2.48.5,4.13,4.13,0,0,1-2.43-.67,3.15,3.15,0,0,1-1.27-2.58,3.93,3.93,0,0,1,1.56-3.22,4.54,4.54,0,0,1,2.79-.85,5.05,5.05,0,0,1,1.61.2c.07.69.12,1.4.16,2.15l-1,.12Zm2.61,5.07.72,0a.07.07,0,0,0,.06,0V485.6h-.79c0-.32,0-.6,0-.85h5.47c.06.59.08,1.22.1,1.86q-.44.06-1,.09l-.19-.83c0-.1-.07-.17-.25-.18a15.36,15.36,0,0,0-1.59-.07H418l0,2.15h1.5a.2.2,0,0,0,.22-.21l.06-.43c.33,0,.65,0,.94,0,0,.35,0,.74,0,1.12s0,.73,0,1l-1,0,0-.46c0-.18-.08-.22-.24-.22-.45,0-.93,0-1.47,0v2.08c0,.2,0,.24.61.24a7.81,7.81,0,0,0,1.45-.09c.11,0,.16-.08.21-.2l.34-.88c.35,0,.67.11,1,.17-.11.64-.25,1.26-.4,1.86H415.6C415.6,491.53,415.6,491.24,415.61,491Zm7.78-.05s.05,0,.05,0V485.6l-.79,0c0-.3,0-.58,0-.83h2.21c1.12,1.56,2.55,3.68,3.55,5.28h.09c0-1.45,0-3-.07-4.42l-1,0c0-.29,0-.58,0-.83h2.88c0,.26,0,.54,0,.84l-.65,0a.06.06,0,0,0,0,.06l0,6a4.61,4.61,0,0,1-1.21.18c-1-1.24-2.42-3.16-3.69-5.11h-.09c0,1.37,0,2.76,0,4.13l1.06,0c0,.29,0,.58,0,.85h-2.93c0-.27,0-.54,0-.83Zm10.36,0s.05,0,.05,0v-5.23a8.69,8.69,0,0,0-1.12,0c-.19,0-.25.08-.26.21l-.21,1.11c-.34,0-.68,0-1-.07.05-.78.09-1.5.13-2.19h5.39l1.18,0c0,.71.08,1.42.11,2.2l-1,.08-.18-1.11c0-.13-.07-.2-.27-.21a9.22,9.22,0,0,0-1.12,0l0,5.27,1,.05c0,.29,0,.56,0,.83h-3.48V491Zm8.4-7.26c0-.29,0-.59,0-.87.79,0,1.79,0,2.73,0a6.7,6.7,0,0,1,2.15.24,2.58,2.58,0,0,1,1.84,2.47,3,3,0,0,1-1.7,2.61,5,5,0,0,1-2,.39,5.17,5.17,0,0,1-.61,0v2.45l1.42,0c0,.28,0,.58,0,.86h-3.86c0-.28,0-.58,0-.86l.79,0s.05,0,.05-.06v-7.15Zm2.47,3.78c.05.11.32.14.63.14a2.27,2.27,0,0,0,1.26-.36,1.93,1.93,0,0,0,.74-1.61,1.88,1.88,0,0,0-2-2,2.9,2.9,0,0,0-.59.05ZM450,491l.72,0a.07.07,0,0,0,.06,0V485.6H450c0-.32,0-.6,0-.85h5.47c.05.59.08,1.22.09,1.86-.29,0-.61.07-.95.09l-.2-.83c0-.1-.07-.17-.25-.18a15.12,15.12,0,0,0-1.58-.07h-.24v2.15h1.5a.2.2,0,0,0,.22-.21l.06-.43c.33,0,.65,0,.94,0,0,.35,0,.74,0,1.12s0,.73,0,1l-1,0,0-.46c0-.18-.09-.22-.24-.22-.46,0-.93,0-1.47,0v2.08c0,.2,0,.24.61.24a7.6,7.6,0,0,0,1.44-.09c.12,0,.17-.08.21-.2l.35-.88c.35,0,.67.11,1,.17-.11.64-.25,1.26-.41,1.86H450C450,491.53,450,491.24,450,491Zm7.14,0a.08.08,0,0,0,.07-.05c.76-1.85,1.79-4.35,2.61-6.22.23,0,.66,0,1.3,0,.74,1.91,1.71,4.5,2.42,6.29l.63,0v.82h-3.06c0-.27,0-.53,0-.82l.78,0s0,0,0-.07c-.11-.32-.25-.72-.37-1,0-.05,0-.05-.07-.05h-2.61c-.13.33-.29.78-.4,1.11l.88,0c0,.29,0,.55,0,.82h-2.78V491Zm3.05-4.73c-.35.93-.74,1.94-1,2.75,0,0,0,.05,0,.05l2.11,0c-.3-.84-.66-1.88-1-2.82Zm4.68-.63c0-.3,0-.58,0-.83h3.3c0,.26,0,.55,0,.84l-.92,0a0,0,0,0,0,0,0l0,5.06c0,.19,0,.23.51.23a10.29,10.29,0,0,0,1.48-.07.29.29,0,0,0,.19-.22l.43-1.19,1,.18c-.16.73-.32,1.48-.49,2.16h-5.44c0-.25,0-.54,0-.83l.72,0a0,0,0,0,0,.05,0V485.6Zm6.75,5.38.72,0a.07.07,0,0,0,.06,0V485.6h-.79c0-.32,0-.6,0-.85h5.47c.06.59.09,1.22.1,1.86q-.44.06-1,.09l-.19-.83c0-.1-.07-.17-.25-.18a15.36,15.36,0,0,0-1.59-.07H474l0,2.15h1.5a.21.21,0,0,0,.23-.21l.05-.43c.33,0,.65,0,.95,0,0,.35,0,.74,0,1.12s0,.73,0,1l-1,0,0-.46c0-.18-.08-.22-.23-.22-.46,0-.93,0-1.48,0v2.08c0,.2,0,.24.62.24a7.76,7.76,0,0,0,1.44-.09c.11,0,.17-.08.21-.2l.34-.88c.35,0,.67.11,1,.17-.11.64-.25,1.26-.4,1.86h-5.51C471.64,491.53,471.64,491.24,471.65,491Z"/><g class="cls-4"><g class="cls-5"><g class="cls-6"><path class="cls-7" d="M1008.42,572.84c0-335.32-271.83-607.16-607.15-607.16S-205.88,237.52-205.88,572.84,66,1180,401.27,1180,1008.42,908.16,1008.42,572.84ZM401.27-34.32c-167.83.25-319.34,68-429.19,177.82l-.25.25a603.28,603.28,0,0,0-148.1,242.12,437.84,437.84,0,0,0-13.15,47.26,598,598,0,0,0-16.32,139.58,82.08,82.08,0,0,0,11.2-.49c92.08-1.46,178.79-23.39,256.25-61.87a595.1,595.1,0,0,0,161.5-115.22l.24-.25C333.31,285,401,133.52,401.27-34.32Zm.07,0C282.49,84.19,127.48,143.44-27.88,143.44h-.35M401.34-34.32C520.19,84.19,675.21,143.44,830.57,143.44M401.27-34.32c.24,167.84,68,319.35,177.82,429.2l.24.25a603.32,603.32,0,0,0,242.13,148.1,437.7,437.7,0,0,0,47.25,13.16,598.62,598.62,0,0,0,139.58,16.32,82.16,82.16,0,0,0-.49-11.21c-1.46-92.08-23.38-178.79-61.87-256.25a595.1,595.1,0,0,0-115.22-161.5l-.24-.25C720.61,33.65,569.1-34.07,401.27-34.32Zm0,13.87C282.77,98.39,223.52,253.41,223.52,408.77v.35A603.42,603.42,0,0,0,290,685.05a437.06,437.06,0,0,0,24.12,42.72A598,598,0,0,0,401.27,838a82.42,82.42,0,0,0,7.58-8.26c64.07-66.15,109.89-143,137.45-225A595.06,595.06,0,0,0,579,409.12v-.35C579,253.41,519.77,98.39,401.27-20.45Z"/></g></g></g></svg>