<svg id="Layer_1" data-name="Layer 1" xmlns="http://www.w3.org/2000/svg" viewBox="0 0 800 460.67"><defs><style>.cls-1{fill:#30261d;}</style></defs><path class="cls-1" d="M385.44,127.13a10.15,10.15,0,0,0-2.31-.14c-.48-.67-1-1.33-1.47-2h0a3.29,3.29,0,0,0-.33-.41c-.52-.69-1.08-1.36-1.66-2v0a1.06,1.06,0,1,1,1.58-1.4s0,0,0,0c1,1.14,1.85,2.31,2.7,3.51h0c.16.22.34.46.5.7.42.59.83,1.18,1.23,1.79Z"/><path class="cls-1" d="M386.57,128.51l.87,1.36a4.3,4.3,0,0,0-.95,0c-.43,0-.84,0-1.28.09l-.24-.35c-.25-.35-.49-.72-.75-1.07a12.39,12.39,0,0,1,2.11-.35Z"/><path class="cls-1" d="M397.21,146.54a2.79,2.79,0,0,0-.56.43,2.55,2.55,0,0,0-.46.71c-.58-1-1.18-2.05-1.76-3.06q-1.35-2.3-2.74-4.57c-.25-.44-.53-.87-.8-1.3s-.53-.86-.8-1.3a2.7,2.7,0,0,0-.46-1.66l0,0a.35.35,0,0,1-.06-.14l-.56.08c-.34-.54-.67-1.09-1-1.62h.16a11,11,0,0,0,1.37-.29,1,1,0,0,0,.33-.13l.6,1,.34.56.05.08v0c.16.27.32.52.48.8l.79,1.32v0c1.24,2.11,2.48,4.26,3.68,6.42C396.24,144.78,396.73,145.66,397.21,146.54Z"/><path class="cls-1" d="M399.82,152.51a.1.1,0,0,1-.05.06.56.56,0,0,1-.22.18.22.22,0,0,1-.11,0,.29.29,0,0,1-.16,0h0a.64.64,0,0,1-.58-.37v-.06a.09.09,0,0,0,0-.05,1.42,1.42,0,0,0-.08-.18h0l-.13-.23a.44.44,0,0,0-.08-.17,2.16,2.16,0,0,0-.19-.37,5.23,5.23,0,0,0-.29-.58,6.61,6.61,0,0,0-.34-.64c-.09-.21-.21-.41-.32-.62h0c-.15-.31-.32-.61-.48-.9a1.9,1.9,0,0,1,.86-1.39c.56,1,1.1,2.08,1.6,3.17a1,1,0,0,1,.14.3.07.07,0,0,1,0,.07,1.17,1.17,0,0,1,.17.38,4.88,4.88,0,0,1,.29.62.34.34,0,0,1,.06.12A.6.6,0,0,1,399.82,152.51Z"/><path class="cls-1" d="M441.93,219.66a109,109,0,0,0-2.16-16c-1-5.23-2.27-10.4-3.74-15.5-.74-2.56-1.49-5.12-2.38-7.65-.45-1.26-.92-2.53-1.46-3.79-.27-.64-.54-1.28-.88-1.94a10,10,0,0,0-1.31-2,46.49,46.49,0,0,0-6-5.57c-.77-.62-1.55-1.25-2.33-1.82a20.59,20.59,0,0,1-4.77-1.14c-.69-.26-1.36-.53-2-.83l1.18,1c2,1.7,4,3.41,5.9,5.17a51.1,51.1,0,0,1,5.25,5.42,5.4,5.4,0,0,1,.78,1.36c.23.53.44,1.12.65,1.71.41,1.19.76,2.42,1.11,3.65.71,2.5,1.35,5,1.94,7.54,1.15,5.09,2.21,10.19,3.07,15.31q.64,3.84,1.12,7.68c.32,2.56.58,5.12.67,7.62.05,1.24.05,2.49,0,3.68a11.74,11.74,0,0,1-.53,3.08,2.34,2.34,0,0,1-.17.39l.07,0c-.11.08-.11.1-.07,0a11.5,11.5,0,0,1-1.32.78,25.62,25.62,0,0,1-3.26,1.49A74.27,74.27,0,0,1,416.52,233a99.08,99.08,0,0,1-30.62.14,74.4,74.4,0,0,1-14.8-3.6,25.45,25.45,0,0,1-3.31-1.45c-.54-.24-1-.6-1.46-.85a1.72,1.72,0,0,1-.24-.48,11.76,11.76,0,0,1-.57-3.2c-.08-1.22-.1-2.47-.07-3.73a123.33,123.33,0,0,1,1.73-15.38q1.24-7.69,3.09-15.34c.61-2.53,1.21-5.06,1.94-7.55.36-1.25.73-2.48,1.16-3.68.21-.59.44-1.19.68-1.75a5.66,5.66,0,0,1,.84-1.42,48.14,48.14,0,0,1,5.36-5.44c2-1.74,4-3.42,6-5.09l1.17-.94a20.57,20.57,0,0,1-2,.62,21,21,0,0,1-2.85.53c-1.3,1-2.58,2-3.86,3.09a48.75,48.75,0,0,0-5.9,5.57,8.79,8.79,0,0,0-1.25,1.9c-.32.64-.59,1.26-.85,1.9-.53,1.25-1,2.52-1.41,3.78-.86,2.53-1.66,5.06-2.37,7.62q-2.13,7.68-3.72,15.48A114.33,114.33,0,0,0,361,219.68a41.26,41.26,0,0,0,0,4.17,15.71,15.71,0,0,0,.75,4.56,5.55,5.55,0,0,0,1.89,2.74,21.12,21.12,0,0,0,1.93,1.22,30.2,30.2,0,0,0,3.86,1.77,79.37,79.37,0,0,0,15.76,4.1,107.35,107.35,0,0,0,16.11,1.39,106.13,106.13,0,0,0,16.15-1.25,80.44,80.44,0,0,0,15.85-3.95,32.34,32.34,0,0,0,3.92-1.78,22.39,22.39,0,0,0,2-1.2,6.24,6.24,0,0,0,2-2.91,17.2,17.2,0,0,0,.8-4.67C442,222.43,442,221,441.93,219.66Zm-24.27-57.29q-5.12-3.75-10.37-7.22l-.84-.56c-.29-.21-.6-.4-.89-.58l-.22-.16s0,0,.07,0a1.32,1.32,0,0,1,.3-.24,7.39,7.39,0,0,0-1.06-.88h-.17l-.71.76,0,.05a.7.7,0,0,0-.09.66,4.34,4.34,0,0,0,.48.48l4.06,3.28,1,.8q.48.38,1,.78l1.77,1.46a29.56,29.56,0,0,0,5.27,2.57,20.22,20.22,0,0,0,3.23.88C419.47,163.73,418.57,163,417.66,162.37Zm-5-15.25c-1.15.43-2.29.89-3.42,1.37a0,0,0,0,1,0,0c-1.39,1.15-2.8,2.27-4.11,3.55a3.44,3.44,0,0,0-.27.27,1.79,1.79,0,0,0-.27.28h0l.09.07a3,3,0,0,0,.42,0l.45,0c.81-.13,1.64-.36,2.13-.47h0c2.84-2,5.92-3.86,8.89-5.73.47-.27.91-.56,1.38-.83A35.64,35.64,0,0,0,412.65,147.12Zm-14.93,7.77h0l-.41-.85s0-.08-.06-.13l0,0c-.86,1.23-1.79,2.4-2.65,3.62q1.32-1.06,2.67-2.1l.58-.43Zm1-1.32s0,0-.05-.08v0a5.68,5.68,0,0,0-.42-.44.6.6,0,0,0-.17-.2.59.59,0,0,0-.18-.17s0-.08-.09-.11a.12.12,0,0,0-.09-.08.4.4,0,0,0-.12-.16.18.18,0,0,0-.07,0s0-.05-.06-.08a.35.35,0,0,0-.13-.11.48.48,0,0,1,.07.16.29.29,0,0,1,0,.11l.09.24a.17.17,0,0,0,0,.08l.06,0s0,0,0,.05.11.29.17.41a.53.53,0,0,0,.08.15h0c.15.36.29.66.42.92a2.6,2.6,0,0,1,.16.35l.14-.11h0a0,0,0,0,1,0,0s0,0,.06-.06a.69.69,0,0,0,.13-.2A.61.61,0,0,0,398.73,153.57ZM396.21,151c-.89-.82-1.81-1.59-2.74-2.34l-.55-.43c-.49-.26-1-.5-1.48-.74a33.37,33.37,0,0,0-9.38-3.1c1.41.82,2.82,1.63,4.21,2.46,2.43,1.49,4.91,2.95,7.28,4.52l.73.25c.74.27,1.56.45,2.33.69A12.53,12.53,0,0,1,396.21,151Zm.6,1.89a2.83,2.83,0,0,1-.48.43l.24.19a3.85,3.85,0,0,0,.31-.43C396.86,153,396.83,152.91,396.81,152.85Zm-11.87,9.74c-.37.27-.72.54-1.09.83.47-.08.91-.17,1.36-.29a22.25,22.25,0,0,0,4.42-1.68c.89-.72,1.81-1.44,2.7-2.14l0,0c.35-.51.72-1,1.1-1.56.55-.77,1.11-1.52,1.67-2.26l.33-.46C391.9,157.47,388.38,160,384.94,162.59Zm2.91-18.19c-.51-.37-1-.72-1.55-1.07-.89-.63-1.81-1.25-2.7-1.84-1.57-1-3.15-2.07-4.74-3.06a20.47,20.47,0,0,0-2.58-.45,17.8,17.8,0,0,0-4.78.24l2.8,1.62,1.07.62,0,0,2.49,1.44,2.64,1.52A25.57,25.57,0,0,1,390,146C389.28,145.42,388.57,144.91,387.85,144.4Zm53.81-15.81c-.05-.18-.13-.34-.19-.5l-.13-.22-.06-.11c-.21-.31-.39-.61-.61-.9a12.28,12.28,0,0,0-1.39-1.58,18.91,18.91,0,0,0-3.19-2.42c-2.17-1.34-4.27-2.41-6.22-3.68s-3.95-2.69-6-4a37.22,37.22,0,0,0-6.72-3.57,12,12,0,0,0-2-.57,8.16,8.16,0,0,0-1.15-.11h-.63a2.43,2.43,0,0,0-1.11.34,2.63,2.63,0,0,0-.89.8,2.05,2.05,0,0,0-.19.33l-.11.23-.17.37-.24.51a16.75,16.75,0,0,0-.77,1.74,2.41,2.41,0,0,0-.16.42c-.87,2.17-1.57,4.37-2.24,6.54-1.41,4.67-2.69,9.35-3.78,14.07l-1.61,7.07-.76,3.55-.08.35,0-.21-.72-3.4-1.55-6.82c-1-4.53-2.24-9-3.57-13.52-.66-2.24-1.39-4.46-2.21-6.7-.08-.2-.16-.39-.22-.58-.23-.56-.43-1.12-.69-1.68a7.54,7.54,0,0,0-.5-1.09l-.41-.85a2.29,2.29,0,0,0-.53-.75,2.85,2.85,0,0,0-1-.61,2.29,2.29,0,0,0-.59-.12l-.29,0-.56,0c-.37,0-.72,0-1.07.1a18.29,18.29,0,0,0-7,3.12,50,50,0,0,0-5.62,4.51A102.91,102.91,0,0,0,365,129l-.54.69-.27.35a2.82,2.82,0,0,0-.55,1.06,3.29,3.29,0,0,0-.08,1.17h0a2.72,2.72,0,0,0,.32,1,1.19,1.19,0,0,0,.08.16,3.14,3.14,0,0,0,.83.91l.28.18c1.15-.82,2.3-1.62,3.47-2.37l-.8-.48-.3.4-.2.23a.4.4,0,0,0,.07-.16.84.84,0,0,0-.08-.64,2,2,0,0,0-.19-.24l.19.11.51.3.22-.27c.74-.91,1.46-1.79,2.21-2.69h0c.43-.5.85-1,1.29-1.46q2.71-3.09,5.68-5.9a46.55,46.55,0,0,1,5.12-4.29,15.25,15.25,0,0,1,5.54-2.67c.22,0,.43-.05.66-.08h.09l-.11-.23,0,0a.84.84,0,0,0,.26.17.53.53,0,0,0,.17,0h-.35l.26.46c.52.91.94,2,1.39,3,.85,2.1,1.65,4.24,2.38,6.44,1.49,4.35,2.8,8.78,4.16,13.21l1.94,6.67.61,2.1a2.64,2.64,0,0,1,1.77,1.47l.11-.11.1-.08a2.69,2.69,0,0,1,1.73-.66l.85-3,2-6.94c1.42-4.61,2.77-9.22,4.35-13.75.79-2.24,1.6-4.49,2.56-6.62.24-.53.47-1.07.74-1.55l.36-.67h0l-.28,0a.43.43,0,0,0,.26-.1.48.48,0,0,0,.23-.19s0,0,0,.07l-.09.17,0,.07c.2,0,.4.06.6.08a8.81,8.81,0,0,1,1.45.44,34.65,34.65,0,0,1,6,3.35c2,1.33,3.89,2.72,6,4.09s4.31,2.53,6.23,3.75a14.85,14.85,0,0,1,2.56,2,10.31,10.31,0,0,1,1,1.12l.22.32.05,0-.05,0-1.48.91-.21.13-.69.42L433.65,132c1.11.72,2.23,1.48,3.36,2.27l1.29-.77.32-.19.9-.53.35-.21.38-.24a2.84,2.84,0,0,0,.82-.72,3.23,3.23,0,0,0,.72-2A3.07,3.07,0,0,0,441.66,128.59ZM426.16,138a17.09,17.09,0,0,0-2.87.53c-1.5,1-3,2-4.49,3h0c-.88.59-1.74,1.2-2.62,1.83-.37.24-.74.51-1.11.76-1.2.87-2.4,1.73-3.57,2.64l.9-.35a32.74,32.74,0,0,1,7.39-1.92l3.84-2.3,2.74-1.63a0,0,0,0,1,0,0c.87-.5,1.71-1,2.58-1.52l1.44-.85A17.17,17.17,0,0,0,426.16,138Zm-24.71,10.43-.13.2a.41.41,0,0,1,0,.16,5.85,5.85,0,0,0,.19,1.15c0,.11.08.24.12.35a1.74,1.74,0,0,0,.14.38.29.29,0,0,0,0,.1,1.19,1.19,0,0,0,.08-.16.89.89,0,0,1,.05-.13l0-.13.07-.22,0-.21.26-.86.4-1.43A2,2,0,0,0,401.45,148.41Zm-.44,2.44a6.4,6.4,0,0,1-.26-.85.68.68,0,0,1,0-.19l0,0v0a2.26,2.26,0,0,1-.09-.57,1.46,1.46,0,0,1-.05-.4,1.06,1.06,0,0,0-.05-.31,1.92,1.92,0,0,0-1-1.36l.08.29.48,1.68,0,.11.14.48.07.24.06.24,0,.18.05.14a1.88,1.88,0,0,0,.14.34,1,1,0,0,0,.21.24,1.65,1.65,0,0,0,.29.18C401.1,151.12,401.05,151,401,150.85Zm-3.29,1.6a.27.27,0,0,1,0,.12.09.09,0,0,1,.07,0A.12.12,0,0,0,397.72,152.45Zm0,2.44c-.16.2-.31.39-.49.58l.58-.43Zm1-1.32a3.91,3.91,0,0,1-.3.41l-.16.23a2.6,2.6,0,0,1,.16.35l.14-.11h0a0,0,0,0,1,0,0s0,0,.06-.06a.69.69,0,0,0,.13-.2A.61.61,0,0,0,398.73,153.57Z"/><path class="cls-1" d="M404.94,149.42a2,2,0,0,1,0,.43,1.61,1.61,0,0,1-.1.36.61.61,0,0,1-.05.12h.05a2.48,2.48,0,0,0-.17.32c-.08.14-.15.3-.23.45a.05.05,0,0,1,0,0v0c-.06.13-.13.24-.19.35v0h0l-.23.34c-.11.14-.2.29-.31.42a.92.92,0,0,1-.17.22c-.06.1-.14.18-.2.27a.56.56,0,0,1-.4-.05.64.64,0,0,1-.27-.24.59.59,0,0,1-.05-.6c.11-.28.24-.53.36-.8a.61.61,0,0,1,.09-.18,1.14,1.14,0,0,1,.17-.35,0,0,0,0,0,0,0h0a3.54,3.54,0,0,1,.16-.34l.1-.21c.3-.62.61-1.23.92-1.82A1.93,1.93,0,0,1,404.94,149.42Z"/><path class="cls-1" d="M414.52,134.09c-.35.55-.7,1.09-1,1.64-.2,0-.4-.07-.6-.1a.58.58,0,0,1-.05.14l0,0a2.77,2.77,0,0,0-.46,1.71c-.27.43-.54.85-.79,1.28s-.55.88-.81,1.31q-1.39,2.26-2.74,4.55c-.8,1.37-1.61,2.78-2.4,4.19a1.08,1.08,0,0,0-.13-.42,2.42,2.42,0,0,0-.75-1c.64-1.2,1.3-2.37,1.94-3.57q1.81-3.28,3.73-6.53l.72-1.23.43-.72a.67.67,0,0,1,.11-.18c.1-.19.21-.36.32-.54.21-.35.4-.69.63-1a1.35,1.35,0,0,0,.35.14,10.31,10.31,0,0,0,1.37.29Z"/><path class="cls-1" d="M418.27,128.51c-.26.37-.51.74-.77,1.1l-.21.32h0c-.45,0-.88-.08-1.33-.09a4.65,4.65,0,0,0-1,0c.27-.46.56-.91.86-1.38l.24-.35A14.77,14.77,0,0,1,418.27,128.51Z"/><path class="cls-1" d="M422.86,122.59s0,0,0,0l0,0c-.56.62-1.12,1.28-1.65,2a3.15,3.15,0,0,0-.31.41c-.52.64-1,1.3-1.49,2a10.69,10.69,0,0,0-2.37.14l-.31.07c.4-.61.8-1.2,1.22-1.79.16-.24.32-.48.5-.71q1.28-1.82,2.73-3.57a1.14,1.14,0,0,1,1.59-.12A1.12,1.12,0,0,1,422.86,122.59Z"/><path class="cls-1" d="M390.82,115a24.13,24.13,0,0,1,5.36-1.79,21.67,21.67,0,0,1,2.83-.43,13.71,13.71,0,0,1,3,0,10.26,10.26,0,0,1,1.62.35l1.28.46a6.6,6.6,0,0,0,2,.51,7.52,7.52,0,0,0,2.21-.69,4.67,4.67,0,0,1,3.27-.19.64.64,0,0,1-.15,1.24l-.18,0a5.57,5.57,0,0,0-2,.94c-.39.24-.65.47-1.13.75a5,5,0,0,1-1.68.67,7.22,7.22,0,0,1-3.32-.42l-1.32-.43a6.9,6.9,0,0,0-1-.25,26.75,26.75,0,0,0-5.07,0c-1.76.12-3.55.32-5.35.51h0a.66.66,0,0,1-.36-1.25Z"/><path class="cls-1" d="M406.53,121.09a64.24,64.24,0,0,1-1.73,8.69c-.75,2.84-1.59,5.64-2.55,8.42a.66.66,0,0,1-.84.4.65.65,0,0,1-.41-.8v0c.83-2.75,1.56-5.57,2.18-8.38a64,64,0,0,0,1.33-8.49h0a1,1,0,0,1,2,.15Z"/><path class="cls-1" d="M409.85,191.69a3,3,0,0,0-.3-.84,4.47,4.47,0,0,0-1-1.33,3.75,3.75,0,0,0-3.24-.91,5.44,5.44,0,0,0-2.49,1.21,7.48,7.48,0,0,0-.88.9,6,6,0,0,0-.87-.95,5.54,5.54,0,0,0-2.52-1.24,3.86,3.86,0,0,0-3.32.92,4.86,4.86,0,0,0-1,1.36,3.13,3.13,0,0,0-.31.87,2.75,2.75,0,0,0-.11,1,5.16,5.16,0,0,0,1.26,3.06,10,10,0,0,0,1.91,1.8,20.51,20.51,0,0,0,4.17,2.44h0a1.8,1.8,0,0,0,1.49,0,20.19,20.19,0,0,0,4.14-2.48,12.82,12.82,0,0,0,1.89-1.81,5.17,5.17,0,0,0,1.22-3A2.43,2.43,0,0,0,409.85,191.69Z"/><path class="cls-1" d="M399.82,151.77a1.3,1.3,0,0,0-.38-.52,2.72,2.72,0,0,0-.34-.24s0,0,0,0-.21-.13-.32-.18c-.4-.24-.8-.46-1.22-.67-.25-.14-.51-.29-.77-.41a4.21,4.21,0,0,1,.09.49,14.86,14.86,0,0,0,.49,1.83.48.48,0,0,1,.07.16.29.29,0,0,1,0,.11l.09.24a.17.17,0,0,0,0,.08l.06,0s0,0,0,.05.11.29.17.41a.53.53,0,0,0,.08.15h0c.15.36.29.66.42.92a2.6,2.6,0,0,1,.16.35s0,0,0,0a1.1,1.1,0,0,0,.11-.14h0a0,0,0,0,1,0,0l0-.08c.05-.06.1-.11.15-.18s.3-.43.45-.64l.23-.33a.86.86,0,0,0,.1-.16,1.45,1.45,0,0,0,.21-.45.13.13,0,0,0,0-.08A1.17,1.17,0,0,0,399.82,151.77Zm-2,3.27-.09-.15h0l-.41-.85s0-.08-.06-.13l0,0c-.86,1.23-1.79,2.4-2.65,3.62q-.24.3-.45.6c-.19.28-.39.53-.56.8s-.51.71-.75,1.06l.78-.58a24,24,0,0,0,3.34-3c.37-.4.71-.8,1-1.17C397.9,155.2,397.85,155.13,397.81,155Zm-1-2.19a2.83,2.83,0,0,1-.48.43c-.4.37-.85.72-1.34,1.12a27.47,27.47,0,0,1-3.3,2.25,20.28,20.28,0,0,1-9.77,2.69,16.73,16.73,0,0,1-3.06-.27,8.43,8.43,0,0,1-3.33-1.22,4.22,4.22,0,0,1-1.87-2.91,4.37,4.37,0,0,1,.43-2.24c1.33-3.07,4.26-4.27,7.35-4.27.35,0,.72,0,1.08,0a36.24,36.24,0,0,1,7.81,1.77c1.08.32,2.15.69,3.22,1.08l.73.25c.74.27,1.56.45,2.33.69a12.53,12.53,0,0,1-.4-1.31,9.77,9.77,0,0,1-.23-1.2l-.73-.39c-.77-.4-1.54-.8-2.33-1.18-.49-.26-1-.5-1.48-.74a33.37,33.37,0,0,0-9.38-3.1,14.23,14.23,0,0,0-1.84-.13,9.82,9.82,0,0,0-1.21.07,12,12,0,0,0-9.16,5.72,9.28,9.28,0,0,0-.44,8.9,9.76,9.76,0,0,0,6.6,4.53,18.93,18.93,0,0,0,3.78.38,21.09,21.09,0,0,0,4.06-.4c.47-.08.91-.17,1.36-.29a22.25,22.25,0,0,0,4.42-1.68,17.72,17.72,0,0,0,2-1.15l.68-1,0,0c.35-.51.72-1,1.1-1.56.55-.77,1.11-1.52,1.67-2.26l.33-.46c.39-.52.77-1,1.12-1.54a3.85,3.85,0,0,0,.31-.43C396.86,153,396.83,152.91,396.81,152.85Z"/><path class="cls-1" d="M397.72,152.45v0a1.77,1.77,0,0,1,0-.32h0a.39.39,0,0,1,0-.15.68.68,0,0,1,0-.19c-.11.15-.23.29-.32.42a.1.1,0,0,0-.06.05.29.29,0,0,1,0,.11l.09.24a.17.17,0,0,0,0,.08l.06,0,0,0h0l.14.07a1.38,1.38,0,0,1,0-.2A.27.27,0,0,0,397.72,152.45Zm0,0v0a1.77,1.77,0,0,1,0-.32h0a.39.39,0,0,1,0-.15.68.68,0,0,1,0-.19c-.11.15-.23.29-.32.42a.1.1,0,0,0-.06.05.29.29,0,0,1,0,.11l.09.24a.17.17,0,0,0,0,.08l.06,0,0,0h0l.14.07a1.38,1.38,0,0,1,0-.2A.27.27,0,0,0,397.72,152.45Zm0,0v0a1.77,1.77,0,0,1,0-.32h0a.39.39,0,0,1,0-.15.68.68,0,0,1,0-.19c-.11.15-.23.29-.32.42a.1.1,0,0,0-.06.05.29.29,0,0,1,0,.11l.09.24a.17.17,0,0,0,0,.08l.06,0,0,0h0l.14.07a1.38,1.38,0,0,1,0-.2A.27.27,0,0,0,397.72,152.45Zm0,0v0a1.77,1.77,0,0,1,0-.32h0a.39.39,0,0,1,0-.15.68.68,0,0,1,0-.19c-.11.15-.23.29-.32.42a.1.1,0,0,0-.06.05.29.29,0,0,1,0,.11l.09.24a.17.17,0,0,0,0,.08l.06,0,0,0h0l.14.07a1.38,1.38,0,0,1,0-.2A.27.27,0,0,0,397.72,152.45Zm0,0v0a1.77,1.77,0,0,1,0-.32h0a.39.39,0,0,1,0-.15.68.68,0,0,1,0-.19c-.11.15-.23.29-.32.42a.1.1,0,0,0-.06.05.29.29,0,0,1,0,.11l.09.24a.17.17,0,0,0,0,.08l.06,0,0,0h0l.14.07a1.38,1.38,0,0,1,0-.2A.27.27,0,0,0,397.72,152.45Zm0,0v0a1.77,1.77,0,0,1,0-.32h0a.39.39,0,0,1,0-.15.68.68,0,0,1,0-.19c-.11.15-.23.29-.32.42a.1.1,0,0,0-.06.05.29.29,0,0,1,0,.11l.09.24a.17.17,0,0,0,0,.08l.06,0,0,0h0l.14.07a1.38,1.38,0,0,1,0-.2A.27.27,0,0,0,397.72,152.45Zm0,0v0a1.77,1.77,0,0,1,0-.32h0a.39.39,0,0,1,0-.15.68.68,0,0,1,0-.19c-.11.15-.23.29-.32.42a.1.1,0,0,0-.06.05.29.29,0,0,1,0,.11l.09.24s0,.08.05.11l0,0h0l.14.07a1.38,1.38,0,0,1,0-.2A.27.27,0,0,0,397.72,152.45Zm0,0v0a1.77,1.77,0,0,1,0-.32h0a.39.39,0,0,1,0-.15.68.68,0,0,1,0-.19c-.11.15-.23.29-.32.42a.1.1,0,0,0-.06.05.29.29,0,0,1,0,.11l.09.24s0,.08.05.11l0,0h0l.14.07a1.38,1.38,0,0,1,0-.2A.27.27,0,0,0,397.72,152.45Zm0,0v0a1.77,1.77,0,0,1,0-.32h0a.39.39,0,0,1,0-.15.68.68,0,0,1,0-.19c-.11.15-.23.29-.32.42a.1.1,0,0,0-.06.05.29.29,0,0,1,0,.11l.09.24s0,.08.05.11l0,0h0l.14.07a1.38,1.38,0,0,1,0-.2A.27.27,0,0,0,397.72,152.45Zm-.25-.29a.1.1,0,0,0-.06.05.29.29,0,0,1,0,.11l.09.24s0,.08.05.11l0,0h0a.33.33,0,0,1,.11-.13.27.27,0,0,0,0-.12v0a1.77,1.77,0,0,1,0-.32h0a.39.39,0,0,1,0-.15.68.68,0,0,1,0-.19C397.68,151.89,397.56,152,397.47,152.16Zm0,0a.1.1,0,0,0-.06.05.29.29,0,0,1,0,.11l.09.24a1.19,1.19,0,0,1,.07-.27.4.4,0,0,1,.12.16v0a1.77,1.77,0,0,1,0-.32h0a.39.39,0,0,1,0-.15.68.68,0,0,1,0-.19C397.68,151.89,397.56,152,397.47,152.16Zm0,0s.06.05.06.08a.18.18,0,0,1,.07,0,.4.4,0,0,1,.12.16v0a1.77,1.77,0,0,1,0-.32h0a.39.39,0,0,1,0-.15.68.68,0,0,1,0-.19C397.68,151.89,397.56,152,397.47,152.16Zm2.72-.51a1.54,1.54,0,0,0-.48-.68l-.32-.24-.07,0-.06,0-.21-.12c-.6-.36-1.21-.69-1.84-1h0c-.16-.1-.32-.18-.48-.26,0,.16,0,.31,0,.47a4.21,4.21,0,0,1,.09.49c.35.18.68.35,1,.56a4.48,4.48,0,0,1,.56.32l.35.19.08.05a1.75,1.75,0,0,1,.27.16,1,1,0,0,1,.32.4.53.53,0,0,1,0,.35,1,1,0,0,1-.13.4.47.47,0,0,0-.06.15h0c0,.06-.08.11-.11.17s0,0,0,.05l-.39.55a3.91,3.91,0,0,1-.3.41l-.16.23a2.6,2.6,0,0,1,.16.35s0,0,0,0a.64.64,0,0,1,.06.11c.07.11.1.18.13.23l0,0h0v0c.08-.11.17-.21.24-.3.26-.34.5-.66.71-1,.06-.08.11-.17.18-.25s.12-.18.19-.32A1.81,1.81,0,0,0,400.19,151.65ZM398,155.36a.3.3,0,0,1-.05-.1c0-.06-.08-.13-.12-.22l-.09-.15c-.16.2-.31.39-.49.58s-.38.46-.59.69a23.54,23.54,0,0,1-3.09,2.81c-.26.36-.51.71-.75,1.06s-.42.58-.61.88c.56-.35,1.1-.74,1.63-1.14a26.31,26.31,0,0,0,3.3-3c.3-.46.59-.93.89-1.37C398,155.39,398,155.37,398,155.36Zm-.51-3.2s.06.05.06.08a.18.18,0,0,1,.07,0,.4.4,0,0,1,.12.16v0a1.77,1.77,0,0,1,0-.32h0a.39.39,0,0,1,0-.15.68.68,0,0,1,0-.19C397.68,151.89,397.56,152,397.47,152.16Zm0,0s.06.05.06.08a.18.18,0,0,1,.07,0,.4.4,0,0,1,.12.16v0a1.77,1.77,0,0,1,0-.32h0a.39.39,0,0,1,0-.15.68.68,0,0,1,0-.19C397.68,151.89,397.56,152,397.47,152.16Zm0,0a.1.1,0,0,0-.06.05.29.29,0,0,1,0,.11l.09.24s0,.08.05.11l0,0h0a.33.33,0,0,1,.11-.13.27.27,0,0,0,0-.12v0a1.77,1.77,0,0,1,0-.32h0a.39.39,0,0,1,0-.15.68.68,0,0,1,0-.19C397.68,151.89,397.56,152,397.47,152.16Zm.25.29v0a1.77,1.77,0,0,1,0-.32h0a.39.39,0,0,1,0-.15.68.68,0,0,1,0-.19c-.11.15-.23.29-.32.42a.1.1,0,0,0-.06.05.29.29,0,0,1,0,.11l.09.24s0,.08.05.11l0,0h0l.14.07a1.38,1.38,0,0,1,0-.2A.27.27,0,0,0,397.72,152.45Zm0,0v0a1.77,1.77,0,0,1,0-.32h0a.39.39,0,0,1,0-.15.68.68,0,0,1,0-.19c-.11.15-.23.29-.32.42a.1.1,0,0,0-.06.05.29.29,0,0,1,0,.11l.09.24s0,.08.05.11l0,0h0l.14.07a1.38,1.38,0,0,1,0-.2A.27.27,0,0,0,397.72,152.45Zm0,0v0a1.77,1.77,0,0,1,0-.32h0a.39.39,0,0,1,0-.15.68.68,0,0,1,0-.19c-.11.15-.23.29-.32.42a.1.1,0,0,0-.06.05.29.29,0,0,1,0,.11l.09.24s0,.08.05.11l0,0h0l.14.07a1.38,1.38,0,0,1,0-.2A.27.27,0,0,0,397.72,152.45Zm0,0v0a1.77,1.77,0,0,1,0-.32h0a.39.39,0,0,1,0-.15.68.68,0,0,1,0-.19c-.11.15-.23.29-.32.42a.1.1,0,0,0-.06.05.29.29,0,0,1,0,.11l.09.24a.17.17,0,0,0,0,.08l.06,0,0,0h0l.14.07a1.38,1.38,0,0,1,0-.2A.27.27,0,0,0,397.72,152.45Zm0,0v0a1.77,1.77,0,0,1,0-.32h0a.39.39,0,0,1,0-.15.68.68,0,0,1,0-.19c-.11.15-.23.29-.32.42a.1.1,0,0,0-.06.05.29.29,0,0,1,0,.11l.09.24a.17.17,0,0,0,0,.08l.06,0,0,0h0l.14.07a1.38,1.38,0,0,1,0-.2A.27.27,0,0,0,397.72,152.45Zm0,0v0a1.77,1.77,0,0,1,0-.32h0a.39.39,0,0,1,0-.15.68.68,0,0,1,0-.19c-.11.15-.23.29-.32.42a.1.1,0,0,0-.06.05.29.29,0,0,1,0,.11l.09.24a.17.17,0,0,0,0,.08l.06,0,0,0h0l.14.07a1.38,1.38,0,0,1,0-.2A.27.27,0,0,0,397.72,152.45Zm0,0v0a1.77,1.77,0,0,1,0-.32h0a.39.39,0,0,1,0-.15.68.68,0,0,1,0-.19c-.11.15-.23.29-.32.42a.1.1,0,0,0-.06.05.29.29,0,0,1,0,.11l.09.24a.17.17,0,0,0,0,.08l.06,0,0,0h0l.14.07a1.38,1.38,0,0,1,0-.2A.27.27,0,0,0,397.72,152.45Zm0,0v0a1.77,1.77,0,0,1,0-.32h0a.39.39,0,0,1,0-.15.68.68,0,0,1,0-.19c-.11.15-.23.29-.32.42a.1.1,0,0,0-.06.05.29.29,0,0,1,0,.11l.09.24a.17.17,0,0,0,0,.08l.06,0,0,0h0l.14.07a1.38,1.38,0,0,1,0-.2A.27.27,0,0,0,397.72,152.45Zm0,0v0a1.77,1.77,0,0,1,0-.32h0a.39.39,0,0,1,0-.15.68.68,0,0,1,0-.19c-.11.15-.23.29-.32.42a.1.1,0,0,0-.06.05.29.29,0,0,1,0,.11l.09.24a.17.17,0,0,0,0,.08l.06,0,0,0h0l.14.07a1.38,1.38,0,0,1,0-.2A.27.27,0,0,0,397.72,152.45Zm0,0v0a1.77,1.77,0,0,1,0-.32h0a.39.39,0,0,1,0-.15.68.68,0,0,1,0-.19c-.11.15-.23.29-.32.42a.1.1,0,0,0-.06.05.29.29,0,0,1,0,.11l.09.24a.17.17,0,0,0,0,.08l.06,0,0,0h0l.14.07a1.38,1.38,0,0,1,0-.2A.27.27,0,0,0,397.72,152.45Zm0,0v0a1.77,1.77,0,0,1,0-.32h0a.39.39,0,0,1,0-.15.68.68,0,0,1,0-.19c-.11.15-.23.29-.32.42a.1.1,0,0,0-.06.05.29.29,0,0,1,0,.11l.09.24a.17.17,0,0,0,0,.08l.06,0,0,0h0l.14.07a1.38,1.38,0,0,1,0-.2A.27.27,0,0,0,397.72,152.45Zm0,0v0a1.77,1.77,0,0,1,0-.32h0a.39.39,0,0,1,0-.15.68.68,0,0,1,0-.19c-.11.15-.23.29-.32.42a.1.1,0,0,0-.06.05.29.29,0,0,1,0,.11l.09.24a.17.17,0,0,0,0,.08l.06,0,0,0h0l.14.07a1.38,1.38,0,0,1,0-.2A.27.27,0,0,0,397.72,152.45Z"/><path class="cls-1" d="M404.19,151.5v0h0l-.23.34c-.11.14-.2.29-.31.42a.92.92,0,0,1-.17.22c-.06.1-.14.18-.2.27s-.24.29-.36.42a2.9,2.9,0,0,0-.25-.58.39.39,0,0,1-.06-.13,7.22,7.22,0,0,1-.49-1,3.18,3.18,0,0,1-.14-.37.38.38,0,0,1-.06-.13.75.75,0,0,1-.08-.24,0,0,0,0,0,0,0s0,0,0-.05a.29.29,0,0,1,0-.1.29.29,0,0,1,.11-.06,1,1,0,0,1,.53-.14,0,0,0,0,1,0,0h.12a1.46,1.46,0,0,1,.58.11h0a0,0,0,0,1,0,0,1.25,1.25,0,0,1,.4.24l.19.19C403.92,151.17,404.06,151.33,404.19,151.5Z"/><path class="cls-1" d="M405.07,152.65a3,3,0,0,1-.42,0l-.09-.07h0l-.11-.08a.05.05,0,0,0,0,0,3.15,3.15,0,0,0,.22-.33,1,1,0,0,1,.15.17Z"/><path class="cls-1" d="M409.63,159.47c-.29-.19-.56-.38-.83-.59l0,0a42.78,42.78,0,0,1-3.53-3c-.4-.39-.78-.77-1.12-1.17a4.34,4.34,0,0,1-.48-.48l0,0a3.08,3.08,0,0,1-.24-.26,12.24,12.24,0,0,0,1-1.18h.32a7.39,7.39,0,0,1,1.06.88v0l0,.06a0,0,0,0,0,0,0c.22.32.43.64.66,1,.44.66.89,1.33,1.34,2s.89,1.37,1.36,2.11Q409.39,159.08,409.63,159.47Z"/><path class="cls-1" d="M420.17,195.39a23.9,23.9,0,0,1-1.21,7.26,2.26,2.26,0,0,1-2.15,1.51,2,2,0,0,1-.75-.13,2.27,2.27,0,0,1-1.38-2.88.26.26,0,0,1,0-.1v0a20.31,20.31,0,0,0,1.19-5.87,44.13,44.13,0,0,0,0-6.4A61.75,61.75,0,0,0,413.63,176a49.24,49.24,0,0,0-2.18-6.11c-.43-1-.88-1.94-1.4-2.93L408.51,164c-1.06-1.95-2.13-3.89-3.25-5.79-.7-1.16-1.41-2.34-2.16-3.44.5.52,1,1.07,1.58,1.6a36.89,36.89,0,0,0,3.64,3.13c.51.39,1,.75,1.52,1.09.41.66.81,1.31,1.2,2l1.69,2.93c.56,1,1.12,2,1.62,3a55.07,55.07,0,0,1,2.59,6.41,66.4,66.4,0,0,1,2.94,13.46A50.63,50.63,0,0,1,420.17,195.39Z"/><path class="cls-1" d="M432.83,149.07a14,14,0,0,0-9.7-4l-.65,0a21.61,21.61,0,0,0-4.53.5,35.64,35.64,0,0,0-5.3,1.55c-1.15.43-2.29.89-3.42,1.37a0,0,0,0,1,0,0l-2.59,1.1c-.3.13-.62.26-.94.37v0a2.42,2.42,0,0,1-.13.48,10.18,10.18,0,0,1-.64,1.33c-.08.12-.15.24-.23.35a3.15,3.15,0,0,1-.22.33.05.05,0,0,1,0,0l.11.08h0l.09.07a3,3,0,0,0,.42,0l.45,0c.81-.13,1.64-.36,2.13-.47h0c1.5-.37,3-.9,4.44-1.32a38.87,38.87,0,0,1,8.44-1.69c.27,0,.52,0,.78,0a12.34,12.34,0,0,1,7.39,2.19,5.06,5.06,0,0,1,2.31,4.1,4.84,4.84,0,0,1-1.46,2.91,9.36,9.36,0,0,1-5.74,2.56,9.66,9.66,0,0,1-1.2.07,17.55,17.55,0,0,1-5.12-.85,32.79,32.79,0,0,1-7.67-3.55c-1-.63-2-1.32-3-2-.14-.11-.3-.21-.45-.32s-.38-.34-.62-.56a0,0,0,0,1,0,0l0-.06v0a7.39,7.39,0,0,0-1.06-.88h-.32a12.24,12.24,0,0,1-1,1.18,3.08,3.08,0,0,0,.24.26l0,0a4.34,4.34,0,0,0,.48.48c.34.4.72.78,1.12,1.17a42.78,42.78,0,0,0,3.53,3l0,0c.27.21.54.4.83.59a7.07,7.07,0,0,0,.82.58c.46.32.94.62,1.43.91a29.56,29.56,0,0,0,5.27,2.57,20.22,20.22,0,0,0,3.23.88,11.45,11.45,0,0,0,1.63.24,13.83,13.83,0,0,0,1.43.07,13.12,13.12,0,0,0,9.07-3.47,9,9,0,0,0,2.78-4.61A8.67,8.67,0,0,0,432.83,149.07Z"/><path class="cls-1" d="M398,155.36s0,0,0,0c-.3.44-.59.91-.89,1.37l-1.49,2.4c-1.09,1.79-2.15,3.62-3.14,5.44s-1.93,3.7-2.73,5.59a52.32,52.32,0,0,0-2.05,5.8A81.77,81.77,0,0,0,385,188.09a49.62,49.62,0,0,0-.48,6,20.44,20.44,0,0,0,.56,5.6,2.56,2.56,0,0,1-1.78,3.15,2.78,2.78,0,0,1-.69.09,2.57,2.57,0,0,1-2.48-1.87,1.25,1.25,0,0,1,0-.19l0,0a26,26,0,0,1-.22-7,53.81,53.81,0,0,1,1-6.53,83.5,83.5,0,0,1,3.7-12.4,56.73,56.73,0,0,1,2.6-6c1-1.94,2.11-3.78,3.28-5.57.55-.85,1.11-1.7,1.7-2.53.19-.3.4-.59.61-.88s.49-.7.75-1.06.37-.52.56-.8.29-.4.45-.6c.86-1.22,1.79-2.39,2.65-3.62l0,0s0,.1.06.13l.41.85h0l.09.15c0,.09.09.16.12.22A.3.3,0,0,0,398,155.36Z"/><path class="cls-1" d="M399.63,153.66a.83.83,0,0,1-.18.43c-.16.2-.3.4-.44.61s-.16.21-.25.32l0,0s-.05-.06-.06-.09l0,0c0-.05-.06-.12-.13-.23a.64.64,0,0,0-.06-.11s0,0,0,0a2.6,2.6,0,0,0-.16-.35c-.13-.26-.27-.56-.42-.92h0a.53.53,0,0,1-.08-.15c-.06-.12-.11-.27-.17-.41v0h0a.33.33,0,0,1,.11-.13.09.09,0,0,1,.07,0,.55.55,0,0,1,.17-.13,1.06,1.06,0,0,1,.48-.11h0a.27.27,0,0,1,.15,0,1,1,0,0,1,.51.17,1.46,1.46,0,0,1,.19.16,1.27,1.27,0,0,1,.1.12.87.87,0,0,1,.14.27A1,1,0,0,1,399.63,153.66Z"/><path class="cls-1" d="M400,153.15s0-.05,0-.06a2.21,2.21,0,0,0-.21-.5,0,0,0,0,1,0,0,1.49,1.49,0,0,0-.3-.32.53.53,0,0,0-.11-.09,1.57,1.57,0,0,0-.64-.24h0a.71.71,0,0,0-.21,0h-.06a1.46,1.46,0,0,0-.22,0,2.35,2.35,0,0,0-.47.15h0l-.08,0-.13.1s-.06,0-.09.08l.09.24a.17.17,0,0,0,0,.08l.06,0s0,0,0,.05.11.29.17.41c0,0,.05-.08.08-.11a.66.66,0,0,1,.23-.21.54.54,0,0,1,.22-.09.63.63,0,0,1,.19,0,.8.8,0,0,1,.43.12.5.5,0,0,1,.2.21.68.68,0,0,1,.13.51.62.62,0,0,1-.12.36l0,0h0c-.12.16-.25.32-.36.5s-.13.18-.2.27.1.18.13.23l0,0s.05.06.06.09a1.46,1.46,0,0,0,.28.32l.09-.14c.08-.11.16-.22.26-.34s.22-.32.35-.48a.65.65,0,0,1,.08-.09A1.58,1.58,0,0,0,400,153.15Z"/><path class="cls-1" d="M402.25,153.9a.77.77,0,0,1,0,.26.59.59,0,0,1,0,.3v0c-.05,0-.08.08-.13.11l-.46.4a2.37,2.37,0,0,1-1.44.5,2.4,2.4,0,0,1-1.06-.26l-.34-.21a.18.18,0,0,0-.08-.06h0l0,0c0-.05-.06-.12-.13-.23a.64.64,0,0,0-.06-.11s0,0,0,0a2.6,2.6,0,0,0-.16-.35c-.13-.26-.27-.56-.42-.92h0a1.13,1.13,0,0,1,0-.26,1.65,1.65,0,0,1,0-.38.75.75,0,0,1,.08-.24,1.37,1.37,0,0,1,.23-.47.46.46,0,0,1,.14-.2,2,2,0,0,1,.38-.39s0,0,0-.05a1.38,1.38,0,0,0,.32-.28l.26-.24s0,0,0,0a7.21,7.21,0,0,0,.89-1,3.82,3.82,0,0,0,.33-.49,2.26,2.26,0,0,0,.09.57v0l0,0a.68.68,0,0,0,0,.19,6.4,6.4,0,0,0,.26.85c0,.14.09.27.14.4a.31.31,0,0,1,.06.14c.07.18.15.35.23.51A9.46,9.46,0,0,0,402,153a3.54,3.54,0,0,1,.24.77A.41.41,0,0,1,402.25,153.9Z"/><path class="cls-1" d="M404.94,149.42a2,2,0,0,1,0,.43,1.61,1.61,0,0,1-.1.36.61.61,0,0,1-.05.12l-.12.31c-.08.14-.15.3-.23.45a.05.05,0,0,1,0,0v0c-.06.13-.13.24-.19.35v0h0l-.23.34c-.11.14-.2.29-.31.42a.92.92,0,0,1-.17.22c-.06.1-.14.18-.2.27s-.24.29-.36.42a2.9,2.9,0,0,0-.25-.58.39.39,0,0,1-.06-.13,7.22,7.22,0,0,1-.49-1,3.18,3.18,0,0,1-.14-.37.38.38,0,0,1-.06-.13.75.75,0,0,1-.08-.24,0,0,0,0,0,0,0s0,0,0-.05a.29.29,0,0,1,0-.1,1.74,1.74,0,0,1-.14-.38c0-.11-.09-.24-.12-.35a5.85,5.85,0,0,1-.19-1.15.41.41,0,0,0,0-.16l.13-.2a2,2,0,0,1,1.3-.8H403a2,2,0,0,1,.67.13,1.75,1.75,0,0,1,.67.43A1.93,1.93,0,0,1,404.94,149.42Z"/><path class="cls-1" d="M402.12,154c-.11.1-.2.2-.28.26-.24.22-.42.37-.48.42a2,2,0,0,1-1.2.4,1.72,1.72,0,0,1-.8-.2,1.19,1.19,0,0,1-.35-.19s-.05,0-.09-.06-.14-.13-.2-.21,0,0-.05-.06l0,0a1.72,1.72,0,0,1-.22-.37,1.87,1.87,0,0,1-.18-1,.93.93,0,0,1,.05-.29,1.19,1.19,0,0,1,.16-.43.31.31,0,0,1,.1-.15h0a.6.6,0,0,1,.14-.21h0a1.63,1.63,0,0,1,.25-.27,1.06,1.06,0,0,0,.16-.15l.31-.25.09-.1.18-.18a6.35,6.35,0,0,0,.7-.8,2.12,2.12,0,0,0,.29-.38v0a2.26,2.26,0,0,1-.09-.57,1.46,1.46,0,0,1-.05-.4,1.06,1.06,0,0,0-.05-.31.41.41,0,0,0,0,.08,3,3,0,0,1-.34.64,6.66,6.66,0,0,1-1,1.19l-.13.13a3.71,3.71,0,0,1-.3.28c-.1.1-.18.16-.26.23a.33.33,0,0,0-.06.06,1.1,1.1,0,0,0-.27.26,1.78,1.78,0,0,0-.4.57.58.58,0,0,0-.1.21.47.47,0,0,0-.06.15,1.19,1.19,0,0,0-.07.27.17.17,0,0,0,0,.08l.06,0s0,0,0,.05.11.29.17.41a.53.53,0,0,0,.08.15h0c.15.36.29.66.42.92a2.6,2.6,0,0,1,.16.35s0,0,0,0a.64.64,0,0,1,.06.11c.07.11.1.18.13.23l0,0s.05.06.06.09a1.46,1.46,0,0,0,.28.32,1.78,1.78,0,0,0,.84.48,1.56,1.56,0,0,0,.31,0,2.6,2.6,0,0,0,1.21-.29,1.65,1.65,0,0,0,.74-.91.52.52,0,0,0,.08-.19v0a.59.59,0,0,0,0-.3.77.77,0,0,0,0-.26Z"/><path class="cls-1" d="M402.25,153.9a.77.77,0,0,1,0,.26.59.59,0,0,1,0,.3v0a.52.52,0,0,1-.08.19,1.65,1.65,0,0,1-.74.91s-.05,0-.08.07a2,2,0,0,1-1,.27,1.59,1.59,0,0,1-.48-.07,1.78,1.78,0,0,1-.84-.48,1.46,1.46,0,0,1-.28-.32s-.05-.06-.06-.09l0,0c0-.05-.06-.12-.13-.23a.64.64,0,0,0-.06-.11s0,0,0,0a2.6,2.6,0,0,0-.16-.35c-.13-.26-.27-.56-.42-.92h0a.53.53,0,0,1-.08-.15c-.06-.12-.11-.27-.17-.41s0,0,0-.05l-.06,0a.17.17,0,0,1,0-.08l-.09-.24a.29.29,0,0,0,0-.11.48.48,0,0,0-.07-.16,14.86,14.86,0,0,1-.49-1.83,4.21,4.21,0,0,0-.09-.49c0-.16,0-.31,0-.47s0-.24,0-.37a1.27,1.27,0,0,1,0-.27,1.9,1.9,0,0,1,.86-1.39,1.8,1.8,0,0,1,1-.3l.11,0a1.78,1.78,0,0,1,.87.22,1.92,1.92,0,0,1,1,1.36,1.06,1.06,0,0,1,.05.31,1.46,1.46,0,0,0,.05.4,2.26,2.26,0,0,0,.09.57v0l0,0a.68.68,0,0,0,0,.19,6.4,6.4,0,0,0,.26.85c0,.14.09.27.14.4s0,0,0,.08l0,.06c.07.18.15.35.23.51A9.46,9.46,0,0,0,402,153a3.54,3.54,0,0,1,.24.77A.41.41,0,0,1,402.25,153.9Z"/><path class="cls-1" d="M401.82,150.75s0,0,0,.05a0,0,0,0,1,0,0S401.82,150.77,401.82,150.75Z"/><path class="cls-1" d="M462.81,91.49a3.08,3.08,0,0,1-1,.56l-.58.17a8.34,8.34,0,0,1-4.29,0,10.84,10.84,0,0,1-3.4-1.52,10.16,10.16,0,0,1-2.61-2.45,7.36,7.36,0,0,1-1.46-3.2.68.68,0,0,1,.55-.75.64.64,0,0,1,.68.34l0,0a6.8,6.8,0,0,0,4.24,3.12,6.9,6.9,0,0,0,2.48.25,3.2,3.2,0,0,0,1.81-.65,2.7,2.7,0,1,1,3.58,4Z"/><path class="cls-1" d="M487.44,166.9a.66.66,0,0,1-.45-.18.62.62,0,0,1,0-.89l.07-.06a.65.65,0,1,1,.92.92A.69.69,0,0,1,487.44,166.9Z"/><path class="cls-1" d="M422.24,129.9a21.45,21.45,0,0,0-4-1.39c-.26.37-.51.74-.77,1.1l-.21.32a28.29,28.29,0,0,1,4.53,1.06h0a.58.58,0,0,0,.7-.3A.6.6,0,0,0,422.24,129.9Zm0,0a21.45,21.45,0,0,0-4-1.39c-.26.37-.51.74-.77,1.1l-.21.32a28.29,28.29,0,0,1,4.53,1.06h0a.58.58,0,0,0,.7-.3A.6.6,0,0,0,422.24,129.9Zm-1.83,4.29h0a37.09,37.09,0,0,1-5.88-.1c-.35.55-.7,1.09-1,1.64l.66.09a26.92,26.92,0,0,0,6.42-.33.66.66,0,0,0-.15-1.3Zm1.83-4.29a21.45,21.45,0,0,0-4-1.39c-.26.37-.51.74-.77,1.1l-.21.32a28.29,28.29,0,0,1,4.53,1.06h0a.58.58,0,0,0,.7-.3A.6.6,0,0,0,422.24,129.9Zm-1.83,4.29h0a37.09,37.09,0,0,1-5.88-.1c-.35.55-.7,1.09-1,1.64l.66.09a26.92,26.92,0,0,0,6.42-.33.66.66,0,0,0-.15-1.3Zm1.83-4.29a21.45,21.45,0,0,0-4-1.39c-.26.37-.51.74-.77,1.1l-.21.32a28.29,28.29,0,0,1,4.53,1.06h0a.58.58,0,0,0,.7-.3A.6.6,0,0,0,422.24,129.9Zm-1.83,4.29h0a37.09,37.09,0,0,1-5.88-.1c-.35.55-.7,1.09-1,1.64l.66.09a26.92,26.92,0,0,0,6.42-.33.66.66,0,0,0-.15-1.3Zm1.83-4.29a21.45,21.45,0,0,0-4-1.39c-.26.37-.51.74-.77,1.1l-.21.32a28.29,28.29,0,0,1,4.53,1.06h0a.58.58,0,0,0,.7-.3A.6.6,0,0,0,422.24,129.9Zm-1.83,4.29h0a37.09,37.09,0,0,1-5.88-.1c-.35.55-.7,1.09-1,1.64l.66.09a26.92,26.92,0,0,0,6.42-.33.66.66,0,0,0-.15-1.3Zm1.83-4.29a21.45,21.45,0,0,0-4-1.39c-.26.37-.51.74-.77,1.1l-.21.32a28.29,28.29,0,0,1,4.53,1.06h0a.58.58,0,0,0,.7-.3A.6.6,0,0,0,422.24,129.9Zm-1.83,4.29h0a37.09,37.09,0,0,1-5.88-.1c-.35.55-.7,1.09-1,1.64l.66.09a26.92,26.92,0,0,0,6.42-.33.66.66,0,0,0-.15-1.3Zm1.83-4.29a21.45,21.45,0,0,0-4-1.39c-.26.37-.51.74-.77,1.1l-.21.32a28.29,28.29,0,0,1,4.53,1.06h0a.58.58,0,0,0,.7-.3A.6.6,0,0,0,422.24,129.9Zm-1.83,4.29h0a37.09,37.09,0,0,1-5.88-.1c-.35.55-.7,1.09-1,1.64l.66.09a26.92,26.92,0,0,0,6.42-.33.66.66,0,0,0-.15-1.3Zm1.83-4.29a21.45,21.45,0,0,0-4-1.39c-.26.37-.51.74-.77,1.1l-.21.32a28.29,28.29,0,0,1,4.53,1.06h0a.58.58,0,0,0,.7-.3A.6.6,0,0,0,422.24,129.9Zm-1.83,4.29h0a37.09,37.09,0,0,1-5.88-.1c-.35.55-.7,1.09-1,1.64l.66.09a26.92,26.92,0,0,0,6.42-.33.66.66,0,0,0-.15-1.3Zm1.83-4.29a21.45,21.45,0,0,0-4-1.39c-.26.37-.51.74-.77,1.1l-.21.32a28.29,28.29,0,0,1,4.53,1.06h0a.58.58,0,0,0,.7-.3A.6.6,0,0,0,422.24,129.9Zm-1.83,4.29h0a37.09,37.09,0,0,1-5.88-.1c-.35.55-.7,1.09-1,1.64l.66.09a26.92,26.92,0,0,0,6.42-.33.66.66,0,0,0-.15-1.3Zm1.83-4.29a21.45,21.45,0,0,0-4-1.39c-.26.37-.51.74-.77,1.1l-.21.32a28.29,28.29,0,0,1,4.53,1.06h0a.58.58,0,0,0,.7-.3A.6.6,0,0,0,422.24,129.9Zm-1.83,4.29h0a37.09,37.09,0,0,1-5.88-.1c-.35.55-.7,1.09-1,1.64l.66.09a26.92,26.92,0,0,0,6.42-.33.66.66,0,0,0-.15-1.3Zm1.83-4.29a21.45,21.45,0,0,0-4-1.39c-.26.37-.51.74-.77,1.1l-.21.32a28.29,28.29,0,0,1,4.53,1.06h0a.58.58,0,0,0,.7-.3A.6.6,0,0,0,422.24,129.9Zm-1.83,4.29h0a37.09,37.09,0,0,1-5.88-.1c-.35.55-.7,1.09-1,1.64l.66.09a26.92,26.92,0,0,0,6.42-.33.66.66,0,0,0-.15-1.3Zm1.83-4.29a21.45,21.45,0,0,0-4-1.39c-.26.37-.51.74-.77,1.1l-.21.32a28.29,28.29,0,0,1,4.53,1.06h0a.58.58,0,0,0,.7-.3A.6.6,0,0,0,422.24,129.9Zm-1.83,4.29h0a37.09,37.09,0,0,1-5.88-.1c-.35.55-.7,1.09-1,1.64l.66.09a26.92,26.92,0,0,0,6.42-.33.66.66,0,0,0-.15-1.3Zm1.83-4.29a21.45,21.45,0,0,0-4-1.39c-.26.37-.51.74-.77,1.1l-.21.32a28.29,28.29,0,0,1,4.53,1.06h0a.58.58,0,0,0,.7-.3A.6.6,0,0,0,422.24,129.9Zm-1.83,4.29h0a37.09,37.09,0,0,1-5.88-.1c-.35.55-.7,1.09-1,1.64l.66.09a26.92,26.92,0,0,0,6.42-.33.66.66,0,0,0-.15-1.3Zm1.83-4.29a21.45,21.45,0,0,0-4-1.39c-.26.37-.51.74-.77,1.1l-.21.32a28.29,28.29,0,0,1,4.53,1.06h0a.58.58,0,0,0,.7-.3A.6.6,0,0,0,422.24,129.9Zm-1.83,4.29h0a37.09,37.09,0,0,1-5.88-.1c-.35.55-.7,1.09-1,1.64l.66.09a26.92,26.92,0,0,0,6.42-.33.66.66,0,0,0-.15-1.3Zm1.83-4.29a21.45,21.45,0,0,0-4-1.39c-.26.37-.51.74-.77,1.1l-.21.32a28.29,28.29,0,0,1,4.53,1.06h0a.58.58,0,0,0,.7-.3A.6.6,0,0,0,422.24,129.9Zm-1.83,4.29h0a37.09,37.09,0,0,1-5.88-.1c-.35.55-.7,1.09-1,1.64l.66.09a26.92,26.92,0,0,0,6.42-.33.66.66,0,0,0-.15-1.3Zm1.83-4.29a21.45,21.45,0,0,0-4-1.39c-.26.37-.51.74-.77,1.1l-.21.32a28.29,28.29,0,0,1,4.53,1.06h0a.58.58,0,0,0,.7-.3A.6.6,0,0,0,422.24,129.9Zm-1.83,4.29h0a37.09,37.09,0,0,1-5.88-.1c-.35.55-.7,1.09-1,1.64l.66.09a26.92,26.92,0,0,0,6.42-.33.66.66,0,0,0-.15-1.3Zm1.83-4.29a21.45,21.45,0,0,0-4-1.39c-.26.37-.51.74-.77,1.1l-.21.32a28.29,28.29,0,0,1,4.53,1.06h0a.58.58,0,0,0,.7-.3A.6.6,0,0,0,422.24,129.9Zm-1.83,4.29h0a37.09,37.09,0,0,1-5.88-.1c-.35.55-.7,1.09-1,1.64l.66.09a26.92,26.92,0,0,0,6.42-.33.66.66,0,0,0-.15-1.3Zm1.83-4.29a21.45,21.45,0,0,0-4-1.39c-.26.37-.51.74-.77,1.1l-.21.32a28.29,28.29,0,0,1,4.53,1.06h0a.58.58,0,0,0,.7-.3A.6.6,0,0,0,422.24,129.9Zm-1.83,4.29h0a37.09,37.09,0,0,1-5.88-.1c-.35.55-.7,1.09-1,1.64l.66.09a26.92,26.92,0,0,0,6.42-.33.66.66,0,0,0-.15-1.3Zm1.83-4.29a21.45,21.45,0,0,0-4-1.39c-.26.37-.51.74-.77,1.1l-.21.32a28.29,28.29,0,0,1,4.53,1.06h0a.58.58,0,0,0,.7-.3A.6.6,0,0,0,422.24,129.9Zm-1.83,4.29h0a37.09,37.09,0,0,1-5.88-.1c-.35.55-.7,1.09-1,1.64l.66.09a26.92,26.92,0,0,0,6.42-.33.66.66,0,0,0-.15-1.3Zm1.83-4.29a21.45,21.45,0,0,0-4-1.39c-.26.37-.51.74-.77,1.1l-.21.32a28.29,28.29,0,0,1,4.53,1.06h0a.58.58,0,0,0,.7-.3A.6.6,0,0,0,422.24,129.9Zm-1.83,4.29h0a37.09,37.09,0,0,1-5.88-.1c-.35.55-.7,1.09-1,1.64l.66.09a26.92,26.92,0,0,0,6.42-.33.66.66,0,0,0-.15-1.3Zm1.83-4.29a21.45,21.45,0,0,0-4-1.39c-.26.37-.51.74-.77,1.1l-.21.32a28.29,28.29,0,0,1,4.53,1.06h0a.58.58,0,0,0,.7-.3A.6.6,0,0,0,422.24,129.9Zm-1.83,4.29h0a37.09,37.09,0,0,1-5.88-.1c-.35.55-.7,1.09-1,1.64l.66.09a26.92,26.92,0,0,0,6.42-.33.66.66,0,0,0-.15-1.3Zm1.83-4.29a21.45,21.45,0,0,0-4-1.39c-.26.37-.51.74-.77,1.1l-.21.32a28.29,28.29,0,0,1,4.53,1.06h0a.58.58,0,0,0,.7-.3A.6.6,0,0,0,422.24,129.9Zm-1.83,4.29h0a37.09,37.09,0,0,1-5.88-.1c-.35.55-.7,1.09-1,1.64l.66.09a26.92,26.92,0,0,0,6.42-.33.66.66,0,0,0-.15-1.3Zm1.83-4.29a21.45,21.45,0,0,0-4-1.39c-.26.37-.51.74-.77,1.1l-.21.32a28.29,28.29,0,0,1,4.53,1.06h0a.58.58,0,0,0,.7-.3A.6.6,0,0,0,422.24,129.9Zm-1.83,4.29h0a37.09,37.09,0,0,1-5.88-.1c-.35.55-.7,1.09-1,1.64l.66.09a26.92,26.92,0,0,0,6.42-.33.66.66,0,0,0-.15-1.3Zm1.83-4.29a21.45,21.45,0,0,0-4-1.39c-.26.37-.51.74-.77,1.1l-.21.32a28.29,28.29,0,0,1,4.53,1.06h0a.58.58,0,0,0,.7-.3A.6.6,0,0,0,422.24,129.9Zm0,0a21.45,21.45,0,0,0-4-1.39c-.26.37-.51.74-.77,1.1l-.21.32a28.29,28.29,0,0,1,4.53,1.06h0a.58.58,0,0,0,.7-.3A.6.6,0,0,0,422.24,129.9Zm145.13,27c-1-7.3-4.62-13.7-8.81-19.27-.32-.41-.68-.8-1-1.2-1.13-4.25-3.5-8-6-11.53a92.59,92.59,0,0,0-8.94-10.34A181,181,0,0,0,522,96.78,204.72,204.72,0,0,0,499,82.14c-6.9-3.77-13.87-7.37-21.1-10.49l-1.56-1a14.37,14.37,0,0,0-2.48-1.33,19.38,19.38,0,0,0-5.32-1.36,37.75,37.75,0,0,0-10.64.48A94.21,94.21,0,0,0,438,74.61c-1.6.67-3.18,1.37-4.77,2.11l-2.33,1.12c-.79.4-1.56.75-2.39,1.26a10.24,10.24,0,0,0-3.73,4.18,13.89,13.89,0,0,0-1.28,5.33A24.62,24.62,0,0,0,425.55,99a27.66,27.66,0,0,0,2.48,4.69,52.05,52.05,0,0,0,3,4.3,35.62,35.62,0,0,0,7.7,7.4,26.42,26.42,0,0,0,10.11,4.19,29.18,29.18,0,0,0,8.55.24l-.8,1.47-1.11,2.48a33.21,33.21,0,0,0-2.32,10.5,42.76,42.76,0,0,0,.16,5.31c.11,1.15.29,2.27.48,3.39l-.35-.16a27.51,27.51,0,0,1-3-1.94l-3-2.24-6.05-4.54c-.63-.46-1.25-.93-1.87-1.36-1.09-.8-2.2-1.58-3.33-2.32-.35-.26-.69-.48-1-.7a42.46,42.46,0,0,0-6.79-3.78,13.16,13.16,0,0,0-1.95-.67,7.28,7.28,0,0,0-1.05-.24l-1-.15c-1.06-.14-2.13-.24-3.24-.28-.22,0-.44,0-.67,0-.68,0-1.39,0-2.09.13a9.78,9.78,0,0,0-2,.43,4.62,4.62,0,0,0-2,1.28,2.67,2.67,0,0,0-.63,1.81,11,11,0,0,0-1.21.27,5.52,5.52,0,0,0-2.95,2.21,2.63,2.63,0,0,0-.11,2.34,4.06,4.06,0,0,0,1.2,1.58,3.56,3.56,0,0,0,.91.59l0,0-.16.14a3.83,3.83,0,0,0-1.15,2,3.08,3.08,0,0,0-.1,1.25,4.08,4.08,0,0,0,.45,1.5,5.36,5.36,0,0,0,1.93,2.1,8.35,8.35,0,0,0,3.48,1.14l.36,0a13.47,13.47,0,0,0,3.73-.27c.61-.13,1.19-.28,1.76-.44l1.6-.49a15.21,15.21,0,0,1,2.9-.58,15.53,15.53,0,0,1,3.54,0,15.91,15.91,0,0,1,3.11,2.44,52.54,52.54,0,0,1,4,4.46c2.49,3.14,4.8,6.45,7.1,9.76s4.58,6.69,7,10a60.74,60.74,0,0,0,3.93,4.84,19.19,19.19,0,0,0,2.4,2.25,6.27,6.27,0,0,0,3.51,1.57,30.16,30.16,0,0,1,.13,4c-.1,5.47-1.89,10.58-4.23,15.62a76.38,76.38,0,0,0-3.09,8,20.57,20.57,0,0,0-.76,9.06,29.86,29.86,0,0,0,2.86,8.51,37,37,0,0,0,2.21,3.86,32.31,32.31,0,0,0,2.72,3.66.34.34,0,0,0,.06.06,1.67,1.67,0,0,1,.13.12,23,23,0,0,0,4.86,7.45c.42.45,1,1,1.33,1.3a6.46,6.46,0,0,1,.92,1.05,6.74,6.74,0,0,1,1.13,2.47,1.21,1.21,0,0,1,0,.45c0,.08,0,.2-.06.24s-.08.09-.13.17-.27.11-.4.19a7.6,7.6,0,0,1-2.91,0,60.89,60.89,0,0,0-14.48-.8,22,22,0,0,0-7.28,1.65,6.27,6.27,0,0,0-3.19,2.78,3.64,3.64,0,0,0-.2,2.43,3.76,3.76,0,0,0,.43,1.09l-.14.15a5.05,5.05,0,0,0-1.3,3,7.56,7.56,0,0,0,2.29,5.63,6.67,6.67,0,0,0,2.75,1.65,9.61,9.61,0,0,0,2.91.44,25.4,25.4,0,0,0,5.38-.62c3.44-.67,6.73-1.6,10.09-2.06a45.32,45.32,0,0,1,5-.5c1.69,0,3.4,0,5.12.1,3.44.14,6.88.4,10.37.46s7,.14,10.71-.83a8,8,0,0,0,3-1.46,4.64,4.64,0,0,0,.74-.83,3.15,3.15,0,0,0,.28-.51l.16-.37A7,7,0,0,0,499,253a5.39,5.39,0,0,0-.51-3.52,9.87,9.87,0,0,0-1.86-2.34,10,10,0,0,1-2.77-3.79,5.47,5.47,0,0,1-.37-2.1l.17,0,.63.11a64.33,64.33,0,0,0,10.58.81A47.89,47.89,0,0,0,515.58,241a33.54,33.54,0,0,0,10.23-4.29,27.46,27.46,0,0,0,4-3.12,11.57,11.57,0,0,0,10.1,3.28,14.4,14.4,0,0,0,11-8.27,15,15,0,0,0,1.05-3.39,14.76,14.76,0,0,0,.16-3.51,13.38,13.38,0,0,0-2.22-6.53,13.1,13.1,0,0,0-8.4-5.69,65.44,65.44,0,0,0,.71-11.83,90.11,90.11,0,0,0-3.36-20.94A134.43,134.43,0,0,0,531.76,157a175.71,175.71,0,0,0-9.57-18.55,145.56,145.56,0,0,0-12.14-16.93c-4.37-5.37-9.13-10.4-13.64-15.58l-1.66-2-.83-1-.42-.49s.06,0,.08,0l1,.84,1.95,1.69q3.9,3.39,7.6,7a178,178,0,0,1,26.34,31.31,102.63,102.63,0,0,1,9.39,17.86l.87,2.35.22.59.29.76a14,14,0,0,0,.72,1.39,15.9,15.9,0,0,0,3.93,4.51,19.13,19.13,0,0,0,5.08,2.94,15.86,15.86,0,0,0,5.9,1.16,10.23,10.23,0,0,0,6-1.94,10.85,10.85,0,0,0,3.6-5,20.75,20.75,0,0,0,1.07-5.57A28,28,0,0,0,567.37,156.88ZM497.71,84.46A256,256,0,0,1,520.36,99a215.17,215.17,0,0,1,20.72,17.12,105.85,105.85,0,0,1,9.13,9.83,42.11,42.11,0,0,1,5.15,7.82c-8.05-9.29-17.75-16.85-27.48-24.11-5.61-4-11.13-8.1-16.59-12.3L503.18,91l-8.1-6.4c-2.46-2-5-3.92-7.47-5.83C491,80.59,494.36,82.51,497.71,84.46ZM460.45,173.2a3.37,3.37,0,0,1-.89-.53,16.49,16.49,0,0,1-2.09-1.81,57.59,57.59,0,0,1-3.94-4.4c-2.52-3.1-4.94-6.35-7.41-9.57s-4.94-6.44-7.63-9.53a52.94,52.94,0,0,0-4.32-4.42c-.19-.17-.4-.33-.59-.49a22.62,22.62,0,0,1,9.17,6.25c1.39,1.52,2.66,3.41,4.06,5.15s2.74,3.54,4.2,5.25a69.56,69.56,0,0,0,8,8.37c.12.45.25.91.4,1.34.38,1.33.72,2.68,1,4a3.43,3.43,0,0,1,.06.34.19.19,0,0,1,0,.08Zm78.6,45.87a48.26,48.26,0,0,0,2.18-7.9,10.82,10.82,0,0,1,2.53,1.42,11.73,11.73,0,0,1,3.53,4.16,11.15,11.15,0,0,1,0,10.14,10.61,10.61,0,0,1-8,5.73,14.75,14.75,0,0,1-7.61-.88c.81-.89,1.6-1.84,2.32-2.81A46.89,46.89,0,0,0,539.05,219.07Zm25-57a16.58,16.58,0,0,1-1.06,4.49,5.91,5.91,0,0,1-6.08,4.12,13.08,13.08,0,0,1-7.76-3.68,15.36,15.36,0,0,1-2.74-3.3,7.62,7.62,0,0,1-.46-.9l-.47-1-1-2.46a101.62,101.62,0,0,0-10.67-18.21C525.5,129.79,515.6,120,505.12,111c-2-1.66-3.92-3.29-5.92-4.88l-.07,0-2.05-1.64-1.18-.89,0,0-.86-.65-1-.79a3.24,3.24,0,0,0-.68-.43.84.84,0,0,0-.89,1.3l.21.27.38.53.8,1,1.63,2c4.47,5.28,8.88,10.54,13,16a139.68,139.68,0,0,1,11.2,17.14,167.6,167.6,0,0,1,8.5,18.59c4.85,12.67,8.48,26,8.54,39.28A53.5,53.5,0,0,1,533.55,217a40.74,40.74,0,0,1-4.43,8.46,29.31,29.31,0,0,1-6.53,6.53,40.57,40.57,0,0,1-18,6.86,48.37,48.37,0,0,1-10.07.4l-.62,0-.32,0-.16,0h-.36a1.73,1.73,0,0,0-1.32.81,1.52,1.52,0,0,0-.24.77,2.05,2.05,0,0,0,0,.42A19.5,19.5,0,0,0,492,244a14.22,14.22,0,0,0,2.6,4.94,9.25,9.25,0,0,1,1.09,1.9,2.47,2.47,0,0,1,0,1.52,7,7,0,0,1-.32.9l-.11.22s0,0,0,.05l-.12.13a4.61,4.61,0,0,1-1.65.78,27.34,27.34,0,0,1-4.74.85c-1.64.19-3.34.32-5,.4-3.4.16-6.85.24-10.3.27a72.09,72.09,0,0,0-10.46.58c-3.46.5-6.89,1.15-10.23,1.68a32.05,32.05,0,0,1-4.9.38,5.35,5.35,0,0,1-3.8-1.32,5.24,5.24,0,0,1-1.7-3.59,3.5,3.5,0,0,1,2.27-2.86,12.9,12.9,0,0,1,4.61-1.11,35,35,0,0,1,5,0h0a.64.64,0,0,0,.67-.54.63.63,0,0,0-.51-.75c-3.44-.63-7.07-1-10.75.33a4.69,4.69,0,0,0-.64.31,1.55,1.55,0,0,1,0-1.33,4.16,4.16,0,0,1,2.11-1.75,20.16,20.16,0,0,1,6.56-1.32,55.17,55.17,0,0,1,13.82,1.29,10.94,10.94,0,0,0,4.16.15,6.39,6.39,0,0,0,1.23-.48,3.82,3.82,0,0,0,1.78-2.42,5.54,5.54,0,0,0,.1-1.33,10.15,10.15,0,0,0-1.32-4.14,10.39,10.39,0,0,0-1.21-1.78c-.45-.53-.75-.85-1.09-1.31a22.06,22.06,0,0,1-4.56-11.71,19.76,19.76,0,0,1,3-12.08,20,20,0,0,1,9.76-8,20.53,20.53,0,0,1,12.88-.56,21.26,21.26,0,0,1,11,7.46.66.66,0,0,0,1.09-.74A22.38,22.38,0,0,0,491,199.52a23.17,23.17,0,0,0-7.46-1.47,23.86,23.86,0,0,0-7.62,1.08,23.6,23.6,0,0,0-12.3,9.14,24.1,24.1,0,0,0-4,11.33,26.22,26.22,0,0,1-2.67-6.67c-1.12-4.85.83-10.08,2.74-15.28s3.71-11,3.45-16.71a37.46,37.46,0,0,0-.41-4.4c-.18-1-.37-2-.63-3v0c-.08-.33-.16-.67-.25-1-.32-1.21-.71-2.41-1.12-3.58.86.67,1.84,1.36,2.72,1.94a17.34,17.34,0,0,0,1.58,1,8.79,8.79,0,0,0,.93.43l.8.33a22.52,22.52,0,0,0,7.06,1.75,17.62,17.62,0,0,0,13.61-5.2,17.68,17.68,0,0,0,4-6.16,16.43,16.43,0,0,0,1-7.12,1.13,1.13,0,0,0-1-1,1.12,1.12,0,0,0-1.23,1,15.89,15.89,0,0,1-5.32,10.46A14.75,14.75,0,0,1,474.09,170a20.81,20.81,0,0,1-5.79-1.41l-.75-.29A3.25,3.25,0,0,1,467,168a13,13,0,0,1-1.27-.71c-1-.57-1.79-1.08-2.67-1.71a66.85,66.85,0,0,1-9.55-8.65c-1.49-1.6-2.88-3.3-4.27-5s-2.71-3.42-4.28-5.2a27.59,27.59,0,0,0-11.53-7.9,17.55,17.55,0,0,0-3-.69,16.29,16.29,0,0,0-7.11.37c-.24.06-.49.13-.73.21l-1.57.53c-.5.14-1,.28-1.47.4a9.26,9.26,0,0,1-5.41,0,2.68,2.68,0,0,1-1.6-1.45,2.06,2.06,0,0,1-.16-.66,2.77,2.77,0,0,1,.46-1.71l0,0a.58.58,0,0,0,.05-.14c.2,0,.4.08.6.1l.66.09a26.92,26.92,0,0,0,6.42-.33.66.66,0,0,0-.15-1.3h0a37.09,37.09,0,0,1-5.88-.1h-.19a10.31,10.31,0,0,1-1.37-.29,1.35,1.35,0,0,1-.35-.14,2.14,2.14,0,0,1-.68-.4c-.62-.5-.88-1.38-.67-1.57a4.49,4.49,0,0,1,3.7-1.81,4.65,4.65,0,0,1,1,0c.45,0,.88,0,1.33.09h0a28.29,28.29,0,0,1,4.53,1.06h0a.58.58,0,0,0,.7-.3.6.6,0,0,0-.3-.79,21.45,21.45,0,0,0-4-1.39,14.77,14.77,0,0,0-2.21-.37h0c-.24,0-.47,0-.71,0a1.8,1.8,0,0,1,1.36-.91l.31-.07a10.69,10.69,0,0,1,2.37-.14c.35,0,.7,0,1.05,0,1.2.08,2.4.23,3.62.42l.91.14c.26.07.51.1.78.19a11.1,11.1,0,0,1,1.6.6,48.34,48.34,0,0,1,6.33,3.6c1.11.72,2.23,1.48,3.36,2.27l2.84,2,6.13,4.4,3.09,2.21c.51.35,1.1.72,1.65,1.07s1.16.64,1.76.95a18.19,18.19,0,0,0,3.84,1.26,12.15,12.15,0,0,0,4.08,0,12.79,12.79,0,0,0,7-3.65.56.56,0,0,0,.07-.72.55.55,0,0,0-.77-.11,13,13,0,0,1-6.51,2.67,12.43,12.43,0,0,1-3.43-.27,10.49,10.49,0,0,1-1.41-.45,37.24,37.24,0,0,1,.05-9.14,29.81,29.81,0,0,1,3.09-9.36l1.22-2.12,1.37-2.05,1.52-1.94.1-.13a1.45,1.45,0,0,0,.25-.36,2.74,2.74,0,0,0,.28-1.94A2.56,2.56,0,0,0,462,115a2.62,2.62,0,0,0-1.06-.32,3.38,3.38,0,0,0-.84.08l-1.17.32a27.71,27.71,0,0,1-9.54.85c-6.27-.48-12.19-4-16.56-8.89a7.15,7.15,0,0,0,1.55-.61,8.15,8.15,0,0,0,1.91-1.52,15,15,0,0,0,2.45-3.7.66.66,0,0,0-.18-.8.68.68,0,0,0-.93.1h0a13.11,13.11,0,0,1-2.83,2.66,3.87,3.87,0,0,1-2.9.77,1.7,1.7,0,0,0-.51-.07,1.51,1.51,0,0,0-.89.34,26.54,26.54,0,0,1-3.54-5.78,21.93,21.93,0,0,1-1.81-7.5,5.74,5.74,0,0,0,2-.82,6.14,6.14,0,0,0,1.95-1.92.54.54,0,0,1,.05-.11.71.71,0,0,0-.4-.91.7.7,0,0,0-.91.4,5.43,5.43,0,0,1-2.68,2.53,12.27,12.27,0,0,1,0-1.36,11.91,11.91,0,0,1,1.23-4.63,8.59,8.59,0,0,1,3.12-3.37c.66-.39,1.46-.75,2.22-1.12l2.33-1.07q2.34-1,4.71-2a93.21,93.21,0,0,1,19.54-5.75c6.64-1,13.62-1.07,18.74,3.43,5.6,3.93,10.91,8.28,16.4,12.46,10.8,8.54,22.19,16.45,33.42,24.37q4.18,3,8.21,6.22c2.67,2.15,5.28,4.39,7.81,6.69a92.82,92.82,0,0,1,13.68,15.12c3.9,5.49,6.92,11.71,7.52,18.19A24.26,24.26,0,0,1,564.05,162.08Zm-70.76-59.75a.13.13,0,0,1,0,.07c-.07,0-.1-.07-.08-.1S493.25,102.3,493.29,102.33ZM422.24,129.9a21.45,21.45,0,0,0-4-1.39c-.26.37-.51.74-.77,1.1l-.21.32a28.29,28.29,0,0,1,4.53,1.06h0a.58.58,0,0,0,.7-.3A.6.6,0,0,0,422.24,129.9Zm0,0a21.45,21.45,0,0,0-4-1.39c-.26.37-.51.74-.77,1.1l-.21.32a28.29,28.29,0,0,1,4.53,1.06h0a.58.58,0,0,0,.7-.3A.6.6,0,0,0,422.24,129.9Zm-1.83,4.29h0a37.09,37.09,0,0,1-5.88-.1c-.35.55-.7,1.09-1,1.64l.66.09a26.92,26.92,0,0,0,6.42-.33.66.66,0,0,0-.15-1.3Zm1.83-4.29a21.45,21.45,0,0,0-4-1.39c-.26.37-.51.74-.77,1.1l-.21.32a28.29,28.29,0,0,1,4.53,1.06h0a.58.58,0,0,0,.7-.3A.6.6,0,0,0,422.24,129.9Zm-1.83,4.29h0a37.09,37.09,0,0,1-5.88-.1c-.35.55-.7,1.09-1,1.64l.66.09a26.92,26.92,0,0,0,6.42-.33.66.66,0,0,0-.15-1.3Zm1.83-4.29a21.45,21.45,0,0,0-4-1.39c-.26.37-.51.74-.77,1.1l-.21.32a28.29,28.29,0,0,1,4.53,1.06h0a.58.58,0,0,0,.7-.3A.6.6,0,0,0,422.24,129.9Zm-1.83,4.29h0a37.09,37.09,0,0,1-5.88-.1c-.35.55-.7,1.09-1,1.64l.66.09a26.92,26.92,0,0,0,6.42-.33.66.66,0,0,0-.15-1.3Zm1.83-4.29a21.45,21.45,0,0,0-4-1.39c-.26.37-.51.74-.77,1.1l-.21.32a28.29,28.29,0,0,1,4.53,1.06h0a.58.58,0,0,0,.7-.3A.6.6,0,0,0,422.24,129.9Zm-1.83,4.29h0a37.09,37.09,0,0,1-5.88-.1c-.35.55-.7,1.09-1,1.64l.66.09a26.92,26.92,0,0,0,6.42-.33.66.66,0,0,0-.15-1.3Zm1.83-4.29a21.45,21.45,0,0,0-4-1.39c-.26.37-.51.74-.77,1.1l-.21.32a28.29,28.29,0,0,1,4.53,1.06h0a.58.58,0,0,0,.7-.3A.6.6,0,0,0,422.24,129.9Zm-1.83,4.29h0a37.09,37.09,0,0,1-5.88-.1c-.35.55-.7,1.09-1,1.64l.66.09a26.92,26.92,0,0,0,6.42-.33.66.66,0,0,0-.15-1.3Zm1.83-4.29a21.45,21.45,0,0,0-4-1.39c-.26.37-.51.74-.77,1.1l-.21.32a28.29,28.29,0,0,1,4.53,1.06h0a.58.58,0,0,0,.7-.3A.6.6,0,0,0,422.24,129.9Zm-1.83,4.29h0a37.09,37.09,0,0,1-5.88-.1c-.35.55-.7,1.09-1,1.64l.66.09a26.92,26.92,0,0,0,6.42-.33.66.66,0,0,0-.15-1.3Zm1.83-4.29a21.45,21.45,0,0,0-4-1.39c-.26.37-.51.74-.77,1.1l-.21.32a28.29,28.29,0,0,1,4.53,1.06h0a.58.58,0,0,0,.7-.3A.6.6,0,0,0,422.24,129.9Zm-1.83,4.29h0a37.09,37.09,0,0,1-5.88-.1c-.35.55-.7,1.09-1,1.64l.66.09a26.92,26.92,0,0,0,6.42-.33.66.66,0,0,0-.15-1.3Zm1.83-4.29a21.45,21.45,0,0,0-4-1.39c-.26.37-.51.74-.77,1.1l-.21.32a28.29,28.29,0,0,1,4.53,1.06h0a.58.58,0,0,0,.7-.3A.6.6,0,0,0,422.24,129.9Zm-1.83,4.29h0a37.09,37.09,0,0,1-5.88-.1c-.35.55-.7,1.09-1,1.64l.66.09a26.92,26.92,0,0,0,6.42-.33.66.66,0,0,0-.15-1.3Zm1.83-4.29a21.45,21.45,0,0,0-4-1.39c-.26.37-.51.74-.77,1.1l-.21.32a28.29,28.29,0,0,1,4.53,1.06h0a.58.58,0,0,0,.7-.3A.6.6,0,0,0,422.24,129.9Zm-1.83,4.29h0a37.09,37.09,0,0,1-5.88-.1c-.35.55-.7,1.09-1,1.64l.66.09a26.92,26.92,0,0,0,6.42-.33.66.66,0,0,0-.15-1.3Zm1.83-4.29a21.45,21.45,0,0,0-4-1.39c-.26.37-.51.74-.77,1.1l-.21.32a28.29,28.29,0,0,1,4.53,1.06h0a.58.58,0,0,0,.7-.3A.6.6,0,0,0,422.24,129.9Zm-1.83,4.29h0a37.09,37.09,0,0,1-5.88-.1c-.35.55-.7,1.09-1,1.64l.66.09a26.92,26.92,0,0,0,6.42-.33.66.66,0,0,0-.15-1.3Zm1.83-4.29a21.45,21.45,0,0,0-4-1.39c-.26.37-.51.74-.77,1.1l-.21.32a28.29,28.29,0,0,1,4.53,1.06h0a.58.58,0,0,0,.7-.3A.6.6,0,0,0,422.24,129.9Zm-1.83,4.29h0a37.09,37.09,0,0,1-5.88-.1c-.35.55-.7,1.09-1,1.64l.66.09a26.92,26.92,0,0,0,6.42-.33.66.66,0,0,0-.15-1.3Zm1.83-4.29a21.45,21.45,0,0,0-4-1.39c-.26.37-.51.74-.77,1.1l-.21.32a28.29,28.29,0,0,1,4.53,1.06h0a.58.58,0,0,0,.7-.3A.6.6,0,0,0,422.24,129.9Zm-1.83,4.29h0a37.09,37.09,0,0,1-5.88-.1c-.35.55-.7,1.09-1,1.64l.66.09a26.92,26.92,0,0,0,6.42-.33.66.66,0,0,0-.15-1.3Zm1.83-4.29a21.45,21.45,0,0,0-4-1.39c-.26.37-.51.74-.77,1.1l-.21.32a28.29,28.29,0,0,1,4.53,1.06h0a.58.58,0,0,0,.7-.3A.6.6,0,0,0,422.24,129.9Zm-1.83,4.29h0a37.09,37.09,0,0,1-5.88-.1c-.35.55-.7,1.09-1,1.64l.66.09a26.92,26.92,0,0,0,6.42-.33.66.66,0,0,0-.15-1.3Zm1.83-4.29a21.45,21.45,0,0,0-4-1.39c-.26.37-.51.74-.77,1.1l-.21.32a28.29,28.29,0,0,1,4.53,1.06h0a.58.58,0,0,0,.7-.3A.6.6,0,0,0,422.24,129.9Zm-1.83,4.29h0a37.09,37.09,0,0,1-5.88-.1c-.35.55-.7,1.09-1,1.64l.66.09a26.92,26.92,0,0,0,6.42-.33.66.66,0,0,0-.15-1.3Zm1.83-4.29a21.45,21.45,0,0,0-4-1.39c-.26.37-.51.74-.77,1.1l-.21.32a28.29,28.29,0,0,1,4.53,1.06h0a.58.58,0,0,0,.7-.3A.6.6,0,0,0,422.24,129.9Zm-1.83,4.29h0a37.09,37.09,0,0,1-5.88-.1c-.35.55-.7,1.09-1,1.64l.66.09a26.92,26.92,0,0,0,6.42-.33.66.66,0,0,0-.15-1.3Zm1.83-4.29a21.45,21.45,0,0,0-4-1.39c-.26.37-.51.74-.77,1.1l-.21.32a28.29,28.29,0,0,1,4.53,1.06h0a.58.58,0,0,0,.7-.3A.6.6,0,0,0,422.24,129.9Zm-1.83,4.29h0a37.09,37.09,0,0,1-5.88-.1c-.35.55-.7,1.09-1,1.64l.66.09a26.92,26.92,0,0,0,6.42-.33.66.66,0,0,0-.15-1.3Zm1.83-4.29a21.45,21.45,0,0,0-4-1.39c-.26.37-.51.74-.77,1.1l-.21.32a28.29,28.29,0,0,1,4.53,1.06h0a.58.58,0,0,0,.7-.3A.6.6,0,0,0,422.24,129.9Zm-1.83,4.29h0a37.09,37.09,0,0,1-5.88-.1c-.35.55-.7,1.09-1,1.64l.66.09a26.92,26.92,0,0,0,6.42-.33.66.66,0,0,0-.15-1.3Zm1.83-4.29a21.45,21.45,0,0,0-4-1.39c-.26.37-.51.74-.77,1.1l-.21.32a28.29,28.29,0,0,1,4.53,1.06h0a.58.58,0,0,0,.7-.3A.6.6,0,0,0,422.24,129.9Zm-1.83,4.29h0a37.09,37.09,0,0,1-5.88-.1c-.35.55-.7,1.09-1,1.64l.66.09a26.92,26.92,0,0,0,6.42-.33.66.66,0,0,0-.15-1.3Zm1.83-4.29a21.45,21.45,0,0,0-4-1.39c-.26.37-.51.74-.77,1.1l-.21.32a28.29,28.29,0,0,1,4.53,1.06h0a.58.58,0,0,0,.7-.3A.6.6,0,0,0,422.24,129.9Zm-1.83,4.29h0a37.09,37.09,0,0,1-5.88-.1c-.35.55-.7,1.09-1,1.64l.66.09a26.92,26.92,0,0,0,6.42-.33.66.66,0,0,0-.15-1.3Zm1.83-4.29a21.45,21.45,0,0,0-4-1.39c-.26.37-.51.74-.77,1.1l-.21.32a28.29,28.29,0,0,1,4.53,1.06h0a.58.58,0,0,0,.7-.3A.6.6,0,0,0,422.24,129.9Zm-1.83,4.29h0a37.09,37.09,0,0,1-5.88-.1c-.35.55-.7,1.09-1,1.64l.66.09a26.92,26.92,0,0,0,6.42-.33.66.66,0,0,0-.15-1.3Zm1.83-4.29a21.45,21.45,0,0,0-4-1.39c-.26.37-.51.74-.77,1.1l-.21.32a28.29,28.29,0,0,1,4.53,1.06h0a.58.58,0,0,0,.7-.3A.6.6,0,0,0,422.24,129.9Zm-1.83,4.29h0a37.09,37.09,0,0,1-5.88-.1c-.35.55-.7,1.09-1,1.64l.66.09a26.92,26.92,0,0,0,6.42-.33.66.66,0,0,0-.15-1.3Zm1.83-4.29a21.45,21.45,0,0,0-4-1.39c-.26.37-.51.74-.77,1.1l-.21.32a28.29,28.29,0,0,1,4.53,1.06h0a.58.58,0,0,0,.7-.3A.6.6,0,0,0,422.24,129.9Zm0,0a21.45,21.45,0,0,0-4-1.39c-.26.37-.51.74-.77,1.1l-.21.32a28.29,28.29,0,0,1,4.53,1.06h0a.58.58,0,0,0,.7-.3A.6.6,0,0,0,422.24,129.9Zm-1.83,4.29h0a37.09,37.09,0,0,1-5.88-.1c-.35.55-.7,1.09-1,1.64l.66.09a26.92,26.92,0,0,0,6.42-.33.66.66,0,0,0-.15-1.3Zm1.83-4.29a21.45,21.45,0,0,0-4-1.39c-.26.37-.51.74-.77,1.1l-.22.32h0a28.29,28.29,0,0,1,4.53,1.06h0a.58.58,0,0,0,.7-.3A.6.6,0,0,0,422.24,129.9Z"/><path class="cls-1" d="M353,85.1a7.37,7.37,0,0,1-1.45,3.21,10.6,10.6,0,0,1-2.6,2.44,11.05,11.05,0,0,1-3.42,1.52,8.23,8.23,0,0,1-4.29,0l-.56-.17a2.7,2.7,0,1,1,2.55-4.6,3.28,3.28,0,0,0,1.81.64,7.15,7.15,0,0,0,2.48-.25,6.81,6.81,0,0,0,4.23-3.12l0,0a.65.65,0,0,1,.89-.28A.68.68,0,0,1,353,85.1Z"/><path class="cls-1" d="M315,166.93a.58.58,0,0,1-.42-.17l-.07-.07a.65.65,0,0,1,.93-.92.69.69,0,0,1,0,.95A.66.66,0,0,1,315,166.93Z"/><path class="cls-1" d="M385,129.58c-.25-.35-.49-.72-.75-1.07a20.41,20.41,0,0,0-4,1.39.61.61,0,0,0-.32.71.59.59,0,0,0,.74.38h0a27.16,27.16,0,0,1,4.59-1.06Zm0,0c-.25-.35-.49-.72-.75-1.07a20.41,20.41,0,0,0-4,1.39.61.61,0,0,0-.32.71.59.59,0,0,0,.74.38h0a27.16,27.16,0,0,1,4.59-1.06Zm0,0c-.25-.35-.49-.72-.75-1.07a20.41,20.41,0,0,0-4,1.39.61.61,0,0,0-.32.71.59.59,0,0,0,.74.38h0a27.16,27.16,0,0,1,4.59-1.06Zm0,0c-.25-.35-.49-.72-.75-1.07a20.41,20.41,0,0,0-4,1.39.61.61,0,0,0-.32.71.59.59,0,0,0,.74.38h0a27.16,27.16,0,0,1,4.59-1.06Zm0,0c-.25-.35-.49-.72-.75-1.07a20.41,20.41,0,0,0-4,1.39.61.61,0,0,0-.32.71.59.59,0,0,0,.74.38h0a27.16,27.16,0,0,1,4.59-1.06Zm0,0c-.25-.35-.49-.72-.75-1.07a20.41,20.41,0,0,0-4,1.39.61.61,0,0,0-.32.71.59.59,0,0,0,.74.38h0a27.16,27.16,0,0,1,4.59-1.06Zm0,0c-.25-.35-.49-.72-.75-1.07a20.41,20.41,0,0,0-4,1.39.61.61,0,0,0-.32.71.59.59,0,0,0,.74.38h0a27.16,27.16,0,0,1,4.59-1.06Zm0,0c-.25-.35-.49-.72-.75-1.07a20.41,20.41,0,0,0-4,1.39.61.61,0,0,0-.32.71.59.59,0,0,0,.74.38h0a27.16,27.16,0,0,1,4.59-1.06Zm0,0c-.25-.35-.49-.72-.75-1.07a20.41,20.41,0,0,0-4,1.39.61.61,0,0,0-.32.71.59.59,0,0,0,.74.38h0a27.16,27.16,0,0,1,4.59-1.06Zm0,0c-.25-.35-.49-.72-.75-1.07a20.41,20.41,0,0,0-4,1.39.61.61,0,0,0-.32.71.59.59,0,0,0,.74.38h0a27.16,27.16,0,0,1,4.59-1.06Zm0,0c-.25-.35-.49-.72-.75-1.07a20.41,20.41,0,0,0-4,1.39.61.61,0,0,0-.32.71.59.59,0,0,0,.74.38h0a27.16,27.16,0,0,1,4.59-1.06Zm0,0c-.25-.35-.49-.72-.75-1.07a20.41,20.41,0,0,0-4,1.39.61.61,0,0,0-.32.71.59.59,0,0,0,.74.38h0a27.16,27.16,0,0,1,4.59-1.06Zm0,0c-.25-.35-.49-.72-.75-1.07a20.41,20.41,0,0,0-4,1.39.61.61,0,0,0-.32.71.59.59,0,0,0,.74.38h0a27.16,27.16,0,0,1,4.59-1.06Zm0,0c-.25-.35-.49-.72-.75-1.07a20.41,20.41,0,0,0-4,1.39.61.61,0,0,0-.32.71.59.59,0,0,0,.74.38h0a27.16,27.16,0,0,1,4.59-1.06Zm0,0c-.25-.35-.49-.72-.75-1.07a20.41,20.41,0,0,0-4,1.39.61.61,0,0,0-.32.71.59.59,0,0,0,.74.38h0a27.16,27.16,0,0,1,4.59-1.06Zm0,0c-.25-.35-.49-.72-.75-1.07a20.41,20.41,0,0,0-4,1.39.61.61,0,0,0-.32.71.59.59,0,0,0,.74.38h0a27.16,27.16,0,0,1,4.59-1.06Zm0,0c-.25-.35-.49-.72-.75-1.07a20.41,20.41,0,0,0-4,1.39.61.61,0,0,0-.32.71.59.59,0,0,0,.74.38h0a27.16,27.16,0,0,1,4.59-1.06Zm0,0c-.25-.35-.49-.72-.75-1.07a20.41,20.41,0,0,0-4,1.39.61.61,0,0,0-.32.71.59.59,0,0,0,.74.38h0a27.16,27.16,0,0,1,4.59-1.06Zm0,0c-.25-.35-.49-.72-.75-1.07a20.41,20.41,0,0,0-4,1.39.61.61,0,0,0-.32.71.59.59,0,0,0,.74.38h0a27.16,27.16,0,0,1,4.59-1.06Zm0,0c-.25-.35-.49-.72-.75-1.07a20.41,20.41,0,0,0-4,1.39.61.61,0,0,0-.32.71.59.59,0,0,0,.74.38h0a27.16,27.16,0,0,1,4.59-1.06Zm6.72,5a4,4,0,0,0,1.19-1.58,2.63,2.63,0,0,0-.1-2.34,5.51,5.51,0,0,0-3-2.21,10.06,10.06,0,0,0-1.21-.27,2.65,2.65,0,0,0-.61-1.81,4.71,4.71,0,0,0-2-1.28,10.9,10.9,0,0,0-2.05-.44h0a17,17,0,0,0-2-.12,6,6,0,0,0-.61,0,32.67,32.67,0,0,0-3.29.28l-1,.15a7.73,7.73,0,0,0-1.06.24,13.74,13.74,0,0,0-1.93.67,27.82,27.82,0,0,0-2.63,1.28c-1.45.75-2.81,1.62-4.17,2.5s-2.52,1.68-3.75,2.56h0c-.83.58-1.66,1.19-2.48,1.81l-6,4.54-3,2.24a28.61,28.61,0,0,1-3,1.94l-.35.16c.18-1.12.37-2.24.46-3.39a39.22,39.22,0,0,0,.18-5.31,33,33,0,0,0-2.34-10.5l-1.1-2.48-.78-1.47a29.13,29.13,0,0,0,8.54-.24,26.31,26.31,0,0,0,10.1-4.19,35.67,35.67,0,0,0,7.71-7.4,52.05,52.05,0,0,0,3-4.3A28.39,28.39,0,0,0,376.89,99,24.47,24.47,0,0,0,379,88.61a13.92,13.92,0,0,0-1.3-5.33,10,10,0,0,0-3.73-4.18c-.81-.51-1.58-.86-2.37-1.26l-2.35-1.12c-1.56-.74-3.15-1.44-4.75-2.11a94.57,94.57,0,0,0-19.94-6.21,37.82,37.82,0,0,0-10.64-.48,19.52,19.52,0,0,0-5.34,1.36,16.47,16.47,0,0,0-2.48,1.33l-1.54,1c-7.23,3.12-14.2,6.72-21.1,10.49a203.81,203.81,0,0,0-22.94,14.64,181.15,181.15,0,0,0-20.66,17.76,94.71,94.71,0,0,0-8.94,10.34c-2.5,3.5-4.87,7.28-6,11.53-.32.4-.67.79-1,1.2-4.19,5.57-7.82,12-8.83,19.27a28,28,0,0,0-.19,5.5,20.75,20.75,0,0,0,1.07,5.57,10.71,10.71,0,0,0,3.6,5,10.23,10.23,0,0,0,6.05,1.94,15.81,15.81,0,0,0,5.89-1.16,18.61,18.61,0,0,0,5.07-2.94,15.65,15.65,0,0,0,3.95-4.51,14,14,0,0,0,.71-1.39l.3-.76.22-.59.87-2.35A104.61,104.61,0,0,1,272,143.37a179.69,179.69,0,0,1,26.34-31.31q3.72-3.57,7.62-7l1.95-1.69,1-.84.12-.09,0,0-.42.49-.83,1L306,106c-4.53,5.18-9.28,10.21-13.65,15.58a146.67,146.67,0,0,0-12.13,16.93A177.69,177.69,0,0,0,270.67,157a139.21,139.21,0,0,0-7.09,19.74,91.18,91.18,0,0,0-3.36,20.94,64.55,64.55,0,0,0,.72,11.83,13.05,13.05,0,0,0-8.4,5.69,13.49,13.49,0,0,0-2.22,6.53,14.25,14.25,0,0,0,.14,3.51,16.1,16.1,0,0,0,1.07,3.39,14.39,14.39,0,0,0,11,8.27,11.57,11.57,0,0,0,10.11-3.28,28.49,28.49,0,0,0,4,3.12A33.49,33.49,0,0,0,286.86,241a47.76,47.76,0,0,0,10.72,1.21,63.92,63.92,0,0,0,10.56-.81l.66-.11.16,0a6.1,6.1,0,0,1-.37,2.1,10,10,0,0,1-2.77,3.79,9.87,9.87,0,0,0-1.86,2.34,5.45,5.45,0,0,0-.51,3.52,7,7,0,0,0,.47,1.55l.16.37a3.15,3.15,0,0,0,.28.51,5.07,5.07,0,0,0,.74.83,8,8,0,0,0,3,1.46,39.61,39.61,0,0,0,10.72.83c3.49-.06,6.94-.32,10.38-.46,1.72-.08,3.43-.12,5.11-.1a45.26,45.26,0,0,1,5,.5c3.36.46,6.65,1.39,10.1,2.06a25.08,25.08,0,0,0,5.37.62,9.71,9.71,0,0,0,2.91-.44,6.77,6.77,0,0,0,2.76-1.65,7.62,7.62,0,0,0,2.28-5.63,5.12,5.12,0,0,0-1.31-3,.87.87,0,0,0-.13-.15,4.07,4.07,0,0,0,.43-1.09,3.64,3.64,0,0,0-.2-2.43,6.35,6.35,0,0,0-3.19-2.78,22,22,0,0,0-7.28-1.65,61,61,0,0,0-14.49.8,7.61,7.61,0,0,1-2.91,0c-.13-.08-.31-.11-.39-.19s-.16-.11-.14-.17,0-.16-.07-.24,0-.24,0-.45a6.53,6.53,0,0,1,1.16-2.47,6.42,6.42,0,0,1,.91-1.05c.35-.35.91-.85,1.33-1.3a23.12,23.12,0,0,0,4.86-7.47,0,0,0,0,1,0,0,.55.55,0,0,0,.17-.14,32.31,32.31,0,0,0,2.72-3.66,40.84,40.84,0,0,0,2.2-3.86,29.57,29.57,0,0,0,2.87-8.51,20.57,20.57,0,0,0-.76-9.06,72.24,72.24,0,0,0-3.11-8c-2.32-5-4.13-10.15-4.22-15.62a36.18,36.18,0,0,1,.14-4,6.21,6.21,0,0,0,3.51-1.57,20.69,20.69,0,0,0,2.4-2.25c1.42-1.57,2.68-3.19,3.92-4.84,2.45-3.29,4.72-6.65,7-10s4.61-6.62,7.09-9.76a52.65,52.65,0,0,1,4-4.46,16,16,0,0,1,3.08-2.44,15.24,15.24,0,0,1,3.57,0,13.94,13.94,0,0,1,1.95.34,7.33,7.33,0,0,1,.95.24l1.6.49c.58.16,1.15.31,1.74.44a13.58,13.58,0,0,0,3.73.27c.13,0,.27,0,.4,0a8.51,8.51,0,0,0,3.46-1.14,5.41,5.41,0,0,0,1.93-2.14,3.74,3.74,0,0,0,.43-1.46,3.24,3.24,0,0,0,0-1.12v0a3.77,3.77,0,0,0-1.27-2.12v0a.24.24,0,0,1-.08-.06s0,0,0,0A4.21,4.21,0,0,0,391.69,134.62Zm-139.45-8.7a103.08,103.08,0,0,1,9.12-9.83A211.57,211.57,0,0,1,282.08,99a253.14,253.14,0,0,1,22.65-14.51c3.35-1.95,6.71-3.87,10.1-5.73-2.51,1.92-5,3.86-7.47,5.83L299.25,91l-8.12,6.37c-5.44,4.2-11,8.27-16.59,12.3-9.71,7.26-19.41,14.82-27.47,24.11A42.71,42.71,0,0,1,252.24,125.92Zm10.91,106.7a10.61,10.61,0,0,1-8-5.73,11.09,11.09,0,0,1,0-10.14,11.81,11.81,0,0,1,3.52-4.16,11.1,11.1,0,0,1,2.54-1.42,48.26,48.26,0,0,0,2.18,7.9,46,46,0,0,0,5.06,9.86,30.65,30.65,0,0,0,2.3,2.81A14.69,14.69,0,0,1,263.15,232.62Zm105.1-89.68a49.73,49.73,0,0,0-4.3,4.42c-2.69,3.09-5.19,6.32-7.63,9.53s-4.88,6.47-7.41,9.57c-1.26,1.54-2.58,3-3.94,4.4a18.88,18.88,0,0,1-2.09,1.81,3,3,0,0,1-.88.53l-.08.05a.19.19,0,0,1,0-.08,1.86,1.86,0,0,1,.07-.34c.27-1.34.61-2.69,1-4,.13-.41.27-.84.38-1.28l0,0a73.16,73.16,0,0,0,8.05-8.39c1.45-1.71,2.83-3.47,4.19-5.25s2.67-3.63,4.05-5.15a22.89,22.89,0,0,1,9.17-6.25C368.64,142.61,368.45,142.78,368.25,142.94Zm22.26-9.69a2.79,2.79,0,0,1-.7.41,1,1,0,0,1-.33.13,11,11,0,0,1-1.37.29H388a37.38,37.38,0,0,1-5.9.1h0a.66.66,0,0,0-.67.54.68.68,0,0,0,.54.76,26.9,26.9,0,0,0,6.42.33c.22,0,.46-.06.69-.11l.56-.08a.35.35,0,0,0,.06.14l0,0a2.7,2.7,0,0,1,.46,1.66,1.65,1.65,0,0,1-.16.71,2.71,2.71,0,0,1-1.6,1.45,9.29,9.29,0,0,1-5.42,0c-.48-.12-1-.26-1.46-.4l-1.57-.53c-.33-.11-.68-.21-1-.29a20.47,20.47,0,0,0-2.58-.45,17.8,17.8,0,0,0-4.78.24,18.66,18.66,0,0,0-2.45.61,27.59,27.59,0,0,0-11.53,7.9c-1.57,1.78-2.85,3.54-4.27,5.2s-2.8,3.4-4.29,5a66.31,66.31,0,0,1-9.55,8.65c-.87.63-1.7,1.14-2.66,1.71-.47.28-.88.52-1.28.71a2.9,2.9,0,0,1-.58.25l-.75.29a20.81,20.81,0,0,1-5.79,1.41,14.73,14.73,0,0,1-10.67-3.65,15.81,15.81,0,0,1-5.32-10.46,1.15,1.15,0,0,0-2.28,0,12.39,12.39,0,0,0-.07,1.36,17.68,17.68,0,0,0,1,5.76,17.4,17.4,0,0,0,4,6.16,17.61,17.61,0,0,0,6.21,4.06,17.86,17.86,0,0,0,7.39,1.14,22.51,22.51,0,0,0,7.07-1.75l.8-.33a9.65,9.65,0,0,0,.92-.43c.59-.31,1.11-.64,1.6-1,.87-.58,1.85-1.27,2.71-2v0c-.41,1.17-.8,2.38-1.11,3.58-.1.34-.18.68-.26,1v0c-.26,1-.47,2-.63,3a37.52,37.52,0,0,0-.41,4.38c-.26,5.76,1.41,11.54,3.44,16.71s3.86,10.43,2.73,15.28a27.16,27.16,0,0,1-2.65,6.65,24.25,24.25,0,0,0-4-11.31,23.47,23.47,0,0,0-19.92-10.22,23,23,0,0,0-7.45,1.47A22.36,22.36,0,0,0,300.22,209a.67.67,0,0,0,.16.85.67.67,0,0,0,.93-.11,21.22,21.22,0,0,1,11-7.46,20.54,20.54,0,0,1,12.88.56,20,20,0,0,1,9.76,8,19.75,19.75,0,0,1,3,12.08,21.88,21.88,0,0,1-4.54,11.71c-.35.46-.66.78-1.09,1.31a12.66,12.66,0,0,0-1.23,1.78,10.13,10.13,0,0,0-1.29,4.14,6.71,6.71,0,0,0,.07,1.33,4.27,4.27,0,0,0,.64,1.39,3.72,3.72,0,0,0,1.14,1,7.13,7.13,0,0,0,1.25.48,11,11,0,0,0,4.16-.15,55.09,55.09,0,0,1,13.81-1.29,20.1,20.1,0,0,1,6.56,1.32,4.11,4.11,0,0,1,2.12,1.75,1.55,1.55,0,0,1,0,1.33,4.29,4.29,0,0,0-.65-.31c-3.67-1.37-7.32-1-10.74-.33a.63.63,0,0,0-.53.67.65.65,0,0,0,.67.62h0a35.27,35.27,0,0,1,5,0A13,13,0,0,1,358,250.8a3.5,3.5,0,0,1,2.27,2.86,5.21,5.21,0,0,1-1.71,3.59,5.34,5.34,0,0,1-3.81,1.32,31.89,31.89,0,0,1-4.88-.38c-3.34-.53-6.77-1.18-10.22-1.68a72.52,72.52,0,0,0-10.48-.58c-3.44,0-6.88-.11-10.29-.27-1.7-.08-3.39-.21-5-.4a26.83,26.83,0,0,1-4.74-.85,4.47,4.47,0,0,1-1.64-.78l-.15-.13s0,0,0-.05l-.12-.22a7.19,7.19,0,0,1-.33-.9,2.47,2.47,0,0,1,0-1.52,8,8,0,0,1,1.08-1.9,13.86,13.86,0,0,0,2.58-4.94,17.11,17.11,0,0,0,.43-2.8,1.62,1.62,0,0,0,0-.42,1.42,1.42,0,0,0-.23-.77,1.71,1.71,0,0,0-1.32-.81H309l-.14,0-.33,0-.62,0a48.44,48.44,0,0,1-10.08-.4,40.66,40.66,0,0,1-18-6.86,29.06,29.06,0,0,1-6.52-6.53,40.74,40.74,0,0,1-4.43-8.46,53.28,53.28,0,0,1-3.15-19.22c.05-13.3,3.68-26.61,8.54-39.28a167.6,167.6,0,0,1,8.5-18.59A138.52,138.52,0,0,1,294,122.78c4.13-5.47,8.54-10.73,13-16l1.65-2,.79-1,.4-.53.2-.27a.88.88,0,0,0,.13-.71.84.84,0,0,0-1-.59,2.85,2.85,0,0,0-.67.43l-1,.79-.84.64h0l-1.2.91c-.69.53-1.38,1.08-2.05,1.64l0,0-.07,0c-2,1.56-3.95,3.18-5.89,4.84-10.47,9-20.4,18.82-28.67,30.13A100.45,100.45,0,0,0,258,159.31l-1,2.46-.45,1a5.57,5.57,0,0,1-.48.9,15,15,0,0,1-2.72,3.3,13.08,13.08,0,0,1-7.76,3.68,5.93,5.93,0,0,1-6.09-4.12,17,17,0,0,1-1.06-4.49,24.26,24.26,0,0,1,0-4.82c.61-6.48,3.63-12.7,7.52-18.19A93.34,93.34,0,0,1,259.56,124c2.53-2.3,5.14-4.54,7.81-6.69s5.43-4.21,8.19-6.22c11.25-7.92,22.63-15.83,33.45-24.37,5.47-4.18,10.8-8.53,16.38-12.46,5.13-4.5,12.11-4.44,18.73-3.43a92.68,92.68,0,0,1,19.54,5.75q2.4,1,4.72,2l2.34,1.07c.76.37,1.56.73,2.2,1.12a8.64,8.64,0,0,1,3.14,3.37,11.91,11.91,0,0,1,1.23,4.63c0,.45,0,.89,0,1.36a4.75,4.75,0,0,1-1.34-.85,4.87,4.87,0,0,1-1.31-1.68s0-.08-.07-.11a.68.68,0,0,0-1-.24.71.71,0,0,0-.24,1,6,6,0,0,0,1.95,1.92,5.72,5.72,0,0,0,2,.82,21.48,21.48,0,0,1-1.81,7.5,25.5,25.5,0,0,1-3.52,5.76,1.64,1.64,0,0,0-1.4-.25,3.89,3.89,0,0,1-2.91-.77,13.06,13.06,0,0,1-2.82-2.66h0a.68.68,0,0,0-.8-.18.65.65,0,0,0-.31.88,14.73,14.73,0,0,0,2.44,3.7,8.21,8.21,0,0,0,1.92,1.52,6.42,6.42,0,0,0,1.55.61c-4.38,4.94-10.29,8.41-16.58,8.89a27.64,27.64,0,0,1-9.52-.85l-1.17-.32a3.39,3.39,0,0,0-.86-.08,2.62,2.62,0,0,0-1,.32,2.55,2.55,0,0,0-1.21,1.62,2.63,2.63,0,0,0,.27,1.94,1.45,1.45,0,0,0,.25.36l.1.13,1.52,1.94,1.36,2.05,1.23,2.12a30.33,30.33,0,0,1,3.09,9.36,36.29,36.29,0,0,1,0,9.14,10.7,10.7,0,0,1-1.39.45,12.47,12.47,0,0,1-3.44.27,12.88,12.88,0,0,1-6.5-2.67.54.54,0,0,0-.72.06.55.55,0,0,0,0,.77,12.75,12.75,0,0,0,7,3.65,12.09,12.09,0,0,0,4.07,0,18.58,18.58,0,0,0,3.84-1.26c.6-.31,1.19-.61,1.76-.95s1.14-.72,1.65-1.07l3.09-2.21,6.11-4.4,2.47-1.71c1.15-.82,2.3-1.62,3.47-2.37a51.36,51.36,0,0,1,6.59-3.77,12.85,12.85,0,0,1,1.62-.6c.27-.09.51-.12.78-.19l.91-.14c1.2-.19,2.42-.34,3.6-.42.39,0,.75,0,1.12,0a10.15,10.15,0,0,1,2.31.14l.25.05a1.87,1.87,0,0,1,1.43.93c-.24,0-.48,0-.71,0a.12.12,0,0,0-.08,0,12.39,12.39,0,0,0-2.11.35,20.41,20.41,0,0,0-4,1.39.61.61,0,0,0-.32.71.59.59,0,0,0,.74.38h0a27.16,27.16,0,0,1,4.59-1.06c.44,0,.85-.08,1.28-.09a4.3,4.3,0,0,1,.95,0,4.57,4.57,0,0,1,3.74,1.81C391.39,131.87,391.13,132.75,390.51,133.25ZM309.15,102.4s0,0,0-.07.1-.06.08,0S309.23,102.45,309.15,102.4ZM385,129.58c-.25-.35-.49-.72-.75-1.07a20.41,20.41,0,0,0-4,1.39.61.61,0,0,0-.32.71.59.59,0,0,0,.74.38h0a27.16,27.16,0,0,1,4.59-1.06Zm0,0c-.25-.35-.49-.72-.75-1.07a20.41,20.41,0,0,0-4,1.39.61.61,0,0,0-.32.71.59.59,0,0,0,.74.38h0a27.16,27.16,0,0,1,4.59-1.06Zm0,0c-.25-.35-.49-.72-.75-1.07a20.41,20.41,0,0,0-4,1.39.61.61,0,0,0-.32.71.59.59,0,0,0,.74.38h0a27.16,27.16,0,0,1,4.59-1.06Zm0,0c-.25-.35-.49-.72-.75-1.07a20.41,20.41,0,0,0-4,1.39.61.61,0,0,0-.32.71.59.59,0,0,0,.74.38h0a27.16,27.16,0,0,1,4.59-1.06Zm0,0c-.25-.35-.49-.72-.75-1.07a20.41,20.41,0,0,0-4,1.39.61.61,0,0,0-.32.71.59.59,0,0,0,.74.38h0a27.16,27.16,0,0,1,4.59-1.06Zm0,0c-.25-.35-.49-.72-.75-1.07a20.41,20.41,0,0,0-4,1.39.61.61,0,0,0-.32.71.59.59,0,0,0,.74.38h0a27.16,27.16,0,0,1,4.59-1.06Zm0,0c-.25-.35-.49-.72-.75-1.07a20.41,20.41,0,0,0-4,1.39.61.61,0,0,0-.32.71.59.59,0,0,0,.74.38h0a27.16,27.16,0,0,1,4.59-1.06Zm0,0c-.25-.35-.49-.72-.75-1.07a20.41,20.41,0,0,0-4,1.39.61.61,0,0,0-.32.71.59.59,0,0,0,.74.38h0a27.16,27.16,0,0,1,4.59-1.06Zm0,0c-.25-.35-.49-.72-.75-1.07a20.41,20.41,0,0,0-4,1.39.61.61,0,0,0-.32.71.59.59,0,0,0,.74.38h0a27.16,27.16,0,0,1,4.59-1.06Zm0,0c-.25-.35-.49-.72-.75-1.07a20.41,20.41,0,0,0-4,1.39.61.61,0,0,0-.32.71.59.59,0,0,0,.74.38h0a27.16,27.16,0,0,1,4.59-1.06Zm0,0c-.25-.35-.49-.72-.75-1.07a20.41,20.41,0,0,0-4,1.39.61.61,0,0,0-.32.71.59.59,0,0,0,.74.38h0a27.16,27.16,0,0,1,4.59-1.06Zm0,0c-.25-.35-.49-.72-.75-1.07a20.41,20.41,0,0,0-4,1.39.61.61,0,0,0-.32.71.59.59,0,0,0,.74.38h0a27.16,27.16,0,0,1,4.59-1.06Zm0,0c-.25-.35-.49-.72-.75-1.07a20.41,20.41,0,0,0-4,1.39.61.61,0,0,0-.32.71.59.59,0,0,0,.74.38h0a27.16,27.16,0,0,1,4.59-1.06Zm0,0c-.25-.35-.49-.72-.75-1.07a20.41,20.41,0,0,0-4,1.39.61.61,0,0,0-.32.71.59.59,0,0,0,.74.38h0a27.16,27.16,0,0,1,4.59-1.06Zm0,0c-.25-.35-.49-.72-.75-1.07a20.41,20.41,0,0,0-4,1.39.61.61,0,0,0-.32.71.59.59,0,0,0,.74.38h0a27.16,27.16,0,0,1,4.59-1.06Zm0,0c-.25-.35-.49-.72-.75-1.07a20.41,20.41,0,0,0-4,1.39.61.61,0,0,0-.32.71.59.59,0,0,0,.74.38h0a27.16,27.16,0,0,1,4.59-1.06Zm0,0c-.25-.35-.49-.72-.75-1.07a20.41,20.41,0,0,0-4,1.39.61.61,0,0,0-.32.71.59.59,0,0,0,.74.38h0a27.16,27.16,0,0,1,4.59-1.06Zm0,0c-.25-.35-.49-.72-.75-1.07a20.41,20.41,0,0,0-4,1.39.61.61,0,0,0-.32.71.59.59,0,0,0,.74.38h0a27.16,27.16,0,0,1,4.59-1.06Zm0,0c-.25-.35-.49-.72-.75-1.07a20.41,20.41,0,0,0-4,1.39.61.61,0,0,0-.32.71.59.59,0,0,0,.74.38h0a27.16,27.16,0,0,1,4.59-1.06Z"/><path class="cls-1" d="M292.66,392.48a2.68,2.68,0,0,1-2.62-2.94V361.26h1.24a2.65,2.65,0,0,1,2.94,2.89V376a150.26,150.26,0,0,1,10.28-13.09c1-1.06,2.11-1.65,4.73-1.65h2.07v.23c-3.17,2.75-8.59,9.55-12.45,14.51,1.75,2.38,6.89,8.76,9,11.15a11.74,11.74,0,0,0,4.77,3.54c-.64,1.19-1.14,2-2.7,2a5.51,5.51,0,0,1-4-1.7c-3.53-3.9-9.41-11.2-11.75-14.51v16Z"/><path class="cls-1" d="M328.51,392.48c-1.61,0-2.75-.92-2.75-3.08V361.26h2a2.22,2.22,0,0,1,2.25,2.11v29.11Z"/><path class="cls-1" d="M364.46,365.07h-7.35v27.41h-1.56c-1.79,0-2.71-.6-2.71-2.66V365.07h-9.5v-1.56c0-1.2.73-2.3,2.66-2.3h20.89v1.61A2.56,2.56,0,0,1,364.46,365.07Z"/><path class="cls-1" d="M400.13,368.19c-1.74-2.62-4.86-3.49-7.66-3.49-6.75,0-11.25,4.73-11.25,11.39,0,8.58,5,13,11.43,13a9.52,9.52,0,0,0,7.48-3.08h.23v1.28c0,3-3.07,5.7-8.54,5.7-8.17,0-14.83-6.57-14.83-16.16,0-8.22,5.6-16,15.43-16,5.14,0,8,3.17,8,5.78v1.61Z"/><path class="cls-1" d="M437.18,392.48a2.82,2.82,0,0,1-2.75-3.08V378.11H418.68v14.37h-1.56a2.76,2.76,0,0,1-2.67-3.08V361.26h2.25a2,2,0,0,1,2,2.11v10.88h15.75v-13h2a2.14,2.14,0,0,1,2.15,2.11v29.11Z"/><path class="cls-1" d="M469.64,392.71h-3.86c-7.8,0-11.34-4.5-11.34-13v-5.64a40.5,40.5,0,0,1,1.06-8.45c.73-3,1.88-4.36,3.95-4.36h16.29V363c0,1.1-.68,2.15-3,2.15H459.77a41.87,41.87,0,0,0-1.11,9.51h13.55V376c0,1.24-.83,2.25-2.71,2.25H458.66v2.3c0,6.28,2.35,8.4,8.54,8.4h2.39a21.54,21.54,0,0,0,5.88-.88v1.2C475.47,391.38,474.73,392.71,469.64,392.71Z"/><path class="cls-1" d="M512.84,392.48c-2.85,0-5.37-1.56-8.68-8.22l-6.61-13.36a17.35,17.35,0,0,0-3.44-5.19v26.77h-1.75c-1.33,0-2.34-1-2.34-2.85V361.21h2c3.67,0,6.15,2.53,8,6.25l6.61,13.4c1.2,2.39,2.16,4.78,3.54,6.48V361.26h1.74a2.17,2.17,0,0,1,2.21,2.2v29Z"/><path class="cls-1" d="M209.6,301.46h-7.95v43h-6.72c-4.62,0-8.67-2.11-8.67-8v-35h-16v-5.34c0-3.41,3-7.46,8.67-7.46h39.21V294C218.18,297.49,214.29,301.46,209.6,301.46Z"/><path class="cls-1" d="M286.65,315.64c-2.68,8.67-8.35,22.77-13.37,29.49H269c-3.81,0-5.76-1.29-6.89-3.08-2.76-4.21-6.08-12.55-7.94-18.31-1.78,6.57-6.16,16.61-10,21.39h-3.8c-3.57,0-5.51-.56-7.13-3.08-6.16-9.47-12.56-26.81-14.67-42.12h8.18c5.11,0,7.86,3.48,8.35,6.31a95.65,95.65,0,0,0,5.59,19,133,133,0,0,0,7.45-23.41h6a9.25,9.25,0,0,1,8.51,6.64,101.4,101.4,0,0,0,5.83,16.77c2.43-5.59,5.18-15.39,6.64-25.27h7.21c4.78,0,6.73,3,6.73,5.58C289.08,307.46,287.62,312.56,286.65,315.64Z"/><path class="cls-1" d="M317.36,298.71c12.15,0,23.09,9.24,23.09,23,0,14.58-8.83,24-24.23,24-12.72,0-23.09-9.4-23.09-22.52C293.13,308.43,303.34,298.71,317.36,298.71Zm-1,12.15c-4.21,0-8,4.46-8,10.53,0,8.59,3.41,12.32,8.83,12.32,4.87,0,8-4.46,8-10.61C325.21,315.08,321.73,310.86,316.38,310.86Z"/><path class="cls-1" d="M394.73,345.13h-6.48c-14.18,0-20.25-7.13-20.25-21.22V288.58h6.48c6.07,0,8.91,3.16,8.91,9.48v24.79c0,7.3,1.94,9.48,8.91,9.48h2.43c4.46,0,9.56-.73,11.83-1.7H407v5.27C407,341.57,403.56,345.13,394.73,345.13Z"/><path class="cls-1" d="M429.66,345.7c-8.59,0-19-4.05-19-14.18,0-9.88,7.13-14.9,23.33-14.9h2.19v-1.87c0-3.64-2.84-4.54-8.92-4.54-8.34,0-11.42,2-14.58,4.87h-.4v-5.43c0-5.51,5.75-11,18.47-11C443,298.63,451,304.87,451,318v6.89C451,341.08,445.86,345.7,429.66,345.7Zm6.8-19.52h-3.08c-5.83,0-8.18,1.45-8.18,4.45,0,2.84,1.78,4.29,6.08,4.29,2.75,0,5.18-1.37,5.18-5.42Z"/><path class="cls-1" d="M481.19,345.78a23.22,23.22,0,0,1-23.26-22.85c0-15,9.24-24.3,21.07-24.3,5.67,0,9.88,2.51,11.5,6V284.53H496c6.16,0,9.48,3.24,9.48,10.78v25.84C505.49,337.27,498.93,345.78,481.19,345.78Zm-.33-35.24c-4.13,0-7.61,4.29-7.61,11.1,0,8.75,4.05,12.31,9.64,12.31,4.78,0,7.29-3.72,7.29-10.69C490.18,313.29,486.37,310.54,480.86,310.54Z"/><path class="cls-1" d="M522.43,297.41a7.63,7.63,0,1,1,8-7.61A7.87,7.87,0,0,1,522.43,297.41Zm7.29,47.72c-8.18,0-14.58-4.05-14.58-14.58V301.3h3.8c8.75,0,11.59,2.51,11.59,10.62v16.36c0,4,1.86,5.19,6.16,5.19h1.86V338C538.55,343.35,534.5,345.13,529.72,345.13Z"/><path class="cls-1" d="M564.48,327.71h-6.65c.89,4.46,4.54,6.57,10.94,6.57,7.13,0,11.59-1.14,14.1-2.84h.57V335c0,5.67-4.62,10.77-17.34,10.77-15.4,0-23.5-10.37-23.5-22.68,0-13.53,9.16-24.55,22.93-24.55,11.67,0,20.74,6.56,20.74,17.9C586.27,325.36,579.55,327.71,564.48,327.71Zm1-17.66c-5.43,0-7.7,3.49-8.1,7.78h6c7.3,0,8.59-1.13,8.59-3.08C572,312.48,570,310.05,565.53,310.05Z"/><path class="cls-1" d="M610,345.78c-12.15,0-16.53-4.45-16.53-10.94v-4.45h.41c2.92,2.19,7.37,3.89,13.69,3.89,5.59,0,7.37-1.3,7.37-3.49,0-2-1.05-2.83-10.29-4.13-8-1.13-12.23-4.78-12.23-11.91,0-10.69,10.13-16.12,20.34-16.12,9.88,0,15.88,4,15.88,10.61v4.62h-.41c-3-2.19-7.7-3.73-13.69-3.73-5.75,0-7.62,1.54-7.62,3.41,0,1.7,1,2.27,10.29,3.8,7.46,1.22,12.48,5.27,12.48,12.81C629.7,339.71,622.25,345.78,610,345.78Z"/></svg>