<svg id="Layer_2" data-name="Layer 2" xmlns="http://www.w3.org/2000/svg" viewBox="0 0 800 662.87"><defs><style>.cls-1{fill:#231f20;}</style></defs><path class="cls-1" d="M398.36,135.28c1.12-.17-.52-1,.76-.37C398.93,135.34,398.69,135.65,398.36,135.28Z"/><path class="cls-1" d="M394.08,359c-2.23-.23-3.77-1.72-5.07-3.41-.68-.83-1.3-1.71-2-2.51a8.8,8.8,0,0,0-2.44-2c-.37-.3,1.31-.86.38-1.45-4.11-1.7-6.46-7.64-7.25-12.48l.52,0c-.16-.92-2-1.13-2.25-2.05.26-.15.51.06.75-.32-.88.22-1.16-1.29-1.92-1.33.12-.49.75-.79.86-1.39h-1.13c-2.79-.22-1.54-3.29-3.53-4.57.25,0,.5.09.63-.16-2.77-2.29-4.28-6.15-6.3-9.27a1.85,1.85,0,0,0,1.3-.52c-1,.27-1.75-.65-2.35-1.46.8-.86-1.6-1.14-1.53-2.44H363c-1.39-.31.07-1.42-1.45-1.49l.55-.85c-1.54.29.21-1.45-.78-1.78l-.28.15c-.61-.45-.06-1.08-.54-1.54l.13-.13c-1-1.15-.53-2.27-1.6-1.75.66-.85,1,1.1,1.91-.19-3.07-3.84-4.86-8.42-6.8-12.8.22-.69.22-1.07.58-1.36-.41-.34-.92-1.56-1.66-1.72.09.14.44-.53.39-.78.06-1-1.58-.35-1.48-1.44a1,1,0,0,0,1.21-.11c-1.18-.38-1.48-1.44-2.13-2.21.24.06.44.23.77.05-1.38-.56-.55-1.86-1.52-2.45l.77.05c.18-1.7-1.5.16-1.55-1.22.32.2.53,0,.8-.06-1.62-.62-2-2.57-2.86-3.52a.47.47,0,0,0,.28-.06c-.64-1.15-.79-2.56-1.85-3.68.09-.6,1.62-.48.86-1.66-1.26.57-1.41-2-2.55-.62-.25-1.17-.47-3.1-1.18-3.67.68.3,1.36-1.16,1.83-.29l.5-1c.57-.11.1.78.68.29-.23-.43-1.26-1.56-1.22-2.05-1.12-.54-2.89-.74-3.6-2.06.76.45,1.28-.91,1.67-.56l-3.22-1c-.23-.44,1-.49.4-1-.33.17-.65,0-1-.14.08-.23-1-1.81.16-2.48.43-.39.55.65.81,0-.33-.85-.77-.72-1.11-1.57l.16-.08c0-.63-1.15-1.46-1.63-.59.1.41.71-.43.55.29-.89-.12-1.46-1-1.79-1.89.32.21.64.05,1,0a9.35,9.35,0,0,1-3-3c-.62.2,1.28.1,1,.4.27-2-2.39-3-1.62-4.82.18.18-.83.41-.66.34-.2-.83.7-1.09.19-1.5.5-.23-.39-.6-.74-1.09-.47-.15.21-.22.43.23-.7-.6-2.45-3.38-2.25-5.36-.33.14-1.61-.68-1.7-1.1l.86-.09c.37-.52-.49-1.33.18-1.61-1.26-.55,1.89,3,.76,2.12.58-.51-1.81-1.21-.62-1.31-.28-.8-1.47-1.29-.92-2.31-.06.27,1.32.33,1.08-.31-.48-1.11-.49-.22-1-1.07l-.5-.49c-.8.19-.19-1.07-.95-.38.61-.33-.89-1.58.47-1.83l1.08-.14c-.22-.47-1.33-.5-1.9-.77a.82.82,0,0,1,.43-.3c-1.62.36-.21-1.24-1.62-1.49.24-1.2-.66-2.71.21-3.47-.69-.69-1.46-1.29-1.34-2.31.19.15.3.39.66.36.33-.71-.13-.74-.52-1.21.27.05.64-1.4,1-2.19-.68-.69-1.48-.21-2-.16,1.39-1.11-1.58-2.07-.32-3.34.28.24,1,1,1.29.25,1.43-1.1-1.5-1.24-1-2.62l-1.26.58c.7-.71-1.15-1.62.23-1.78-.57-.3.13-1.51-1.13-1.11.63-2.19-1.59-4.75.52-6.39-.27-.25-.17-1-.81-.74-.64.6.63.57.17.84-.09-.25-.45-.25-.64-.24.19-.68.2-1.18,1.39-.78.57-1.51-2.46-1.05-2.26-2.9.55,0,.74-.18.56-.68-.36-.28-.73-.55-1.08-.84.07-1.18,1.15-.83,2.06-1-.24-.58-.29-1.34-1-1.52l1.06-.9c-.77.65-.62-.42-.88-.68l.26.25c.37-.16,0-.83-.12-1.17-.56.15-.69.9-.81,1.32-.44-.26-.41-.76-.94-1.11.92,0,.51-1.09.54-1.58s-.89-.54-.88-.71c.47-.07,0-.92.67-.56.18.17-.4.49.06.76.3-.41,1.12-.46.43-1.16-.53-.52-1.77.35-1.34-.81.26.26.63.28,1,.46.12-.35.22-.71.36-1.07l-.83,0c.2-.16.28-.07.38-.15-.89-.21-.39-1.54-1.39-1.68-.13-.52.48-1.15.53-1.66l.08.09a1.43,1.43,0,0,0-.55-1.89h.18a1.88,1.88,0,0,0-.68-1.49c.56-.89,3.1-.5,2-1.35-.1-.84-1.59-1.24-2.11-.86.5-1.57-.91-3.26.33-4.73-.35-.21-.55-.07-.76-.52.24-2.26-1.17-4.77.52-6.63.34.68.82.06,1.3,0-.74-.56.78-.64-.49-.86-.75,0-1.11,0-1.43.62-.38-1.39-.27-3.58.49-4.32-.37.37-.58.05-.78-.28,1.18.19,1.46-.83,1.12-1.67l-.71-.2.81-.44c-.19-.33-1.48-.54-.66-1.26a1.9,1.9,0,0,0,.8-.12c-.46-.92-1.21-2.35-.39-3.16l1.21-.51c0-.41-.44-1.26-.93-.63,1.05-1.44,1.5-2.42,2.53-2.58a8,8,0,0,1,.44-5.48,15.15,15.15,0,0,1,3.36-4.74l.33.44c1-.31-.34-1,.4-1.22.15.58,1.29.31,1.23,1.27,1.3-.48.57-1.81,1.07-2.58-.36-.64-.23.79-.69,0-.06-.33,1.77-.72,1.28-1.71.52.13.79.93.92,1.38.1-.3.21-.58.32-.88.76.24.63,1,.58,1.79s0,1.61.81,1.94c.14-.18.27-.37.41-.54,1.14.55-.53,2,.93,1.39.21-.81-.18-2.46-1-2.47,1.07-1.12-.87-2.54.63-3.41.73.29-1.08.87-.32,1.44,1.13.3,1.09-1.26,1.86-1.34-.88,0-.86-1.24-.49-1.68,1,0,0,1.15,1.13.68-.13-.64.67-1.58-.4-1.51-.24-1.48,1.33-.24,1.45-1.51.77.73-.12,2.61,1.27,2.49-.6-.79.93-1.85-.29-2.87.6,0,.95.72.84,1.41.89.24,1-2.32,1.91-.64l-.13-1c.33.21.72.31,1.25.68.59-.21,1.45-1.94,1.89-.52.14-.22,1.5-.6.66-1.4-1.05-.31-.72,1-1.66-.11,1,.86,1.18-.56,1.56-1.08l.25.52c.23-.31.94-.42.93-1.06a.6.6,0,0,0,.38.78l0-.93c1.05-.78.73,1.37,1.78.8l-.66.9c.15-.2.76.48,1.22.06,0-.82.1-1.85.11-2.5.55-.52.54.78.94-.19l-.56,1.16c-.05.29.92,1.11,1.75.84.46-.41,1-1.74,0-1.93.43-.13,1.16.18,1,.83.89-.52-.35-.79.36-1.49.48.43,1.73.86,2.56,1.46l-.54,1.51.57-.13c-.48,1.21.58.7.43,1.89.43.08.81-.41,1.11-.78-1.57-1.48.71-2.7,0-4.23,1.51-.82,1.87,3.67,3,.8-.37-.36.16-1.75-.75-1.07,1,0,.34-1.76,1.66-1.35-.74.85,1.27,1.44.21,2.66,0-.55-.78-.25-.94-.06.54.53.26,1.63,1.26,1.42.58-.29,1.42-.47,1.13-1.29s-.93.28-.71-.73c1.17-.56,1.64.81,1.85-.93-.76.28-1.14-.64-1.25-1.27l.85-.56-.06.65c1.56.16.23-1.21,1.7-1.3l.88,1.11c-.16,1.09-2.16-.11-1.6,1.55.93-.1,1.09-1,2-.72-.17.18-.43.27-.59.45.34,0,1.05,2.21,2.14.67.59-.63.08-.64,0-1.28,1.46-.43,1.82-1.13,2.77-1.37,0,1.28,1.72-.12.83,1.31-.58-.66-2.75-.29-3.08,1,.76,1.39-1.2,0-1.27,1.53,1.18-.16,1.35,1.31,1.69,2.23.33,0,.58-.43.75-.61,0-.92-.42-.84-.59-1.77a3.56,3.56,0,0,0,3.16-1.6c.5.4.47,1.32,0,1.46a13,13,0,0,1,4.74-.39c-1.11-1.39,1.63-.5.86-1.67-.83-.26-1.64-1.24-1.25-2,.52,0,0,.65.29.94.57-.86,1.12,1.21,1.64-.13-1.42.62-.13,1.83-.3,3,1-.75,0,.82,1,.73a10.64,10.64,0,0,1,3.33-1.63c1.49,1,3.64-.16,4.94-.22.69.58.26,1.9,1,2.11.85,0-.65-1.4.62-.83l-.12.27c.38-.31,2.3.89,2.69-1l-.4,1.43c.23.13.45-.2.65-.35,0,.46.27.88-.11,1.19.76,1,1.61-.13,2.46-.15l-.52-.86c1.46-.63,2.4.24,3.8,0l-.08.82.85-.45c-.24.79.48,1.33,1,.7L394,134.56c-.56-.52.69-1,.36-1.8s-1.58-.57-1.81.22c.48.11.51-.06.91-.34.11,1.15-.63,1.07-1,1.82.25,0,.6.33.67,0a2.25,2.25,0,0,1-1.85.62c.57-.43-.29-.72-.06-1-.1,1-.89,1.3-1.91,1-.72-1.16-1.92.75-3.1.43a4.93,4.93,0,0,1,1.82-2.26c-.75-.51-.84,0-1.6-.49-.36.76-.6,1.94-1.56,2.43l-.07-.75c-.88.4-.84,1.52-2,1.33a32.17,32.17,0,0,0-5.35-.16l-.11-.75c-.7,1.65-2.66.82-3.68,1.64-1.93-.53-3.91,1.16-5,0a48.87,48.87,0,0,1-9.24,2.49l.33-1.2c-.43.92-.51-.53-1.07-.25.86.72-.57,1.29-.84,2-1.65-.5-3.34.85-4.42,1.94l-.23-.72c-.95,1.7-2.8.92-4.48,1.18-.27-.24-.77-.84-1.23-.61-.51,1.43-1,1.49-2,2.62a10.24,10.24,0,0,1-3.46.46,17.56,17.56,0,0,1-4.17,3.19,10.09,10.09,0,0,0-3.6,3.22l-.76-.52a13.72,13.72,0,0,1-2.35,4.16,6.86,6.86,0,0,0-1.62,4l-1.35-.73a1.23,1.23,0,0,0,.9,2.06c-.67.72.24,2.19-1.07,2.53-.43.85.52,1.2.63,2a6.56,6.56,0,0,0-.47,4.3l.11-.44c-.32-.21-1-.26-1.08.19.39.69-.46,2.53,1.36,1.87-1.1,1.95.94,4.65-.41,6.64.49-.18.6.31.94.51.11,1.76-.91,3.69.09,5-.23.3-.88-.39-.87.33.22.42.64,0,1,.48a7.9,7.9,0,0,1,.26,4.31,11.48,11.48,0,0,0-.19,4.18,36.32,36.32,0,0,1,1.52,6.94c.41,2.33.74,4.65,1.2,6.84h-.37c1.59,1.22-.75,3.75,1.56,4.51-.27.42.12,1.36-.62,1.25,1.21,1-.2,3.48,1.38,4.91,0-.17-.09-.24-.29-.38-.38,1.89,1.09,3.13.83,5.1-.2-.14-.4-.44-.76-.41-.5.87,1.9,1.27.3,2.09.11.39.92.06.81-.17a19.41,19.41,0,0,0,1.64,6c.86,2,1.72,3.94,2.57,5.9-.08,3.2-2.76,1-.79,2.95-.26.29.68-.07.35.07.74.74-1.43,2-.36,2.32.95-.59.7.22,1.33,0-.09,2-.93,2.66.34,3.8l-.58.07c2.08,1.13,1.93,3.29,4.14,4.06,3.47,8.86,7.69,17,11.47,25.48,3.21,8.63,7.56,16.57,10.52,25.55-.46,2.62-.36,2.75,1.19,4.72-.26,0-.37-.11-.51.13,1.16-.39.8,1.51,2,1.24,1.23,3.27,2.85,6.07,4.33,9.29-.35-.45-1.38-.29-1,.28l1,.31-.26.25c.36.34,1.11.54,1.27-.05A73.14,73.14,0,0,1,379,326.73a56.62,56.62,0,0,0,5.48,11.47c.62,2,2.57,4.06,4,5.63a39.12,39.12,0,0,0,4.21,8.35,21.2,21.2,0,0,0,6.65,6.36S396.66,360.39,394.08,359Z"/><path class="cls-1" d="M397,135.31c-.19-.63-.95-1-.27-1.79C396.79,134.1,397.14,134.77,397,135.31Z"/><path class="cls-1" d="M375.87,129.18c0,.18-.32-.22-.4-.31.26-.07.47-.6.71-.3C375.91,128.63,376,128.92,375.87,129.18Z"/><path class="cls-1" d="M370.34,129.38c0-.55,1.15-1.11,1.84-1.26Z"/><path class="cls-1" d="M364.88,127.87c-.52-.38-.43-.65.17-.73C365.14,127.42,365,127.59,364.88,127.87Z"/><path class="cls-1" d="M364.71,129.15c-.43.08-.69-.2-.95-.47C363.85,129.14,364.71,128.23,364.71,129.15Z"/><path class="cls-1" d="M353.28,129.82c-.25.1-.72.68-1.12.15C352.54,130.32,353.3,129,353.28,129.82Z"/><path class="cls-1" d="M348.37,131.93c-.17,0-.27-.07-.42.13-.36-.15-.15-.62.09-.75Z"/><polygon class="cls-1" points="323.54 215.5 323.16 215.01 323.7 214.98 323.54 215.5"/><path class="cls-1" d="M335,254.56c.51.4-.35.54-.39.65C334.42,254.76,335.34,255.15,335,254.56Z"/><polygon class="cls-1" points="345.43 273.93 345.35 273.78 346.4 273.41 345.43 273.93"/><path class="cls-1" d="M396.23,134.53c-1.12.08.42,1-.78.31C395.68,134.43,395.94,134.13,396.23,134.53Z"/><path class="cls-1" d="M449.44,339c-1.42-4.43,2.94-8,2.54-12.45,0-.48,1.43.63,1.43-.5-.77-4.42,2.46-9.8,5.59-13.79l.32.42c.6-.76-.43-2.28.08-3.12.27.08.29.42.74.33-.75-.5.17-1.77-.33-2.37.45-.25,1.1,0,1.61-.34l-.77-.84c-1.78-2.2,1.32-3.49.8-5.85.19.16.29.42.56.33-.31-3.63,1.2-7.55,1.83-11.28a1.81,1.81,0,0,0,1.31.49c-.95-.5-.86-1.68-.75-2.7,1.17-.11-.41-1.93.5-2.88l.2.17c-.83-1.17,1-1-.09-2.12l1-.28c-1.35-.81,1.12-1,.59-1.88l-.3-.07c-.16-.76.67-.87.61-1.55h.19c.05-1.53,1.11-2.1,0-2.41,1.07-.22,0,1.49,1.57,1.12.26-5,1.87-9.72,3.25-14.4.62-.39.85-.69,1.32-.69-.1-.53.29-1.82-.17-2.42,0,.16.67-.13.8-.36.68-.73-1-1.3-.21-2.09a1,1,0,0,0,1,.69c-.66-1.05-.21-2.08-.23-3.11.15.2.2.46.57.53-.72-1.32.75-1.82.37-2.91l.57.53c1.22-1.24-1.26-.83-.43-1.95.12.36.41.33.67.46-.87-1.52,0-3.32,0-4.61a.49.49,0,0,0,.26.13c.21-1.32.95-2.56.81-4.11.44-.43,1.58.61,1.71-.81-1.35-.32.08-2.46-1.64-2.07.54-1.09,1.52-2.8,1.27-3.69.37.66,1.79-.13,1.64.87l1-.52c.52.26-.38.71.37.66.07-.5-.08-2.05.25-2.43-.58-1.11-1.88-2.34-1.67-3.84.34.82,1.58,0,1.68.53l-2-2.7c.07-.5,1.08.17.92-.62-.36-.05-.5-.41-.73-.7.2-.14.18-2.1,1.55-2,.57-.07.08.86.68.45.22-.9-.22-1.05,0-1.95l.18,0c.34-.54-.12-1.89-1-1.43-.15.4.83,0,.29.55a2.69,2.69,0,0,1-.39-2.6c.13.36.49.42.83.63a10.12,10.12,0,0,1-.82-4.26c-.62-.18,1,.79.63.9,1.32-1.5-.33-3.86,1.29-5,.05.26-.92-.1-.74-.07.28-.81,1.18-.54,1-1.17.55.08,0-.72,0-1.31-.31-.39.3-.08.24.41-.26-.88-.32-4.18.89-5.78-.36,0-1-1.41-.89-1.81l.79.36c.58-.26.25-1.4,1-1.3-.79-1.12,0,3.6-.44,2.22.77-.14-.93-2,.14-1.45.17-.84-.58-1.86.38-2.47-.18.2,1,.95,1.09.27.13-1.22-.31-.43-.37-1.45L486,199c-.8-.23.35-1-.65-.8.7,0,0-1.81,1.3-1.37l1,.41c0-.53-.92-1.1-1.29-1.61a.89.89,0,0,1,.52-.06c-1.59-.46.42-1.18-.68-2.08.81-.93.67-2.7,1.79-3-.3-.94-.72-1.82-.16-2.68.11.22.1.49.44.62.6-.48.21-.72.07-1.32.21.18,1.21-1,1.93-1.49-.3-.92-1.23-.84-1.75-1,1.77-.39-.5-2.53,1.15-3.15.16.33.52,1.37,1.07.78,1.77-.4-.84-1.77.19-2.81h-1.39c.93-.36-.39-1.95.94-1.53-.4-.51.74-1.33-.58-1.47,1.52-1.75.38-5,3-5.68-.16-.33.22-1-.48-1-.82.32.37.77-.16.84,0-.26-.33-.4-.5-.46.43-.55.63-1,1.58-.21,1.09-1.21-1.91-1.88-1-3.52.52.19.75.1.77-.43l-.72-1.16c.45-1.08,1.35-.39,2.27-.23,0-.64.16-1.37-.46-1.78l1.29-.5c-.94.37-.44-.61-.61-.94l.17.33c.4,0,.31-.78.27-1.16-.58,0-1,.64-1.2,1-.34-.39-.14-.86-.53-1.36.86.32.84-.86,1-1.32s-.67-.78-.61-.93c.47.07.25-.86.82-.32.11.2-.54.33-.19.72.41-.28,1.22-.1.77-.94-.34-.63-1.78-.2-1-1.11.17.31.52.42.8.69l.64-.88-.81-.18c.23-.09.28,0,.4,0-.81-.43,0-1.49-1-1.82,0-.46.68-.89.81-1.32l.07.09c.54-.49.25-1.23-.3-1.66l.18,0a1.21,1.21,0,0,0-.56-1.22c.61-.68,3.12-.43,2-1.12-.1-.74-1.66-.81-2.13-.48a1.63,1.63,0,0,0-.39-1.46,1.15,1.15,0,0,1-.09-1.4c-.34.08-.48.24-.77.19-.18-.55-.75-.76-1.24-1a2.39,2.39,0,0,1-1.38-1.59c.58-.14.34-.75.48-1.2-.65.54-.26-.91-.81.24-.2.72-.35,1.06,0,1.5-1,0-2.69-.38-3.26-1.21.26.41-.05.57-.37.73.36-1.14-.54-1.52-1.37-1.27l-.26.69-.31-.84c-.33.17-.64,1.43-1.21.58a1.92,1.92,0,0,0-.05-.8c-.88.42-2.15,1.18-2.83.4l-.45-1.18c-.37,0-1.09.54-.54,1-1.25-.92-2.13-1.18-2.39-2.17-2.85,1.7-6.29,1.1-9,.47l.17-.52c-.65-.63-.54.87-1,.41.32-.47-.38-1.21.31-1.74-1-.76-1.53.71-2.25.84-.22.69.62-.37.35.51-.16.23-1.38-.79-1.71.26a2.32,2.32,0,0,1,.34-1.63l-.73.42c-.61-1.38,2.16-1.95,1.57-3.62l-.64.07c-.41-1.21,1.81-1,.34-1.63-.75.41-1.55,1.9-1,2.45-1.41.1-1,2.46-2.45,2.17-.31-.69,1.19,0,1-.91-.57-1-1.45.28-2-.1.62.5-.1,1.5-.55,1.65-.67-.6.6-1-.43-1.2-.25.6-1.26,1-.48,1.48-.54,1.36-1-.52-1.72.51-.24-1,1.33-2.16.23-2.8.07,1-1.55,1.16-1.09,2.64a1.24,1.24,0,0,1,0-1.63c-.59-.65-1.71,1.59-1.75-.32l-.31.95c-.17-.34-.44-.6-.72-1.15-.57,0-1.9,1.2-1.76-.27-.19.13-1.47,0-1,1,.76.67,1-.68,1.31.73-.48-1.16-1.15.05-1.62.42l0-.57c-.28.21-.9.06-1.09.67a.64.64,0,0,0-.08-.86l-.32.86c-1.11.39-.21-1.55-1.29-1.33l.84-.65c-.18.14-.53-.7-1.06-.43-.22.8-.61,1.75-.78,2.37-.6.34-.26-.9-.85-.09l.78-1c.12-.26-.51-1.32-1.33-1.31-.53.26-1.3,1.44-.5,1.86a.72.72,0,0,1-.65-1c-.91.3.13.85-.64,1.37-.33-.52-1.35-1.26-2-2l.78-1.35h-.56c.69-1.09-.41-.81,0-1.94-.4-.17-.85.26-1.21.57,1.21,1.73-1.11,2.54-.66,4.16-1.43.53-1.26-3.94-2.6-1.22.3.4-.3,1.72.58,1.16-.94-.09-.45,1.7-1.59,1.13.72-.75-1.05-1.57,0-2.66,0,.55.7.35.86.17-.45-.58-.08-1.65-1.06-1.55-.57.21-1.38.35-1.15,1.19s.88-.22.62.77c-1.1.48-1.5-.91-1.74.81.71-.23,1,.71,1.09,1.35l-.77.5.07-.64c-1.4-.26-.23,1.17-1.55,1.21l-.81-1.12c.14-1.1,2,.16,1.49-1.51-.88.06-1,1-1.9.67.15-.18.39-.26.55-.44-.32,0-1-2.23-2-.67-.55.63-.06.63,0,1.27-1.37.45-1.66,1.18-2.56,1.46-.05-1.28-1.63.2-.87-1.27.61.63,2.63.17,2.91-1.1-.78-1.38,1.14,0,1.19-1.55-1.15.17-1.36-1.29-1.72-2.21-.33,0-.57.45-.73.64,0,.92.45.83.64,1.75a3.37,3.37,0,0,0-3,1.74c-.52-.36-.56-1.28-.07-1.46a13.9,13.9,0,0,1-4.66.81c1.24,1.26-1.58.67-.69,1.75.86.17,1.74,1.07,1.44,1.81-.51,0-.11-.64-.38-.91-.47.92-1.24-1.08-1.61.29,1.34-.75-.07-1.83,0-3-.9.84-.12-.82-1.13-.62a10.87,10.87,0,0,1-3.18,2,3.35,3.35,0,0,0-2.62,0c-.89.26-1.75.66-2.4.78-.77-.51-.46-1.87-1.22-2-.86.12.8,1.35-.56.88l.1-.27c-.37.37-2.42-.68-2.69,1.22l.31-1.45c-.25-.11-.45.23-.65.39,0-.46-.33-.86,0-1.19-.83-.91-1.64.22-2.5.28l.57.83c-1.5.72-2.5-.19-4,.06l.09-.82-.88.41c.26-.77-.45-1.36-1-.73.8-.61,1.56-1.2,2.3-1.84.57.51-.7,1-.38,1.8s1.63.54,1.85-.25c-.49-.11-.52.08-.92.36-.12-1.15.63-1.08,1-1.84-.25,0-.6-.32-.66,0a2.27,2.27,0,0,1,1.82-.65c-.56.46.31.7.1,1,.06-1,.83-1.33,1.85-1.09.8,1.1,1.86-.84,3.05-.66a4.61,4.61,0,0,1-1.64,2.4c.8.47.85-.07,1.66.36.3-.8.44-2,1.35-2.55l.14.74c.85-.49.7-1.61,1.83-1.55a32,32,0,0,0,5.43-.45l.2.73c.51-1.74,2.61-1.11,3.58-2,2,.33,4-1.54,5.21-.45,3.25-1.21,6.19-2.32,9.88-2.43l-.49,1.15c.56-.87.49.59,1.1.36-.82-.8.76-1.22,1.16-1.94,1.69.74,3.7-.34,5.14-1.12l.08.75c1.43-1.47,3.21-.22,5,0,.2.31.5,1,1,1,1-1.18,1.53-1.08,3-1.76a10.18,10.18,0,0,1,3.76,1.06c4.11-1.37,8,.26,12.16-.09l.14.92c4.23-1.23,8.66,1.4,12.1,1.13l-.62,1.42a1.48,1.48,0,0,0,2.37-1c.92.67,2.7-.17,3.08,1.18,1,.5,1.42-.4,2.33-.42,1.94,1,2.77,1,5.16,1.41l-.55-.26c-.34.26-.53.87,0,1.12.95-.21,3.06,1.51,2.84-.51,1.14,1,2.84,1.6,4.52,2.72s3.15,2.71,3.37,4.48c.28-.5.79.18,1.26.35a12.15,12.15,0,0,1,1.13,4.18,10.62,10.62,0,0,0,.78,3.44c-.22.41-.89-.55-.86.44.21.56.64,0,.95.68a9.65,9.65,0,0,1-.39,5.54,27.46,27.46,0,0,0-1.39,4.62c-.07,5-1.54,10-2.39,14.6l-.34-.13c1,1.84-2.17,3.32-.39,5-.42.29-.46,1.36-1.09.94.7,1.44-1.64,3.24-.83,5.28.07-.15,0-.26-.1-.48-1.18,1.61-.47,3.43-1.6,5.17-.11-.23-.14-.6-.48-.74-.85.57,1.1,2.07-.7,2.08-.08.42.79.49.8.23-1.58,4-1.57,8.64-2.18,13-1.75,2.84-2.9-.5-2.22,2.24-.38.11.61.3.25.25.25,1.05-2.26,1-1.53,1.86,1.12,0,.48.58,1.11.75-1.14,1.71-2.17,1.86-1.74,3.53l-.52-.24c1.12,2.12-.2,3.92,1.22,5.84-2.11,9.65-3.5,19.08-5.88,28.43-2.86,9.1-4.68,18.29-8.38,27.29-2.07,1.74-2.09,1.91-2.24,4.46-.2-.16-.21-.33-.47-.23,1.13.47-.41,1.7.64,2.27-1.27,3.35-1.9,6.61-3,10.11.05-.59-.82-1.17-.95-.49l.53.93h-.36c0,.5.44,1.18,1,.83a60.64,60.64,0,0,1-4.48,13,120.49,120.49,0,0,0-5.11,12.66c-1.16,1.87-1.71,4.91-2.25,7.2-3.8,6-7.15,11.41-8.46,18.41C451.8,343.94,449.15,342,449.44,339Z"/><path class="cls-1" d="M397.53,134.61c.14.66.89,1,.17,1.8C397.69,135.84,397.38,135.14,397.53,134.61Z"/><path class="cls-1" d="M419.27,139.28c0-.19.35.18.44.27-.26.09-.41.65-.68.37C419.29,139.82,419.19,139.55,419.27,139.28Z"/><path class="cls-1" d="M424.73,138.56c0,.55-1,1.2-1.7,1.4Z"/><path class="cls-1" d="M430,139.81c.5.38.42.64-.13.73C429.81,140.27,430,140.09,430,139.81Z"/><path class="cls-1" d="M430.16,138.53c.4-.08.66.19.91.47C431,138.54,430.19,139.45,430.16,138.53Z"/><path class="cls-1" d="M440.57,138.85c.24-.06.75-.55,1,0C441.3,138.49,440.43,139.65,440.57,138.85Z"/><path class="cls-1" d="M445.31,137.88c.16,0,.22.14.4,0,.28.25,0,.64-.26.69Z"/><polygon class="cls-1" points="489.7 180.39 489.56 179.79 490.07 179.99 489.7 180.39"/><path class="cls-1" d="M480.3,220.14c.19.62-.59.25-.69.32C479.68,220,480.21,220.8,480.3,220.14Z"/><polygon class="cls-1" points="477.29 242.16 477.32 241.99 478.38 242.34 477.29 242.16"/><path class="cls-1" d="M491,194.71c-1.21.74,1.05.61-.7.73C490.32,195,490.44,194.55,491,194.71Z"/><path class="cls-1" d="M455.76,375c1.37-5.13,7.69-7,10-11.72.33-.49,1,1.23,1.64.06a17.61,17.61,0,0,1,5.51-6.73,48.48,48.48,0,0,1,8-5.28l.06.55c1-.55.95-2.53,1.92-3.21.22.2,0,.56.51.65-.42-.83,1.22-1.77,1.09-2.59.57-.09,1,.43,1.72.27l-.24-1.18c-.4-3,3.28-3.12,4.17-5.8.08.25,0,.55.34.56,1.83-3.9,5.51-7.42,8.24-11.11.13.37.49.94,1,1-.62-.89.15-2.1.84-3.12,1.17.33.7-2.2,2.12-2.84l.09.26c-.11-1.55,1.54-.72,1.12-2.27l1.07.07c-.81-1.37,1.61-.6,1.63-1.76l-.25-.2c.28-.86,1.13-.66,1.45-1.4l.18.07c.91-1.6,2.24-1.8,1.32-2.56,1.13.17-.84,1.57.85,1.77,3.09-5.15,7.2-9.61,11.1-14.08.8-.19,1.19-.42,1.63-.24.22-.59,1.29-1.83,1.17-2.64-.11.16.71.1,1-.1,1-.54-.24-1.75.93-2.31a.92.92,0,0,0,.57,1.1c-.06-1.37.93-2.31,1.47-3.42,0,.27-.07.57.25.78,0-1.68,1.71-1.68,1.93-3l.25.77c1.83-.87-.75-1.33.66-2.24-.08.43.21.5.38.74,0-1.93,1.85-3.53,2.45-4.95a.42.42,0,0,0,.18.23c.89-1.36,2.26-2.42,3-4.14.64-.31,1.17,1.22,2-.27-1.12-.82,1.39-2.61-.47-2.8,1.1-1,3-2.46,3.18-3.53,0,.85,1.76.49,1.11,1.52l1.22-.2c.36.46-.73.62,0,.84.34-.52,1-2.26,1.51-2.55,0-1.41-.57-3.2.41-4.74-.1,1,1.5.55,1.33,1.15l-.52-3.63c.32-.51,1,.57,1.2-.34-.32-.19-.26-.63-.33-1,.26-.08,1.28-2.19,2.52-1.58.59.12-.38,1,.41.73.67-.91.33-1.23,1-2.14l.16.1c.6-.47.85-2.1-.24-1.91-.34.39.77.34,0,.71-.32-.9.29-2.07,1-3-.05.44.26.62.48,1a13.73,13.73,0,0,1,1.39-4.93c-.5-.41.57,1.2.14,1.2,2-1.19,1.67-4.3,3.77-5-.08.31-.83-.41-.67-.32.67-.79,1.4-.2,1.51-.95.49.27.36-.79.63-1.45-.11-.53.33,0,0,.54.19-1.07,1.78-4.69,3.74-6-.32-.18-.28-1.89.06-2.28l.57.66c.69-.09.95-1.44,1.59-1.09-.19-1.49-1.76,3.94-1.54,2.27.8.1.11-2.46.87-1.53.58-.85.38-2.22,1.59-2.57-.27.16.48,1.37.91.65.72-1.29-.09-.58.36-1.72L568,240c-.64-.52.84-1-.23-1.1.67.25.88-2,1.92-1.07l.77.78c.3-.56-.34-1.5-.45-2.19.13,0,.41,0,.53.11-1.3-1,1-1.17.36-2.51,1.23-.77,2-2.74,3.19-2.67.16-1.13.18-2.24,1.13-3,0,.28-.14.57.12.83.81-.34.55-.73.7-1.44.12.27,1.62-.67,2.56-1,.16-1.12-.78-1.33-1.18-1.72,1.88.14.73-3,2.61-3.11,0,.42-.16,1.68.65,1.21,1.88.12,0-2.23,1.53-3l-1.34-.44c1.08-.09.57-2.27,1.64-1.38-.14-.69,1.33-1.24.13-1.82,2.27-1.46,2.67-5.39,5.49-5.38,0-.42.67-1,0-1.25-.94.1,0,1-.54.88.13-.28-.13-.54-.27-.66.67-.48,1.08-.94,1.61.26,1.62-1-.94-2.68.67-4.22.41.38.67.35.93-.24l-.16-1.52c.92-1.07,1.47,0,2.28.45.25-.72.78-1.48.37-2.13l1.47-.16c-1.07.12-.15-.82-.16-1.24v.42c.4.09.65-.77.78-1.21-.54-.21-1.2.42-1.6.74-.14-.54.25-1,.11-1.68.69.62,1.19-.69,1.59-1.15s-.29-1.08-.16-1.23c.41.23.65-.91.94-.11,0,.27-.67.21-.52.75.53-.19,1.2.28,1.19-.83,0-.83-1.63-.78-.44-1.61,0,.41.29.66.42,1.06l1.06-.82-.68-.47c.27,0,.27.1.41.09-.54-.78.77-1.76,0-2.48.24-.55,1.12-.79,1.49-1.24v.13a1.67,1.67,0,0,0,.66-2.08l.14.11a2,2,0,0,0,.22-1.74c.94-.56,3,1,2.44-.39.32-.91-.93-1.87-1.55-1.71a3.76,3.76,0,0,0,.63-2.24,2.5,2.5,0,0,1,.82-2c-.32-.21-.52-.12-.71-.48a3.83,3.83,0,0,0-.49-2.39,3,3,0,0,1-.27-2.27c.54.21.69-.45,1-.76-.84.1.21-.92-.84-.22-.53.53-.83.76-.77,1.25a2.17,2.17,0,0,1-.64-.38,3.41,3.41,0,0,1-.6-.46,3.85,3.85,0,0,1-.52-.55,2.79,2.79,0,0,1-.3-.63c.11.43-.22.54-.5.65.62-1-.07-1.58-.85-1.37l-.31.66a5.69,5.69,0,0,0-.18-.84c-.33.16-.66,1.41-1.11.56a1.72,1.72,0,0,0,0-.79c-.86.44-1.93,1.32-2.69.65l-.64-1.08c-.38.1-1,.72-.37,1.05-1.43-.67-2.45-.67-3-1.55a12.2,12.2,0,0,1-4.44,2.56,30.14,30.14,0,0,1-5.22,1.27l0-.55c-1-.3-.27,1-1,.8.18-.57-.93-1-.36-1.73-1.42-.28-1.46,1.29-2.25,1.72,0,.73.58-.6.61.32-.09.28-1.91-.14-1.87,1-.42-.34-.34-1.17-.27-1.64l-.67.69c-1.25-1,1.71-2.7.35-4l-.7.33c-1-.94,1.66-1.69-.27-1.64-.68.7-1,2.38-.2,2.69-1.59.67-.19,2.68-2,3-.63-.51,1.38-.48.84-1.27-1-.66-1.57.87-2.38.75.92.2.47,1.43,0,1.75-1-.28.34-1.14-1-.94-.06.66-1.13,1.39,0,1.57-.13,1.49-1.42-.07-1.85,1.17-.66-.87.77-2.56-.75-2.7.44.87-1.42,1.69-.34,2.89a1.06,1.06,0,0,1-.6-1.52c-.92-.38-1.47,2.17-2.19.39l0,1c-.32-.25-.73-.4-1.26-.81-.7.15-1.89,1.85-2.2.4-.18.21-1.77.55-.91,1.39,1.14.35.94-1,1.83.18-1-.92-1.37.51-1.84,1l-.24-.53c-.27.3-1.08.38-1.13,1a.55.55,0,0,0-.36-.79l-.13.93c-1.25.78-.71-1.4-2-.8l.84-.92c-.18.19-.85-.48-1.41,0,0,.84-.26,1.88-.31,2.54-.65.54-.56-.78-1.08.21l.71-1.19c.07-.29-1-1.09-2-.8-.56.44-1.25,1.82-.13,2-.49.14-1.32-.13-1.08-.8-1.06.57.38.79-.47,1.53-.54-.4-2-.78-2.94-1.31l.66-1.57-.68.19c.59-1.28-.67-.66-.48-1.89-.51,0-1,.5-1.34.9,1.85,1.35-.84,2.8,0,4.27-1.73,1-2.28-3.51-3.48-.47.43.32-.12,1.79.9,1-1.19.16-.31,1.81-1.85,1.56.81-1-1.55-1.28-.38-2.65.06.55.93.16,1.1-.06-.65-.46-.36-1.61-1.54-1.26-.68.36-1.66.68-1.27,1.46s1.07-.42.88.63c-1.33.73-2-.56-2.09,1.21.86-.4,1.37.47,1.53,1.09l-.93.69,0-.66c-1.8.09-.16,1.24-1.83,1.58l-1.12-1c.07-1.14,2.5-.27,1.7-1.84-1.07.25-1.16,1.2-2.29,1.08.18-.21.47-.34.64-.56-.39.06-1.45-2-2.56-.26-.63.73,0,.65.15,1.27-1.63.73-1.94,1.52-3,2-.17-1.28-2,.5-1.16-1.12.78.53,3.2-.32,3.44-1.66-1.07-1.24,1.4-.21,1.31-1.77-1.37.38-1.75-1-2.26-1.9-.4.06-.65.56-.82.78.11.92.6.75.91,1.63a4.77,4.77,0,0,0-3.47,2.31.82.82,0,0,1-.19-1.45A21.19,21.19,0,0,1,521,189c1.57,1-1.8,1-.65,1.88,1,0,2.14.76,1.85,1.56-.6.1-.19-.62-.53-.85-.47,1-1.55-.86-1.85.6,1.48-1-.26-1.82-.33-3-1,1-.21-.8-1.39-.4a15.43,15.43,0,0,1-3.48,2.69c-2-.48-4.16,1.45-5.61,2-1-.28-.89-1.71-1.8-1.62-1,.38,1.2,1.07-.44,1l.05-.29c-.33.44-3,.13-2.73,2.06l-.05-1.5c-.31,0-.45.37-.62.6-.17-.43-.63-.71-.3-1.16-1.24-.6-1.82.85-2.77,1.25l.92.55c-1.42,1.25-2.82.88-4.31,1.77l-.25-.79-.77.83a.69.69,0,0,0-1.37-.16l1.74-2.84c.86.19-.39,1.21.33,1.81s2-.25,2-1.08c-.6.13-.57.31-.9.75-.6-1,.28-1.29.44-2.16-.29.15-.83,0-.77.35a3.15,3.15,0,0,1,1.91-1.45c-.5.67.61.53.48.93-.28-1,.54-1.62,1.85-1.81,1.27.78,2-1.53,3.53-1.75a5.47,5.47,0,0,1-1.37,2.91c1.05.16,1-.39,2-.22.17-.88.07-2.09,1.06-2.94l.32.68c.92-.73.54-1.78,1.94-2.06,2.4-.47,4.76-1.28,6.54-1.78l.31.69c.44-1.87,3-1.67,4.13-2.78,2.46-.06,4.64-2.28,6.19-1.41a50.91,50.91,0,0,1,11.31-4.38l-.38,1.25c.51-1,.66.47,1.34.1-1.08-.6.68-1.39,1-2.19,2.07.28,4.19-1.27,5.62-2.48l.27.71c1.28-1.83,3.6-1.17,5.72-1.51.32.24.88.82,1.47.58.81-1.47,1.42-1.54,2.88-2.71a14.55,14.55,0,0,1,4.59-.36c4.14-2.82,9.07-2.83,13.6-4.91l.53.79a13.24,13.24,0,0,1,3.45-1.61,28.26,28.26,0,0,1,3.85-.88c2.72-.44,5.39-.57,7.65-1.15l-.36,1.54c1.38.38,3.18-.46,2.85-1.53,1.43.49,3.84-.53,4.65.93,1.49.52,2.07-.28,3.51-.11.79.44,1.44.74,2,1.09s1.13.64,1.67.93,1.07.64,1.66,1,1.21.84,1.95,1.38l-.62-.66c-.53,0-.95.48-.36,1.1.65.24,1.35,1.26,2,1.86s1.07,1,1.43-.08c.76,1.89,1.88,3.85,2.6,6s.88,4.48,0,6.1c.51-.26.54.63.83,1-.41,3.16-2.33,5.58-2.37,7.84-.4.29-.52-1-1,0-.08.66.59.27.52,1.1a12.85,12.85,0,0,1-3,5.43l-1.86,2.15a13.07,13.07,0,0,0-1.49,2.14c-2.34,5.61-6,10.69-9.06,15.58l-.27-.25c.12,2.37-3.64,3-2.72,5.45-.54.19-1.08,1.37-1.48.7,0,1.82-3.16,3.06-3.36,5.59.14-.15.15-.29.15-.57-1.91,1.41-2.1,3.66-4,5.21,0-.28.15-.71-.11-1-1.08.36.06,2.66-1.66,2.08-.28.45.52.81.65.51-3.5,3.87-5.74,9-8.51,13.66-3.12,2.52-2.54-1.52-3.26,1.7-.42,0,.44.54.12.36-.3,1.24-2.66.33-2.4,1.53,1.07.36.17.8.69,1.2-1.95,1.49-3,1.3-3.44,3.29l-.38-.45c0,2.72-2.18,4.23-1.81,6.8-3.49,4.91-6.74,9.84-10.13,14.63-1.68,2.41-3.35,4.81-5.06,7.19s-3.51,4.69-5.32,7c-7.59,8.8-14.39,18-22.92,26.18-3,1.08-3.07,1.24-4.65,3.9-.1-.25,0-.43-.31-.43.8.93-1.35,1.66-.68,2.65-3.09,3.09-5.55,6.29-8.64,9.54.4-.6-.09-1.54-.61-.88l0,1.18-.35-.13c-.26.54-.25,1.42.44,1.25a66,66,0,0,1-5.62,6.29c-2,2-4.1,3.82-6.2,5.65-4.17,3.71-8.51,7.19-12.32,11.18-2.2,1.49-4.56,4.41-6.46,6.55-3.63,2.31-7,4.59-10.22,7a53.61,53.61,0,0,0-9,8.45A6.59,6.59,0,0,1,455.76,375Z"/><path class="cls-1" d="M492.51,194c.51.46,1.53.41,1.11,1.45C493.32,194.94,492.62,194.53,492.51,194Z"/><path class="cls-1" d="M519,191c0-.18.43.11.54.18-.29.15-.4.73-.74.51C519.11,191.51,519,191.26,519,191Z"/><path class="cls-1" d="M525.39,189.23c.08.55-1.13,1.4-1.89,1.73Z"/><path class="cls-1" d="M531.91,189.5c.64.28.58.56-.11.76C531.67,190,531.85,189.79,531.91,189.5Z"/><path class="cls-1" d="M532,188.19a1.19,1.19,0,0,1,1.14.3C533,188.05,532.06,189.11,532,188.19Z"/><path class="cls-1" d="M545.14,185.9c.29-.12.83-.75,1.28-.25C546,185.34,545.12,186.74,545.14,185.9Z"/><path class="cls-1" d="M550.86,183.45c.2,0,.3.06.49-.15.41.15.15.63-.14.76Z"/><polygon class="cls-1" points="580.6 220.78 580.75 220.07 581.14 220.45 580.6 220.78"/><path class="cls-1" d="M552,261.24c-.13.74-.69.06-.82.1C551.48,260.83,551.56,261.92,552,261.24Z"/><polygon class="cls-1" points="537.63 284 537.75 283.83 538.57 284.59 537.63 284"/><path class="cls-1" d="M316.28,175.79c1.35.28-.3-1.15,1-.06C316.92,176.06,316.55,176.27,316.28,175.79Z"/><path class="cls-1" d="M339.56,360.82a4.57,4.57,0,0,1-1.46,1,5.32,5.32,0,0,1-1.78.35,6.62,6.62,0,0,1-1.87-.17,10.27,10.27,0,0,1-1.85-.54c-2.46-.9-4.63-2.34-7.17-2.82-.55-.19.93-1.25-.34-1.59-2.55-.3-5.13-2-7.45-4.12a48,48,0,0,1-6.22-7.11l.54-.14c-.67-.91-2.61-.56-3.4-1.43.17-.23.55-.1.58-.58-.76.52-1.9-.94-2.69-.72-.15-.55.31-1.07.08-1.74l-1.13.4c-2.9.78-3.43-2.84-6.17-3.38.24-.11.55-.1.53-.4-4.07-1.29-7.89-4.55-11.78-6.86a1.56,1.56,0,0,0,.92-1.06c-.82.71-2.08.08-3.16-.49.23-1.19-2.24-.47-3-1.8l.25-.12c-1.52.27-.84-1.46-2.33-.89v-1.08c-1.29.94-.72-1.54-1.87-1.45l-.17.27c-.87-.2-.74-1.07-1.5-1.32l.05-.18c-1.64-.76-1.94-2.05-2.63-1.08.09-1.13,1.62.69,1.7-1-5.35-2.57-10-6.34-14.6-9.95-.23-.79-.46-1.17-.3-1.61-.61-.18-1.84-1.22-2.63-1.1.16.11.1-.71-.1-1-.5-1-1.74.24-2.27-.95a.94.94,0,0,0,1.12-.54c-1.37,0-2.25-1-3.32-1.59.28,0,.57.09.79-.21-1.67-.14-1.51-1.8-2.76-2.17l.79-.16c-.61-1.9-1.44.6-2.13-.92.42.14.53-.14.78-.28-1.93-.25-3.12-2.42-4.33-3.36a.45.45,0,0,0,.26-.11c-1.07-1.23-1.71-2.82-3.11-4-.07-.71,1.53-.71.45-2-1.17.77-1.94-2.2-2.8-.56-.53-1.39-1.15-3.67-2-4.33.77.35,1.19-1.38,1.84-.37l.33-1.18c.57-.14.25.91.76.33-.33-.49-1.58-1.81-1.61-2.39-1.23-.62-3.1-.88-4-2.46.84.55,1.19-1.07,1.64-.64L235.58,278c-.3-.52.95-.55.27-1.21-.32.19-.68-.07-1-.19,0-.27-1.31-2.16-.16-2.94.39-.45.65.79.83,0-.45-1-.89-.88-1.34-1.89l.16-.09c-.1-.75-1.38-1.75-1.76-.73.16.49.68-.49.61.35-.93-.16-1.63-1.26-2.08-2.27.35.26.67.08,1.08.07a13.32,13.32,0,0,1-3.55-3.63c-.6.23,1.33.11,1.11.47,0-2.31-2.88-3.56-2.35-5.7.21.22-.79.49-.63.41-.32-1,.57-1.3,0-1.79.48-.27-.48-.71-.9-1.28-.51-.18.18-.27.46.26-.79-.7-3.05-3.94-3.12-6.31-.32.18-1.75-.77-1.9-1.26l.86-.13c.3-.62-.7-1.57-.06-1.91-1.36-.64,2.38,3.57,1.09,2.5.52-.62-2-1.41-.83-1.54-.41-.94-1.67-1.52-1.28-2.73,0,.32,1.4.35,1.05-.4-.67-1.31-.53-.24-1.22-1.24l-.6-.57c-.79.25-.37-1.26-1-.42.57-.41-1.16-1.84.18-2.18l1.08-.2c-.31-.56-1.43-.56-2.06-.86.07-.11.22-.35.39-.38-1.58.49-.39-1.46-1.85-1.72.08-1.45-1.13-3.19-.36-4.14-.81-.79-1.68-1.48-1.73-2.7.22.17.37.46.73.4.22-.85-.25-.88-.72-1.42.28.06.43-1.7.72-2.65-.78-.81-1.52-.2-2.07-.12,1.26-1.4-1.89-2.41-.84-4,.32.27,1.22,1.17,1.35.24,1.28-1.38-1.74-1.41-1.42-3.09l-1.19.76c.61-.89-1.39-1.9,0-2.15-.61-.34-.08-1.83-1.3-1.29.34-2.67-2.28-5.64-.39-7.71-.31-.29-.32-1.2-.93-.85-.56.75.73.66.29,1-.12-.3-.48-.28-.67-.26.1-.82,0-1.43,1.28-1,.35-1.84-2.6-1.16-2.61-3.42.55,0,.72-.24.49-.84l-1.19-1c-.12-1.43,1-1.05,1.92-1.29-.33-.7-.48-1.6-1.22-1.79l1-1.14c-.69.82-.66-.49-1-.79l.3.3c.35-.22,0-1-.25-1.43-.55.22-.6,1.13-.67,1.64-.47-.29-.5-.9-1.07-1.31.93,0,.39-1.33.37-1.94s-1-.61-1-.82c.45-.1-.11-1.13.62-.71.18.21-.36.61.13.92.26-.51,1.06-.6.33-1.42-.56-.63-1.74.49-1.39-.95.28.32.65.32,1,.53l.27-1.32-.83.08c.18-.2.27-.1.37-.19-.92-.23-.57-1.86-1.58-2-.19-.62.35-1.41.35-2l.09.11a2,2,0,0,0-.68-2.3h.18a2.59,2.59,0,0,0-.77-1.8c.5-1.1,3.07-.7,1.9-1.71a1.55,1.55,0,0,0-2.18-1c.41-1.93-1.1-4,.05-5.8-.35-.25-.55-.07-.79-.62a30.49,30.49,0,0,0-.31-4.25,7.55,7.55,0,0,1,.73-4.37c.33,1.22.82.14,1.29.2-.7-1,.81-.9-.41-1.5-.74-.07-1.11-.29-1.49.88a9.62,9.62,0,0,1,.53-4.37,4.81,4.81,0,0,1,2.12-2.67c-.67.33-.56-.25-.34-.82.77.89,2.05-.25,3-1.21l-.25-.7a12,12,0,0,1,1.22.23c.34-.38-.21-1.63,1.49-1.41a1.76,1.76,0,0,0,.69.63,8.82,8.82,0,0,1,2.27-1.32,5.23,5.23,0,0,1,1.41-.31,3.27,3.27,0,0,1,.7,0,1.18,1.18,0,0,1,.49.16l.83,1.05c.43-.11,1.15-.75.39-1.06,1.72.64,2.83.71,3.37,1.63,2.95-2.24,7.26-2.34,10.72-2.15l-.1.55c.92.52.48-.95,1.13-.57-.3.52.7,1.14,0,1.77,1.32.58,1.72-.93,2.59-1.17.14-.72-.7.45-.52-.46.15-.25,1.83.58,2.05-.5.33.43.06,1.22-.13,1.66l.82-.51c1,1.28-2.29,2.22-1.27,3.79l.75-.15c.69,1.14-2,1.24-.13,1.66.82-.52,1.54-2.07.82-2.56,1.7-.27.83-2.57,2.65-2.45.49.65-1.46.13-1.12,1,.84.88,1.73-.46,2.49-.14-.84-.42-.1-1.5.45-1.69.92.52-.62,1,.69,1.15.23-.62,1.46-1.05.42-1.52.51-1.4,1.37.44,2.12-.64.4,1-1.43,2.26,0,2.8-.2-1,1.83-1.25,1.11-2.69a1.05,1.05,0,0,1,.16,1.62c.79.62,2-1.68,2.23.23l.32-1c.24.33.6.59,1,1.14.72.05,2.37-1.22,2.24.25.23-.14,1.87,0,1.29-1-1-.67-1.21.7-1.71-.72.66,1.17,1.47-.07,2.08-.42l.07.57c.36-.2,1.17,0,1.42-.65a.55.55,0,0,0,.1.87l.42-.86c1.46-.35.25,1.55,1.65,1.39l-1.09.61c.24-.13.66.71,1.34.48.31-.78.85-1.69,1.12-2.3.81-.29.29.92,1.12.16l-1.08.89c-.17.25.6,1.35,1.64,1.4.68-.23,1.81-1.3.78-1.81.53,0,1.23.56.77,1.11,1.21-.19-.09-.87,1-1.28.38.56,1.62,1.43,2.34,2.27l-1.18,1.23.71.08c-1,1,.39.85-.22,1.92.46.22,1.08-.11,1.57-.36-1.25-1.92,1.81-2.31,1.56-4,2-.27.81,4.08,3.1,1.75-.28-.46.81-1.6-.47-1.27,1.19.32,1-1.54,2.37-.7-1.14.55.94,1.79-.7,2.58.17-.53-.8-.51-1-.38.43.68-.28,1.63.95,1.77.76-.07,1.79,0,1.75-.85s-1.16,0-.57-.92c1.55-.15,1.62,1.3,2.45-.28-1,0-1.09-1-1-1.61l1.16-.26-.29.59c1.72.68.67-1,2.39-.64l.64,1.34c-.56,1-2.45-.83-2.37.93,1.1.23,1.6-.59,2.59,0-.26.11-.58.1-.84.22.4.12.47,2.45,2.24,1.35.9-.4.31-.58.43-1.22,1.82.06,2.47-.5,3.64-.39-.45,1.21,2,.48.53,1.53-.46-.84-3.07-1.22-3.89-.09.43,1.57-1.37-.41-2,1,1.42.24,1.13,1.69,1.21,2.68.38.13.82-.22,1.08-.34.31-.87-.21-.93-.1-1.86a5,5,0,0,0,4.18-.46.82.82,0,0,1-.51,1.38,17.37,17.37,0,0,1,5.63,1.2c-.84-1.7,2.06.08,1.53-1.29-.88-.53-1.5-1.75-.84-2.29.59.23-.15.64,0,1,.94-.63.92,1.53,1.94.44-1.83.1-.71,1.7-1.28,2.77,1.37-.38-.23.79,1,1.05a12.21,12.21,0,0,1,4.39-.4c1.43,1.52,4.31,1.07,5.82,1.53.62.8-.28,1.91.5,2.38,1,.27-.33-1.58,1-.56l-.22.21c.54-.16,2.41,1.66,3.44,0l-.9,1.21c.23.21.59,0,.86-.08-.14.44,0,.95-.49,1.09.57,1.24,1.91.5,2.89.81l-.35-1c1.88,0,2.73,1.11,4.41,1.46l-.34.76,1.11-.08a.69.69,0,0,0,.88,1.06l-3.14.89c-.49-.72,1.08-.63,1-1.56s-1.67-1.13-2.18-.47c.54.29.63.12,1.17,0-.22,1.14-1.06.8-1.74,1.37.31.06.6.53.79.22a3,3,0,0,1-2.33-.11c.79-.19-.12-.79.24-1-.42.93-1.42.9-2.5.22-.47-1.43-2.47,0-3.74-.72a5.35,5.35,0,0,1,2.8-1.52c-.72-.75-1-.26-1.71-1-.65.61-1.3,1.63-2.56,1.74l.15-.75c-1.14.07-1.43,1.11-2.69.57a49.45,49.45,0,0,0-6.21-2l.1-.75c-1.33,1.36-3.37-.12-4.82.3-2.09-1.17-5-.17-5.91-1.67a71.12,71.12,0,0,1-11.71-.73l.82-1c-.83.71-.41-.68-1.16-.61.74,1-1.14,1-1.72,1.63-1.76-1-4.23-.31-5.92.31V165c-1.77,1.27-3.65-.08-5.71-.45-.22-.33-.55-1.07-1.17-1-1.2,1.15-1.78,1-3.47,1.72a15.2,15.2,0,0,1-4.35-1c-4.59,1.55-9.19.35-13.94,1.34l-.33-.89c-4.61,1.84-10.25.12-14.19,1.1l.38-1.51c-1.24-.47-2.81.4-2.5,1.48a2.24,2.24,0,0,0-1-.1,3.49,3.49,0,0,0-.51.07.83.83,0,0,0-.21.07c-.23.1-.39.1-.72-.5-.61-.21-.31.78-.43,1.06-1-.22-1.22.43-1,1.2l.12-.14c-.31-.21-.94-.53-1.08-.31.35.47-.46,1.28,1.35,1.1-.13,0-.21.14-.25.44a6.67,6.67,0,0,0,0,1c0,.68.15,1.39.25,2.1a6.94,6.94,0,0,1-.23,4c.48-.23.62.37,1,.59.19,2.13-.69,4.48.39,6.1-.21.37-.9-.45-.85.43.25.5.64-.06,1,.54,1.27,3.33,0,7.13.78,10.26,2,5.4,2.78,11.27,4.44,16.51l-.37,0c1.78,1.4-.21,4.54,2.22,5.36-.21.52.32,1.64-.45,1.53,1.33,1.12.35,4.2,2.19,5.84,0-.19-.13-.28-.35-.44-.12,2.29,1.54,3.74,1.61,6.12-.23-.17-.47-.53-.84-.47-.36,1.06,2.13,1.45.64,2.49.18.47.95,0,.8-.23,1,4.93,4,9.53,6.24,14.22.42,3.85-2.66,1.3-.35,3.56-.22.35.69-.09.37.08.88.88-1.15,2.38,0,2.78.87-.71.75.26,1.37,0,.22,2.38-.5,3.18.95,4.54l-.58.09c2.28,1.35,2.45,3.94,4.84,4.88,2.43,5.31,5,10.58,7.53,15.48a120.55,120.55,0,0,0,8.13,13.61,39,39,0,0,0,4.43,5.82,61.48,61.48,0,0,0,5.46,5.17c3.91,3.33,8.42,6.7,12.71,10.62,1.23,2.82,1.42,2.91,4.14,4.23-.24.12-.42.05-.4.35.85-.87,1.72,1.18,2.66.42,3.24,2.77,6.55,4.89,10,7.54-.63-.32-1.51.27-.8.7l1.15-.09-.09.35c.55.2,1.41.09,1.18-.57,9.38,5.85,16.48,14.36,25.22,20.67a18.51,18.51,0,0,0,3.39,2.82c.66.45,1.33.88,2,1.29s1.21.72,1.76,1.05a26.34,26.34,0,0,0,7.9,6.52,8.32,8.32,0,0,0,4,.92,4,4,0,0,0,2.93-1.43,4.51,4.51,0,0,1,.4,1.69,4.57,4.57,0,0,1,0,.81,4,4,0,0,1-.28.8A3.08,3.08,0,0,1,339.56,360.82Z"/><path class="cls-1" d="M314.73,175.28c0-.67-.79-1.34.23-1.8C314.83,174,315,174.82,314.73,175.28Z"/><path class="cls-1" d="M292.06,161.67c-.07.17-.31-.32-.37-.44.33,0,.73-.41.92,0C292.28,161.16,292.26,161.45,292.06,161.67Z"/><path class="cls-1" d="M285.57,160c.19-.52,1.69-.69,2.54-.6Z"/><path class="cls-1" d="M279.76,156.74c-.47-.54-.29-.76.44-.64C280.21,156.39,280,156.5,279.76,156.74Z"/><path class="cls-1" d="M279.13,157.89a1.25,1.25,0,0,1-.93-.75C278.15,157.6,279.44,157,279.13,157.89Z"/><path class="cls-1" d="M265.84,154.71c-.33,0-1.08.4-1.33-.23C264.82,154.93,266.16,153.94,265.84,154.71Z"/><path class="cls-1" d="M259.5,155c-.2-.05-.28-.16-.52,0-.36-.27.06-.64.38-.67Z"/><polygon class="cls-1" points="212.14 222.68 211.68 222.12 212.22 222.05 212.14 222.68"/><path class="cls-1" d="M229.82,268.82c.58.48-.28.62-.32.76C229.22,269.05,230.21,269.52,229.82,268.82Z"/><polygon class="cls-1" points="243.68 291.83 243.57 291.66 244.55 291.15 243.68 291.83"/><path class="cls-1" d="M383.68,388.36c-.32-1-.91.6-.47-.61C383.66,387.85,384,388,383.68,388.36Z"/><path class="cls-1" d="M377.15,393.29c.8-4.21,5.91-4.4,7.75-7.85.27-.33.79,1.35,1.34.52,1.56-3.74,6.88-5.56,11.27-6.12v.51c.83-.11.93-1.86,1.76-2.09.15.25,0,.49.34.75-.25-.87,1.11-1.08,1.1-1.83.45.15.76.77,1.31.91L402,377c0-2.71,2.91-1.36,4-3.26,0,.25-.05.49.18.62,1.93-2.61,5.36-3.94,8.13-5.73a2.12,2.12,0,0,0,.51,1.3c-.28-1,.54-1.68,1.26-2.21.79.84,1-1.49,2.19-1.34v.26c.28-1.35,1.3.18,1.37-1.32l.76.62c-.22-1.55,1.32.34,1.65-.59l-.13-.29c.45-.56,1,.07,1.44-.35l.11.15c1.13-.78,2.1-.16,1.76-1.29.69.79-1.12.75,0,1.89A14.92,14.92,0,0,1,438,364.22c.33.61.54.9.47,1.34a4.32,4.32,0,0,1,1,.16,1.69,1.69,0,0,0,1.13,0c-.14-.05-.06.65.09.82.36.81,1.47-.61,1.86.38a1,1,0,0,0-1,.68c1.12-.28,1.81.48,2.62.9-.24.05-.47,0-.71.27,1.45-.07,1,1.4,2,1.6l-.73.19c.13,1.54,1.37-.57,1.68.66-.34-.1-.5.14-.76.26a2.75,2.75,0,0,1,1.87,1.09,13.72,13.72,0,0,0,1.27,1.56.48.48,0,0,0-.27.09c.7,1,.9,2.24,1.91,3.2-.09.56-1.59.54-.88,1.56,1.26-.58,1.32,1.72,2.5.47.18,1.08.27,2.83.94,3.33-.65-.27-1.42,1-1.82.27l-.57.89c-.56.1,0-.69-.64-.26.19.39,1.12,1.39,1,1.84,1.06.48,2.79.67,3.39,1.84-.71-.4-1.33.83-1.69.51l3.09.86c.21.39-1,.45-.45.92.33-.15.63,0,1,.12-.1.21.91,1.6-.31,2.22-.45.35-.51-.58-.81,0,.28.76.73.64,1,1.39l-.17.07c0,.57,1.06,1.29,1.58.5-.08-.36-.73.4-.53-.24.87.09,1.38.9,1.66,1.65-.3-.18-.63,0-1,0a8.38,8.38,0,0,1,2.86,2.63c.62-.19-1.26,0-1-.32-.34,1.75,2.24,2.6,1.42,4.24-.18-.16.83-.41.66-.33.16.72-.73,1-.25,1.34-.5.23.37.52.69.94.46.11-.21.21-.41-.18.67.51,2.37,2.81,2.14,4.69.34-.15,1.6.59,1.67,1l-.86.09c-.38.49.45,1.29-.24,1.54.61.29.19-.47-.28-1.15s-.95-1.27-.39-.86c-.59.47,1.75,1.14.57,1.23.25.76,1.39,1.31.78,2.29.08-.26-1.29-.4-1.1.23.39,1.11.47.24.92,1.15a6.17,6.17,0,0,1,.44.57c.83-.07,0,1.14.89.56-.33.12-.18.58-.13,1s0,.87-.71.81l-1.09-.15c.11.51,1.14.88,1.61,1.38a.78.78,0,0,1-.51.17c.83.1.76.47.63.91s-.36.92.21,1.42a15.47,15.47,0,0,0-1,2.13c-.35.69-.75,1.26-1.36,1.28,0,1.08-.06,2.27-1.07,2.93,0-.28.18-.55-.07-.81-.82.23-.56.65-.79,1.28,0-.14-.46-.05-1,.07a9.07,9.07,0,0,1-1.56.21c-.32.91.45,1.43.73,1.91-.83-.36-1.15.18-1.52.8s-.77,1.21-1.56.82c.13-.35.6-1.31-.2-1.3-1.45-1-.66,1.81-2.1,1.67l.89,1.07c-.86-.49-1.21,1.49-1.71.2-.14.61-1.42.17-.75,1.32-2.19-.23-3.73,2.37-5.68.65-.15.3-.82.35-.43.92.68.51.33-.72.68-.32-.2.13-.1.48,0,.66-.62-.06-1.05,0-1-1.19-1.44-.26-.25,2.56-1.88,2.71-.16-.53-.35-.67-.73-.41l-.42,1.21c-1,.2-1-.91-1.41-1.76-.43.37-1.05.59-1,1.32l-1.06-.81c.77.58-.18.69-.32,1l.14-.31c-.25-.32-.72.15-1,.38.29.5,1,.46,1.35.47-.09.49-.52.57-.66,1.16-.25-.89-1.06-.25-1.49-.16s-.18,1-.32,1c-.2-.43-.77.25-.68-.51.09-.2.53.27.62-.22-.44-.19-.73-1-1.1-.14-.29.61.83,1.59-.28,1.45.15-.31,0-.66.09-1l-1-.07.3.77c-.2-.14-.15-.24-.25-.32.11.9-1.14.79-.94,1.77-.38.26-1.1-.14-1.53-.06l0-.1c-.68-.23-1.19.34-1.37,1l0-.17a1.48,1.48,0,0,0-1,1c-.92-.29-1.48-2.77-1.8-1.5-.66.33-.45,1.86,0,2.23-1.44,0-2.28,1.86-3.92,1.17,0,.38.15.53-.13.87-1.92.48-3.38,2.54-5.46,1.67.38-.54-.29-.77-.49-1.2-.14.87-.83-.48-.47.75.34.67.44,1,1.07,1.08-.91.83-2.53,1.54-3.4,1.16.44.19.3.5.15.8-.39-1.12-1.26-.95-1.68-.3l.21.7-.69-.51c-.15.31.35,1.51-.55,1.13a2,2,0,0,0-.49-.63c-.4.82-1,2.16-2,1.88l-1-.76c-.28.23-.69,1,0,1.11-1.62-.13-2.62,0-3.3-.76a6.62,6.62,0,0,1-4.9,2.41,12.1,12.1,0,0,1-6-1.26l.32-.45c-.67-.91-.88.63-1.36-.05.52-.31-.13-1.33.85-1.55a1.39,1.39,0,0,0-1.42-.49,2.93,2.93,0,0,1-1.46.09c-.54.5.87,0,.2.69-.13.05-.49-.33-.84-.67s-.76-.61-1.21-.28c0-.55.76-1,1.18-1.18l-1-.15c.09-.79.88-.79,1.68-.91s1.53-.32,1.7-1.19l-.57-.28c.37-1.18,2,0,1.18-1.18-.8,0-2.3.67-2.23,1.46-1.18-.84-2.39,1.31-3.41-.07.2-.75,1,.95,1.46.11.14-1.14-1.34-.89-1.54-1.63.15.85-1.16,1-1.6.67-.05-1,1.14-.13.58-1.17-.62.19-1.64-.51-1.47.54-1.47.37-.32-1.28-1.6-1.3.69-.8,2.6-.1,2.42-1.43-.77.66-1.88-.74-2.84.5,0-.59.68-1,1.37-.91.22-.86-2.34-.79-.68-1.77l-1,.17c.21-.32.31-.7.66-1.22-.2-.54-1.92-1.3-.51-1.76-.22-.12-.56-1.39-1.37-.58-.33,1,1,.65-.13,1.57.85-.95-.54-1.1-1.06-1.46l.52-.25c-.31-.21-.39-.88-1-.87a.62.62,0,0,0,.79-.36l-.92,0c-.75-1,1.38-.69.85-1.69l.87.62c-.19-.14.49-.71.1-1.14-.82,0-1.84-.13-2.49-.15-.49-.53.81-.49-.13-.9l1.12.56c.28.05,1.14-.84.95-1.62-.39-.45-1.68-.95-1.93-.09a.71.71,0,0,1,.89-.83c-.45-.79-.81.29-1.45-.33.46-.42,1-1.5,1.63-2.22l1.46.48-.09-.5c1.18.43.73-.5,1.9-.36.11-.38-.36-.72-.71-1-1.56,1.37-2.64-.63-4.19,0-.73-1.31,3.74-1.65.93-2.6-.37.32-1.73-.12-1.1.66,0-.9-1.73-.27-1.26-1.42.81.63,1.48-1.13,2.65-.22-.55,0-.29.68-.1.82.55-.47,1.63-.24,1.46-1.12-.26-.5-.42-1.24-1.24-1s.25.8-.75.63c-.52-1,.85-1.45-.87-1.59.25.65-.67,1-1.3,1.11l-.54-.73.64,0c.21-1.35-1.18-.17-1.24-1.44l1.11-.79c1.1.1-.14,1.88,1.52,1.35-.07-.81-1-.93-.68-1.76.18.14.26.37.44.5,0-.29,2.22-1,.69-1.88-.61-.5-.63-.05-1.27,0-.41-1.25-1.13-1.53-1.37-2.34,1.28,0-.11-1.49,1.31-.78-.67.54-.28,2.39,1,2.65,1.4-.72,0,1,1.51,1.05-.15-1,1.32-1.23,2.24-1.56,0-.29-.43-.49-.6-.64-.92,0-.85.4-1.77.58a2.89,2.89,0,0,0-1.6-2.69c.38-.46,1.3-.48,1.46,0a10.27,10.27,0,0,1-.51-4.13c-1.34,1.06-.56-1.39-1.69-.64-.23.74-1.19,1.5-1.9,1.21,0-.45.64-.08.93-.31-.89-.44,1.16-1.05-.18-1.42.65,1.19,1.82,0,3,.06-.78-.81.82-.08.7-1a8.94,8.94,0,0,1-1.8-2.79c.92-1.39-.38-3.18-.55-4.29.51-.66,1.87-.41,2-1.07-.11-.74-1.35.71-.87-.46l.27.08c-.35-.3.67-2.11-1.24-2.24l1.45.19c.11-.22-.24-.37-.4-.53.45-.05.85-.34,1.19,0,.9-.78-.31-1.41-.41-2.14l-.8.55c-.77-1.2,0-2.12-.42-3.32l.82,0-.55-.69c.81.11,1.27-.6.57-.93l2.17,1.71c-.44.57-1-.48-1.82-.08s-.37,1.45.45,1.56c.05-.44-.14-.44-.46-.75,1.13-.25,1.14.41,1.94.66-.07-.22.25-.57-.12-.58a1.83,1.83,0,0,1,.83,1.56c-.5-.46-.68.33-1,.18,1,0,1.38.63,1.2,1.56-1.09.77.92,1.63.72,2.71a4.8,4.8,0,0,1-2.42-1.37c-.44.72.1.74-.34,1.46.8.23,2,.33,2.55,1.14l-.75.13c.47.74,1.58.61,1.49,1.62a30.13,30.13,0,0,0,.15,4.79l-.74.15c1.7.5.93,2.31,1.78,3.17-.47,1.76,1.27,3.45.12,4.5a31.41,31.41,0,0,1,2.36,8.23l-1.18-.29c.9.38-.55.47-.29,1,.75-.77,1.26.51,2,.75-.57,1.49.69,3,1.69,4l-.73.2c1.65.91.71,2.49.86,3.93-.26.24-.88.68-.67,1.07,1.38.41,1.41.82,2.49,1.61a7.86,7.86,0,0,1,.32,2.95,13.66,13.66,0,0,1,3,3.11,4.58,4.58,0,0,0,2.78,2l-.37.83a6.71,6.71,0,0,1,3.1.15,3.65,3.65,0,0,0,3-.58l.18,1.52c.82.28,1.51-.87,1-1.82.85.21,1.5-1.34,2.46-.4.9-.08.7-1.06,1.31-1.55a7.25,7.25,0,0,0,4-1.55l-.43.08c0,.38.2,1,.64.9.42-.65,2.34-.58,1-2,2.11.22,3.61-2.51,5.83-1.94-.34-.39,0-.66.08-1,1.48-.67,3.45-.43,4.3-1.72.34.12,0,.93.59.72.28-.33-.25-.6.08-1,2-1.9,5.27-1.26,7.37-2.44,3.51-2.58,7.77-3.91,11.45-5.69l.1.35c.71-1.82,3.51,0,3.5-2.28.41.19,1-.32,1.16.4.21-.65.89-.73,1.56-.89s1.36-.39,1.46-1.22c-.09,0-.11.12-.12.32a1.7,1.7,0,0,0,1.4-.77,1.84,1.84,0,0,1,1.09-.87,1.16,1.16,0,0,0,.3.64c.38.07.25-.36.15-.66s-.11-.48.68-.11c.09-.19-.69-.56-.69-.45a2.61,2.61,0,0,0,.72-2.71,21.06,21.06,0,0,0-1.4-3.91c.2-1.23.87-1.52,1.31-1.62s.61-.05-.32-.81c.27-.25-.67.1-.34,0-.7-.58,1.47-1.79.41-2-.94.57-.69-.17-1.32,0,.12-1.8.93-2.44-.28-3.42l.57-.09c-2-.94-1.79-2.92-4-3.55-1.54-4-3.22-7.82-4.88-11.64s-3.18-7.46-4.78-10.5a14.25,14.25,0,0,0-4.86-6.48,9.39,9.39,0,0,0-2.65-1.18,17.21,17.21,0,0,0-3.71-.44c-1.62-1.25-1.85-1.16-3.38-.13,0-.25.1-.33-.08-.51.25,1.18-1.21.47-1,1.64a20,20,0,0,0-3.78,1.36l-4,1.84c.39-.31.22-1.32-.28-1l-.24,1-.22-.27c-.29.32-.44,1,.09,1.24a59.53,59.53,0,0,1-10.36,4.69,50.73,50.73,0,0,0-10.23,4.84c-1.8.49-3.71,2.25-5.19,3.53-5.68,1.78-10.76,3.89-14.66,8.47C377,398.35,375.64,395.42,377.15,393.29Z"/><path class="cls-1" d="M383.9,389.54c-.6.26-.87,1-1.73.49A7.78,7.78,0,0,1,383.9,389.54Z"/><path class="cls-1" d="M379.69,408.73c.18,0-.21.3-.3.37-.08-.22-.62-.36-.33-.59C379.14,408.74,379.42,408.66,379.69,408.73Z"/><path class="cls-1" d="M380,413.55c-.55,0-1.13-.95-1.28-1.54Z"/><path class="cls-1" d="M378.55,418.35c-.38.47-.65.4-.72-.12C378.11,418.14,378.28,418.29,378.55,418.35Z"/><path class="cls-1" d="M379.83,418.46c.07.37-.21.6-.48.84C379.8,419.2,378.91,418.49,379.83,418.46Z"/><path class="cls-1" d="M380.1,428.38c.09.22.63.63.09,1C380.55,429,379.28,428.36,380.1,428.38Z"/><path class="cls-1" d="M381.87,432.71c0,.17-.09.25.1.4-.17.34-.63.13-.73-.1Z"/><polygon class="cls-1" points="456.33 431.91 455.98 432.41 455.79 431.9 456.33 431.91"/><path class="cls-1" d="M460,395.49c-.48-.35.37-.49.42-.59C460.59,395.29,459.71,395,460,395.49Z"/><polygon class="cls-1" points="450.96 378.2 451.03 378.33 449.99 378.71 450.96 378.2"/><path class="cls-1" d="M504.69,318.44c-1.12.9,1.13.46-.61.82C504,318.79,504.11,318.36,504.69,318.44Z"/><path class="cls-1" d="M508,443.92c3.62-3.91,10.12-2.85,14.31-6.1.52-.3.34,1.52,1.47.76,3.89-3.56,11.42-4.78,17.52-5.18l-.19.53c1.16-.08,2-1.91,3.13-2.13.11.28-.22.52.18.8,0-.92,1.87-1.11,2.11-1.9.56.17.75.83,1.45,1l.29-1.17c.95-2.89,4.34-1.42,6.32-3.47,0,.26-.21.52.06.66,3.36-2.78,8.28-4.31,12.41-6.41a1.55,1.55,0,0,0,.41,1.34c-.15-1.06,1.09-1.81,2.17-2.43.9.83,1.64-1.66,3.21-1.6l0,.27c.61-1.43,1.71.06,2.05-1.51l.93.56c-.08-1.59,1.73.21,2.29-.83l-.14-.28c.66-.64,1.33-.07,2-.58l.13.14c1.56-1,2.84-.57,2.39-1.67.92.67-1.5,1-.08,2,5.16-3.21,11-5.12,16.61-7.21.8.21,1.26.2,1.56.57.48-.44,2-1,2.34-1.75-.18.09.57.44.89.38,1.18.05.66-1.64,2-1.55a.91.91,0,0,0,0,1.24c.63-1.23,2-1.56,3-2.26-.1.25-.34.46-.16.8.87-1.45,2.33-.63,3.19-1.65l-.17.79c2,.14,0-1.54,1.7-1.63-.29.34-.07.54,0,.83,1-1.7,3.4-2.15,4.66-3.07a.43.43,0,0,0,0,.29c1.48-.71,3.22-.94,4.71-2.07.71.05.39,1.65,1.91.79-.54-1.26,2.52-1.6,1-2.67,1.43-.32,3.74-.77,4.41-1.61-.37.76,1.37,1.22.31,1.85l1.2.36c.12.57-1,.24-.39.76.56-.32,1.95-1.62,2.55-1.69.63-1.31.74-3.17,2.12-4.28-.42.91,1.24,1,.89,1.52a32.69,32.69,0,0,0,.49-3.6c.41-.39.77.78,1.2,0-.27-.25-.13-.66-.13-1,.28,0,1.45-1.8,2.59-1.07.58.19-.46.88.34.76.75-.82.45-1.16,1.14-2l.15.1c.63-.44.85-2-.21-1.86-.34.35.76.35,0,.68a3.6,3.6,0,0,1,.81-2.85c0,.42.3.59.53.93a17.69,17.69,0,0,1,.78-4.83c-.56-.34.75,1.08.33,1.13,1.81-1.4.82-4.34,2.71-5.38,0,.31-.9-.24-.73-.18.48-.89,1.33-.48,1.27-1.23.53.16.17-.84.26-1.53-.24-.48.31-.07.15.51a11.85,11.85,0,0,1,.43-3.06,9.67,9.67,0,0,1,1.53-3.62c-.36-.08-.86-1.69-.67-2.14l.75.44c.64-.28.43-1.62,1.14-1.5-.36-.66-.39.4-.47,1.41s-.1,2-.25,1.18c.8-.15-.67-2.33.34-1.69.26-1-.4-2.17.63-2.88-.21.23.91,1.1,1.08.3.23-1.43-.29-.51-.28-1.7l-.17-.79c-.79-.24.41-1.21-.61-.91.73,0,0-2.09,1.33-1.67l1,.42c0-.63-.92-1.23-1.29-1.78a.76.76,0,0,1,.52-.12c-1.59-.39.39-1.42-.77-2.33.79-1.18.46-3.17,1.55-3.67-.38-1-.95-1.93-.54-3,.14.22.17.53.53.61.52-.68.09-.87-.15-1.51.27.15,1-1.37,1.56-2.18-.5-1-1.39-.61-1.94-.69.83-.46.52-1.14.19-1.82s-.68-1.36,0-2c.25.3.89,1.33,1.25.49,1.57-1.08-1.43-1.65-.82-3.14l-1.29.55c.78-.76-1.14-1.85.25-2-.57-.35.1-1.71-1.15-1.25.29-1.22-.28-2.5-.66-3.69a3.3,3.3,0,0,1,.09-3.39c-.34-.21-.49-1-1-.61-.44.79.81.46.43.85-.16-.25-.52-.15-.7-.11,0-.74-.18-1.3,1.11-1.16,0-.9-.66-1-1.39-1.18s-1.58-.23-1.86-1.19c.52-.2.62-.44.25-.89l-1.35-.44c-.47-1.19.61-1.29,1.39-1.86-.57-.47-1.06-1.18-1.8-1l.39-1.4c-.27,1-.79-.12-1.16-.23l.37.11c.23-.35-.45-.86-.85-1.06a.92.92,0,0,0-.09.83,5.42,5.42,0,0,0,.24.85c-.53,0-.78-.52-1.48-.52.79-.49-.3-1.23-.61-1.7s-1.06.07-1.17-.09c.33-.34-.64-.79.15-.91.26.05,0,.68.56.64,0-.54.56-1.1-.46-1.3-.8-.1-1.09,1.41-1.64.2.4,0,.69-.19,1.1-.26l-.58-1.11-.58.59c0-.26.15-.24.17-.37-.83.44-1.53-.95-2.33-.35-.47-.31-.64-1.16-1-1.57h.13a1.74,1.74,0,0,0-2-.91l.13-.13a2,2,0,0,0-1.75-.44c-.5-1,1.31-2.85-.15-2.48a1.49,1.49,0,0,0-2,1.23,5,5,0,0,0-2.42-1.17,3.45,3.45,0,0,1-2.16-1.56c-.36.22-.29.47-.85.47a17.13,17.13,0,0,0-3.71-1.21,4.9,4.9,0,0,1-3.15-1.82c.81-.11.27-.78.38-1.24-.8.52-.53-.95-1.08.22-.14.74-.28,1.06.34,1.55-1.6,0-3.86-.52-4.55-1.42.34.45,0,.58-.4.74.36-1.15-.75-1.53-1.69-1.28l-.25.7-.42-.84c-.38.17-.63,1.43-1.35.59a1.67,1.67,0,0,0-.13-.81c-1,.43-2.37,1.3-3.25.55l-.67-1.15c-.43.06-1.19.6-.5,1-1.58-.84-2.66-1-3.12-1.93-3.07,1.95-7.16,1.95-10.51,1.83l.09-.54c-.91-.51-.45.95-1.08.58.28-.53-.72-1.09,0-1.76-1.32-.52-1.64,1-2.46,1.3-.1.72.65-.49.53.42-.13.27-1.81-.47-2,.62-.34-.41-.14-1.22,0-1.67l-.76.57c-1.07-1.21,2.09-2.37,1-3.87l-.74.2c-.79-1.1,1.93-1.36,0-1.66-.8.57-1.38,2.21-.63,2.62-1.67.43-.6,2.64-2.41,2.69-.54-.6,1.43-.27,1-1.13-.92-.8-1.67.62-2.45.38.87.34.26,1.48-.26,1.72-1-.43.5-1.07-.81-1.06-.15.64-1.29,1.23-.23,1.56-.32,1.45-1.37-.25-2,.92-.53-1,1.09-2.44-.39-2.78.33.93-1.61,1.49-.69,2.82a1.08,1.08,0,0,1-.4-1.59c-.87-.51-1.71,2-2.2.12l-.15,1c-.29-.29-.67-.48-1.15-.95-.71.08-2.06,1.63-2.21.15-.2.17-1.8.36-1,1.28,1.07.45,1-.91,1.77.39-.86-1-1.4.33-1.9.81l-.18-.55c-.31.27-1.1.28-1.21.93a.57.57,0,0,0-.28-.83l-.22.92c-1.29.66-.57-1.46-1.87-1l.91-.83c-.2.18-.8-.55-1.4-.17-.11.82-.4,1.84-.5,2.5-.68.48-.5-.82-1.08.13l.78-1.13c.1-.29-.89-1.17-1.89-.95-.6.39-1.36,1.71-.27,1.94-.5.11-1.3-.22-1-.87-1.08.49.32.81-.56,1.48-.51-.45-1.91-.9-2.83-1.49l.75-1.53-.69.14c.66-1.24-.63-.69-.36-1.9-.51-.07-1,.43-1.4.82,1.77,1.45-1,2.75-.21,4.26-1.74.84-2.1-3.61-3.42-.63.42.33-.18,1.77.86,1-1.19.12-.37,1.8-1.88,1.48.83-.91-1.5-1.34-.29-2.66,0,.56.91.2,1.1,0-.63-.49-.31-1.63-1.5-1.32-.69.33-1.67.62-1.31,1.41s1.08-.38.86.66c-1.35.67-2-.61-2.11,1.15.87-.38,1.35.5,1.5,1.12l-.93.68,0-.66c-1.78,0-.18,1.23-1.83,1.52l-1.09-1c.08-1.13,2.47-.21,1.71-1.8-1.07.23-1.18,1.18-2.29,1,.17-.2.46-.33.64-.54-.39.06-1.43-2.07-2.54-.3-.62.74,0,.65.14,1.28-1.61.71-1.91,1.5-3,1.93-.18-1.28-1.94.51-1.16-1.12.78.53,3.17-.29,3.41-1.64-1-1.23,1.39-.22,1.32-1.77-1.38.38-1.74-1-2.25-1.9-.4.06-.65.56-.83.78.11.92.6.75.91,1.63a4.6,4.6,0,0,0-3.45,2.31.83.83,0,0,1-.21-1.46,21.52,21.52,0,0,1-5.44,1.78c1.59,1-1.76,1-.59,1.91,1,0,2.15.68,1.89,1.49-.59.12-.21-.62-.55-.83-.43,1-1.56-.8-1.81.67,1.43-1.06-.32-1.82-.44-3-.94,1.06-.24-.79-1.41-.35a18,18,0,0,1-3.36,2.85,4.5,4.5,0,0,0-3,.78c-.93.56-1.78,1.25-2.48,1.58-1-.2-1-1.63-1.92-1.47-.95.45,1.29,1-.37,1l0-.29c-.3.45-2.94.41-2.54,2.3l-.19-1.49c-.31,0-.41.42-.56.66-.21-.42-.7-.65-.41-1.13-1.29-.46-1.76,1-2.66,1.52l1,.44c-1.28,1.41-2.71,1.21-4.1,2.26l-.34-.76-.68.91a.69.69,0,0,0-1.38,0c.45-1,.92-2.05,1.41-3.05.89.09-.26,1.26.53,1.76s2-.48,1.87-1.3c-.59.2-.53.37-.82.85-.71-.93.14-1.31.2-2.21-.26.19-.83.09-.73.45a3.24,3.24,0,0,1,1.77-1.67c-.43.72.67.45.58.87-.39-.95.38-1.68,1.69-2,1.36.65,1.9-1.75,3.42-2.11a5.68,5.68,0,0,1-1.14,3.05c1.08.06.94-.48,2-.42.1-.89-.09-2.08.86-3l.37.66c.87-.81.42-1.83,1.82-2.22,2.41-.64,4.76-1.59,6.54-2.2l.34.68c.4-1.87,3-1.79,4.12-3,2.51-.09,4.69-2.42,6.28-1.53,3.84-1.84,7.26-3.45,11.6-4.26l-.44,1.25c.56-1,.65.48,1.35.14-1.07-.64.76-1.37,1.13-2.16,2.1.36,4.34-1.06,5.89-2.21l.22.73c1.44-1.72,3.76-.93,6-1.09.3.27.81.91,1.44.71,1-1.39,1.59-1.41,3.2-2.45a16.25,16.25,0,0,1,4.71.14,21,21,0,0,1,7.12-1.85,60.1,60.1,0,0,0,7.45-1.05l.4.87a11.75,11.75,0,0,1,3.84-.93,24.64,24.64,0,0,1,4,0c1.33.09,2.64.2,3.88.25a17,17,0,0,0,3.51,0l-.55,1.48c1.27.55,3-.13,2.82-1.22,1.27.63,3.43-.29,4.09,1.05,1.3.49,1.76-.4,2.93-.4a20.63,20.63,0,0,0,6.24,1.52l-.61-.25c-.36.26-.53.88.07,1.12,1.05-.22,3.33,1.33,2.9-.68,1.2.93,2.83,1.16,4.44,1.55a8.3,8.3,0,0,1,4.22,2.05c0-.55.65-.34,1.06-.52a29.91,29.91,0,0,1,3.28,2,8,8,0,0,0,3.13,1.46c.23.42-1,.41-.11,1,.62.14.34-.55,1.14-.41a8.41,8.41,0,0,1,2.77,1.51,22.67,22.67,0,0,1,2.38,2.09c.71.8,1.38,1.61,2.06,2.36s1.4,1.41,2.08,2.09c.67.53,1.34,1.08,2,1.65A14.7,14.7,0,0,1,653,312.1c.57.67,1.13,1.35,1.68,2a14.69,14.69,0,0,1,1.54,2.14,49.75,49.75,0,0,1,4.65,9.17l-.37.06a2.92,2.92,0,0,1,1,1.53,10.72,10.72,0,0,1,.21,1.88c.1,1.27.23,2.41,1.41,3-.23.58.24,2-.52,1.73.69.76.59,2,.58,3.32a7.3,7.3,0,0,0,.62,3.88c0-.23-.07-.35-.24-.61a7.38,7.38,0,0,0-.19,1.84,17.27,17.27,0,0,0,.08,1.76,17.58,17.58,0,0,1,.09,1.79,7.5,7.5,0,0,1-.35,1.86c-.14-.27-.23-.75-.59-.84-.75.94,1.42,2.44-.37,2.86,0,.56.83.47.82.12-1.13,5.5-1.19,11.46-2.44,17.14-2.21,3.62-2.87-.63-2.61,2.82-.4.14.58.39.22.32.09,1.35-2.49,1.16-1.9,2.27,1.13,0,.37.74,1,1-1.51,2.09-2.63,2.14-2.59,4.26l-.46-.35c.59,2.71-1.3,4.78-.6,7.42a52.8,52.8,0,0,1-5.35,8.85,37.92,37.92,0,0,1-7.7,7.54c-5.69,4.18-11.69,6.67-17.17,8.82-11,3.7-21.42,8.43-32.83,11.6-3.11-.44-3.29-.33-5.93,1.29,0-.27.19-.38-.08-.52.28,1.19-2,.84-1.84,2-4.17,1.3-7.83,3-12,4.57.62-.37.61-1.43-.15-1.06l-.56,1-.25-.26c-.48.36-.86,1.15-.17,1.31-10.22,4.88-21.44,6.49-31.87,10.5-2.67.4-6.08,2.08-8.75,3.23-8.68,1.16-16.39,2.15-24.6,5.38A6.71,6.71,0,0,1,508,443.92Z"/><path class="cls-1" d="M506.12,317.51c.57.39,1.59.2,1.29,1.3C507.05,318.35,506.3,318,506.12,317.51Z"/><path class="cls-1" d="M532.41,312.2c0-.18.43.1.54.17-.28.15-.37.74-.72.53C532.51,312.74,532.37,312.49,532.41,312.2Z"/><path class="cls-1" d="M538.7,310.31c.08.55-1.1,1.41-1.85,1.74Z"/><path class="cls-1" d="M545.16,310.56c.63.28.56.56-.11.76C544.92,311.06,545.1,310.85,545.16,310.56Z"/><path class="cls-1" d="M545.21,309.25a1.14,1.14,0,0,1,1.13.29C546.19,309.1,545.31,310.17,545.21,309.25Z"/><path class="cls-1" d="M558.29,307.41c.3-.11.87-.7,1.28-.17C559.16,306.9,558.24,308.24,558.29,307.41Z"/><path class="cls-1" d="M564.08,305.36c.2,0,.3.08.49-.12.41.18.11.64-.18.75Z"/><polygon class="cls-1" points="653.35 338.1 653 337.51 653.54 337.53 653.35 338.1"/><path class="cls-1" d="M642.33,383.43c-.05.7-.66.08-.78.12C641.8,383.06,642,384.09,642.33,383.43Z"/><polygon class="cls-1" points="623.62 399.84 623.81 399.75 624.14 400.81 623.62 399.84"/><path class="cls-1" d="M447.22,392c-1.12.64.94.68-.66.67C446.6,392.22,446.72,391.82,447.22,392Z"/><path class="cls-1" d="M466.38,416.42c4.27-2.82,9.86.13,14.53-1.67.54-.12-.15,1.56,1.09,1.19,4.54-2.2,11.54-.95,17.26.2l-.29.47c1.1.21,2.24-1.39,3.37-1.3,0,.28-.31.45,0,.81.18-.88,2-.68,2.35-1.4.49.27.55,1,1.19,1.26l.48-1.09a2.92,2.92,0,0,1,2.89-1.55,5.08,5.08,0,0,0,3.48-1c-.05.26-.23.49,0,.66,3.38-2.39,8-3.75,11.6-6.16a1.59,1.59,0,0,0,.54,1.29c-.26-1,.79-1.88,1.7-2.6,1,.7,1.25-1.77,2.74-1.92l0,.27c.33-1.49,1.62-.16,1.68-1.75l1,.44c-.34-1.57,1.66,0,2-1.08l-.17-.26c.52-.7,1.24-.22,1.76-.78l.15.12c1.31-1.17,2.6-.84,2-1.89,1,.58-1.27,1.14.2,1.95,4.41-3.68,9.73-6,14.79-8.48.78.16,1.21.11,1.54.45.4-.46,1.81-1.12,2-1.89-.16.1.59.39.88.31,1.12,0,.44-1.66,1.68-1.68a1,1,0,0,0,.1,1.23c.46-1.26,1.67-1.69,2.56-2.46-.07.26-.27.49-.06.8.65-1.49,2.13-.8,2.81-1.88l-.06.8c1.94,0-.18-1.52,1.39-1.75-.22.35,0,.54.08.82.71-1.74,2.91-2.42,4-3.44a.41.41,0,0,0,.08.28c1.29-.83,2.88-1.25,4.11-2.51.69,0,.62,1.58,1.93.58-.71-1.19,2.14-1.83.55-2.74,1.32-.45,3.47-1.09,4-2-.28.77,1.43,1.12.49,1.8l1.17.28c.18.56-.87.29-.27.77.47-.34,1.66-1.66,2.22-1.73.49-1.3.5-3.16,1.87-4.2-.41.88,1.2,1,.86,1.53.22-1.16.42-2.35.6-3.52.44-.37.7.84,1.19.09-.23-.28-.06-.67,0-1.05.27,0,1.77-1.58,2.73-.62.51.29-.6.77.2.81.86-.63.63-1,1.48-1.66l.12.14c.69-.24,1.35-1.65.29-1.83-.42.25.62.56-.19.65-.05-.92.79-1.8,1.58-2.43-.14.39.11.65.23,1a15.57,15.57,0,0,1,2.15-4.16c-.41-.5.37,1.25,0,1.14a3.73,3.73,0,0,0,2-2.06c.47-.85.89-1.62,1.89-1.78-.08.27-.79-.5-.64-.39.63-.6,1.32,0,1.41-.67.49.3.3-.68.49-1.24-.16-.47.31,0,.06.48a16.65,16.65,0,0,1,.7-2.5,8.35,8.35,0,0,1,1.39-2.73c-.32-.1-1.07-1.28-1-1.58l.81.29c.56-.25.08-1.21.82-1.21-.49-.42-.33.33-.19,1.11s.19,1.58-.07.92c.38-.06.14-.53-.07-.88s-.44-.62.12-.43a2.46,2.46,0,0,0-.31-1.13.88.88,0,0,1,.21-1.06c-.12.19,1.23.59,1.12-.06-.27-1.13-.39-.31-.83-1.15l-.44-.47c-.78.14-.14-.93-.92-.33.31-.14.12-.48,0-.8s-.2-.63.46-.84l1.06-.25c-.25-.46-1.37-.33-2-.44.07-.09.2-.31.37-.36-1.47.7-.43-1.09-1.83-.89,0-1.16-1.51-2-1.1-3.1-.95-.26-1.87-.32-2.36-1.19.24,0,.47.14.75-.1-.14-.76-.54-.54-1.14-.66.26-.12-.37-1.52-.65-2.41-1-.09-1.25.84-1.62,1.25.12-.89-.54-1-1.23-1.06s-1.38-.08-1.49-1c.36-.07,1.5-.13,1-.83,0-1.87-2,.4-2.91-.85l-.24,1.38c-.21-1-2,0-1.41-1.26-.57.31-1.32-.9-1.61.39a5.94,5.94,0,0,0-3.28-1.37,3.13,3.13,0,0,1-2.64-1.94c-.35.17-1.09-.17-1,.52.39.81.81-.41.91.11-.28,0-.4.35-.46.53-.61-.4-1.14-.57-.32-1.56-.7-.52-1.18,0-1.69.51s-1.06,1.07-2,.76c.14-.54,0-.75-.56-.71l-1.12.86c-1.21-.3-.64-1.29-.63-2.22-.68.09-1.52.1-1.83.77l-.82-1.16c.6.84-.56.55-.88.78l.32-.23c-.13-.38-.92-.16-1.31,0,.11.55.91.8,1.34,1-.33.42-.86.3-1.3.8.12-.92-1.12-.57-1.65-.63s-.64.86-.82.83c0-.47-1,0-.57-.7.2-.16.51.43.82,0-.42-.32-.45-1.14-1.24-.49-.6.49.32,1.74-.92,1.31.29-.26.31-.63.52-1l-1.17-.33,0,.83c-.17-.19-.08-.28-.16-.38-.23.91-1.68.48-1.8,1.48-.54.14-1.26-.39-1.81-.39l.09-.09a1.66,1.66,0,0,0-2,.76v-.18a2,2,0,0,0-1.53.87c-1-.41-1-3-1.76-1.74a1.53,1.53,0,0,0-.6,2.24c-1.78-.17-3.24,1.69-5.11.87-.13.39.08.54-.34.89a17.69,17.69,0,0,0-3.55,1.33,4.66,4.66,0,0,1-3.5.4c.56-.57-.25-.79-.43-1.23-.3.9-1-.45-.7.81.32.68.4,1,1.16,1.06-1.24.93-3.32,1.76-4.36,1.44.51.16.31.49.1.83-.37-1.14-1.46-.86-2.05-.14l.18.71-.8-.47c-.2.35.3,1.53-.74,1.23a2,2,0,0,0-.54-.6c-.54.91-1.21,2.34-2.32,2.18l-1.15-.63c-.32.29-.64,1.16.13,1.12-1.73.15-2.7.54-3.58-.05-1.47,3.27-5,5.19-7.85,6.66l-.19-.52c-1,0,.08,1.05-.63,1,0-.59-1.14-.65-.86-1.54-1.37.12-.92,1.62-1.49,2.24.25.68.33-.72.65.14,0,.29-1.77.38-1.38,1.41-.49-.21-.69-1-.76-1.48l-.39.84c-1.45-.61.68-3-1-3.87l-.53.51c-1.16-.63,1-2.06-.76-1.49-.4.87-.16,2.55.67,2.61-1.22,1.08.69,2.59-.82,3.4-.73-.3,1.1-.84.35-1.43-1.14-.33-1.13,1.25-1.9,1.37.89-.07.9,1.22.57,1.65-1,0-.07-1.16-1.17-.61.16.64-.55,1.63.51,1.49.38,1.43-1.29.33-1.26,1.63-.87-.62-.18-2.63-1.58-2.32.7.7-.69,2,.68,2.82-.59.05-1.05-.55-1.05-1.26-1-.08-.58,2.46-1.83,1l.33,1c-.38-.13-.79-.14-1.41-.37-.56.36-1,2.29-1.82,1-.09.24-1.38,1.06-.31,1.57,1.13,0,.47-1.24,1.68-.39-1.19-.57-1,.89-1.26,1.51l-.4-.42c-.14.37-.82.69-.64,1.31a.57.57,0,0,0-.6-.62l.22.91c-.82,1.1-1.14-1.08-2-.13l.4-1.12c-.09.24-.92-.16-1.26.42.27.79.46,1.82.66,2.44-.38.7-.79-.54-.89.54l.19-1.32c0-.29-1.28-.71-2.05-.11-.34.59-.42,2.08.62,1.86-.38.29-1.22.31-1.25-.39-.72.88.62.6.16,1.56-.63-.2-2-.08-3.09-.24l0-1.66-.53.39c0-1.37-.84-.38-1.14-1.57-.47.13-.67.78-.84,1.28,2.15.62.32,2.85,1.64,3.91-1.13,1.46-3.36-2.44-3.24.75.51.14.6,1.67,1.19.59-1,.56.43,1.75-1,2,.33-1.14-1.86-.62-1.38-2.28.26.48.87-.18.95-.43-.76-.2-1-1.35-1.87-.63-.44.57-1.17,1.21-.52,1.79s.77-.76,1,.26c-.87,1.14-2,.18-1.35,1.83.6-.65,1.39-.05,1.78.46l-.53,1-.25-.61c-1.54.7.36,1.18-.95,2.07l-1.37-.46c-.4-1.06,2.06-1.13.74-2.28-.84.62-.53,1.51-1.57,1.8.07-.25.27-.48.34-.73-.32.19-2.1-1.32-2.35.67-.24.9.25.6.66,1.11-1.14,1.24-1.08,2.07-1.83,2.86-.67-1.09-1.52,1.18-1.48-.58.91.18,2.69-1.48,2.35-2.77-1.44-.73,1.13-.71.42-2.09-1.05.85-2-.3-2.77-.89-.32.2-.33.75-.4,1,.48.79.84.46,1.47,1.14a4.32,4.32,0,0,0-2.1,3.38c-.68,0-1.16-.79-.77-1.26a18.09,18.09,0,0,1-4.21,3.53c1.82.38-1.25,1.53.14,2,.92-.36,2.23-.09,2.28.75-.51.31-.42-.5-.81-.58,0,1.1-1.73-.23-1.45,1.22,1-1.46-.93-1.59-1.46-2.67-.49,1.28-.49-.66-1.4.11a13.44,13.44,0,0,1-2.21,3.66c-2,.21-3.41,2.64-4.64,3.58-1,0-1.32-1.4-2.16-1.09-.81.59,1.43.73-.14,1.09l0-.29c-.2.53-2.77.74-2.14,2.59l-.37-1.46c-.3,0-.34.46-.46.71-.25-.39-.75-.59-.52-1.08-1.3-.38-1.55,1.12-2.41,1.63l1,.43c-1.2,1.41-2.61,1.22-4,2.17l-.29-.77c-.23.28-.46.59-.7.86a.68.68,0,0,0-1.34-.15c.53-.94,1-1.87,1.47-2.84.82.14-.26,1.22.47,1.77s1.94-.36,1.78-1.2c-.55.2-.5.35-.77.82-.68-1,.13-1.27.15-2.17-.24.19-.77.06-.66.41a2.84,2.84,0,0,1,1.55-1.58c-.36.7.65.46.59.86-.41-.91.22-1.63,1.37-2,1.35.58,1.48-1.81,2.77-2.29a4.81,4.81,0,0,1-.53,3c1,0,.82-.55,1.84-.61-.07-.88-.48-2,.17-3l.49.58c.62-.91-.05-1.83,1.11-2.42a38.33,38.33,0,0,0,5.18-3.55l.53.53c-.3-1.84,2.06-2.53,2.57-3.92,2.15-.91,3.14-3.73,4.87-3.51a43.26,43.26,0,0,1,8.26-8.12l.15,1.29c.06-1.1.77.19,1.23-.38-1.2-.17.07-1.51.05-2.36,2-.48,3.27-2.63,4.11-4.24l.5.57c.48-2.12,2.81-2.31,4.61-3.31.38.12,1.09.48,1.53.06.21-1.63.74-1.89,1.65-3.46a13.71,13.71,0,0,1,4-1.78c2.82-3.91,7.33-5.41,10.86-8.65l.74.6c3-3.93,8.78-5.06,11.81-7.65l.35,1.52c1.29-.12,2.3-1.58,1.55-2.41,1.3-.13,2.48-2,3.71-1.19,1.25-.29,1.11-1.28,2-1.9a15.56,15.56,0,0,0,5.49-2.12l-.58.13c-.13.41.09,1,.68.88.66-.74,3.2-.8,1.73-2.18a9.25,9.25,0,0,0,4.1-1.31,6.89,6.89,0,0,1,4.18-.9c-.35-.42.24-.68.4-1.07a25.38,25.38,0,0,1,3.42-.56,5.87,5.87,0,0,0,3-.93c.41.16-.38.95.54.79.49-.31-.13-.63.48-1.06a12.36,12.36,0,0,1,5.58-.9,34.38,34.38,0,0,0,5.46,0c6.07-1.44,12.74-.61,18.7.6l-.15.34a3.84,3.84,0,0,1,3.28.75c1,.61,2,1.12,3.12.39a3.62,3.62,0,0,0,.91.62c.3.22.48.44.19.7,1.9-.24,3.79,2.52,6.51,2.71a.85.85,0,0,0-.64-.13c1.73,1.89,4.17,2.21,5.77,4.52-.31-.06-.75-.29-1,0,.17.58.85.68,1.44.85s1,.46.6,1.28c.43.39.93-.33.63-.55a52.38,52.38,0,0,1,5.49,7.64,20.52,20.52,0,0,1,2.7,10.16c-.8,2.52-1.62,2.35-2,2.23s-.51-.35-.31,1.6c-.41.19.58.39.22.34,0,.75-.62,1.15-1.2,1.44s-1.1.5-.87,1.12c1.14.08.3.83.86,1.13a14.09,14.09,0,0,1-2.29,2,3.4,3.4,0,0,0-1.24,2l-.36-.46a7.25,7.25,0,0,1-1.42,3.57,7,7,0,0,0-1.41,3.37,78.85,78.85,0,0,1-7,6.06c-2.3,1.82-4.63,3.54-7,5.23a148.15,148.15,0,0,1-14.49,9.12c-10.08,4.91-19.5,10.14-29.71,14.16-3-.19-3.11,0-5.34,1.77,0-.27.13-.4-.15-.51.43,1.14-1.7,1-1.39,2.17-3.73,1.67-6.42,3.68-10.72,5.93.59-.46.45-1.52-.27-1.05-.15.38-.3.75-.47,1.11l-.28-.24c-.46.41-.8,1.23-.06,1.32A44.18,44.18,0,0,1,511,420.5c-5.77.81-11.39.84-16.81,1.26-2.6-.37-6.2.18-8.94.45-8.12-1.59-15.21-3.07-23.24-1.92A6.23,6.23,0,0,1,466.38,416.42Z"/><path class="cls-1" d="M448.61,391.41c.45.48,1.42.44,1.05,1.48C449.36,392.39,448.71,392,448.61,391.41Z"/><path class="cls-1" d="M472.7,383.31c-.09-.16.44-.05.56,0-.2.23-.09.81-.49.73C473,383.78,472.76,383.59,472.7,383.31Z"/><path class="cls-1" d="M477.76,379.39c.29.47-.45,1.69-1,2.27Z"/><path class="cls-1" d="M483.62,377.23c.67,0,.73.3.22.73C483.61,377.77,483.68,377.52,483.62,377.23Z"/><path class="cls-1" d="M483.12,376a1.11,1.11,0,0,1,1.12-.15C483.92,375.54,483.59,376.82,483.12,376Z"/><path class="cls-1" d="M493.73,369.39c.21-.21.45-1,1-.65C494.26,368.59,494,370.16,493.73,369.39Z"/><path class="cls-1" d="M497.84,365.27c.17-.08.29,0,.38-.3.42,0,.36.53.16.75Z"/><polygon class="cls-1" points="591.86 335.23 591.21 335.24 591.51 334.79 591.86 335.23"/><path class="cls-1" d="M594.48,365c-.26.64-.64-.14-.77-.15C594.1,364.46,594,365.49,594.48,365Z"/><polygon class="cls-1" points="574.81 380.62 574.97 380.51 575.44 381.52 574.81 380.62"/><path class="cls-1" d="M285,338.83c1.34,1,.08-1.27,1.07.49C285.63,339.45,285.16,339.45,285,338.83Z"/><path class="cls-1" d="M375.25,446.25c-5.45,2.83-12.62,0-18.59,1.76-.69.12.19-1.56-1.39-1.18-5.78,2.19-14.89.87-21.93-.84l.43-.44c-1.34-.32-3,1.13-4.4.93,0-.3.45-.42.12-.82-.35.88-2.56.4-3.17,1.06-.56-.35-.5-1-1.23-1.43l-.81,1c-2.27,2.38-5.5-.17-8.58,1,.15-.23.45-.41.21-.63-5,1.43-11.16,1.16-16.7,1.68a1.28,1.28,0,0,0,.11-1.39c-.28,1.05-2,1.31-3.47,1.52-.67-1.09-2.55,1-4.29.38l.15-.24c-1.29,1.13-1.91-.66-3,.7l-.81-.86c-.58,1.53-1.86-.8-2.93,0l0,.32c-1,.36-1.52-.41-2.45-.16l-.09-.18c-2.19.39-3.44-.48-3.41.71-.75-1,2.12-.41.94-1.81-7.18,1.15-14.59.72-21.8.34-.8-.53-1.31-.71-1.46-1.17-.74.19-2.72,0-3.42.6.24,0-.42-.63-.8-.72-1.27-.56-1.53,1.18-2.93.53.6-.27.82-.63.67-1.09-1.3.82-2.93.55-4.41.69.25-.18.61-.26.59-.64-1.69.89-2.86-.52-4.32,0l.6-.63c-2.13-1.08-.82,1.35-2.7.62.49-.15.36-.44.48-.71-1.95,1-4.81.24-6.66.36a.36.36,0,0,0,.12-.27c-2-.12-4-.86-6.18-.72-.72-.44.56-1.6-1.53-1.73-.19,1.38-3.58-.17-2.69,1.62-.86-.3-2-.72-3-1a6.73,6.73,0,0,0-2.64-.52c.9-.32-.44-1.85,1-1.61l-.88-1.07c.29-.51,1.06.45.89-.32-.72-.13-3-.08-3.52-.49-1.52.45-3.17,1.63-5.38,1.18,1.16-.21-.13-1.63.62-1.65L207,440.48c-.74-.17.18-1.09-1-1.08-.06.37-.58.44-1,.61-.22-.21-3.06-.75-2.89-2.13-.12-.62,1.24.15.63-.59-1.29-.46-1.51,0-2.81-.51l0-.18c-.76-.53-2.69-.49-2.06.58.57.29.08-.85.8-.12-.89.49-2.47.06-3.76-.46.52,0,.61-.38.94-.65-2.16.29-4.08-.33-6.19-.81-.31.57,1.22-.72,1.35-.28a5,5,0,0,0-1.75-1.05,19.31,19.31,0,0,0-1.95-.64c-1.3-.39-2.55-.79-3.21-1.9.37.08-.28.9-.21.73-1.09-.73-.57-1.52-1.47-1.64.2-.52-1-.39-1.85-.69-.59.12,0-.34.63,0-1.29-.16-5.9-2.11-7.74-4.41-.16.33-2.19.06-2.7-.37l.71-.53c-.17-.76-1.81-1.22-1.44-1.87-1.75,0,4.82,2.43,2.83,2,0-.85-2.91-.45-1.9-1.14-1.08-.71-2.63-.81-3.11-2.21.2.34,1.55-.25.71-.86-1.53-1.05-.67,0-2-.74l-1-.34c-.59.58-1.17-1.2-1.26,0,.28-.67-2.3-1.52-1.23-2.4l.92-.63c-.64-.47-1.74,0-2.54-.12,0-.14,0-.45.14-.55-1.25,1.1-1.25-1.46-2.84-1.25a13.45,13.45,0,0,0-1.75-2.34,3.15,3.15,0,0,1-.93-2.16c-1.21-.66-2.52-1.14-3.14-2.57.31.14.59.43.92.27-.19-1-.67-.95-1.4-1.47.31,0-.37-2.07-.51-3.23-1.15-.74-1.61.11-2.14.32.7-1.91-2.93-2.49-2.49-4.56.42.28,1.71,1.16,1.47.05.74-1.82-2.23-1.43-2.52-3.48l-1,1.07c.31-1.15-2.11-2.11-.76-2.59-.72-.37-.58-2.25-1.68-1.48-.18-1.68-1.19-3.33-1.85-5s-1.1-3.27-.26-4.57c-.35-.36-.48-1.5-1.06-1.08-.47.94.83.85.44,1.27a.66.66,0,0,0-.73-.34c0-1-.15-1.8,1.18-1.24.2-2.3-2.83-1.54-3-4.46.56,0,.71-.25.45-1l-1.21-1.38c-.12-1.86,1.05-1.23,1.95-1.43-.3-.92-.41-2.09-1.16-2.44l1.05-1.29c-.76.93-.63-.73-.9-1.17l.27.44c.36-.21,0-1.29-.09-1.85-.57.15-.75,1.32-.84,2-.47-.46-.42-1.25-.92-1.9.93.17.54-1.63.67-2.42s-.8-1-.77-1.29c.46,0,.12-1.48.75-.75.14.31-.47.69-.06,1.2.37-.59,1.15-.49.62-1.73-.39-.94-1.81.15-1.12-1.6.2.49.55.6.86,1l.57-1.6-.81-.15c.23-.2.29,0,.41-.13-.8-.58,0-2.55-.86-3.07.07-.86.86-1.68,1.13-2.44l0,.17a3.57,3.57,0,0,0,.4-3.15l.16.09a4.66,4.66,0,0,0,.23-2.58c1.09-1.09,3.1.65,2.66-1.1.45-1.25-.5-2.56-1.24-2.28a21.24,21.24,0,0,0,1.76-3.54,5.54,5.54,0,0,1,2.43-2.94c-.07-.48-.38-.41-.11-1.14.3-.36.58-.74.85-1.13s.58-.75.86-1.13c.57-.76,1.07-1.6,1.69-2.29a15.37,15.37,0,0,1,1.88-1.9,5.78,5.78,0,0,1,2.22-1.1c-.52,1,.52.65.85,1,.12-1.13,1.26-.12.63-1.28-.56-.5-.73-.83-1.69-.36,1.31-1.79,3.93-3.85,5.31-4-.68.07-.45-.38-.2-.84.59,1.06,1.92.25,2.69-.72l-.26-.7,1,.2c.25-.44-.4-1.56,1-1.61a1.41,1.41,0,0,0,.7.48c.74-1.1,1.73-2.92,3.22-3l1.45.43c.44-.36,1-1.38,0-1.18,2.3-.47,3.64-1,4.66-.45,2.55-3.63,7.87-5.75,12.18-6.86l0,.56c1.28.14.32-1.08,1.23-.95-.22.6,1.19.85.47,1.7,1.78.12,1.84-1.47,2.86-2,0-.73-.75.67-.77-.26.12-.3,2.42-.07,2.41-1.19.52.3.38,1.16.27,1.64l.88-.77c1.5.9-2.23,2.93-.57,4.1l.85-.41c1.12.88-2,1.88.28,1.66.83-.8,1.34-2.47.34-2.76,2-.73.38-2.72,2.68-3.11.76.5-1.79.53-1.16,1.31,1.25.63,2-.92,3-.82-1.13-.18-.45-1.44.2-1.78,1.26.26-.56,1.17,1.1.93.16-.69,1.61-1.39.21-1.6.36-1.5,1.81.12,2.54-1.1.7.9-1.34,2.53.56,2.75-.45-.91,2-1.63.88-2.9.76.17.94.91.5,1.57,1.1.43,2.27-2.11,2.84-.27l.24-1c.36.28.85.48,1.44,1,.9-.07,2.8-1.59,2.85-.11.27-.18,2.35-.3,1.47-1.25-1.35-.51-1.42.88-2.27-.43,1,1,1.86-.32,2.6-.77l.16.56c.44-.28,1.48-.21,1.73-.83a.49.49,0,0,0,.24.85l.43-.88c1.82-.5.5,1.51,2.26,1.2l-1.31.72c.28-.15.91.64,1.75.34.3-.81.89-1.78,1.17-2.41,1-.38.46.88,1.45,0l-1.29,1c-.18.28.89,1.27,2.21,1.25.84-.26,2.19-1.38.84-1.84.68,0,1.61.51,1.07,1.08,1.52-.24-.19-.86,1.14-1.33.53.55,2.18,1.35,3.14,2.14l-1.41,1.3.9,0c-1.2,1,.54.83-.16,1.94a3.23,3.23,0,0,0,1.93-.41c-1.67-1.95,2.16-2.28,1.77-4,2.55-.22,1.18,4.12,4,1.78-.38-.46,1-1.59-.64-1.26,1.52.33,1.25-1.59,3-.63-1.43.46,1.22,1.87-.83,2.54.19-.53-1-.56-1.34-.41.55.7-.31,1.58,1.22,1.81,1,0,2.25.15,2.19-.73.09-.94-1.46-.12-.73-1,2,0,2,1.43,3.1-.1a1.31,1.31,0,0,1-1.27-1.69l1.49-.17-.38.57c2.2.8.86-1,3.05-.49l.79,1.44c-.71.88-3.09-1-3,.72,1.39.27,2-.49,3.26.25-.32.08-.73,0-1,.12.5.17.53,2.53,2.77,1.65,1.14-.28.41-.54.58-1.17,2.29.32,3.14-.22,4.6.14-.63,1.13,2.5.86.57,1.64a3.6,3.6,0,0,0-2.21-1.12,3.4,3.4,0,0,0-2.64.43c.47,1.64-1.71-.59-2.5.79,1.76.42,1.35,1.85,1.41,2.85.46.17,1-.12,1.34-.21.42-.84-.21-1,0-1.88a8.06,8.06,0,0,0,5.21.2.77.77,0,0,1-.73,1.29,26.56,26.56,0,0,1,3.56.91,23.08,23.08,0,0,1,3.26,1.48c-.86-1.92,2.51.57,2-.93-1-.75-1.68-2.13-.8-2.51.71.37-.25.6-.05,1,1.23-.41,1,1.76,2.36.91-2.28-.35-1.07,1.53-1.89,2.47,1.71-.05-.37.74,1.07,1.29a18.49,18.49,0,0,1,5.34.89c1.54,1.83,4.89,2.64,6.66,3.58.58,1-.71,1.8.12,2.54,1.12.64-.05-1.73,1.24-.18l-.29.12c.65.08,2.35,2.73,3.92,1.52l-1.31.82c.21.31.67.23,1,.28-.26.38-.17.95-.82.87.37,1.45,2.1,1.25,3.07,2.08l-.1-1.19c2.1.9,2.69,2.49,4.5,3.63l-.61.57a10.51,10.51,0,0,1,1.25.5c-.76.37-.32,1.55.6,1.54a32,32,0,0,0-3.68-.75c-.35-.93,1.41-.12,1.53-1.07s-1.54-1.93-2.28-1.52c.5.54.65.43,1.28.57-.57,1-1.39.27-2.3.51.32.2.5.81.8.59a4.15,4.15,0,0,1-2.51-1.23c.91.19.09-.85.54-.9-.73.74-1.75.16-2.85-.89-.22-1.57-2.78-1-4-2.28a5.8,5.8,0,0,1,3.5-.32c-.64-1.07-1.05-.69-1.7-1.77-.87.32-1.8,1.06-3.31.75l.33-.68c-1.35-.33-1.9.64-3.23-.37-.57-.43-1.15-.85-1.74-1.25s-1.23-.68-1.83-1l-3.31-1.7.22-.73c-1.73,1-4-.91-5.77-.84a9.67,9.67,0,0,0-4-1.38c-1.31-.27-2.42-.57-2.94-1.4-2.44-.36-4.76-.49-7-.84a62.62,62.62,0,0,1-7.1-1l1-1c-1,.67-.51-.73-1.43-.65.93,1-1.37,1-2.05,1.64a7.06,7.06,0,0,0-3.64-.5,15.7,15.7,0,0,0-3.5.9l-.06-.75a4.34,4.34,0,0,1-3.28.5c-1.16-.18-2.39-.46-3.65-.55-.3-.3-.78-1-1.54-.89-1.31,1.27-2,1.18-4,2.14a22.57,22.57,0,0,1-5.35-.26,21.43,21.43,0,0,1-4,1.44c-.67.18-1.34.33-2,.47l-2,.5c-1.35.32-2.71.62-4.07,1a25.33,25.33,0,0,0-4,1.5l-.63-.75a34.19,34.19,0,0,1-8,3.49c-2.75.95-5.44,1.85-7.28,3.29l-.25-1.56c-1.53.19-2.8,1.8-2,2.6a6.44,6.44,0,0,0-2.12,1.16c-.67.49-1.31.86-2,.55-1.42.49-1.15,1.53-2,2.34a12.58,12.58,0,0,0-3,1.6,16.72,16.72,0,0,0-2.35,2.19l.57-.35c0-.44-.38-1-1-.6-.55.91-3,2.18-1.05,2.81-1.4.54-2.34,1.91-3.27,3.2a14,14,0,0,1-1.38,1.88,4.88,4.88,0,0,1-1.65,1.44c.54.09.24.69.36,1.09-1.15,2-3.22,3.75-3.07,5.82-.37.26-.57-.85-1,0,0,.6.6.24.62,1a22.47,22.47,0,0,1-1.48,5.48,26.82,26.82,0,0,0-.84,2.73,10.79,10.79,0,0,0-.29,2.74c.4,3.2.8,6.43,1.42,9.64a49.62,49.62,0,0,0,2.62,9.29l-.37.05c1,.76,1.15,2,1.38,3.21s.61,2.31,1.91,2.61c-.1.61.69,1.8-.09,1.79,1.72,1,1.5,4.68,4,6-.1-.21-.23-.27-.51-.41a8.16,8.16,0,0,0,1.84,3.14,10.65,10.65,0,0,1,2.13,3.1c-.29-.12-.68-.44-1-.28.07,1.29,2.71.93,1.75,2.48.41.44.95-.25.67-.49,3.29,4.93,8.69,8.52,13.74,11.89,2.92,3.43-1.55,2.52,2,3.53,0,.45.56-.42.39-.1,1.35.41.63,2.82,1.94,2.59.27-1.11.86-.16,1.25-.69,1.87,2.09,1.87,3.19,4.16,3.58l-.43.41c3-.05,5.18,2,7.88,1.35,12.5,5.89,25.58,8.48,39,10.54,13.23,2.58,26.62,2.58,40.59,3.88,3.25,1.57,3.51,1.51,7.14,1-.15.24-.38.29-.14.52.2-1.22,2.56-.09,2.92-1.25,5.21.27,10-.06,15.45-.06-.86.13-1.29,1.12-.27,1.05l1.06-.78.17.34c.7-.18,1.46-.78.74-1.17,13.58-1,26.94,1.43,40.24,1.14,3.16.52,7.66,0,11.09-.19,10.17,1.64,19.34,3,29.68,1.84A7.42,7.42,0,0,1,375.25,446.25Z"/><path class="cls-1" d="M283.56,337.51c.2-.67-.39-1.74.84-1.66C284.08,336.34,284,337.22,283.56,337.51Z"/><path class="cls-1" d="M260.59,314.78c-.11.15-.35-.4-.41-.53.4.1,1-.23,1.14.18C260.91,314.32,260.86,314.61,260.59,314.78Z"/><path class="cls-1" d="M252.75,311.6c.27-.47,2.17-.42,3.2-.08C254.9,311.46,253.8,311.57,252.75,311.6Z"/><path class="cls-1" d="M245.64,307.38c-.58-.6-.34-.8.58-.58C246.22,307.09,245.88,307.17,245.64,307.38Z"/><path class="cls-1" d="M244.81,308.47a1.77,1.77,0,0,1-1.15-.89C243.59,308,245.23,307.62,244.81,308.47Z"/><path class="cls-1" d="M227.93,304.47c-.42,0-1.35.38-1.7-.22C226.64,304.65,228.3,303.7,227.93,304.47Z"/><path class="cls-1" d="M219.87,305c-.26,0-.36-.15-.66,0-.48-.23,0-.65.42-.7Z"/><polygon class="cls-1" points="146.42 397.11 145.76 396.49 146.29 396.33 146.42 397.11"/><path class="cls-1" d="M193.77,437.27c.91,0,.34.7.43.82C193.47,437.85,194.73,437.59,193.77,437.27Z"/><polygon class="cls-1" points="226.32 444.4 226.08 444.37 226.37 443.29 226.32 444.4"/><path class="cls-1" d="M366.42,378.34a.72.72,0,0,0-.18.47c0,.17,0,.2-.11-.13C366.44,378.33,366.44,378,366.42,378.34Z"/><path class="cls-1" d="M362,418.35a8.6,8.6,0,0,1-3.49,1.63,23.13,23.13,0,0,1-3.95.34c-1.34,0-2.71,0-4,.15a12.15,12.15,0,0,0-3.87.76c-.58.14.1-1.55-1.2-1.14-4.78,2.41-12.52.93-18.25-1.08l.38-.42c-1.09-.35-2.54,1-3.72.69,0-.3.41-.39.17-.81-.36.86-2.16.24-2.72.85-.44-.38-.33-1.06-.9-1.49l-.76.94c-2.11,2.25-4.54-.65-7.24.31.15-.22.43-.37.25-.62a22.81,22.81,0,0,1-6.9.3l-3.62-.29c-1.2-.11-2.39-.25-3.56-.31a1.53,1.53,0,0,0,.32-1.37c-.4,1-1.86,1-3.13,1-.36-1.17-2.29.63-3.62-.27l.17-.21c-1.28.9-1.45-1-2.57.2l-.51-1c-.77,1.4-1.37-1.09-2.4-.5l0,.31c-.9.2-1.18-.63-2-.56l0-.19c-1.87,0-2.72-1.08-2.94.09-.41-1.07,1.83,0,1.15-1.61a44.14,44.14,0,0,1-9.08-1.19c-1.5-.33-3-.69-4.46-1.08l-4.4-1.23c-.53-.64-.91-.9-.94-1.38-.64.07-2.25-.38-2.95,0,.2,0-.2-.7-.49-.85-.92-.74-1.52.91-2.53.05.56-.16.82-.48.79-.95-1.25.59-2.53.05-3.78,0,.24-.14.56-.17.62-.54-1.59.63-2.25-.92-3.56-.65l.62-.52c-1.53-1.37-1,1.2-2.36.23.44-.08.39-.38.54-.63-1.82.73-4-.41-5.61-.49.12-.06.15-.25.15-.25-1.61-.38-3.11-1.31-5-1.38-.52-.5.76-1.52-1-1.84-.39,1.33-3-.44-2.53,1.37-1.34-.71-3.38-2-4.48-1.93.81-.25-.08-1.84,1.12-1.51l-.58-1.11c.33-.48.83.52.8-.25-.59-.17-2.47-.3-2.89-.72-1.37.37-2.95,1.42-4.76.84,1-.15.15-1.6.79-1.58-1.14.46-2.3.9-3.48,1.33-.6-.21.34-1-.63-1.11-.12.35-.57.38-1,.52-.14-.22-2.53-.91-2.13-2.23,0-.6,1,.22.66-.53-1-.51-1.29-.16-2.32-.71l.08-.17c-.57-.53-2.25-.67-1.92.42.44.32.24-.81.72-.05-.86.39-2.18-.14-3.19-.79.46,0,.62-.29,1-.52a9.31,9.31,0,0,1-2.7-.44c-.86-.29-1.69-.67-2.56-1.05-.42.49,1.27-.52,1.27-.09A6.68,6.68,0,0,0,208,389c-1-.6-2-1.2-2.24-2.38.3.15-.53.78-.42.63-.75-.89,0-1.49-.79-1.79.35-.42-.75-.58-1.37-1.07-.57-.05.07-.32.55.15a9.92,9.92,0,0,1-2.71-2.27c-.26-.3-.53-.61-.78-.94s-.44-.69-.63-1a5.94,5.94,0,0,1-.8-2.07c-.3.23-1.9-.83-2.13-1.41l.88-.13c.23-.69-.82-1.82-.18-2.17-.71-.4-.06.66.59,1.62s1.45,1.76.72,1.19c.23-.35-.33-.72-.81-1.05s-.79-.61-.19-.67c-.46-1.06-1.8-1.82-1.35-3.16,0,.36,1.4.54,1.07-.33-.61-1.51-.54-.31-1.16-1.53l-.52-.75c-.82.13-.22-1.49-1-.69.58-.31-.82-2.39.57-2.41l1.1.08c-.17-.68-1.31-1-1.83-1.54.1-.1.3-.32.48-.29-1.65,0,0-1.74-1.26-2.6a12.72,12.72,0,0,0,.48-2.68c.17-.89.4-1.67.95-1.95a8.27,8.27,0,0,1-.34-1.88,3.18,3.18,0,0,1,.42-1.91c0,.31,0,.7.34.86.67-.71.37-1,.36-1.87.09.13.46-.22.91-.65a10.63,10.63,0,0,1,1.53-1.25c.05-1.27-.9-1.33-1.34-1.68,1-.15,1.21-1,1.45-1.93s.66-1.9,1.67-2c-.11.49-.49,1.88.47,1.35,1,.08,1.06-.5,1.16-1.27a2.15,2.15,0,0,1,1.24-1.93l-1.25-.69c1.12,0,1.63-2.4,2.33-1.19.19-.8,2-.83,1.13-1.84a6,6,0,0,0,1.18-.38,10.89,10.89,0,0,0,1.18-.49c.77-.38,1.56-.75,2.33-1.07,1.54-.61,3.06-.89,4.17.07.34-.32,1.36-.32,1-.93-.82-.59-.8.73-1.16.29.35-.12.34-.5.34-.68,1,.08,1.62.09,1,1.3,2,.46,1.57-2.59,4.12-2.35-.06.56.14.75.84.61.42-.35.85-.7,1.29-1,1.58.15.92,1.21,1,2.13.81-.2,1.78-.13,2.16-.83.32.39.64.78.95,1.18-.68-.86.67-.54,1.06-.75l-.39.21c.14.4,1.06.18,1.53.1-.07-.59-1-.86-1.53-1,.43-.39,1.07-.28,1.64-.72-.23.9,1.28.71,1.9.86s.88-.75,1.09-.7c0,.47,1.18.19.55.79-.25.13-.52-.5-1-.12.45.39.32,1.19,1.35.69.78-.37,0-1.8,1.33-1.09-.39.19-.5.54-.81.84l1.25.6.15-.82c.15.23,0,.29.09.41.49-.83,2,0,2.41-1,.66,0,1.29.74,1.89.91l-.12.06a2.08,2.08,0,0,0,2.43-.09l-.06.17a2.69,2.69,0,0,0,2-.31c1,.76-.06,3.15,1.22,2.27,1.06.12,1.85-1.28,1.5-1.86,1.82.82,4.16-.24,5.72,1.3.32-.29.18-.52.77-.63,2.73.73,6-.09,8,1.89-.86.21-.19.81-.25,1.28.78-.63.67.89,1.12-.33.05-.75.18-1.1-.55-1.52,1.71-.14,4.23.28,5,1.14-.4-.42,0-.58.4-.74-.33,1.15.86,1.54,1.85,1.29l.25-.69.47.84c.4-.17.66-1.43,1.45-.59a1.65,1.65,0,0,0,.13.81c1.06-.41,2.58-1.14,3.5-.35l.65,1.2c.46,0,1.32-.51.6-1,1.64,1,2.76,1.25,3.14,2.27,3.44-1.6,7.87-.8,11.34.13l-.22.51c.83.7.69-.82,1.27-.31-.42.44.48,1.25-.4,1.72,1.22.84,1.93-.54,2.86-.58.29-.67-.8.28-.43-.56.2-.22,1.73,1,2.18,0,.25.49-.19,1.2-.47,1.59l.94-.32c.71,1.46-2.79,1.68-2.08,3.44h.79c.46,1.27-2.27.8-.47,1.6.93-.33,2-1.7,1.36-2.33,1.77.09,1.37-2.34,3.19-1.83.36.73-1.51-.19-1.35.76.67,1,1.85-.07,2.55.41-.76-.6.21-1.49.81-1.55.82.72-.84.85.45,1.28.37-.56,1.7-.72.74-1.4.81-1.25,1.29.72,2.27-.17.2,1.07-1.91,1.91-.57,2.74,0-1,2.11-.84,1.68-2.4a1,1,0,0,1-.17,1.62c.67.77,2.39-1.2,2.2.71l.52-.88c.17.38.48.7.76,1.32.72.2,2.64-.7,2.21.72.26-.09,1.88.39,1.51-.76-.86-.87-1.36.43-1.58-1.06.44,1.28,1.51.23,2.19,0l-.05.57c.41-.12,1.18.22,1.56-.32a.54.54,0,0,0-.07.87l.59-.75c1.53,0-.06,1.57,1.39,1.7l-1.23.37c.27-.08.53.83,1.26.75.46-.7,1.19-1.49,1.58-2,.87-.13.11,1,1.09.37l-1.26.66c-.21.21.34,1.45,1.38,1.71.73-.08,2.07-.9,1.14-1.61.52.13,1.12.8.55,1.25,1.25.06.08-.87,1.22-1.06.28.62,1.37,1.72,1.94,2.68l-1.42,1,.7.21c-1.2.77.23.91-.58,1.85.42.3,1.11.1,1.65-.05-.91-2.13,2.25-1.93,2.3-3.62,2.05.14.08,4.19,2.8,2.31-.21-.5,1.1-1.42-.25-1.33,1.14.53,1.28-1.34,2.5-.27-1.24.34.64,1.93-1.14,2.42.25-.49-.73-.64-1-.56.31.75-.57,1.55.65,1.91.78.07,1.81.34,1.91-.52s-1.17-.24-.42-1c1.59.12,1.41,1.58,2.51.17-1-.16-.93-1.16-.72-1.78l1.2,0-.39.53c1.61,1,.85-.93,2.49-.25l.43,1.43c-.71.89-2.32-1.21-2.53.54,1.08.4,1.7-.33,2.61.42-.28.07-.6,0-.88.09.38.18.09,2.49,2.05,1.69,1-.25.4-.52.61-1.13,1.82.37,2.54-.09,3.71.18-.62,1.13,2,.76.32,1.59-.35-.89-2.92-1.64-3.9-.69.19,1.63-1.32-.63-2.15.7,1.4.47.89,1.86.82,2.85.37.19.87-.08,1.15-.15.43-.81-.08-1,.18-1.87a5,5,0,0,0,4.28.18.81.81,0,0,1-.7,1.29,20,20,0,0,1,5.57,2c-.66-1.8,2.1.36,1.72-1.08-.84-.65-1.33-1.93-.58-2.38.57.29-.23.61-.08,1,1-.5.76,1.65,1.94.7-1.89-.15-.94,1.59-1.65,2.58,1.45-.18-.33.76.88,1.19a14.39,14.39,0,0,1,4.57.24c1.28,1.7,4.28,1.84,5.8,2.57.52.92-.6,1.83.11,2.46,1,.48-.05-1.64,1.09-.35l-.26.16c.6-.05,2.11,2.21,3.51.87l-1.18,1c.19.26.59.13.89.13-.24.4-.17.94-.74.94.29,1.35,1.79,1,2.69,1.58l-.07-1.09c1.9.57,2.4,2,3.92,3l-.59.58.94.29.18,0,.14.76.05.26c-.38-.23-.7,0-.94.23a1.29,1.29,0,0,0-.29,1,2,2,0,0,0-.44-1.62l.19.46-1.57-.11c-.23-.85,1.25-.22,1.45-1.13s-1.25-1.7-1.95-1.23c.43.46.56.33,1.13.41-.58,1-1.28.39-2.1.71.27.16.4.71.68.47a3.29,3.29,0,0,1-2.18-.83c.82,0,.12-.8.52-.91-.66.76-1.61.46-2.49-.46-.14-1.48-2.39-.6-3.48-1.57a4.92,4.92,0,0,1,3.08-.83c-.55-.94-.93-.5-1.5-1.43-.77.44-1.62,1.33-2.88,1.19l.28-.71c-1.17-.13-1.64.86-2.8.1a37.14,37.14,0,0,0-6-3l.19-.73c-1.52,1.16-3.42-.6-5-.36-2-1.45-5.12-.92-5.88-2.53a65.86,65.86,0,0,1-11.91-2.77l1-.85c-1,.56-.3-.74-1.08-.81.59,1.09-1.34.8-2,1.29-1.61-1.38-4.27-1.15-6.12-.87l.14-.75c-2,.89-3.69-.86-5.72-1.63-.16-.36-.35-1.15-1-1.23-1.44.88-2,.62-3.86.94a15.65,15.65,0,0,1-4.22-1.88c-5,.52-9.39-1.65-14.38-1.71l-.16-.94a19.14,19.14,0,0,1-7.58-.7c-2.49-.57-4.87-1.25-6.94-1.16l.67-1.41c-1.16-.7-2.92-.15-2.8,1-1.16-.69-3.25.13-3.81-1.24-1.23-.51-1.69.41-2.79.42A13.78,13.78,0,0,0,259.9,350l.58.19c.32-.29.45-.92-.13-1.11-1,.26-3.26-.95-2.65,1-2.41-1.48-6.14-.1-8.45-1.88.15.53-.5.52-.82.81-2.26-.3-4.52-1.61-6.44-1-.33-.3.69-.76-.23-.94-.57.11-.1.64-.81.82-3.78.48-7.38-1.91-10.6-1.95-2.9.23-5.72.24-8.37.39a24.93,24.93,0,0,0-7.18,1.26l-.07-.36a1.67,1.67,0,0,1-1,.78,12.33,12.33,0,0,1-1.24.19c-.83.09-1.61.38-1.48,1.53-.46-.13-1.05.59-1.3-.12-.18.69-.76,1.06-1.53,1.46s-1.43,1.07-1.26,2.1c.1-.1.08-.21,0-.44a3.08,3.08,0,0,0-.88.84,4.68,4.68,0,0,0-.46,1.08,6.59,6.59,0,0,1-1.06,2.28c-.09-.21-.09-.56-.41-.73-.47.24-.23.77-.05,1.21s.21.79-.7.82c-.08.42.8.45.8.2a12,12,0,0,0-.22,6.42,28.07,28.07,0,0,0,2.38,6.28c.07,1.66-.53,2-1,2.17s-.6.11.56,1c-.2.35.66-.17.36,0,.85.64-.9,2.33.24,2.5.76-.83.74.09,1.31-.27.29,1,.28,1.73.47,2.32a2.17,2.17,0,0,0,1.36,1.4l-.5.28c2.51.37,3.52,2.57,6,2.17a54,54,0,0,0,14.29,7.45c5.18,1.92,10.66,3.51,16.26,5.29,10.82,4,21.83,6.48,32.89,10.21,2.3,2.1,2.53,2.07,5.59,2.17-.17.2-.37.21-.22.48.41-1.15,2.09.36,2.61-.71,4.17,1.08,8.11,1.6,12.46,2.3-.71,0-1.23.93-.39,1l1-.62.08.36c.59-.08,1.3-.57.79-1.06a146.23,146.23,0,0,1,16.26,2.49A90.38,90.38,0,0,0,333,414c2.55.65,6.22.12,9-.09,8.24,1.49,15.93,2.28,24.15.08A6.24,6.24,0,0,1,362,418.35Z"/><path class="cls-1" d="M366.81,378.13a1.77,1.77,0,0,0,.68.51.81.81,0,0,1,.51.81A3.64,3.64,0,0,1,366.81,378.13Z"/><path class="cls-1" d="M349.93,362.58c-.1.16-.29-.37-.33-.49.33.07.8-.31.94.09C350.21,362.1,350.16,362.39,349.93,362.58Z"/><path class="cls-1" d="M343.52,360c.26-.49,1.79-.44,2.64-.22Z"/><path class="cls-1" d="M338.14,355.93c-.39-.6-.17-.8.54-.56C338.64,355.66,338.37,355.72,338.14,355.93Z"/><path class="cls-1" d="M337.34,357a1.27,1.27,0,0,1-.82-.9C336.4,356.53,337.78,356.16,337.34,357Z"/><path class="cls-1" d="M324.53,351.48c-.33-.05-1.15.19-1.28-.47C323.47,351.51,325,350.78,324.53,351.48Z"/><path class="cls-1" d="M318.11,350.53c-.19-.09-.24-.21-.52-.12-.3-.34.19-.62.52-.59Z"/><polygon class="cls-1" points="201.15 344.13 201.57 343.35 201.85 343.82 201.15 344.13"/><path class="cls-1" d="M212.72,393.7c.8.13.14.71.2.85C212.34,394.22,213.5,394.13,212.72,393.7Z"/><polygon class="cls-1" points="239.36 402.96 239.16 402.91 239.59 401.88 239.36 402.96"/><path class="cls-1" d="M363.84,457.45c1.19-1-1.2-.39.64-.89C364.53,457,364.45,457.48,363.84,457.45Z"/><path class="cls-1" d="M411.16,447.71c1.42,5.55-3.16,11-3.06,16.75-.08.65-1.44-.62-1.51.87.54,5.7-3.36,13.22-7.16,18.65l-.28-.51c-.72,1,.16,2.94-.49,4.08-.28-.09-.24-.53-.72-.39.71.61-.44,2.33,0,3.08-.51.35-1.14.06-1.73.54l.67,1.05c1.5,2.78-2,4.6-1.84,7.67-.16-.21-.23-.54-.52-.41-.35,4.72-2.75,9.87-4.3,14.71a1.41,1.41,0,0,0-1.24-.64c.86.65.48,2.19.12,3.51-1.23.13,0,2.54-1.25,3.74l-.16-.22c.54,1.54-1.32,1.32-.48,2.75l-1.08.33c1.17,1.11-1.44,1.21-1.15,2.42l.3.1c-.05,1-.95,1.1-1.08,2H384c-.48,2-1.75,2.65-.66,3.12-1.16.22.45-1.92-1.28-1.53-1.69,6.43-5.1,12.34-7.91,18.22-.75.47-1.09.84-1.57.81,0,.7-.82,2.35-.48,3.14.07-.22-.72.15-.91.45-.87.95.71,1.69-.23,2.71-.11-.59-.41-.9-.89-.89.47,1.38-.17,2.73-.26,4.07-.13-.25-.15-.59-.52-.65.54,1.67-.95,2.47-.63,3.86l-.55-.62c-1.28,1.83,1.27.91.42,2.51-.13-.45-.42-.36-.68-.49a6.71,6.71,0,0,1,.47,3.06,14.54,14.54,0,0,0,.13,2.89.41.41,0,0,0-.28-.07c.12.86,0,1.75.12,2.65a6.42,6.42,0,0,0,.75,2.66c-.14.74-1.7.15-1,2,1.3-.46,1.64,2.75,2.7,1.15a25.76,25.76,0,0,0,.82,2.5,3.14,3.14,0,0,0,1.37,1.64c-.85-.17-.76,1.71-1.72.77a12.4,12.4,0,0,0,.09,1.35c-.54.28-.62-1-.93-.24a10.2,10.2,0,0,0,1.5,1.11,9.88,9.88,0,0,1,1.48,1,6.41,6.41,0,0,0,2.46-.54,22,22,0,0,1,2.15-.82.75.75,0,0,0,0,1c.19.32.47.59.14.76a5.19,5.19,0,0,0,.95-1.58,3.44,3.44,0,0,0,.09-1.61c.23-.25.81.77,1,0-.3-.19-.32-.55-.5-.85.12,0,.23-.42.44-.84a1.36,1.36,0,0,1,1.16-1c.57-.21.15,1,.72.4.12-1.14-.37-1.21-.47-2.27l.18,0a1.36,1.36,0,0,0-.57-1.13.65.65,0,0,0-1,.2c.08.42.74-.39.55.35a4,4,0,0,1-1.85-1.66c.35.08.61-.12,1-.23-.74-.24-1.36-.4-1.93-.53s-1.3-.29-2-.35c-.29.56.94-.84,1-.44a2.82,2.82,0,0,0-2.63-.84,3.47,3.47,0,0,1-2.73-.55c.3-.1.1.93.09.74-1-.12-.92-1-1.6-.7-.07-.56-.85.18-1.54.39-.34.42-.21-.26.41-.35a16.37,16.37,0,0,1-3.1,1,11.39,11.39,0,0,1-4.36.35c.1.35-1.29,1.53-1.84,1.59l.09-.87c-.59-.43-1.85.37-2.06-.34-1,1.21,4.44-1.6,3-.55-.53-.64-2,1.69-1.86.49-1.12.22-2,1.32-3.23.73.33.08.7-1.33-.19-1.1-1.56.44-.38.48-1.62,1l-.74.49c.1.82-1.43.15-.67,1-.33-.65-2.2.87-2.31-.51v-1.1c-.67.22-.89,1.34-1.33,1.92-.11-.08-.33-.25-.33-.43.23,1.64-1.66.2-2.19,1.64-1.55-.23-3.62.76-4.53-.06-1,.75-1.82,1.58-3.15,1.54.21-.21.54-.34.52-.71-.9-.28-1,.2-1.63.64.1-.28-1.8-.52-2.83-.86-.95.76-.35,1.53-.31,2.08-1.43-1.31-2.76,1.86-4.4.78.31-.32,1.36-1.21.35-1.36-1.44-1.29-1.66,1.73-3.47,1.44l.78,1.19c-.95-.6-2.11,1.44-2.34.06-.39.63-2,.15-1.44,1.36-2.93-.29-6.1,2.6-8.42.86-.3.33-1.3.41-.9,1,.84.5.7-.78,1.08-.38-.32.15-.28.52-.26.7-.9,0-1.56.09-1.14-1.2-2-.19-1.15,2.73-3.59,3-.07-.56-.31-.7-.95-.39l-1,1.31c-1.55.28-1.24-.9-1.57-1.77-.86.46-2.15.85-2.52,1.7a12.07,12.07,0,0,1-1.32-.78c.92.58-.8.86-1.3,1.28l.49-.41c-.17-.36-1.31.28-2,.64,0,.3.34.4.77.41a8.11,8.11,0,0,0,1.23-.06c-.58.62-1.43.81-2.37,1.65.43-1.12-1.78-.08-2.68.13s-1.62,1.42-1.95,1.5c.24-.59-1.76.52-.49-.62.45-.31.57.29,1.41-.43-.53-.19.08-1.27-1.68,0-1.4.95-1,2.24-2.76,2.23a16.56,16.56,0,0,0,1.83-1.59h-1.48l-.84,1.16c-.07-.19.18-.36.16-.47-1.19,1.19-2.69,1.37-4.08,2.35a.92.92,0,0,0-.43.2c0-1,1-3.07,1.19-4.16l.06.11c.71-1.78.52-2.93,0-3.52l.2-.1a4.61,4.61,0,0,0-.2-2.77c.92-2.15,3.45-2.31,2.56-3.46.17-1.43-1.25-2-1.89-1.22a26.71,26.71,0,0,0,.71-5.05l.12-1a6.91,6.91,0,0,1,.16-.79,3.56,3.56,0,0,1,.78-1.42c-.28-.35-.52-.2-.6-.85.87-3,.23-6.6,2.34-8.67.16.94.8.23,1.27.31-.58-.88.93-.71-.27-1.23-.74-.09-1.08-.23-1.55.55-.05-1.89.61-4.62,1.51-5.46-.45.42-.59,0-.72-.46,1.13.4,1.6-.88,1.45-2l-.67-.31.88-.47c-.13-.44-1.37-.79-.45-1.61a1.5,1.5,0,0,0,.82-.1c-.32-1.18-.93-2.89,0-3.84l1.27-.64c0-.51-.39-1.48-.91-.72,1.12-1.73,1.55-2.93,2.61-3.27-1.22-3.87.13-8.65,1.56-12.34l.48.28c.82-.84-.73-.82-.14-1.41.38.49,1.33-.4,1.67.59,1-1.24-.28-2.15-.18-3.16-.62-.38.17.9-.62.42-.19-.25,1.23-1.79.29-2.38.52-.22,1.18.33,1.52.67L302,525.3c1.56-.63,1.26,3.18,3.13,2.59l.12-.85c1.33-.37.46,2.52,1.53.67-.2-1-1.41-2.32-2.13-1.71.37-1.9-2.14-1.72-1.32-3.64.8-.3-.45,1.61.53,1.55,1.17-.61.24-2,.84-2.71-.73.76-1.46-.39-1.42-1.05.85-.81.71,1,1.34-.35-.49-.46-.44-1.92-1.27-1-1.13-1,.93-1.32.22-2.48,1.11-.09,1.57,2.28,2.64.94-1-.11-.45-2.37-2.1-2.1a1,1,0,0,1,1.6.39c.89-.64-.78-2.75,1.09-2.3l-.78-.67c.4-.15.79-.44,1.46-.66.34-.74-.19-2.94,1.14-2.28,0-.3.75-2-.47-1.74-1,.82.17,1.52-1.36,1.57,1.36-.3.52-1.59.44-2.36l.57.13c0-.46.45-1.25,0-1.73a.51.51,0,0,0,.85.2L308,505c.27-1.66,1.55.28,2-1.26l.12,1.37c0-.3.94-.45,1-1.25-.6-.59-1.25-1.5-1.7-2,.07-.95,1,0,.62-1.12l.38,1.45c.16.26,1.52-.15,2-1.23.08-.8-.44-2.37-1.36-1.47.25-.55,1.05-1.09,1.37-.41.35-1.35-.85-.21-.78-1.49.69-.2,2-1.21,3.13-1.66l.64,1.69.38-.72c.48,1.41,1-.1,1.7.93a2.55,2.55,0,0,0,.35-1.77c-2.35.6-1.35-2.75-3-3.11.68-2.22,4.16.69,3.07-2.61-.57.12-1.1-1.47-1.4,0,.86-1.14-1-1.66.49-2.78-.05,1.41,2.11-.29,2,1.74-.41-.38-.85.65-.85,1,.83-.18,1.37.93,2.08-.3.31-.82.9-1.85.08-2.15-.82-.46-.6,1.19-1.13.22.63-1.68,2-1.15,1-2.67a1.26,1.26,0,0,1-2,.39l.37-1.33.39.55c1.52-1.53-.62-1.14.66-2.78l1.57-.11c.59,1-2.05,2.22-.4,2.87.78-1.06.29-1.92,1.38-2.69,0,.31-.22.64-.25,1,.33-.36,2.45.56,2.45-1.72.15-1.09-.34-.57-.85-1,1.11-1.83,1-2.75,1.81-3.9.78,1,1.67-1.81,1.67.19-1,0-2.92,2.56-2.38,3.89,1.66.27-1.15,1.2-.17,2.46,1-1.34,2.15-.39,3.08,0,.31-.32.26-.91.3-1.22-.61-.7-1-.22-1.73-.76a6.82,6.82,0,0,0,2.07-4.39.78.78,0,0,1,.89,1.18,20.1,20.1,0,0,1,4.64-4.78c-2-.12,1.45-1.87-.06-2.12-1.06.53-2.51.48-2.53-.45.6-.43.44.49.88.5.11-1.22,1.93,0,1.71-1.58-1.17,1.77.95,1.59,1.46,2.71.61-1.47.51.63,1.56-.31a16.24,16.24,0,0,1,2.7-4.18c2.24-.41,4-3.09,5.42-4.17,1.09-.07,1.35,1.37,2.29,1,.94-.69-1.52-.67.24-1.17v.31c.26-.56,3.11-1,2.49-2.9l.35,1.48c.34-.07.41-.5.54-.78.27.38.81.53.55,1.07,1.42.24,1.76-1.35,2.71-2l-1.07-.31c1.3-1.63,2.87-1.63,4.33-2.88l.39.73.7-1a.77.77,0,0,0,1.5-.16l-1.44,3.26c-.95,0,.23-1.32-.63-1.74s-2.12.75-1.94,1.57c.62-.28.55-.45.84-1,.79.86-.1,1.36-.11,2.28.27-.23.88-.2.75-.54a3.78,3.78,0,0,1-1.78,1.92c.41-.8-.73-.37-.67-.81.47.91-.28,1.75-1.61,2.29-1.49-.42-1.79,2.09-3.3,2.74a5.52,5.52,0,0,1,.8-3.28c-1.15.16-.94.67-2.09.83,0,.92.4,2.08-.42,3.23l-.5-.58c-.75,1-.1,1.92-1.44,2.67a42,42,0,0,0-5.95,4.21l-.55-.51c.23,1.93-2.34,2.91-2.86,4.49-2.32,1.27-3.14,4.42-4.93,4.61-2.34,3.83-4,7.33-6.56,11.17l-.56-1.23c.28,1.13-.81.15-1.09.95,1.23-.38.42,1.55.74,2.38-1.75,1.39-2.16,4.2-2.28,6.18l-.71-.27c.45,2.29-1.62,3.74-2.8,5.78-.39.11-1.21.21-1.42.88.6,1.66.23,2.22.19,4.22a18.05,18.05,0,0,1-2.64,4.23c-.34,5.35-3.2,9.8-4,15.12l-1,.07c.13,5.44-3.35,10.91-3.61,15.39l-1.34-.82c-.83,1.2-.43,3.13.69,3.07-.8,1.2-.19,3.48-1.59,4-.61,1.29.27,1.83.19,3a15.73,15.73,0,0,0-1.62,6.28l.24-.62a.62.62,0,0,0-1.13.1c.19,1.05-1.13,3.47.83,2.88-1.62,2.55-.43,6.59-2.3,9,.53-.14.51.56.79.9,0,.3-.11.61-.18.91l-.12.45c0,.07-.05.18-.06.2l0,.05a5.34,5.34,0,0,0-.32.43c-.19.3-.29.69.14.69-.29.25-.89.24-1,.59.18.07.7-.35,1-.36s.28.18.17.46-.37.74-.56,1.2c0,.31.31.55.87.24l.79-.58.32-.22c.1-.07.31-.16.45-.24.31-.15.62-.29.92-.41l.22-.09.3-.11,1.2-.41,9.41-3.1,0,.37c1.63-2,5.23-.14,6.26-2.64.58.18,1.91-.4,1.74.38,1.38-1.43,4.86-.47,6.92-2.32-.23,0-.33.13-.55.35,2.62.09,4.49-1.52,7.24-1.49-.22.22-.67.45-.65.82,1.15.42,2-2.07,2.95-.5.56-.16.19-1-.15-.82,5.8-.72,11.64-3.1,17.62-4.49,4.49.35.72,2.86,3.92,1,.33.3.11-.69.21-.33,1.25-.67,2.31,1.66,3.1.62-.51-1,.53-.68.48-1.33,2.83.37,3.44,1.29,5.69.4l-.16.57a8.27,8.27,0,0,1,4.45-1,24.07,24.07,0,0,0,4.88-.29,20.39,20.39,0,0,1,2.74,1.18c.44.23.88.5,1.31.76s.93.65,1.38,1a14.18,14.18,0,0,1,4.51,6.49,15.94,15.94,0,0,1,.75,7.56,13.54,13.54,0,0,1-.44,2,15.47,15.47,0,0,1-.8,2.07,12.24,12.24,0,0,1-3.09,4,11.93,11.93,0,0,1-4.78,2.43,12.53,12.53,0,0,1-5,.22,15.29,15.29,0,0,1-7.49-3.53,18.78,18.78,0,0,1-2.47-2.5c-.37-.43-.71-.89-1-1.35l-.48-.71-.37-.65a26.87,26.87,0,0,1-3.8-11.18,41.22,41.22,0,0,1,.86-11.91,65,65,0,0,1,3.15-10.37,92.44,92.44,0,0,1,4.26-9.26c1.58-3,3.08-5.64,4.75-8.41,2.65-2,2.72-2.26,3.62-5.48.16.23.11.44.41.34-1-.68.89-2.15,0-2.93,1.12-2.09,2.06-4.16,2.95-6.26s1.78-4.23,2.73-6.47c-.19.75.57,1.51.86.64l-.33-1.19h.38c.08-.65-.2-1.51-.81-1.08,3.86-11.57,10.51-21.85,14.15-33.3,1.43-2.51,2.26-6.51,3-9.52,4.36-8.2,8-15.83,9.24-25.15A6.79,6.79,0,0,1,411.16,447.71Z"/><path class="cls-1" d="M362.32,458.51c-.6-.35-1.69-.07-1.38-1.21C361.33,457.73,362.13,458,362.32,458.51Z"/><path class="cls-1" d="M334.93,470.27c.09.16-.49.1-.63.09.24-.29.16-.9.6-.86C334.65,469.79,334.88,470,334.93,470.27Z"/><path class="cls-1" d="M329.16,475.54c-.32-.44.5-2,1.16-2.76C329.9,473.68,329.54,474.63,329.16,475.54Z"/><path class="cls-1" d="M322.76,479.87c-.76.25-.86,0-.33-.74C322.7,479.26,322.65,479.58,322.76,479.87Z"/><path class="cls-1" d="M323.44,481a1.57,1.57,0,0,1-1.21.63C322.61,481.9,322.83,480.33,323.44,481Z"/><path class="cls-1" d="M313.84,493.69c-.13.35-.11,1.28-.8,1.32C313.59,494.85,313.27,493.06,313.84,493.69Z"/><path class="cls-1" d="M311.37,500.5c-.13.19-.26.24-.24.54-.4.28-.57-.29-.47-.64Z"/><polygon class="cls-1" points="328.43 581.7 327.8 582.16 327.75 581.61 328.43 581.7"/><path class="cls-1" d="M377.66,575.7c.5.09-.25.52-.28.61C377.15,576.11,378,576,377.66,575.7Z"/><polygon class="cls-1" points="369.43 574.86 369.5 575.06 368.42 575.31 369.43 574.86"/><path class="cls-1" d="M423,441c-1.58-.38.43,1.2-1.13,0C422.22,440.66,422.63,440.47,423,441Z"/><path class="cls-1" d="M468.06,437.68c-5.87.25-10.88-5-16.78-5.64-.65-.17.79-1.34-.69-1.62l-.53-.05-.24,0s0-.09-.26.26c-.2.09-.06,0-.06.23a.36.36,0,0,1,0,.1.61.61,0,0,0,0,.14h0a9.61,9.61,0,0,1,1.12-.07,12,12,0,0,1,2.44.18,25.3,25.3,0,0,1,2.55.6c.84.28,1.7.6,2.55,1a39.36,39.36,0,0,1,5,2.55c1.57,1,3.08,2,4.44,3l-.54.24c1,.79,3,0,4.17.76-.11.27-.56.21-.43.7.66-.69,2.36.61,3.15.24.34.53,0,1.14.47,1.77l1.11-.59c2.93-1.26,4.62,2.32,7.75,2.52-.23.14-.57.18-.46.48,4.84.76,9.91,3.76,14.69,6-.36.2-.86.65-.8,1.15.75-.76,2.31-.2,3.6.41-.06,1.27,2.6.46,3.64,1.93l-.25.11c1.67-.2,1.11,1.6,2.73,1.09,0,.39.09.76.12,1.16,1.38-.84.89,1.76,2.17,1.82l.18-.26c1,.39.81,1.36,1.64,1.83l-.07.18c1.73,1.33,1.75,2.83,2.67,2.05-.29,1.16-1.6-1.31-2,.45,5.21,4.55,8.75,10.79,12,16.78-.05.91,0,1.42-.27,1.78.53.49,1.39,2.17,2.21,2.44-.13-.19-.34.67-.23,1,.16,1.31,1.78.62,1.91,2.08-.52-.34-1-.34-1.26,0,1.35.63,1.9,2.09,2.78,3.19-.27-.1-.53-.35-.84-.14,1.61.89,1,2.56,2.18,3.45l-.84-.14c.18,2.27,1.57-.07,1.93,1.8-.39-.3-.57-.05-.85,0,1.87,1,2.71,3.66,3.83,5a.37.37,0,0,0-.29.06c1,1.6,1.45,3.52,2.84,5.11,0,.81-1.62.52-.53,2.18,1.21-.67,2,2.75,2.87,1,.53,1.61,1.22,4.23,2.13,5-.8-.45-1.16,1.48-1.87.27l-.3,1.32c-.57.1-.3-1.06-.79-.45.35.6,1.74,2.2,1.81,2.86,1.33.79,3.27,1.17,4.34,3-.91-.65-1.12,1.17-1.63.67l3.66,1.48c.36.6-.92.61-.15,1.36.31-.2.7.09,1.1.24,0,.31,1.58,2.46.49,3.33-.35.51-.76-.9-.85,0,.57,1.15,1,1,1.6,2.15l-.15.1c.19.86,1.61,2,1.88.84-.21-.55-.63.56-.66-.4,1,.2,1.83,1.45,2.4,2.6-.39-.3-.69-.09-1.11-.08a17.21,17.21,0,0,1,4.07,4.14c.59-.26-1.38-.14-1.19-.54.28,2.62,3.38,4.05,3.1,6.48-.25-.26.75-.57.6-.47.44,1.11-.42,1.47.23,2-.46.31.59.8,1.09,1.45.54.2-.15.31-.51-.29A15.28,15.28,0,0,1,560,548a16.69,16.69,0,0,1,2.08,4.79c.16-.08.74.34,1.35,1a7.58,7.58,0,0,1,1.43,1.82l-1.08-.27c-.2.73,1.38,2.68.58,2.7,1,.92,0-.74-1-2.23s-1.93-2.76-1-1.78c-.23.34.47,1,1.1,1.65s1.14,1.17.36.91a27.66,27.66,0,0,0,1.58,2.35,3.17,3.17,0,0,1,.82,2.2c-.05-.41-2.09-1.63-1.47-.47a4,4,0,0,0,1,1.39,2.23,2.23,0,0,1,.36.32c.3.23,0,.3-.31.51l-.71.63c.92.55-2.21.69-.28,1-.54-.17-1.29.22-2.08.53s-1.6.52-2,0c-.2-.31-.42-.61-.64-.92-.79.37-.56,1.41-1.06,2.1-.2,0-.61-.12-.67-.28.46.71-.2.91-1,1.11s-1.72.37-2.14,1.19l-.74.07c-.22,0-.44.08-.66.13l-1.33.33a2.68,2.68,0,0,1-2.16-.05c-1,.85-1.84,1.74-3.25,1.82.22-.23.56-.39.52-.75-1-.21-1,.27-1.69.75.09-.28-1.92-.42-3-.71-1,.82-.35,1.55-.3,2.11-1.5-1.26-2.93,2-4.65.9.34-.33,1.45-1.24.39-1.37-1.49-1.28-1.77,1.76-3.67,1.46l.77,1.2c-1-.61-2.29,1.43-2.47,0-.44.63-2.11.09-1.59,1.32-3.05-.34-6.64,2.36-8.9.46-.35.31-1.4.31-1,.93.83.57.81-.73,1.17-.29-.35.12-.35.49-.34.68-.94-.1-1.65,0-1.07-1.3-2.11-.36-1.5,2.66-4.09,2.68,0-.55-.24-.72-.94-.48L515,579.21c-1.66.12-1.17-1-1.39-1.93-.82.33-1.88.49-2.13,1.25l-1.26-.94c.45.34.31.51,0,.64s-.33.1-.55.16a2.85,2.85,0,0,0-.6.22l.51-.33c-.28-.35-1.52.15-2.2.38.12.57,1.58.53,2.42.54-.58.52-1.6.64-2.49,1.26.29-1-2-.36-3-.58s-1.5.61-1.83.51c.13-.4-1.73-.69-.62-1,.41,0,.64.71,1.41.44-.3-.24-.34-.55-.51-.77s-.46-.35-1.26-.41c-.6,0-.76.34-1,.59s-.52.34-1.22-.64c.58.21.88,0,1.41-.06a6.77,6.77,0,0,1-1.16-1.69l-.6.57c0-.37.13-.28.13-.46-.48.1-1-.48-1.42-1.12s-.81-1.31-1.33-1.28c-.5-1-.26-2.6-.45-3.52a.5.5,0,0,1,.11.13,2.79,2.79,0,0,0-1.17-2.57H495a3.46,3.46,0,0,0-1.12-2c.29-1.33,2.9-1.2,1.57-2.21-.33-1.16-1.94-1.46-2.33-.86,0-2.25-1.87-4.37-1.06-6.62-.39-.23-.56,0-.88-.59-.37-3.19-2.32-6.41-1.19-9.2.52.84.83-.09,1.29-.2-.87-.6.59-1-.71-1.06-.73.21-1.1.2-1.23,1.13-.74-1.78-1.25-4.61-.74-5.76-.25.58-.55.22-.84-.14,1.2-.08,1.14-1.47.54-2.43l-.75,0,.62-.8c-.29-.35-1.57-.17-1.06-1.31a1.55,1.55,0,0,0,.71-.44c-.78-1-2-2.28-1.63-3.53l.88-1.13c-.21-.47-1-1.18-1.13-.26.28-2.07.13-3.34.91-4.13-2.82-3-3.85-7.72-4.57-11.55h.56c.26-1.13-1.05-.31-.85-1.11.58.21.91-1,1.72-.38.21-1.59-1.35-1.67-1.83-2.54-.73,0,.63.64-.29.68-.29-.1,0-2.12-1.08-2.07.31-.47,1.16-.4,1.63-.31l-.74-.75c.94-1.41,2.83,1.9,4,.37l-.38-.79c.89-1.09,1.82,1.88,1.64-.31-.75-.78-2.47-1.14-2.72-.21-.79-1.78-2.72-.17-3.2-2.15.46-.72.6,1.52,1.35.9.57-1.17-1-1.73-.95-2.63-.13,1-1.39.57-1.77,0,.17-1.13,1.18.34.84-1.09-.67,0-1.52-1.17-1.58.06-1.51-.06-.08-1.56-1.38-2,.79-.77,2.67.69,2.62-1-.83.54-1.89-1.44-3-.17.06-.68.75-1,1.46-.76.24-1.05-2.36-1.44-.7-2.37l-1,.06c.2-.37.28-.83.61-1.45-.28-.75-2.16-1.85-.78-2.34-.24-.18-.9-1.84-1.56-.8-.14,1.25,1.2.87.16,2,.74-1.15-.77-1.4-1.36-1.82l.48-.33c-.35-.25-.58-1.1-1.24-1.06a.51.51,0,0,0,.7-.5h-1c-1.05-1.18,1.23-1,.36-2.21l1.1.73c-.24-.16.27-1-.28-1.51-.84.1-1.91.05-2.58.13-.69-.57.63-.74-.48-1.08l1.35.5c.31,0,.83-1.24.28-2.23-.59-.52-2.11-.93-2,.27-.26-.49-.23-1.4.5-1.3-.88-.95-.66.56-1.64-.12.23-.64.18-2.22.4-3.36l1.72.3-.38-.67c1.43.31.43-.88,1.68-1-.12-.57-.83-.9-1.35-1.19-.66,2.27-3-.1-4.13,1.2-1.47-1.44,2.52-3.36-.83-3.62-.13.54-1.73.48-.59,1.23-.62-1.12-1.8.28-2.18-1.28,1.24.43.55-1.95,2.34-1.32-.48.24.22,1,.49,1.1.18-.81,1.4-.91.58-2-.65-.53-1.39-1.38-1.95-.71s.87.89-.2,1.09c-1.27-1-.35-2.17-2-1.57.74.68.15,1.5-.35,1.9l-1-.62.61-.24c-.88-1.64-1.21.36-2.26-1l.34-1.46c1.06-.42,1.4,2.21,2.47.82-.75-.92-1.65-.59-2.07-1.71.27.08.53.29.81.37-.24-.34,1.11-2.3-1.08-2.5-1-.22-.59.29-1.05.75-1.47-1.17-2.35-1-3.32-1.66,1-.82-1.53-1.44.29-1.6,0,1,2.1,2.58,3.38,2.22.52-1.57.93,1.17,2.3.38-1.1-1.09,0-2.12.44-3-.28-.36-.88-.36-1.17-.43-.75.54-.32.93-.93,1.64a5.06,5.06,0,0,0-4-1.93c-.18-.69.53-1.33,1.12-.95a39.1,39.1,0,0,1-5.07-3.71c.31,1.92-2.06-.84-1.95.68.74.81.9,2.18.08,2.45-.48-.41.36-.54.3-.95-1.1.28-.42-1.78-1.77-1.06,1.84.5,1.22-1.39,2.1-2.23-1.54-.12.46-.69-.75-1.38a24.12,24.12,0,0,1-4.8-.88c-1.28-1.85-4.51-2.09-6.16-2.73-.62-.9.47-1.87-.38-2.47-1.11-.43.27,1.65-1.13.42l.26-.18c-.61.08-2.66-2.06-3.86-.51l1.05-1.11c-.26-.25-.67-.06-1,0,.17-.43,0-1,.58-1-.64-1.33-2.18-.73-3.29-1.14l.38,1.07c-2.13-.16-3.07-1.45-5-1.92l.37-.75-1.27,0c.57-.63-.23-1.52-1.05-1.13l3.58-.72c.59.77-1.23.57-1.05,1.53s1.91,1.31,2.49.68c-.61-.34-.71-.19-1.32-.12.22-1.15,1.18-.71,1.95-1.22-.35-.09-.7-.61-.91-.31a4,4,0,0,1,2.7.38c-.92.1.13.82-.28,1,.48-.9,1.65-.75,2.91.07.53,1.48,2.85.35,4.32,1.3a5.85,5.85,0,0,1-3.29,1.09c.8.89,1.12.43,1.91,1.32.78-.51,1.57-1.45,3.05-1.33l-.22.73c1.32.14,1.76-.89,3.19,0,2.43,1.46,5.06,2.72,6.94,3.83l-.28.7c1.83-.87,3.81,1.43,5.57,1.73,1.94,2.13,5.46,3,5.72,5a36.54,36.54,0,0,1,10.56,9.82c-.46,0-.92,0-1.39,0,1.2.22-.14.86.51,1.47.1-1.36,1.64.3,2.57.43.63,2.35,3,4.26,4.67,5.65l-.61.45a4.16,4.16,0,0,1,2.16,2.62c.4,1.13.7,2.38,1.12,3.58-.15.4-.59,1.12-.19,1.76,1.7.7,1.9,1.41,3.41,3a18.11,18.11,0,0,1,1.28,5.25c3.56,4.61,4.15,10.38,6.5,15.66l-.77.61c3.17,4.95,2.79,11.94,4.57,16.31l-1.57-.17c-.2,1.52,1,3.19,2,2.64-.2,1.51,1.36,3.44.29,4.56,0,1.51,1,1.66,1.42,2.84a17.71,17.71,0,0,0,1,6.73l0-.7a.62.62,0,0,0-1,.55c.6.94.3,3.8,1.89,2.46-.5,3.1,2.14,6.52,1.36,9.58.44-.34.67.34,1.07.55.57,2.47.24,5.29,1.56,7-.13.45-1-.4-.76.6.35.54.63-.15,1.1.49a12.27,12.27,0,0,1,1.06,2.87l.18.74.07.38,0,.18s0,0,0,0l-.1.4a2.39,2.39,0,0,0-.08,1,.64.64,0,0,0,.61.6,13.24,13.24,0,0,0,1.44-.64q2.49-.62,5-1.14c3.32-.72,6.62-1.38,9.73-2.21v.37c1.76-1.85,5.27.17,6.41-2.3.58.21,1.92-.34,1.73.43,1.4-1.38,4.9-.37,6.94-2.27-.23,0-.33.14-.54.37,2.64.06,4.44-1.62,7.18-1.72-.21.23-.64.49-.6.86,1.18.35,1.85-2.2,2.92-.7.55-.19.13-1-.2-.81a31.34,31.34,0,0,0,4.26-1.17l1-.36.36-.17c.23-.12.44-.25.64-.38a4.73,4.73,0,0,0,.88-.78l.07-.09s0,0,0-.12l-.27-.31-.46-.55a2.49,2.49,0,0,1,1.6-.6c.49,0,.64,0-.35-.59.27-.2-.69.11-.35,0-.18-.08-.16-.19-.08-.35a3.1,3.1,0,0,1,.18-.26c0-.16.09-.31.14-.46.18-.61.34-1.16-.28-1.38-.8.82-.81-.29-1.41,0-.54-2.73.09-3.64-1.57-5.19l.58-.1c-2.53-1.54-3-4.51-5.59-5.59-6.3-12.2-13-23.59-19-35.53-2.74-6-5.69-11.93-8.6-17.62s-5.89-11.21-9-16.64c-.43-3.25-.62-3.45-3.05-5.6.27-.05.44.07.48-.24-1,.66-1.54-1.77-2.5-1l-.75-.87c-.33-.31-.75-.64-1.11-.95s-.74-.63-1.16-.93l-1.33-.91-1.34-.9-1.44-.88c-1-.59-1.94-1.22-3-1.83.73.28,1.58-.37.75-.77l-1.22.18,0-.37c-.63-.17-1.52,0-1.17.67-5.49-2.63-10.8-5.76-16.15-8.81a102.58,102.58,0,0,0-16.49-8c-2.49-1.5-6.49-2.36-9.25-2.81l-1.29-.58-.65-.29-.05,0h0c1.64-10.53.47-3,.84-5.33v-.08l0-.16a4.21,4.21,0,0,0,.05-.62.39.39,0,0,0,0-.32s.28-.25.55-.62.59-.89.9-1.42l1.11-1.94.61-1.11.14-.27.09-.17h0s0,0,0,.06a12.73,12.73,0,0,0,1.22.88l1.44.93c2,1.23,4,2.41,6,3.52s4.12,2.18,6.31,3.21l3.41,1.59c.6.28,1.22.57,1.94,1a9.14,9.14,0,0,1,1.3.82c.13.09.33.26.49.39l.33.34.17.18.25.3.24.35.12.17.19.36a4.93,4.93,0,0,1,.31.75c.05.16.07.18.14.45s.09.5.12.76a5.41,5.41,0,0,1-.08,1.55,5.54,5.54,0,0,1-.69,1.78,5.16,5.16,0,0,1-.92,1.13,6,6,0,0,1-1,.76l.26-.21a5.35,5.35,0,0,0,.74-.73,5.89,5.89,0,0,0,1.1-1.95,4.52,4.52,0,0,0,.23-1.53,5.08,5.08,0,0,0-.25-1.56,3.41,3.41,0,0,0-1.76-2,3.27,3.27,0,0,0-1.3-.3A16.74,16.74,0,0,1,468.06,437.68Z"/><path class="cls-1" d="M424.8,441.6c.09.7,1,1.43-.14,1.85C424.78,442.87,424.49,442.06,424.8,441.6Z"/><path class="cls-1" d="M449.33,459.13c.12-.14.23.41.25.54-.32-.13-.85.16-.94-.25C449,459.55,449.06,459.28,449.33,459.13Z"/><path class="cls-1" d="M455.08,463.27c-.42.37-1.85-.16-2.6-.59C453.34,462.85,454.2,463.06,455.08,463.27Z"/><path class="cls-1" d="M458.57,469.1c.08.71-.21.78-.72.27C458,469.12,458.28,469.18,458.57,469.1Z"/><path class="cls-1" d="M459.75,468.51a1.26,1.26,0,0,1,.34,1.17C460.4,469.34,459,469.05,459.75,468.51Z"/><path class="cls-1" d="M467.41,480.33c.22.25,1,.63.67,1.21C468.24,481,466.6,480.55,467.41,480.33Z"/><path class="cls-1" d="M471.48,485.59c.07.21,0,.33.28.48,0,.46-.59.28-.79,0Z"/><polygon class="cls-1" points="536.54 573.24 535.85 573.7 535.82 573.16 536.54 573.24"/><path class="cls-1" d="M552.85,532.58c-.65-.55.22-.71.24-.86C553.44,532.33,552.37,531.78,552.85,532.58Z"/><polygon class="cls-1" points="536.93 506 537.04 506.21 536.01 506.62 536.93 506"/></svg>