<?xml version="1.0" encoding="utf-8"?>
<!-- Generator: Adobe Illustrator 24.3.0, SVG Export Plug-In . SVG Version: 6.00 Build 0)  -->
<svg version="1.1" id="Layer_1" xmlns="http://www.w3.org/2000/svg" xmlns:xlink="http://www.w3.org/1999/xlink" x="0px" y="0px"
	 viewBox="0 0 75.4 75.4" style="enable-background:new 0 0 75.4 75.4;" xml:space="preserve">
<style type="text/css">
	.st0{fill:none;stroke:#A1998C;stroke-width:3;stroke-miterlimit:10;}
</style>
<path class="st0" d="M43.2,73.4c1.1-7.6,4.7-14.7,10.2-20.1c5.4-5.5,12.5-9,20.1-10.2"/>
<path class="st0" d="M2.2,44.7c7,1.4,13.5,4.8,18.6,9.9c5.1,5.1,8.5,11.5,9.9,18.6"/>
<path class="st0" d="M43.2,73.4c1.1-7.6,4.7-14.7,10.2-20.1l0,0c5.4-5.5,12.5-9,20.1-10.2"/>
<path class="st0" d="M2.2,44.7c7,1.4,13.5,4.8,18.6,9.9c5.1,5.1,8.5,11.5,9.9,18.6"/>
<path class="st0" d="M39.5,73.8c-0.9-1-1.7-2.1-2.5-3.3C25.9,53.9,30.4,31.5,47,20.3c5.4-3.6,11.8-5.7,18.3-6.1"/>
<path class="st0" d="M10,14.4c10.9,0.9,20.9,6.8,27,15.9c4,5.9,6.2,13,6.2,20.1c0,7.2-2.1,14.2-6.1,20.1c-0.7,1.1-1.6,2.2-2.4,3.2"
	/>
<path class="st0" d="M73.4,43.2C71,58.8,58.8,71,43.2,73.4c-1.2,0.2-2.4,0.3-3.7,0.4c-1.6,0.1-3.3,0.1-4.9-0.1
	c-1.3-0.1-2.7-0.3-4-0.5C11,69.3-1.7,50.3,2.1,30.7c1.2-6,3.9-11.6,7.9-16.3c0.6-0.8,1.3-1.5,2.1-2.3C26.2-2,49.1-2,63.2,12.1
	c0,0,0,0,0,0c0.7,0.7,1.4,1.4,2,2.2C72,22.2,75,32.8,73.4,43.2z"/>
</svg>
