<svg xmlns="http://www.w3.org/2000/svg" viewBox="0 0 75.36 75.36"><defs><style>.cls-1{fill:none;stroke:#cfc7c9;stroke-miterlimit:10;stroke-width:3px;}</style></defs><g id="Layer_2" data-name="Layer 2"><g id="Layer_1-2" data-name="Layer 1"><path class="cls-1" d="M73.86,37.68A36.18,36.18,0,1,0,37.68,73.86,36.18,36.18,0,0,0,73.86,37.68ZM37.68,1.5A36.12,36.12,0,0,0,12.1,12.1h0A35.94,35.94,0,0,0,3.26,26.54a26.68,26.68,0,0,0-.78,2.82,35.53,35.53,0,0,0-1,8.31,4.86,4.86,0,0,0,.67,0A35.43,35.43,0,0,0,17.45,34a35.55,35.55,0,0,0,9.62-6.87h0A36.12,36.12,0,0,0,37.68,1.5Zm0,0A36.09,36.09,0,0,1,12.11,12.09h0M37.68,1.5A36.1,36.1,0,0,0,63.26,12.09M37.68,1.5A36.11,36.11,0,0,0,48.27,27.08h0a35.94,35.94,0,0,0,14.43,8.83,26.5,26.5,0,0,0,2.81.78,35.62,35.62,0,0,0,8.32,1,4.64,4.64,0,0,0,0-.66,36.28,36.28,0,0,0-10.55-24.9h0A36.08,36.08,0,0,0,37.68,1.5Zm0,.83A36.1,36.1,0,0,0,27.09,27.91v0a35.92,35.92,0,0,0,4,16.44,24.64,24.64,0,0,0,1.44,2.54,35.36,35.36,0,0,0,5.19,6.57,5,5,0,0,0,.45-.49,35.37,35.37,0,0,0,8.19-13.41,35.22,35.22,0,0,0,2-11.65v0A36.1,36.1,0,0,0,37.68,2.33Z"/></g></g></svg>