<svg xmlns="http://www.w3.org/2000/svg" viewBox="0 0 75.36 75.38"><defs><style>.cls-1{fill:none;stroke:#85877d;stroke-miterlimit:10;stroke-width:3px;}</style></defs><g id="Layer_2" data-name="Layer 2"><g id="Layer_1-2" data-name="Layer 1"><path class="cls-1" d="M48.27,27.08v0a35.34,35.34,0,0,1-2,11.67,35.23,35.23,0,0,1-3,6.51,35,35,0,0,1-5.22,6.9,6.49,6.49,0,0,1-.45.49A36.68,36.68,0,0,1,29.12,59a36.29,36.29,0,0,1-11.19,3.78,36.77,36.77,0,0,1-5.83.47A35.9,35.9,0,0,1,2.63,46.69a36.62,36.62,0,0,1-1-6.53c-.06-.82-.08-1.64-.08-2.46a36,36,0,0,1,1-8.36c.06-.28.14-.57.22-.86.17-.66.35-1.29.56-1.93a36.35,36.35,0,0,1,8.82-14.43h0A36,36,0,0,1,37.68,1.5,36.1,36.1,0,0,1,48.27,27.08ZM73.86,37.7A36.21,36.21,0,0,1,67,58.81a33.72,33.72,0,0,1-3.78,4.47A36.15,36.15,0,0,1,16,66.67a32.3,32.3,0,0,1-3.92-3.39A35.9,35.9,0,0,1,2.63,46.69a36.62,36.62,0,0,1-1-6.53c-.06-.82-.08-1.64-.08-2.46a36,36,0,0,1,1-8.36c.06-.28.14-.57.22-.86.17-.66.35-1.29.56-1.93a36.35,36.35,0,0,1,8.82-14.43h0a36.12,36.12,0,0,1,51.16,0h0a35.51,35.51,0,0,1,6.86,9.6A36,36,0,0,1,73.84,37C73.86,37.27,73.86,37.47,73.86,37.7Zm0,0A36.21,36.21,0,0,1,67,58.81a33.72,33.72,0,0,1-3.78,4.47,35.86,35.86,0,0,1-23.79-9c-.62-.53-1.22-1.09-1.79-1.66a35.85,35.85,0,0,1-5.2-6.57c-.2-.33-.41-.66-.59-1-.31-.51-.58-1-.84-1.54a35.94,35.94,0,0,1-4-16.45v0A36.11,36.11,0,0,1,37.68,1.5,36,36,0,0,1,63.26,12.12h0a35.51,35.51,0,0,1,6.86,9.6A36,36,0,0,1,73.84,37C73.86,37.27,73.86,37.47,73.86,37.7Zm0,0a35.53,35.53,0,0,1-7.43-.78,8.62,8.62,0,0,1-.91-.19A28.73,28.73,0,0,1,62.73,36h0A36.18,36.18,0,0,1,48.27,27.1v0A36,36,0,0,1,37.68,1.5,36,36,0,0,1,63.26,12.12h0a35.51,35.51,0,0,1,6.86,9.6A36,36,0,0,1,73.84,37C73.86,37.27,73.86,37.47,73.86,37.7ZM63.26,12.12A36,36,0,0,1,37.68,1.5,36,36,0,0,1,63.26,12.12Zm-51.16,0A36,36,0,0,1,37.68,1.5,36,36,0,0,1,12.1,12.12ZM37.68,1.5a36,36,0,0,1-10.6,25.58v0A35.48,35.48,0,0,1,17.47,34a34.45,34.45,0,0,1-7.06,2.61h0a34.89,34.89,0,0,1-8.23,1.09c-.23,0-.43,0-.66,0a36,36,0,0,1,1-8.36c.06-.28.14-.57.22-.86.17-.66.35-1.29.56-1.93a36.35,36.35,0,0,1,8.82-14.43h0A36,36,0,0,1,37.68,1.5Zm.83,70.74A280.93,280.93,0,0,0,18.26,45.51a272.22,272.22,0,0,1,40,.72A270.66,270.66,0,0,0,38.51,72.24Zm0,0A280.93,280.93,0,0,0,18.26,45.51a272.22,272.22,0,0,1,40,.72A270.66,270.66,0,0,0,38.51,72.24ZM73.84,37c0,.23,0,.43,0,.66a35.65,35.65,0,0,1-1.42,10c-4.72-.64-9.44-1.13-14.19-1.48q4-4.74,8.18-9.3,3.22-3.54,6.59-7A35.15,35.15,0,0,1,73.84,37ZM18.26,45.5c-5.24.27-10.46.66-15.63,1.19a36.62,36.62,0,0,1-1-6.53c-.06-.82-.08-1.64-.08-2.46a36,36,0,0,1,1-8.36c.06-.28.14-.57.22-.86,2.63,2.65,5.22,5.36,7.7,8.11h0C13.08,39.51,15.71,42.46,18.26,45.5ZM73.84,37c0,.23,0,.43,0,.66a35.65,35.65,0,0,1-1.42,10c-4.72-.64-9.44-1.13-14.19-1.48q4-4.74,8.18-9.3,3.22-3.54,6.59-7A35.15,35.15,0,0,1,73.84,37ZM18.26,45.5c-5.24.27-10.46.66-15.63,1.19a36.62,36.62,0,0,1-1-6.53c-.06-.82-.08-1.64-.08-2.46a36,36,0,0,1,1-8.36c.06-.28.14-.57.22-.86,2.63,2.65,5.22,5.36,7.7,8.11h0C13.08,39.51,15.71,42.46,18.26,45.5Z"/></g></g></svg>