<svg xmlns="http://www.w3.org/2000/svg" xmlns:xlink="http://www.w3.org/1999/xlink" viewBox="0 0 1488.81 1176.18"><defs><style>.cls-1{fill:none;}.cls-2{clip-path:url(#clip-path);}.cls-3{fill:#ded6c7;}.cls-4{fill:#bfb5b8;}.cls-5{fill:#66695c;}.cls-6{fill:#9ca6a3;}.cls-7{fill:#5c666e;}.cls-8{fill:#e5ded6;}.cls-9{fill:#cfc7c9;}.cls-10{fill:#85877d;}.cls-11{fill:#b5baba;}.cls-12{fill:#858c91;}.cls-13{fill:#6b665c;}.cls-14{fill:#595254;}.cls-15{fill:#33362e;}.cls-16{fill:#404747;}.cls-17{fill:#1a1f24;}.cls-18{fill:#a1998c;}.cls-19{fill:#827a7d;}.cls-20{fill:#4d4f45;}.cls-21{fill:#616b6b;}.cls-22{fill:#262e36;}.cls-23{fill:#d6c9ba;}.cls-24{fill:#b0a3a6;}.cls-25{fill:#828f8c;}.cls-26{fill:#333d47;}.cls-27{font-size:53.4px;fill:#fff;font-family:ChaparralPro-LightCapt, Chaparral Pro;font-weight:300;}.cls-28{letter-spacing:0.01em;}.cls-29{letter-spacing:0em;}.cls-30{letter-spacing:0em;}.cls-31{letter-spacing:0em;}.cls-32{letter-spacing:-0.01em;}.cls-33{letter-spacing:0em;}.cls-34{letter-spacing:0em;}.cls-35{letter-spacing:0.01em;}.cls-36{letter-spacing:0em;}.cls-37{letter-spacing:0.01em;}</style><clipPath id="clip-path" transform="translate(0 0)"><rect class="cls-1" width="1488.81" height="1176.18"/></clipPath></defs><g id="Layer_2" data-name="Layer 2"><g id="Layer_1-2" data-name="Layer 1"><g id="Artwork_9" data-name="Artwork 9"><g class="cls-2"><rect class="cls-3" x="1050.92" y="243.84" width="194.08" height="200.82"/><rect class="cls-4" x="1050.92" width="194.08" height="200.82"/><rect class="cls-5" x="1050.92" y="487.68" width="194.08" height="200.83"/><rect class="cls-6" x="1050.92" y="731.51" width="194.08" height="200.83"/><rect class="cls-7" x="1050.92" y="975.36" width="194.08" height="200.82"/><rect class="cls-8" x="1294.73" y="243.84" width="194.08" height="200.82"/><rect class="cls-9" x="1294.73" width="194.08" height="200.82"/><rect class="cls-10" x="1294.73" y="487.68" width="194.08" height="200.82"/><rect class="cls-11" x="1294.73" y="731.52" width="194.08" height="200.82"/><rect class="cls-12" x="1294.73" y="975.36" width="194.08" height="200.82"/><rect class="cls-13" y="243.84" width="194.08" height="200.82"/><rect class="cls-14" width="194.08" height="200.82"/><rect class="cls-15" y="487.68" width="194.08" height="200.82"/><rect class="cls-16" y="731.52" width="194.08" height="200.82"/><rect class="cls-17" y="975.36" width="194.08" height="200.82"/><rect class="cls-18" x="243.82" y="243.84" width="194.08" height="200.82"/><rect class="cls-19" x="243.82" width="194.08" height="200.82"/><rect class="cls-20" x="243.82" y="487.68" width="194.08" height="200.83"/><rect class="cls-21" x="243.82" y="731.51" width="194.08" height="200.83"/><rect class="cls-22" x="243.82" y="975.36" width="194.08" height="200.82"/><rect class="cls-23" x="487.5" y="243.84" width="513.05" height="200.82"/><rect class="cls-24" x="487.5" width="513.05" height="200.82"/><rect class="cls-5" x="487.5" y="487.68" width="513.05" height="200.83"/><rect class="cls-25" x="487.5" y="731.51" width="513.05" height="200.83"/><rect class="cls-26" x="487.5" y="975.36" width="513.05" height="200.82"/><text class="cls-27" transform="translate(627.86 1091.18)"><tspan class="cls-28">r</tspan><tspan class="cls-29" x="20.08" y="0">i</tspan><tspan class="cls-30" x="34.12" y="0">v</tspan><tspan class="cls-31" x="59.32" y="0">er s</tspan><tspan class="cls-32" x="136.21" y="0">t</tspan><tspan x="154.58" y="0">one</tspan></text><text class="cls-27" transform="translate(659.37 852.87)"><tspan class="cls-33">so</tspan><tspan x="49.07" y="0">ft ash</tspan></text><text class="cls-27" transform="translate(630.54 603.35)">d<tspan class="cls-33" x="27.93" y="0">e</tspan><tspan class="cls-34" x="52.01" y="0">e</tspan><tspan x="75.98" y="0">p moss</tspan></text><text class="cls-27" transform="translate(624.93 363.97)"><tspan class="cls-35">s</tspan><tspan x="21.84" y="0">and </tspan><tspan class="cls-30" x="115.82" y="0">d</tspan><tspan x="143.69" y="0">ol</tspan><tspan class="cls-36" x="184.27" y="0">l</tspan><tspan x="197.83" y="0">ar</tspan></text><text class="cls-27" transform="translate(632.08 118.71)"><tspan class="cls-35">s</tspan><tspan class="cls-37" x="21.84" y="0">a</tspan><tspan x="46.35" y="0">ge blush</tspan></text></g></g></g></g></svg>