<svg id="Layer_2" data-name="Layer 2" xmlns="http://www.w3.org/2000/svg" xmlns:xlink="http://www.w3.org/1999/xlink" viewBox="0 0 1600 400"><defs><style>.cls-1,.cls-2{fill:none;}.cls-2{stroke:#d6cab9;stroke-miterlimit:10;}.cls-3{fill:url(#New_Pattern_4);}.cls-4{fill:#6b655d;}.cls-5{isolation:isolate;}.cls-6{fill:#e6dfd5;}</style><pattern id="New_Pattern_4" data-name="New Pattern 4" width="122.4" height="122.4" patternTransform="translate(10.12 -86.01)" patternUnits="userSpaceOnUse" viewBox="0 0 122.4 122.4"><rect class="cls-1" width="122.4" height="122.4"/><path class="cls-2" d="M147.31,122.42h10.33a17.53,17.53,0,0,1-5.16,12.45h0a16.42,16.42,0,0,1-2.17,1.83A17.45,17.45,0,0,1,140,140h-.32a17.27,17.27,0,0,1-7.46-1.8,17.48,17.48,0,0,1-4.68-3.35h0a17.53,17.53,0,0,1-5.16-12.45h.45"/><path class="cls-2" d="M122.85,122.42h-.44a17.54,17.54,0,0,0,12.45,5.16h0a17.55,17.55,0,0,0,12.21-4.94l.23-.22"/><path class="cls-2" d="M127.56,134.87a17.53,17.53,0,0,1-5.16-12.45h0A17.59,17.59,0,0,1,127.56,134.87Z"/><path class="cls-2" d="M140,140c0,.4,0,.8,0,1.2a17.54,17.54,0,0,1-5.12,11.26,16.62,16.62,0,0,1-1.91,1.65,17.48,17.48,0,0,1-10.55,3.51V147.33a17.36,17.36,0,0,0,2.53-3.2,12.67,12.67,0,0,0,.7-1.24,17.51,17.51,0,0,0,1.93-8h0a17.53,17.53,0,0,1-5.16-12.45h.45a17.51,17.51,0,0,1,12,5.16h0a17.74,17.74,0,0,1,4.3,7c.14.45.27.9.38,1.36A17.64,17.64,0,0,1,140,140Z"/><path class="cls-2" d="M122.4,147.33a17.53,17.53,0,0,0,9.62,4.94,18,18,0,0,0,2.84.23,17.62,17.62,0,0,0,17.62-17.62h0a17.51,17.51,0,0,0-4.34-11.57c-.26-.31-.52-.59-.81-.88h0"/><path class="cls-2" d="M122.85,122.42h-.45"/><path class="cls-2" d="M44.78,142.38a252.56,252.56,0,0,0,16.36-20.13A243.26,243.26,0,0,0,78,143,255.66,255.66,0,0,1,44.78,142.38Z"/><path class="cls-2" d="M44.78,142.38a252.56,252.56,0,0,0,16.36-20.13A243.26,243.26,0,0,0,78,143,255.66,255.66,0,0,1,44.78,142.38Z"/><path class="cls-2" d="M122,122.42h.45a17.53,17.53,0,0,1-5.16,12.45h0a17.48,17.48,0,0,1-4.68,3.35,17.27,17.27,0,0,1-7.46,1.8h-.32a17.45,17.45,0,0,1-10.29-3.33,16.42,16.42,0,0,1-2.17-1.83h0a17.53,17.53,0,0,1-5.16-12.45H97.49"/><path class="cls-2" d="M122,122.42h.44a17.54,17.54,0,0,1-12.45,5.16h0a17.55,17.55,0,0,1-12.21-4.94l-.23-.22"/><path class="cls-2" d="M122.4,147.33a17.36,17.36,0,0,1-2.53-3.2,12.67,12.67,0,0,1-.7-1.24,17.51,17.51,0,0,1-1.93-8h0a17.59,17.59,0,0,1,5.15-12.45h0"/><path class="cls-2" d="M122.4,147.33v10.33a17.48,17.48,0,0,1-10.55-3.51,16.62,16.62,0,0,1-1.91-1.65,17.54,17.54,0,0,1-5.12-11.26c0-.4,0-.8,0-1.2a17.64,17.64,0,0,1,.47-4.07c.11-.46.24-.91.38-1.36a17.74,17.74,0,0,1,4.3-7h0a17.51,17.51,0,0,1,12-5.16h.45"/><path class="cls-2" d="M97.49,122.42h0c-.29.29-.55.57-.81.88a17.51,17.51,0,0,0-4.34,11.57h0a17.64,17.64,0,0,0,17.62,17.62,18,18,0,0,0,2.84-.23,17.53,17.53,0,0,0,9.62-4.94"/><path class="cls-2" d="M122,122.42h.45"/><path class="cls-2" d="M24.91,122.42H35.24a17.53,17.53,0,0,1-5.16,12.45h0a16.42,16.42,0,0,1-2.17,1.83A17.45,17.45,0,0,1,17.62,140H17.3a17.27,17.27,0,0,1-7.46-1.8,17.48,17.48,0,0,1-4.68-3.35h0A17.53,17.53,0,0,1,0,122.42H.45"/><path class="cls-2" d="M.45,122.42H0a17.54,17.54,0,0,0,12.45,5.16h0a17.55,17.55,0,0,0,12.21-4.94l.23-.22"/><path class="cls-2" d="M5.16,134.87A17.53,17.53,0,0,1,0,122.42H0A17.59,17.59,0,0,1,5.16,134.87Z"/><path class="cls-2" d="M17.62,140c0,.4,0,.8,0,1.2a17.54,17.54,0,0,1-5.12,11.26,16.62,16.62,0,0,1-1.91,1.65A17.48,17.48,0,0,1,0,157.66V147.33a17.36,17.36,0,0,0,2.53-3.2,12.67,12.67,0,0,0,.7-1.24,17.51,17.51,0,0,0,1.93-8h0A17.53,17.53,0,0,1,0,122.42H.45a17.51,17.51,0,0,1,12,5.16h0a17.74,17.74,0,0,1,4.3,7c.14.45.27.9.38,1.36A17.64,17.64,0,0,1,17.62,140Z"/><path class="cls-2" d="M0,147.33a17.53,17.53,0,0,0,9.62,4.94,18,18,0,0,0,2.84.23,17.62,17.62,0,0,0,17.62-17.62h0a17.51,17.51,0,0,0-4.34-11.57c-.26-.31-.52-.59-.81-.88h0"/><path class="cls-2" d="M.45,122.42H0"/><path class="cls-2" d="M-.45,122.42H0a17.53,17.53,0,0,1-5.16,12.45h0a17.48,17.48,0,0,1-4.68,3.35A17.27,17.27,0,0,1-17.3,140h-.32a17.45,17.45,0,0,1-10.29-3.33,16.42,16.42,0,0,1-2.17-1.83h0a17.49,17.49,0,0,1-4.69-8.39,17.55,17.55,0,0,1-.47-4.06h10.33"/><path class="cls-2" d="M-.45,122.42H0a17.54,17.54,0,0,1-12.45,5.16h0a17.43,17.43,0,0,1-5.67-.94,17.46,17.46,0,0,1-6.54-4l-.23-.22"/><path class="cls-2" d="M0,147.33a17.36,17.36,0,0,1-2.53-3.2,12.67,12.67,0,0,1-.7-1.24,17.51,17.51,0,0,1-1.93-8h0A17.59,17.59,0,0,1,0,122.42H0"/><path class="cls-2" d="M0,147.33v10.33a17.48,17.48,0,0,1-10.55-3.51,16.62,16.62,0,0,1-1.91-1.65,17.54,17.54,0,0,1-5.12-11.26c0-.4,0-.8,0-1.2a17.64,17.64,0,0,1,.47-4.07c.11-.46.24-.91.38-1.36a17.74,17.74,0,0,1,4.3-7h0a17.51,17.51,0,0,1,12-5.16H0"/><path class="cls-2" d="M-24.91,122.42h0c-.29.29-.55.57-.81.88a17.51,17.51,0,0,0-4.34,11.57h0a17.55,17.55,0,0,0,.18,2.51,17.51,17.51,0,0,0,5,9.94,17.48,17.48,0,0,0,3.21,2.54,17.47,17.47,0,0,0,9.25,2.63,18,18,0,0,0,2.84-.23A17.53,17.53,0,0,0,0,147.33"/><path class="cls-2" d="M-.45,122.42H0"/><path class="cls-2" d="M119.6,61.14A233.14,233.14,0,0,0,142.26,44a236.9,236.9,0,0,1,.63,34.74A224.81,224.81,0,0,0,119.6,61.14Z"/><path class="cls-2" d="M119.6,61.14A233.14,233.14,0,0,0,142.26,44a236.9,236.9,0,0,1,.63,34.74A224.81,224.81,0,0,0,119.6,61.14Z"/><path class="cls-2" d="M147.31,0h10.33a17.55,17.55,0,0,1-.47,4.06,17.49,17.49,0,0,1-4.69,8.39h0a16.42,16.42,0,0,1-2.17,1.83A17.45,17.45,0,0,1,140,17.64h-.32a17.27,17.27,0,0,1-7.46-1.8,17.48,17.48,0,0,1-4.68-3.35h0A17.53,17.53,0,0,1,122.4,0h.45"/><path class="cls-2" d="M122.85,0h-.44a17.54,17.54,0,0,0,12.45,5.16h0a17.43,17.43,0,0,0,5.67-.94,17.46,17.46,0,0,0,6.54-4l.23-.22"/><path class="cls-2" d="M127.56,12.47A17.53,17.53,0,0,1,122.4,0h0A17.59,17.59,0,0,1,127.56,12.47Z"/><path class="cls-2" d="M140,17.64c0,.4,0,.8,0,1.2a17.54,17.54,0,0,1-5.12,11.26A16.62,16.62,0,0,1,133,31.75a17.48,17.48,0,0,1-10.55,3.51V24.93a17.36,17.36,0,0,0,2.53-3.2,12.67,12.67,0,0,0,.7-1.24,17.51,17.51,0,0,0,1.93-8h0A17.53,17.53,0,0,1,122.4,0h.45a17.51,17.51,0,0,1,12,5.16h0a17.74,17.74,0,0,1,4.3,7c.14.45.27.9.38,1.36A17.64,17.64,0,0,1,140,17.64Z"/><path class="cls-2" d="M122.4,24.93A17.53,17.53,0,0,0,132,29.87a18,18,0,0,0,2.84.23A17.64,17.64,0,0,0,152.3,15a17.55,17.55,0,0,0,.18-2.51h0A17.51,17.51,0,0,0,148.14.9c-.26-.31-.52-.59-.81-.88h0"/><path class="cls-2" d="M122.85,0h-.45"/><path class="cls-2" d="M122.85,122.37h-.45a17.54,17.54,0,0,1,5.17-12.45h0a17.52,17.52,0,0,1,12.14-5.14H140a17.52,17.52,0,0,1,10.29,3.34,16.42,16.42,0,0,1,2.17,1.83h0a17.6,17.6,0,0,1,5.15,12.46H147.31"/><path class="cls-2" d="M122.85,122.37h-.44a17.49,17.49,0,0,1,12.45-5.15h0a17.51,17.51,0,0,1,12.21,5l.23.22"/><path class="cls-2" d="M122.42,97.46a17.36,17.36,0,0,1,2.53,3.2,12.67,12.67,0,0,1,.7,1.24,17.63,17.63,0,0,1,1.92,8h0a17.6,17.6,0,0,1-5.16,12.45h0"/><path class="cls-2" d="M122.42,97.46V87.13A17.43,17.43,0,0,1,133,90.65a16.62,16.62,0,0,1,1.91,1.65A17.58,17.58,0,0,1,140,103.56c0,.4,0,.8,0,1.2a17.64,17.64,0,0,1-.47,4.07c-.11.46-.24.91-.38,1.36a17.76,17.76,0,0,1-4.31,7h0a17.55,17.55,0,0,1-12,5.15h-.45"/><path class="cls-2" d="M147.31,122.39h0c.29-.29.55-.57.81-.88a17.52,17.52,0,0,0,4.35-11.57h0a17.61,17.61,0,0,0-8.36-15,17.35,17.35,0,0,0-9.24-2.64,19.3,19.3,0,0,0-2.84.22,17.53,17.53,0,0,0-9.63,4.94"/><path class="cls-2" d="M122.4,122.37h.45"/><circle class="cls-2" cx="48.8" cy="49.23" r="14.88"/><circle class="cls-2" cx="73.54" cy="49.23" r="14.88"/><circle class="cls-2" cx="48.8" cy="73.23" r="14.88"/><circle class="cls-2" cx="73.54" cy="73.23" r="14.88"/><circle class="cls-2" cx="48.8" cy="49.23" r="14.88"/><circle class="cls-2" cx="73.54" cy="49.23" r="14.88"/><circle class="cls-2" cx="48.8" cy="73.23" r="14.88"/><circle class="cls-2" cx="73.54" cy="73.23" r="14.88"/><circle class="cls-2" cx="43.94" cy="61.49" r="14.88"/><circle class="cls-2" cx="61.43" cy="44" r="14.88"/><circle class="cls-2" cx="60.91" cy="78.46" r="14.88"/><circle class="cls-2" cx="78.4" cy="60.97" r="14.88"/><circle class="cls-2" cx="43.94" cy="61.49" r="14.88"/><circle class="cls-2" cx="61.43" cy="44" r="14.88"/><circle class="cls-2" cx="60.91" cy="78.46" r="14.88"/><circle class="cls-2" cx="78.4" cy="60.97" r="14.88"/><path class="cls-2" d="M34.73,34.72A137.42,137.42,0,0,0,51.19,37,139.31,139.31,0,0,1,37.08,51.65,132.06,132.06,0,0,0,34.73,34.72Z"/><path class="cls-2" d="M71.46,37.37a147.14,147.14,0,0,0,15.1-1.56A143,143,0,0,0,85,51.39,147.5,147.5,0,0,1,71.46,37.37Z"/><path class="cls-2" d="M50.88,85.09a133.49,133.49,0,0,0-15.05,1.56,142,142,0,0,0,1.61-15.52A147.61,147.61,0,0,1,50.88,85.09Z"/><path class="cls-2" d="M85.31,70.76a134.07,134.07,0,0,0,2.35,17,138.4,138.4,0,0,0-16.52-2.29A152.32,152.32,0,0,1,85.31,70.76Z"/><path class="cls-2" d="M34.73,34.72A137.42,137.42,0,0,0,51.19,37,139.31,139.31,0,0,1,37.08,51.65,132.06,132.06,0,0,0,34.73,34.72Z"/><path class="cls-2" d="M71.46,37.37a147.14,147.14,0,0,0,15.1-1.56A143,143,0,0,0,85,51.39,147.5,147.5,0,0,1,71.46,37.37Z"/><path class="cls-2" d="M50.88,85.09a133.49,133.49,0,0,0-15.05,1.56,142,142,0,0,0,1.61-15.52A147.61,147.61,0,0,1,50.88,85.09Z"/><path class="cls-2" d="M85.31,70.76a134.07,134.07,0,0,0,2.35,17,138.4,138.4,0,0,0-16.52-2.29A152.32,152.32,0,0,1,85.31,70.76Z"/><path class="cls-2" d="M37.44,71.13a135.79,135.79,0,0,0-12.19-9.9,131,131,0,0,0,11.83-9.58A162.4,162.4,0,0,1,37.44,71.13Z"/><path class="cls-2" d="M51.19,37a128.18,128.18,0,0,0,10-13.18A151.58,151.58,0,0,0,71.46,37.37,138.72,138.72,0,0,1,51.19,37Z"/><path class="cls-2" d="M61.14,98.63A140.41,140.41,0,0,0,50.88,85.09a138.33,138.33,0,0,1,20.26.36A139.61,139.61,0,0,0,61.14,98.63Z"/><path class="cls-2" d="M85,51.39a136.08,136.08,0,0,0,12.13,9.84,131,131,0,0,0-11.77,9.53A140.79,140.79,0,0,1,85,51.39Z"/><path class="cls-2" d="M37.44,71.13a135.79,135.79,0,0,0-12.19-9.9,131,131,0,0,0,11.83-9.58A162.4,162.4,0,0,1,37.44,71.13Z"/><path class="cls-2" d="M51.19,37a128.18,128.18,0,0,0,10-13.18A151.58,151.58,0,0,0,71.46,37.37,138.72,138.72,0,0,1,51.19,37Z"/><path class="cls-2" d="M61.14,98.63A140.41,140.41,0,0,0,50.88,85.09a138.33,138.33,0,0,1,20.26.36A139.61,139.61,0,0,0,61.14,98.63Z"/><path class="cls-2" d="M85,51.39a136.08,136.08,0,0,0,12.13,9.84,131,131,0,0,0-11.77,9.53A140.79,140.79,0,0,1,85,51.39Z"/><path class="cls-2" d="M-2.8,61.14A233.14,233.14,0,0,0,19.86,44a236.9,236.9,0,0,1,.63,34.74A224.81,224.81,0,0,0-2.8,61.14Z"/><path class="cls-2" d="M44.78,20A252.56,252.56,0,0,0,61.14-.15,243.26,243.26,0,0,0,78,20.61,255.66,255.66,0,0,1,44.78,20Z"/><path class="cls-2" d="M77.56,102.48a227.71,227.71,0,0,0-16.3,20.07,240.19,240.19,0,0,0-16.8-20.7A252,252,0,0,1,77.56,102.48Z"/><path class="cls-2" d="M101.85,43.58A228.9,228.9,0,0,0,125.2,61.26a233.3,233.3,0,0,0-22.72,17.18A256.62,256.62,0,0,1,101.85,43.58Z"/><path class="cls-2" d="M-2.8,61.14A233.14,233.14,0,0,0,19.86,44a236.9,236.9,0,0,1,.63,34.74A224.81,224.81,0,0,0-2.8,61.14Z"/><path class="cls-2" d="M44.78,20A252.56,252.56,0,0,0,61.14-.15,243.26,243.26,0,0,0,78,20.61,255.66,255.66,0,0,1,44.78,20Z"/><path class="cls-2" d="M77.56,102.48a227.71,227.71,0,0,0-16.3,20.07,240.19,240.19,0,0,0-16.8-20.7A252,252,0,0,1,77.56,102.48Z"/><path class="cls-2" d="M101.85,43.58A228.9,228.9,0,0,0,125.2,61.26a233.3,233.3,0,0,0-22.72,17.18A256.62,256.62,0,0,1,101.85,43.58Z"/><path class="cls-2" d="M20.49,78.76a276.56,276.56,0,0,1,24,23.09"/><path class="cls-2" d="M19.86,44A238,238,0,0,0,44.78,20"/><path class="cls-2" d="M77.56,102.48a237.61,237.61,0,0,1,24.92-24"/><path class="cls-2" d="M78,20.61a243,243,0,0,0,23.85,23"/><path class="cls-2" d="M20.49,78.76a276.56,276.56,0,0,1,24,23.09"/><path class="cls-2" d="M19.86,44A238,238,0,0,0,44.78,20"/><path class="cls-2" d="M77.56,102.48a237.61,237.61,0,0,1,24.92-24"/><path class="cls-2" d="M78,20.61a243,243,0,0,0,23.85,23"/><path class="cls-2" d="M122,0h.45a17.53,17.53,0,0,1-5.16,12.45h0a17.48,17.48,0,0,1-4.68,3.35,17.27,17.27,0,0,1-7.46,1.8h-.32a17.45,17.45,0,0,1-10.29-3.33,16.42,16.42,0,0,1-2.17-1.83h0a17.49,17.49,0,0,1-4.69-8.39A17.55,17.55,0,0,1,87.16,0H97.49"/><path class="cls-2" d="M122,0h.44a17.54,17.54,0,0,1-12.45,5.16h0a17.43,17.43,0,0,1-5.67-.94,17.46,17.46,0,0,1-6.54-4L97.49,0"/><path class="cls-2" d="M122.4,24.93a17.36,17.36,0,0,1-2.53-3.2,12.67,12.67,0,0,1-.7-1.24,17.51,17.51,0,0,1-1.93-8h0A17.59,17.59,0,0,1,122.39,0h0"/><path class="cls-2" d="M122.4,24.93V35.26a17.48,17.48,0,0,1-10.55-3.51,16.62,16.62,0,0,1-1.91-1.65,17.54,17.54,0,0,1-5.12-11.26c0-.4,0-.8,0-1.2a17.64,17.64,0,0,1,.47-4.07c.11-.46.24-.91.38-1.36a17.74,17.74,0,0,1,4.3-7h0A17.51,17.51,0,0,1,122,0h.45"/><path class="cls-2" d="M97.49,0h0c-.29.29-.55.57-.81.88a17.51,17.51,0,0,0-4.34,11.57h0a17.63,17.63,0,0,0,8.37,15,17.47,17.47,0,0,0,9.25,2.63,18,18,0,0,0,2.84-.23,17.53,17.53,0,0,0,9.62-4.94"/><path class="cls-2" d="M122,0h.45"/><path class="cls-2" d="M24.91,0H35.24a17.55,17.55,0,0,1-.47,4.06,17.49,17.49,0,0,1-4.69,8.39h0a16.42,16.42,0,0,1-2.17,1.83,17.45,17.45,0,0,1-10.29,3.33H17.3a17.27,17.27,0,0,1-7.46-1.8,17.48,17.48,0,0,1-4.68-3.35h0A17.53,17.53,0,0,1,0,0H.45"/><path class="cls-2" d="M.45,0H0A17.54,17.54,0,0,0,12.46,5.18h0a17.43,17.43,0,0,0,5.67-.94,17.46,17.46,0,0,0,6.54-4L24.91,0"/><path class="cls-2" d="M5.16,12.47A17.53,17.53,0,0,1,0,0H0A17.59,17.59,0,0,1,5.16,12.47Z"/><path class="cls-2" d="M17.62,17.64c0,.4,0,.8,0,1.2A17.54,17.54,0,0,1,12.46,30.1a16.62,16.62,0,0,1-1.91,1.65A17.48,17.48,0,0,1,0,35.26V24.93a17.36,17.36,0,0,0,2.53-3.2,12.67,12.67,0,0,0,.7-1.24,17.51,17.51,0,0,0,1.93-8h0A17.53,17.53,0,0,1,0,0H.45a17.51,17.51,0,0,1,12,5.16h0a17.74,17.74,0,0,1,4.3,7c.14.45.27.9.38,1.36A17.64,17.64,0,0,1,17.62,17.64Z"/><path class="cls-2" d="M0,24.93a17.53,17.53,0,0,0,9.62,4.94,18,18,0,0,0,2.84.23A17.64,17.64,0,0,0,29.9,15a17.55,17.55,0,0,0,.18-2.51h0A17.51,17.51,0,0,0,25.74.9c-.26-.31-.52-.59-.81-.88h0"/><path class="cls-2" d="M.45,0H0"/><path class="cls-2" d="M121.92,122.39h.45a17.61,17.61,0,0,0-5.15-12.46h0a17.64,17.64,0,0,0-12.14-5.16h-.32a17.51,17.51,0,0,0-10.29,3.32,16.42,16.42,0,0,0-2.17,1.83h0a17.5,17.5,0,0,0-5.17,12.45H97.46"/><path class="cls-2" d="M121.92,122.39h.44a17.55,17.55,0,0,0-12.45-5.17h0a17.47,17.47,0,0,0-12.21,4.93l-.23.22"/><path class="cls-2" d="M122.39,97.48a17.36,17.36,0,0,0-2.53,3.2c-.26.4-.49.82-.71,1.24a17.44,17.44,0,0,0-1.93,8h0a17.56,17.56,0,0,0,5.14,12.46h0"/><path class="cls-2" d="M122.39,97.48V87.15a17.46,17.46,0,0,0-10.56,3.5,16.62,16.62,0,0,0-1.91,1.65,17.55,17.55,0,0,0-5.13,11.25c0,.4,0,.8,0,1.2a17.64,17.64,0,0,0,.47,4.07c.11.46.24.91.38,1.36a17.64,17.64,0,0,0,4.29,7h0a17.56,17.56,0,0,0,12,5.17h.45"/><path class="cls-2" d="M121.92,122.39h.45"/><path class="cls-2" d="M97.46,122.37h0a11.4,11.4,0,0,1-.81-.89,17.45,17.45,0,0,1-4.33-11.57h0a17.66,17.66,0,0,1,8.38-15,17.37,17.37,0,0,1,9.25-2.62,18,18,0,0,1,2.84.23,17.55,17.55,0,0,1,9.62,5"/><path class="cls-2" d="M.45,122.37H0a17.54,17.54,0,0,1,5.17-12.45h0a17.52,17.52,0,0,1,12.14-5.14h.32a17.52,17.52,0,0,1,10.29,3.34,16.42,16.42,0,0,1,2.17,1.83h0a17.6,17.6,0,0,1,5.15,12.46H24.91"/><path class="cls-2" d="M.45,122.37H0a17.49,17.49,0,0,1,12.45-5.15h0a17.51,17.51,0,0,1,12.21,5l.23.22"/><path class="cls-2" d="M0,97.46a17.36,17.36,0,0,1,2.53,3.2,12.67,12.67,0,0,1,.7,1.24,17.63,17.63,0,0,1,1.92,8h0A17.6,17.6,0,0,1,0,122.37H0"/><path class="cls-2" d="M0,97.46V87.13a17.43,17.43,0,0,1,10.55,3.52,16.62,16.62,0,0,1,1.91,1.65,17.58,17.58,0,0,1,5.11,11.26c0,.4,0,.8,0,1.2a17.64,17.64,0,0,1-.47,4.07c-.11.46-.24.91-.38,1.36a17.76,17.76,0,0,1-4.31,7h0a17.55,17.55,0,0,1-12,5.15H0"/><path class="cls-2" d="M24.91,122.39h0c.29-.29.55-.57.81-.88a17.52,17.52,0,0,0,4.35-11.57h0a17.61,17.61,0,0,0-8.36-15,17.35,17.35,0,0,0-9.24-2.64,19.3,19.3,0,0,0-2.84.22A17.53,17.53,0,0,0,0,97.46"/><path class="cls-2" d="M0,122.37H.45"/><path class="cls-2" d="M-20.55,43.58A228.9,228.9,0,0,0,2.8,61.26,233.3,233.3,0,0,0-19.92,78.44,256.62,256.62,0,0,1-20.55,43.58Z"/><path class="cls-2" d="M-20.55,43.58A228.9,228.9,0,0,0,2.8,61.26,233.3,233.3,0,0,0-19.92,78.44,256.62,256.62,0,0,1-20.55,43.58Z"/><path class="cls-2" d="M-.45,0H0A17.53,17.53,0,0,1-5.16,12.47h0a17.48,17.48,0,0,1-4.68,3.35,17.27,17.27,0,0,1-7.46,1.8h-.32a17.45,17.45,0,0,1-10.29-3.33,16.42,16.42,0,0,1-2.17-1.83h0a17.49,17.49,0,0,1-4.69-8.39A17.55,17.55,0,0,1-35.24,0h10.33"/><path class="cls-2" d="M-.45,0H0A17.54,17.54,0,0,1-12.46,5.18h0a17.43,17.43,0,0,1-5.67-.94,17.46,17.46,0,0,1-6.54-4L-24.91,0"/><path class="cls-2" d="M0,24.93a17.36,17.36,0,0,1-2.53-3.2,12.67,12.67,0,0,1-.7-1.24,17.51,17.51,0,0,1-1.93-8h0A17.59,17.59,0,0,1,0,0H0"/><path class="cls-2" d="M0,24.93V35.26a17.48,17.48,0,0,1-10.55-3.51,16.62,16.62,0,0,1-1.91-1.65,17.54,17.54,0,0,1-5.12-11.26c0-.4,0-.8,0-1.2a17.64,17.64,0,0,1,.47-4.07c.11-.46.24-.91.38-1.36a17.74,17.74,0,0,1,4.3-7h0A17.51,17.51,0,0,1-.45,0H0"/><path class="cls-2" d="M-24.91,0h0c-.29.29-.55.57-.81.88a17.51,17.51,0,0,0-4.34,11.57h0A17.55,17.55,0,0,0-29.9,15a17.51,17.51,0,0,0,5,9.94,17.48,17.48,0,0,0,3.21,2.54,17.47,17.47,0,0,0,9.25,2.63,18,18,0,0,0,2.84-.23A17.53,17.53,0,0,0,0,24.93"/><path class="cls-2" d="M-.45,0H0"/><path class="cls-2" d="M-.48,122.39H0a17.61,17.61,0,0,0-5.15-12.46h0a17.48,17.48,0,0,0-4.68-3.35,17.42,17.42,0,0,0-7.46-1.81h-.32a17.51,17.51,0,0,0-10.29,3.32,16.42,16.42,0,0,0-2.17,1.83h0a17.51,17.51,0,0,0-4.7,8.39,17.55,17.55,0,0,0-.47,4.06h10.33"/><path class="cls-2" d="M-.48,122.39H0a17.55,17.55,0,0,0-12.45-5.17h0a17.42,17.42,0,0,0-5.67.93,17.46,17.46,0,0,0-6.54,4l-.23.22"/><path class="cls-2" d="M0,97.48a17.36,17.36,0,0,0-2.53,3.2c-.26.4-.49.82-.71,1.24a17.44,17.44,0,0,0-1.93,8h0A17.56,17.56,0,0,0,0,122.39H0"/><path class="cls-2" d="M0,97.48V87.15a17.46,17.46,0,0,0-10.56,3.5,16.62,16.62,0,0,0-1.91,1.65,17.55,17.55,0,0,0-5.13,11.25c0,.4,0,.8,0,1.2a17.64,17.64,0,0,0,.47,4.07c.11.46.24.91.38,1.36a17.64,17.64,0,0,0,4.29,7h0a17.56,17.56,0,0,0,12,5.17H0"/><path class="cls-2" d="M-.48,122.39H0"/><path class="cls-2" d="M-24.94,122.37h0a11.4,11.4,0,0,1-.81-.89,17.45,17.45,0,0,1-4.33-11.57h0a17.55,17.55,0,0,1,.18-2.51,17.47,17.47,0,0,1,5-9.93,17.48,17.48,0,0,1,3.21-2.54,17.37,17.37,0,0,1,9.25-2.62,18,18,0,0,1,2.84.23,17.55,17.55,0,0,1,9.62,5"/><path class="cls-2" d="M122.85,0h-.45a17.54,17.54,0,0,1,5.17-12.45h0a17.48,17.48,0,0,1,4.68-3.35,17.41,17.41,0,0,1,7.46-1.79H140a17.52,17.52,0,0,1,10.29,3.34,16.42,16.42,0,0,1,2.17,1.83h0a17.55,17.55,0,0,1,4.68,8.4A17.55,17.55,0,0,1,157.64,0H147.31"/><path class="cls-2" d="M122.85,0h-.44a17.49,17.49,0,0,1,12.45-5.15h0A17.51,17.51,0,0,1,147.08-.23l.23.22"/><path class="cls-2" d="M122.42-24.94a17.36,17.36,0,0,1,2.53,3.2,12.67,12.67,0,0,1,.7,1.24,17.63,17.63,0,0,1,1.92,8h0A17.6,17.6,0,0,1,122.41,0h0"/><path class="cls-2" d="M122.42-24.94V-35.27A17.43,17.43,0,0,1,133-31.75a16.62,16.62,0,0,1,1.91,1.65A17.58,17.58,0,0,1,140-18.84c0,.4,0,.8,0,1.2a17.64,17.64,0,0,1-.47,4.07c-.11.46-.24.91-.38,1.36a17.76,17.76,0,0,1-4.31,7h0a17.55,17.55,0,0,1-12,5.15h-.45"/><path class="cls-2" d="M147.31,0h0c.29-.29.55-.57.81-.88a17.52,17.52,0,0,0,4.35-11.57h0a17.55,17.55,0,0,0-.18-2.51,17.43,17.43,0,0,0-5-9.94,17.48,17.48,0,0,0-3.21-2.54,17.35,17.35,0,0,0-9.24-2.64,19.3,19.3,0,0,0-2.84.22,17.53,17.53,0,0,0-9.63,4.94"/><path class="cls-2" d="M122.4,0h.45"/><path class="cls-2" d="M77.56-19.92A227.71,227.71,0,0,0,61.26.15a240.19,240.19,0,0,0-16.8-20.7A252,252,0,0,1,77.56-19.92Z"/><path class="cls-2" d="M77.56-19.92A227.71,227.71,0,0,0,61.26.15a240.19,240.19,0,0,0-16.8-20.7A252,252,0,0,1,77.56-19.92Z"/><path class="cls-2" d="M121.92,0h.45a17.61,17.61,0,0,0-5.15-12.46h0a17.48,17.48,0,0,0-4.68-3.35,17.42,17.42,0,0,0-7.46-1.81h-.32a17.51,17.51,0,0,0-10.29,3.32A16.42,16.42,0,0,0,92.3-12.5h0A17.51,17.51,0,0,0,87.6-4.1,17.55,17.55,0,0,0,87.13,0H97.46"/><path class="cls-2" d="M121.92,0h.44a17.55,17.55,0,0,0-12.45-5.17h0A17.47,17.47,0,0,0,97.69-.25L97.46,0"/><path class="cls-2" d="M122.39-24.92a17.36,17.36,0,0,0-2.53,3.2c-.26.4-.49.82-.71,1.24a17.44,17.44,0,0,0-1.93,8h0A17.56,17.56,0,0,0,122.36,0h0"/><path class="cls-2" d="M122.39-24.92V-35.25a17.46,17.46,0,0,0-10.56,3.5,16.62,16.62,0,0,0-1.91,1.65,17.55,17.55,0,0,0-5.13,11.25c0,.4,0,.8,0,1.2a17.64,17.64,0,0,0,.47,4.07c.11.46.24.91.38,1.36a17.64,17.64,0,0,0,4.29,7h0a17.56,17.56,0,0,0,12,5.17h.45"/><path class="cls-2" d="M121.92,0h.45"/><path class="cls-2" d="M97.46,0h0a11.4,11.4,0,0,1-.81-.89A17.45,17.45,0,0,1,92.3-12.49h0A17.55,17.55,0,0,1,92.48-15a17.47,17.47,0,0,1,5-9.93,17.48,17.48,0,0,1,3.21-2.54,17.37,17.37,0,0,1,9.25-2.62,18,18,0,0,1,2.84.23,17.55,17.55,0,0,1,9.62,4.95"/><path class="cls-2" d="M.45,0H0A17.54,17.54,0,0,1,5.17-12.48h0a17.48,17.48,0,0,1,4.68-3.35,17.41,17.41,0,0,1,7.46-1.79h.32A17.52,17.52,0,0,1,27.92-14.3a16.42,16.42,0,0,1,2.17,1.83h0a17.55,17.55,0,0,1,4.68,8.4A17.55,17.55,0,0,1,35.24,0H24.91"/><path class="cls-2" d="M.45,0H0A17.49,17.49,0,0,1,12.46-5.18h0A17.51,17.51,0,0,1,24.68-.23l.23.22"/><path class="cls-2" d="M0-24.94a17.36,17.36,0,0,1,2.53,3.2,12.67,12.67,0,0,1,.7,1.24,17.63,17.63,0,0,1,1.92,8h0A17.6,17.6,0,0,1,0,0H0"/><path class="cls-2" d="M0-24.94V-35.27a17.43,17.43,0,0,1,10.55,3.52,16.62,16.62,0,0,1,1.91,1.65A17.58,17.58,0,0,1,17.6-18.84c0,.4,0,.8,0,1.2a17.64,17.64,0,0,1-.47,4.07c-.11.46-.24.91-.38,1.36a17.76,17.76,0,0,1-4.31,7h0A17.55,17.55,0,0,1,.45,0H0"/><path class="cls-2" d="M24.91,0h0c.29-.29.55-.57.81-.88a17.52,17.52,0,0,0,4.35-11.57h0A17.55,17.55,0,0,0,29.91-15a17.43,17.43,0,0,0-5-9.94,17.48,17.48,0,0,0-3.21-2.54,17.35,17.35,0,0,0-9.24-2.64,19.3,19.3,0,0,0-2.84.22A17.53,17.53,0,0,0,0-24.94"/><path class="cls-2" d="M0,0H.45"/><path class="cls-2" d="M-.48,0H0A17.61,17.61,0,0,0-5.18-12.47h0a17.48,17.48,0,0,0-4.68-3.35,17.42,17.42,0,0,0-7.46-1.81h-.32a17.51,17.51,0,0,0-10.29,3.32A16.42,16.42,0,0,0-30.1-12.5h0A17.51,17.51,0,0,0-34.8-4.1,17.55,17.55,0,0,0-35.27,0h10.33"/><path class="cls-2" d="M-.48,0H0A17.55,17.55,0,0,0-12.49-5.18h0a17.42,17.42,0,0,0-5.67.93,17.46,17.46,0,0,0-6.54,4l-.23.22"/><path class="cls-2" d="M0-24.92a17.36,17.36,0,0,0-2.53,3.2c-.26.4-.49.82-.71,1.24a17.44,17.44,0,0,0-1.93,8h0A17.56,17.56,0,0,0,0,0H0"/><path class="cls-2" d="M0-24.92V-35.25a17.46,17.46,0,0,0-10.56,3.5,16.62,16.62,0,0,0-1.91,1.65A17.55,17.55,0,0,0-17.6-18.85c0,.4,0,.8,0,1.2a17.64,17.64,0,0,0,.47,4.07c.11.46.24.91.38,1.36a17.64,17.64,0,0,0,4.29,7h0A17.56,17.56,0,0,0-.48,0H0"/><path class="cls-2" d="M-.48,0H0"/><path class="cls-2" d="M-24.94,0h0a11.4,11.4,0,0,1-.81-.89A17.45,17.45,0,0,1-30.1-12.49h0A17.55,17.55,0,0,1-29.92-15a17.47,17.47,0,0,1,5-9.93,17.48,17.48,0,0,1,3.21-2.54,17.37,17.37,0,0,1,9.25-2.62,18,18,0,0,1,2.84.23A17.55,17.55,0,0,1,0-24.92"/></pattern></defs><rect class="cls-3" y="-100" width="1601.87" height="800"/><rect class="cls-4" x="1.12" y="313.29" width="1600.75" height="129.38"/><g id="A_Minimal_Contact_Resort_Spa" data-name="A Minimal Contact Resort Spa"><g class="cls-5"><path class="cls-6" d="M684,341.32h-2.74a5.57,5.57,0,0,0-5.31-3.21c-3.69,0-6.45,2.66-6.45,6.87s2.76,6.85,6.45,6.85a5.9,5.9,0,0,0,6.14-5.67h-7v-1.85h9.4v1.75a8.47,8.47,0,0,1-8.57,7.82,8.91,8.91,0,0,1,0-17.82A8.27,8.27,0,0,1,684,341.32Z"/><path class="cls-6" d="M693.48,354c-3.91,0-6.8-2.76-6.8-7.12s2.79-7.07,6.8-7.07a6.29,6.29,0,0,1,6.59,6.57,12.5,12.5,0,0,1-.07,1.38H689a4.33,4.33,0,0,0,4.47,4.31,3.79,3.79,0,0,0,3.86-2.53h2.46A6.19,6.19,0,0,1,693.48,354Zm-4.44-8.1h8.68a4,4,0,0,0-4.34-4.16A4.26,4.26,0,0,0,689,345.86Z"/><path class="cls-6" d="M709.08,354c-3.89,0-6.85-2.76-6.85-7.12a6.95,6.95,0,1,1,13.89,0A6.81,6.81,0,0,1,709.08,354Zm0-2c2.38,0,4.71-1.63,4.71-5.11s-2.28-5.09-4.64-5.09-4.59,1.63-4.59,5.09S706.69,352,709.08,352Z"/><path class="cls-6" d="M739,346c0-2.81-1.51-4.24-3.76-4.24s-3.89,1.48-3.89,4.44v7.57h-2.26V346c0-2.81-1.5-4.24-3.76-4.24s-3.88,1.48-3.88,4.44v7.57h-2.28V340h2.28v2a5,5,0,0,1,4.33-2.23,5.16,5.16,0,0,1,5,3.06,5.1,5.1,0,0,1,4.87-3.06c3.13,0,5.57,2,5.57,5.89v8.1H739Z"/><path class="cls-6" d="M750.91,354c-3.91,0-6.8-2.76-6.8-7.12s2.79-7.07,6.8-7.07a6.29,6.29,0,0,1,6.59,6.57,12.5,12.5,0,0,1-.07,1.38h-11a4.31,4.31,0,0,0,4.46,4.31,3.79,3.79,0,0,0,3.86-2.53h2.46A6.18,6.18,0,0,1,750.91,354Zm-4.44-8.1h8.68a4,4,0,0,0-4.34-4.16A4.26,4.26,0,0,0,746.47,345.86Z"/><path class="cls-6" d="M761,341.87h-1.78V340H761v-3.46h2.28V340h3.58v1.88H763.3V350c0,1.36.5,1.83,1.9,1.83h1.68v1.93h-2c-2.43,0-3.81-1-3.81-3.76Z"/><path class="cls-6" d="M771.93,353.73h-2.29V340h2.29v2.23a4.61,4.61,0,0,1,4.43-2.48v2.36h-.6c-2.18,0-3.83,1-3.83,4.16Z"/><path class="cls-6" d="M778.62,336.21a1.53,1.53,0,1,1,1.56,1.55A1.54,1.54,0,0,1,778.62,336.21ZM779,340h2.28v13.74H779Z"/><path class="cls-6" d="M791,339.77c3.41,0,5.64,1.75,6.34,4.64H794.9A3.75,3.75,0,0,0,791,341.7c-2.51,0-4.36,1.78-4.36,5.14S788.5,352,791,352a3.7,3.7,0,0,0,3.89-2.71h2.45A6.11,6.11,0,0,1,791,354c-3.91,0-6.7-2.76-6.7-7.12S787.1,339.77,791,339.77Z"/><path class="cls-6" d="M806,336.26h11.83v1.85h-4.76v15.62H810.8V338.11H806Z"/><path class="cls-6" d="M820.28,336.21a1.53,1.53,0,1,1,1.55,1.55A1.53,1.53,0,0,1,820.28,336.21Zm.37,3.78h2.29v13.74h-2.29Z"/><path class="cls-6" d="M826.82,335.18h2.29v18.55h-2.29Z"/><path class="cls-6" d="M838.94,354c-3.92,0-6.8-2.76-6.8-7.12s2.78-7.07,6.8-7.07a6.29,6.29,0,0,1,6.59,6.57,12.48,12.48,0,0,1-.08,1.38h-11a4.32,4.32,0,0,0,4.47,4.31,3.8,3.8,0,0,0,3.86-2.53h2.45A6.18,6.18,0,0,1,838.94,354Zm-4.44-8.1h8.67a4,4,0,0,0-4.33-4.16A4.25,4.25,0,0,0,834.5,345.86Z"/><path class="cls-6" d="M860.88,346.44h-3.36v7.29h-2.28V336.26h5.64c4.11,0,6,2.25,6,5.11C866.92,344,865.22,346.44,860.88,346.44Zm0-1.88c2.61,0,3.71-1.23,3.71-3.19s-1.1-3.23-3.71-3.23h-3.36v6.42Z"/><path class="cls-6" d="M875.42,339.77a5.7,5.7,0,0,1,5.12,2.73V340h2.31v13.74h-2.31v-2.56A5.75,5.75,0,0,1,875.4,354c-3.66,0-6.49-2.89-6.49-7.15S871.74,339.77,875.42,339.77Zm.46,2c-2.51,0-4.64,1.83-4.64,5.06s2.13,5.14,4.64,5.14,4.66-1.88,4.66-5.11S878.38,341.75,875.88,341.75Z"/><path class="cls-6" d="M887.21,341.87h-1.78V340h1.78v-3.46h2.28V340h3.59v1.88h-3.59V350c0,1.36.51,1.83,1.91,1.83h1.68v1.93H891c-2.43,0-3.81-1-3.81-3.76Z"/><path class="cls-6" d="M896.34,341.87h-1.78V340h1.78v-3.46h2.28V340h3.59v1.88h-3.59V350c0,1.36.51,1.83,1.91,1.83h1.68v1.93h-2.06c-2.43,0-3.81-1-3.81-3.76Z"/><path class="cls-6" d="M910.91,354c-3.91,0-6.79-2.76-6.79-7.12s2.78-7.07,6.79-7.07a6.3,6.3,0,0,1,6.6,6.57,12.48,12.48,0,0,1-.08,1.38h-11a4.31,4.31,0,0,0,4.46,4.31,3.78,3.78,0,0,0,3.86-2.53h2.46A6.18,6.18,0,0,1,910.91,354Zm-4.44-8.1h8.68a4,4,0,0,0-4.34-4.16A4.26,4.26,0,0,0,906.47,345.86Z"/><path class="cls-6" d="M930.57,346c0-2.81-1.53-4.24-3.83-4.24s-3.94,1.46-3.94,4.42v7.59h-2.28V340h2.28v2a5.07,5.07,0,0,1,4.41-2.21c3.19,0,5.62,2,5.62,5.89v8.1h-2.26Z"/></g></g></svg>