<svg id="Layer_1" data-name="Layer 1" xmlns="http://www.w3.org/2000/svg" xmlns:xlink="http://www.w3.org/1999/xlink" viewBox="0 0 800 800"><defs><style>.cls-1,.cls-11,.cls-6,.cls-9{fill:none;}.cls-1,.cls-13,.cls-15,.cls-4,.cls-5,.cls-7,.cls-9{stroke:#231f20;}.cls-1,.cls-11,.cls-13,.cls-15,.cls-4,.cls-5,.cls-6,.cls-7,.cls-9{stroke-miterlimit:10;}.cls-1,.cls-13,.cls-4,.cls-7{stroke-width:7.17px;}.cls-13,.cls-2{fill:#3b73b9;}.cls-3,.cls-7{fill:#231f20;}.cls-10,.cls-4{fill:#1b4177;}.cls-5{fill:#fff;stroke-width:4.3px;}.cls-11,.cls-6{stroke:#1b4177;stroke-linecap:round;}.cls-6{stroke-width:3.83px;}.cls-15,.cls-8{fill:#f9ed25;}.cls-9{stroke-width:4.06px;}.cls-11,.cls-15{stroke-width:2.87px;}.cls-12{clip-path:url(#clip-path);}.cls-14{fill:#265894;}.cls-16{fill:#c2b430;}</style><clipPath id="clip-path"><path class="cls-1" d="M254.64,390.33l130.09,89.74a8.38,8.38,0,0,0,12.59-3.9L439.8,365.32a8.4,8.4,0,0,0-9.49-11.23L254.86,389.23A.61.61,0,0,0,254.64,390.33Z"/></clipPath></defs><path class="cls-2" d="M408.14,183.71l11.46,4c28.55,10.06,72,41.24,116.18,83.4,41.66,39.75,72.67,78.61,79,99a5.16,5.16,0,0,1-2.37,5.95l-38.7,22.06Z"/><path class="cls-3" d="M418.4,191.13c62.06,21.87,180,138.41,193,180.09a1.53,1.53,0,0,1-.72,1.77l-36,20.52L418.4,191.13m-20.52-14.84,14.85,19.22L569,397.9l3.82,4.93,5.42-3.09,36-20.52a8.76,8.76,0,0,0,4-10.13c-7.9-25.41-46.49-68.59-80-100.53-44.54-42.5-88.45-74-117.46-84.2l-22.91-8.07Z"/><path class="cls-4" d="M127.1,503.46c57,66.27,243,119.75,363.79,99.88a1.54,1.54,0,0,0,1.27-1.76l-4-26.43Z"/><circle class="cls-5" cx="141.22" cy="207.42" r="38.02"/><circle class="cls-3" cx="141.22" cy="207.42" r="23.81"/><path class="cls-2" d="M400.05,586.7c-62.78,0-125.15-10.65-175.6-30-92.17-35.31-143-74.86-160.07-124.47a116,116,0,0,1-4.86-19.38l-.72-4.48,4.52.33c.16,0,1,.07,2.56.07,6.24,0,23.14-1,45-10.08,25.63-10.65,49.32-28.56,70.5-53.31-23-.28-87.26-2.61-106.92-19.34l-2-1.66.93-2.38c33.43-85.22,74-138.63,124.07-163.29,22.27-11,46.07-16.3,72.77-16.3,31,0,65.17,7.29,104.33,22.3,63.59,24.36,127.79,84,171.73,159.59,43.72,75.2,58.39,149.92,39.25,199.89-5.87,15.31-20.89,28.35-44.69,38.83l-1.31.58h0C505,578.51,455.53,586.7,400.05,586.7Z"/><path class="cls-3" d="M270.3,146c31.5,0,65.76,7.78,103.05,22.07,134.94,51.69,248.51,251.47,208.91,354.85l0,.05c-5.67,14.79-21,27.17-42.76,36.78h0c-34.31,15.11-84.77,23.36-139.42,23.36-58.18,0-121.12-9.36-174.32-29.74-85.81-32.87-140.34-71-158-122.28a112.67,112.67,0,0,1-4.71-18.8c.15,0,1.12.08,2.82.08,13.12,0,69.57-4.09,123.13-70.52h-2c-13.24,0-89.4-.78-110.25-18.52C110.6,237.17,150.87,185.72,199.12,162c22-10.85,45.69-15.94,71.18-15.94m0-7.17c-26.88,0-51.89,5.61-74.35,16.68-50.9,25.06-92.06,79.1-125.83,165.19l-1.86,4.77,3.89,3.31c10.07,8.57,30.31,14.32,61.89,17.59,14.76,1.53,29.19,2.18,39.54,2.45-19.48,21.35-41,37-64.05,46.57-21.29,8.84-37.62,9.8-43.65,9.8-1.43,0-2.21-.05-2.3-.06l-9-.66,1.45,9a120.06,120.06,0,0,0,5,20c17.41,50.68,68.94,90.92,162.18,126.64,50.85,19.48,113.67,30.21,176.88,30.21,55.22,0,104.61-8.08,139.56-22.78h0l2.72-1.19c24.7-10.87,40.37-24.59,46.57-40.77v0c9.95-26,11.12-59.11,3.37-95.84-7.24-34.32-22.06-71.37-42.86-107.14a442.8,442.8,0,0,0-76-96.92c-31.33-29.83-64.14-51.43-97.52-64.22-39.59-15.17-74.13-22.54-105.62-22.54Z"/><path class="cls-2" d="M194.89,283.11a40.2,40.2,0,0,1-37.5-54.55,40.13,40.13,0,0,1,51.88-23.14,40.18,40.18,0,0,1,23.14,51.88,40.42,40.42,0,0,1-37.52,25.81Z"/><path class="cls-3" d="M194.9,204.9a38,38,0,1,1-35.5,24.43,38.09,38.09,0,0,1,35.5-24.43m0-4.3A42.36,42.36,0,1,0,210,203.41a42.25,42.25,0,0,0-15.14-2.81Z"/><path class="cls-6" d="M166.15,224.77c17.61-3.34,43.46,11.15,58.48,33.73"/><path class="cls-7" d="M563.05,546.37l115.5,128,80.54-210.24L590.12,482c-.56,14.75-3.11,28.54-7.86,40.93l0,.07C578.92,531.63,572.32,539.45,563.05,546.37Z"/><polygon class="cls-8" points="569.36 512.03 743.17 493.7 686.43 641.8 569.36 512.03"/><path class="cls-3" d="M246.5,147.59c34.78,19.42,24,79,24,79,45.68-44.45,83.34-9.62,51.13,17.39-36.75,30.82-68.39,75.81-48.31,130.15,25.53,69,285.41,175.29,285.41,175.29,1.51-1,2.95-2,4.34-3.06,9.27-6.92,15.87-14.74,19.19-23.38l0-.07c4.75-12.39,7.3-26.18,7.86-40.93,4.19-108.22-98-268.42-216.77-313.91C326.45,150.11,284.35,142.44,246.5,147.59ZM370.15,319.94l.1.05c16.89,8.06,28.83,21.79,39.92,36.48,9.6,12.7,20.35,24.65,33,34.4a124.93,124.93,0,0,0,20.4,12.84c6.6,3.3,17.37,6,18.14,14.83a14.12,14.12,0,0,1-5.37,11.77c-13.44,11-31.08-.78-44.2-6-18.85-7.44-38.56-12.35-57.66-19.07-25.91-9.1-76.42-32.24-72.73-67.45S347.39,309.13,370.15,319.94Z"/><line class="cls-9" x1="418.4" y1="191.13" x2="574.66" y2="393.51"/><circle class="cls-10" cx="154.48" cy="279.06" r="2.94"/><circle class="cls-10" cx="123.38" cy="261.13" r="2.94"/><circle class="cls-10" cx="127.83" cy="273.1" r="2.94"/><circle class="cls-10" cx="136.8" cy="285.5" r="2.94"/><circle class="cls-10" cx="111.98" cy="274.38" r="2.94"/><path class="cls-11" d="M227.46,204.4a32.84,32.84,0,0,0-46.18-5"/><g class="cls-12"><rect class="cls-13" x="231.26" y="310.33" width="230.04" height="162.07" transform="translate(529.61 880.72) rotate(-159.04)"/><polygon class="cls-14" points="254.86 389.23 409.64 478.97 399.12 500.92 254.86 389.23"/><path class="cls-7" d="M356.71,412c-9.62,25.1,11,58.58,23.45,68.6a20.82,20.82,0,0,0,2.58,1.79l.94.51,51.41-134.19-14.88,2.94C403.77,362.81,364.67,391.27,356.71,412Z"/><path class="cls-15" d="M367.14,416c-9.62,25.11,10.95,58.59,23.44,68.61a22.34,22.34,0,0,0,2.58,1.78c.31.18.63.34.95.51l51.41-134.18-14.88,2.93C414.2,366.8,375.09,395.26,367.14,416Z"/><path class="cls-16" d="M372.89,457.66l28.48,16.51-15.1,5.6S380.4,471,377.92,467A102.82,102.82,0,0,1,372.89,457.66Z"/></g><path class="cls-1" d="M254.64,390.33l130.09,89.74a8.38,8.38,0,0,0,12.59-3.9L439.8,365.32a8.4,8.4,0,0,0-9.49-11.23L254.86,389.23A.61.61,0,0,0,254.64,390.33Z"/><path class="cls-14" d="M67.77,431.09c17.62,51.29,72.15,89.41,158,122.28C328.89,592.9,468.62,591,539.47,559.75,370.25,585.13,189.68,574.16,67.77,431.09Z"/></svg>