<svg id="Layer_1" data-name="Layer 1" xmlns="http://www.w3.org/2000/svg" xmlns:xlink="http://www.w3.org/1999/xlink" viewBox="0 0 800 800"><defs><style>.cls-1,.cls-13,.cls-15,.cls-17,.cls-2{fill:none;}.cls-11,.cls-12,.cls-14,.cls-15,.cls-19,.cls-2,.cls-21,.cls-4{stroke:#231f20;}.cls-11,.cls-12,.cls-13,.cls-14,.cls-15,.cls-17,.cls-19,.cls-2,.cls-21,.cls-4{stroke-miterlimit:10;}.cls-11,.cls-14,.cls-19,.cls-2{stroke-width:7.17px;}.cls-3{clip-path:url(#clip-path);}.cls-10,.cls-14,.cls-4{fill:#231f20;}.cls-4{stroke-width:13.48px;}.cls-21,.cls-5{fill:#f9ed25;}.cls-6{fill:#45c8f5;}.cls-12,.cls-7{fill:#fff;}.cls-8{clip-path:url(#clip-path-2);}.cls-19,.cls-9{fill:#3b73b9;}.cls-11,.cls-16{fill:#1b4177;}.cls-12{stroke-width:4.3px;}.cls-13,.cls-17{stroke:#1b4177;stroke-linecap:round;}.cls-13{stroke-width:3.83px;}.cls-15{stroke-width:4.06px;}.cls-17,.cls-21{stroke-width:2.87px;}.cls-18{clip-path:url(#clip-path-3);}.cls-20{fill:#265894;}.cls-22{fill:#c2b430;}</style><clipPath id="clip-path"><rect class="cls-1" x="-1870" y="-350" width="1500" height="1500"/></clipPath><clipPath id="clip-path-2"><rect class="cls-1" x="0.85" y="1.71" width="798.29" height="798.29"/></clipPath><clipPath id="clip-path-3"><path class="cls-2" d="M260.22,496.93l130.09,89.74a8.39,8.39,0,0,0,12.6-3.9l42.47-110.86a8.39,8.39,0,0,0-9.48-11.23L260.45,495.83A.61.61,0,0,0,260.22,496.93Z"/></clipPath></defs><g class="cls-3"><path class="cls-4" d="M-327.48,897.42l217,240.58L40.88,743l-317.49,33.48c-1.06,27.72-5.85,53.62-14.78,76.91l0,.12C-297.66,869.72-310.06,884.41-327.48,897.42Z"/><polygon class="cls-5" points="-315.63 832.89 10.96 798.44 -95.66 1076.74 -315.63 832.89"/></g><rect class="cls-6" x="0.85" y="1.71" width="798.29" height="798.29"/><path class="cls-7" d="M44.25,134.42A10.79,10.79,0,0,1,55,123.65,10.5,10.5,0,0,1,58,124a15.44,15.44,0,0,0,4.16.61c5.39,0,9.06-3.43,9.06-9.18v-41a12.37,12.37,0,0,1,24.73,0v41.38c0,20.93-12.61,30.6-31.58,30.6a45.87,45.87,0,0,1-12.12-1.59A10.81,10.81,0,0,1,44.25,134.42Z"/><path class="cls-7" d="M133.61,74.57a12.55,12.55,0,0,1,25.09,0v36c0,7.84,4,14.08,14.2,14.08S187,118.39,187,110.55v-36a12.55,12.55,0,0,1,25.09,0v36.72c0,20.32-11.63,35.13-39.17,35.13s-39.29-14.81-39.29-35Z"/><path class="cls-7" d="M246.71,130a11.18,11.18,0,0,1,11.14-11.14,10.72,10.72,0,0,1,5.63,1.47,37.36,37.36,0,0,0,19.21,5.26c4.66,0,9.06-1.59,9.06-4.77s-3.42-4.78-11.5-6.25c-13.47-2.44-34-5.63-34-26.07,0-13.83,11.5-26.44,35.13-26.44,8.69,0,18.11,1.71,25.46,5a11,11,0,0,1-4.53,21.05,12.83,12.83,0,0,1-4.9-1c-7.22-2.81-12.85-4.28-17.38-4.28-7.34,0-8.69,2.2-8.69,4.28,0,3.19,3.31,4.29,12,5.76,13.46,2.32,33.41,6.24,33.41,25.09,0,18-13.34,28.4-35.25,28.4-11.87,0-21.05-2.33-28.89-6.61A11,11,0,0,1,246.71,130Z"/><path class="cls-7" d="M366.78,133.81v-49H354.42a10.77,10.77,0,0,1,0-21.54h49.33a10.77,10.77,0,0,1,0,21.54H391.51v49a12.37,12.37,0,0,1-24.73,0Z"/><path class="cls-7" d="M46.23,249.82a2.6,2.6,0,0,1,3.82-.49,43,43,0,0,0,27.61,10c5.26,0,10.24-1.8,10.24-5.4s-3.87-5.4-13-7.06c-15.23-2.76-38.47-6.36-38.47-29.47,0-15.63,13-29.89,38.33-29.89,14.11,0,26.89,3.76,37.09,11.27a2.6,2.6,0,0,1,.51,3.66L100.5,218.14a2.62,2.62,0,0,1-3.56.57C89.25,213.59,80,211,73.23,211c-6.91,0-8.44,2.49-8.44,4.84,0,3.6,3.74,4.84,13.56,6.5,15.22,2.63,37.78,7.06,37.78,28.37,0,20.34-15.08,32.1-39.85,32.1-18.47,0-31.44-5.14-41.09-13.11a2.59,2.59,0,0,1-.45-3.49Z"/><path class="cls-7" d="M181.25,240.05l-8.9,39.1a2.6,2.6,0,0,1-2.54,2H144.52a2.6,2.6,0,0,1-2.5-1.89l-24.94-87.08a2.6,2.6,0,0,1,2.51-3.32h25.7a2.61,2.61,0,0,1,2.55,2.07L157,234.21a2.61,2.61,0,0,0,5.08.09l10.75-43.43a2.61,2.61,0,0,1,2.54-2h17a2.61,2.61,0,0,1,2.53,2l10.73,43.37a2.61,2.61,0,0,0,5.09-.1l9-43.18a2.6,2.6,0,0,1,2.55-2.07H248a2.6,2.6,0,0,1,2.51,3.32l-24.93,87.08a2.62,2.62,0,0,1-2.51,1.89H197.77a2.6,2.6,0,0,1-2.54-2l-8.9-39.1A2.6,2.6,0,0,0,181.25,240.05Z"/><path class="cls-7" d="M259.87,188.89h22.74a2.6,2.6,0,0,1,2.61,2.6v87.08a2.61,2.61,0,0,1-2.61,2.61H259.87a2.6,2.6,0,0,1-2.6-2.61V191.49A2.59,2.59,0,0,1,259.87,188.89Z"/><path class="cls-7" d="M376.73,237.23,361.8,279.44a2.62,2.62,0,0,1-2.46,1.74h-8.77a2.62,2.62,0,0,1-2.46-1.74l-14.94-42.21a2.6,2.6,0,0,0-5.06.87v40.47a2.61,2.61,0,0,1-2.61,2.61H302.77a2.61,2.61,0,0,1-2.61-2.61V191.49a2.6,2.6,0,0,1,2.61-2.6h34.14a2.59,2.59,0,0,1,2.46,1.76l13.12,38.12a2.61,2.61,0,0,0,4.93,0l13.12-38.12a2.59,2.59,0,0,1,2.46-1.76h34.14a2.6,2.6,0,0,1,2.61,2.6v87.08a2.61,2.61,0,0,1-2.61,2.61H384.4a2.6,2.6,0,0,1-2.6-2.61V238.1A2.61,2.61,0,0,0,376.73,237.23Z"/><path class="cls-7" d="M501.27,237.23l-14.94,42.21a2.61,2.61,0,0,1-2.46,1.74H475.1a2.6,2.6,0,0,1-2.45-1.74l-14.94-42.21a2.61,2.61,0,0,0-5.07.87v40.47a2.6,2.6,0,0,1-2.6,2.61H427.3a2.61,2.61,0,0,1-2.61-2.61V191.49a2.6,2.6,0,0,1,2.61-2.6h34.14a2.59,2.59,0,0,1,2.46,1.76L477,228.77a2.61,2.61,0,0,0,4.93,0l13.12-38.12a2.6,2.6,0,0,1,2.47-1.76h34.13a2.6,2.6,0,0,1,2.61,2.6v87.08a2.61,2.61,0,0,1-2.61,2.61H508.94a2.61,2.61,0,0,1-2.61-2.61V238.1A2.6,2.6,0,0,0,501.27,237.23Z"/><path class="cls-7" d="M551.83,188.89h22.74a2.6,2.6,0,0,1,2.61,2.6v87.08a2.61,2.61,0,0,1-2.61,2.61H551.83a2.6,2.6,0,0,1-2.6-2.61V191.49A2.59,2.59,0,0,1,551.83,188.89Z"/><path class="cls-7" d="M620.07,240v38.53a2.61,2.61,0,0,1-2.61,2.61H594.73a2.61,2.61,0,0,1-2.61-2.61V191.49a2.6,2.6,0,0,1,2.61-2.6h24.8a2.62,2.62,0,0,1,2.15,1.12l26.57,38.49A2.61,2.61,0,0,0,653,227V191.49a2.6,2.6,0,0,1,2.61-2.6h22.74a2.6,2.6,0,0,1,2.6,2.6v87.08a2.61,2.61,0,0,1-2.6,2.61H655.48a2.61,2.61,0,0,1-2.15-1.13l-28.5-41.49A2.61,2.61,0,0,0,620.07,240Z"/><path class="cls-7" d="M741.7,187.36c20,0,32.37,9.36,39.13,20.25a2.62,2.62,0,0,1-1,3.7L760.86,221a2.62,2.62,0,0,1-3.34-.85A19.09,19.09,0,0,0,741.7,212c-13.42,0-22.42,10.24-22.42,23.11s9,23.11,22.42,23.11a27.78,27.78,0,0,0,13.78-3.3,2.63,2.63,0,0,0,1.3-2.26h0a2.6,2.6,0,0,0-2.61-2.6H741.54a2.61,2.61,0,0,1-2.61-2.61V229.68a2.6,2.6,0,0,1,2.61-2.6h39.75a2.6,2.6,0,0,1,2.61,2.6v33.46a2.57,2.57,0,0,1-.69,1.77c-10.17,10.92-23.79,17.93-41.51,17.93-28,0-50.78-18.27-50.78-47.74S713.75,187.36,741.7,187.36Z"/><path class="cls-7" d="M489.35,133.92c-1,5.4-5.47,8.44-10.93,8.44-17.65,0-5.75-21.1-13.63-21.1a6,6,0,0,0-2.52.68l-3.09,19.87a75.74,75.74,0,0,0-12.52.55l7.2-45.73c.41-2.56.83-5.19-1.66-5.19a5.75,5.75,0,0,0-3.32,1.45l-.28-.55c3.11-2.56,8.16-5.19,12.52-5.19,6.64,0,5.81,6,5.12,10.31l-4,23.67,4.88-4.16c5.05-4.29,12-11,5.05-11l.07-.55h16.95l-.07.55c-7.75,0-13.63,5.19-21.52,11.48L463.19,121a24.08,24.08,0,0,1,9.35-2.52c12.24,0,7,20.13,12.59,20.13,1.52,0,3-1.93,3.66-4.7Z"/><path class="cls-7" d="M517.51,134c3.66.07,8.57-1,11.69-5.33l.48.21c-4.7,8.51-12.17,13.49-20.27,13.49-8.65,0-14.6-5.74-14.6-14.94a22.75,22.75,0,0,1,23-22.55c5.67.06,13.56,1.45,13.56,7.88,0,5.06-6.76,10-23.14,7.36-.07.74-.1,1.47-.1,2.19,0,7.68,3.73,11.55,9.34,11.69Zm.34-28.57c-5.08,0-8.68,7.2-9.51,14,9,.37,12.83-5.5,12.83-9.71,0-2.49-1-4.29-3.32-4.29Z"/><path class="cls-7" d="M563.37,134c3.67.07,8.58-1,11.7-5.33l.48.21c-4.7,8.51-12.18,13.49-20.27,13.49-8.65,0-14.6-5.74-14.6-14.94a22.75,22.75,0,0,1,23-22.55c5.67.06,13.56,1.45,13.56,7.88,0,5.06-6.76,10-23.14,7.36-.07.74-.1,1.47-.1,2.19,0,7.68,3.73,11.55,9.34,11.69Zm.35-28.57c-5.08,0-8.68,7.2-9.51,14,9,.37,12.83-5.5,12.83-9.71,0-2.49-1-4.29-3.32-4.29Z"/><path class="cls-7" d="M604.06,142.36a12.28,12.28,0,0,1-4.1-.86l-2.13,15.39h7l-.07.55H579.36l.07-.55c5.19,0,6-1.39,7.19-8.79l5.26-33.48c.42-2.56.83-5.19-1.66-5.19a5.75,5.75,0,0,0-3.32,1.45l-.28-.55c3.32-2.7,8.23-5.19,12.59-5.19,6.71,0,5.61,5.88,5.12,8.92l-.39,2.34c2.95-7.33,7.7-11.54,13.47-11.54,5.19,0,10.17,3.25,10.17,12.46,0,13.83-11.14,25-23.52,25Zm-2.77-8.44c-.76,4.77-.83,7.89,2.35,7.89,6.85,0,10.93-14.81,10.93-25.25,0-6-1.38-7.82-3.25-7.82-2.93,0-5.75,4.76-7.53,9.4Z"/><g class="cls-8"><path class="cls-9" d="M413.73,290.3l11.45,4c28.56,10.07,72,41.24,116.18,83.41,41.66,39.75,72.68,78.61,79,99A5.14,5.14,0,0,1,618,482.7l-38.71,22.07Z"/><path class="cls-10" d="M424,297.72c62.06,21.88,180,138.42,193,180.1a1.54,1.54,0,0,1-.72,1.77l-36,20.52L424,297.72m-20.52-14.83,14.84,19.22L574.57,504.49l3.81,4.94,5.42-3.09,36-20.52a8.75,8.75,0,0,0,4-10.13c-7.9-25.41-46.49-68.6-80-100.54-44.54-42.49-88.46-74-117.47-84.19l-22.9-8.07Z"/><path class="cls-11" d="M132.69,610.06c57,66.27,243,119.74,363.78,99.88a1.54,1.54,0,0,0,1.27-1.76l-4-26.44Z"/><circle class="cls-12" cx="146.8" cy="314.02" r="38.02"/><circle class="cls-10" cx="146.8" cy="314.02" r="23.81"/><path class="cls-9" d="M405.64,693.29c-62.79,0-125.15-10.64-175.6-30C137.87,628,87,588.46,70,538.85a116.78,116.78,0,0,1-4.85-19.39L64.38,515l4.53.33c.16,0,1,.07,2.55.07,6.25,0,23.15-1,45-10.07C142.12,494.66,165.81,476.74,187,452c-22.95-.29-87.25-2.61-106.92-19.34l-2-1.66.94-2.38c33.42-85.22,74-138.64,124.07-163.29,22.27-11,46.07-16.31,72.76-16.31,31.05,0,65.17,7.3,104.34,22.3,63.59,24.36,127.79,84,171.72,159.6,43.73,75.19,58.4,149.92,39.25,199.89-5.86,15.3-20.89,28.35-44.68,38.83l-1.34.59h0C510.56,685.1,461.1,693.29,405.64,693.29Z"/><path class="cls-10" d="M275.88,252.61c31.5,0,65.76,7.77,103.06,22.06,134.94,51.7,248.51,251.48,208.9,354.85l0,.06c-5.66,14.79-21,27.17-42.76,36.77h0c-34.31,15.11-84.77,23.35-139.41,23.35-58.19,0-121.12-9.35-174.32-29.73C145.51,627.09,91,589,73.35,537.68a112.78,112.78,0,0,1-4.7-18.79c.14,0,1.12.08,2.81.08,13.13,0,69.58-4.09,123.14-70.53h-2c-13.23,0-89.39-.78-110.24-18.52,33.79-86.17,74.06-137.62,122.31-161.38,22-10.85,45.7-15.94,71.18-15.94m0-7.17c-26.87,0-51.89,5.61-74.35,16.67-50.9,25.07-92,79.11-125.82,165.2l-1.87,4.76,3.9,3.32C87.8,444,108.05,449.71,139.63,453c14.76,1.52,29.19,2.18,39.53,2.45-19.48,21.34-41,37-64,46.56-21.28,8.85-37.61,9.8-43.65,9.8-1.42,0-2.21-.05-2.29-.06l-9.06-.66,1.46,9a120.29,120.29,0,0,0,5,20C84,590.7,135.52,631,228.75,666.67c50.85,19.48,113.67,30.21,176.89,30.21,55.21,0,104.59-8.08,139.55-22.78h0l2.73-1.19c24.7-10.88,40.36-24.6,46.56-40.78l0,0c10-26,11.11-59.12,3.37-95.85-7.24-34.32-22.06-71.37-42.86-107.15-20.91-35.95-47.2-69.47-76-96.92C447.7,302.37,414.89,280.76,381.5,268c-39.58-15.16-74.13-22.53-105.62-22.53Z"/><path class="cls-9" d="M200.47,389.71A40.2,40.2,0,0,1,163,335.16a40.41,40.41,0,0,1,37.52-25.81A40.2,40.2,0,0,1,238,363.9a40.41,40.41,0,0,1-37.51,25.81Z"/><path class="cls-10" d="M200.49,311.5A38,38,0,1,1,165,335.93a37.78,37.78,0,0,1,35.51-24.43m0-4.3A42.36,42.36,0,1,0,215.62,310a42.21,42.21,0,0,0-15.13-2.81Z"/><path class="cls-13" d="M171.74,331.37c17.6-3.34,43.45,11.15,58.48,33.72"/><path class="cls-14" d="M568.64,653,684.13,781l80.55-210.23-169,17.82a128.07,128.07,0,0,1-7.86,40.93l0,.06C584.51,638.23,577.91,646,568.64,653Z"/><polygon class="cls-5" points="574.94 618.63 748.75 600.29 692.01 748.4 574.94 618.63"/><path class="cls-10" d="M252.09,254.19c34.78,19.42,24,79,24,79,45.67-44.46,83.34-9.62,51.13,17.38-36.75,30.83-68.4,75.82-48.31,130.16,25.52,69,285.4,175.28,285.4,175.28,1.51-1,3-2,4.35-3,9.27-6.93,15.87-14.74,19.18-23.39l0-.06a128.07,128.07,0,0,0,7.86-40.93c4.19-108.23-98-268.42-216.77-313.92C332,256.7,289.93,249,252.09,254.19ZM375.74,426.54l.1,0c16.88,8.06,28.82,21.78,39.92,36.47,9.6,12.71,20.35,24.66,33,34.4a124.64,124.64,0,0,0,20.41,12.85c6.59,3.29,17.37,5.95,18.13,14.83a14.11,14.11,0,0,1-5.37,11.77c-13.44,11-31.07-.78-44.2-6-18.84-7.43-38.55-12.35-57.65-19.07-25.91-9.1-76.43-32.24-72.73-67.45S353,415.72,375.74,426.54Z"/><line class="cls-15" x1="423.99" y1="297.72" x2="580.25" y2="500.11"/><circle class="cls-16" cx="160.06" cy="385.66" r="2.94"/><circle class="cls-16" cx="128.97" cy="367.73" r="2.94"/><circle class="cls-16" cx="133.42" cy="379.69" r="2.94"/><circle class="cls-16" cx="142.38" cy="392.1" r="2.94"/><circle class="cls-16" cx="117.56" cy="380.97" r="2.94"/><path class="cls-17" d="M233.05,311a32.86,32.86,0,0,0-46.19-5"/><g class="cls-18"><rect class="cls-19" x="236.84" y="416.93" width="230.04" height="162.07" transform="translate(502.28 1088.86) rotate(-159.04)"/><polygon class="cls-20" points="260.45 495.83 415.23 585.56 404.7 607.52 260.45 495.83"/><path class="cls-14" d="M362.3,518.63c-9.62,25.11,10.95,58.59,23.44,68.61a23.76,23.76,0,0,0,2.58,1.79l.95.5,51.41-134.18-14.88,2.93C409.36,469.41,370.25,497.86,362.3,518.63Z"/><path class="cls-21" d="M372.72,522.63c-9.62,25.1,10.95,58.58,23.45,68.6a21.59,21.59,0,0,0,2.58,1.79l.94.51L451.1,459.34l-14.88,2.94C419.79,473.4,380.68,501.85,372.72,522.63Z"/><path class="cls-22" d="M378.47,564.26,407,580.77l-15.1,5.6s-5.87-8.81-8.35-12.74A103.14,103.14,0,0,1,378.47,564.26Z"/></g><path class="cls-2" d="M260.22,496.93l130.09,89.74a8.39,8.39,0,0,0,12.6-3.9l42.47-110.86a8.39,8.39,0,0,0-9.48-11.23L260.45,495.83A.61.61,0,0,0,260.22,496.93Z"/><path class="cls-20" d="M73.35,537.68C91,589,145.51,627.09,231.32,660c103.16,39.52,242.89,37.58,313.73,6.38C375.84,691.72,195.27,680.76,73.35,537.68Z"/></g></svg>