<svg xmlns="http://www.w3.org/2000/svg" width="160" height="206.034" viewBox="0 0 160 206.034">
  <g id="Group_696" data-name="Group 696" transform="translate(-1437 -248)">
    <g id="Group_574" data-name="Group 574" transform="translate(1437 248)">
      <g id="Rectangle_499" data-name="Rectangle 499" transform="translate(0 0)" fill="none" stroke="#fff" stroke-width="2" opacity="0.674">
        <rect width="160" height="160" rx="80" stroke="none"/>
        <rect x="1" y="1" width="158" height="158" rx="79" fill="none"/>
      </g>
      <g id="Rectangle_497" data-name="Rectangle 497" transform="translate(20.408 20.408)" fill="none" stroke="#fff" stroke-width="3" opacity="0.483">
        <rect width="119.184" height="119.184" rx="59.592" stroke="none"/>
        <rect x="1.5" y="1.5" width="116.184" height="116.184" rx="58.092" fill="none"/>
      </g>
      <g id="Rectangle_498" data-name="Rectangle 498" transform="translate(40 40)" fill="none" stroke="#fff" stroke-width="2" opacity="0.598">
        <rect width="80" height="80" rx="40" stroke="none"/>
        <rect x="1" y="1" width="78" height="78" rx="39" fill="none"/>
      </g>
    </g>
    <g id="Group_585" data-name="Group 585" transform="translate(1452.51 261.061)">
      <g id="Prime" transform="translate(0 134.028)" style="isolation: isolate">
        <g id="Group_544" data-name="Group 544" style="isolation: isolate">
          <path id="Path_153" data-name="Path 153" d="M574.538,2155.389v-29.178h7.691v4.162c2.534-2.669,5.021-4.614,8.143-4.614,4.117,0,6.333,3.076,6.333,10.9,0,8.414-4.388,11.535-10.042,11.535a19.453,19.453,0,0,1-4.433-.407v7.6Zm14.024-13.255a16.084,16.084,0,0,0,.724-4.75c0-4.026-1.176-5.021-3.664-5.021a5.767,5.767,0,0,0-2.85.588,13.473,13.473,0,0,0-.542,3.891v5.654c.95.091,2.035.136,2.849.136A9.632,9.632,0,0,0,588.562,2142.135Z" transform="translate(-574.538 -2117.526)" fill="#2d0043"/>
          <path id="Path_154" data-name="Path 154" d="M640.879,2134.4v4.433h-7.69v-3.166c0-1.764-.679-2.533-2.036-2.533-1.4,0-2.9,1.222-4.795,3.348a33.08,33.08,0,0,0-.5,5.926v5.428h-7.69v-21.623h7.238v5.971c2.986-4.388,5.383-6.423,8.957-6.423C638.436,2125.759,640.879,2128.112,640.879,2134.4Z" transform="translate(-591.3 -2117.526)" fill="#2d0043"/>
          <rect id="Rectangle_504" data-name="Rectangle 504" width="7.781" height="6.107" transform="translate(54.192)" fill="#2d0043"/>
          <rect id="Rectangle_505" data-name="Rectangle 505" width="7.781" height="21.623" transform="translate(54.192 8.685)" fill="#2d0043"/>
          <path id="Path_155" data-name="Path 155" d="M692.409,2147.834h-7.691v-21.623h7.691v4.252c2.4-2.85,4.7-4.7,8.007-4.7,2.578,0,4.841,1.447,5.474,4.931,2.4-2.986,4.7-4.931,8.052-4.931,3.121,0,5.79,2.035,5.79,7.1v14.973h-7.69v-12.8c0-1.673-.814-2.578-2.443-2.578a4.85,4.85,0,0,0-3.167,1.266,18.76,18.76,0,0,0-.362,4.615v9.5h-7.691v-12.8c0-1.673-.723-2.578-2.171-2.578a5.5,5.5,0,0,0-3.438,1.266,18.76,18.76,0,0,0-.362,4.615Z" transform="translate(-616.865 -2117.526)" fill="#2d0043"/>
          <path id="Path_156" data-name="Path 156" d="M764.5,2142.22a7.433,7.433,0,0,0,.226-1.493h6.785a4.9,4.9,0,0,1,.046.769c0,4.931-3.121,6.876-10.721,6.876-7.238,0-11.626-2.8-11.626-10.857,0-7.645,4.3-12.123,12.214-12.123,7.147,0,10.359,3.573,10.359,9.591a25.315,25.315,0,0,1-.226,3.075H756.766c.181,2.76,1.131,4.705,4.524,4.705A7.719,7.719,0,0,0,764.5,2142.22Zm-7.012-11.626a20.269,20.269,0,0,0-.769,5.338,32.167,32.167,0,0,1,8.052-1.041c0-3.166-1.311-4.523-4.026-4.523A23.48,23.48,0,0,0,757.49,2130.594Z" transform="translate(-641.641 -2117.385)" fill="#2d0043"/>
        </g>
      </g>
      <g id="Group_575" data-name="Group 575" transform="translate(31.877 0)">
        <path id="Path_225" data-name="Path 225" d="M660.821,1997.394a27.617,27.617,0,0,1-2.171-2.857v-6.457h2.171Z" transform="translate(-643.238 -1958.423)" fill="#2d0043"/>
        <path id="Path_226" data-name="Path 226" d="M666.56,2001.9c-.718-.58-1.453-1.2-2.18-1.886V1988.08h2.18Z" transform="translate(-644.29 -1958.423)" fill="#2d0043"/>
        <path id="Path_227" data-name="Path 227" d="M672.3,2005.1c-.661-.376-1.4-.833-2.171-1.355V1988.08H672.3Z" transform="translate(-645.346 -1958.423)" fill="#2d0043"/>
        <path id="Path_228" data-name="Path 228" d="M676.956,2006.921s-.4-.155-1.086-.474V1988.08h2.163v18.367C677.356,2006.766,676.956,2006.921,676.956,2006.921Z" transform="translate(-646.401 -1958.423)" fill="#2d0043"/>
        <path id="Path_229" data-name="Path 229" d="M683.773,2003.745c-.776.522-1.494.979-2.163,1.355V1988.08h2.163Z" transform="translate(-647.455 -1958.423)" fill="#2d0043"/>
        <path id="Path_230" data-name="Path 230" d="M689.521,2000.023c-.727.677-1.461,1.3-2.172,1.877v-13.82h2.172Z" transform="translate(-648.509 -1958.423)" fill="#2d0043"/>
        <path id="Path_231" data-name="Path 231" d="M695.26,1994.529a26.952,26.952,0,0,1-2.18,2.865v-9.314h2.18Z" transform="translate(-649.562 -1958.423)" fill="#2d0043"/>
        <path id="Path_232" data-name="Path 232" d="M700.815,1951.75l-30.49.049-30.49-.049a.065.065,0,0,0-.065.065v115.4a.064.064,0,0,0,.065.065h60.98a.064.064,0,0,0,.065-.065v-115.4A.065.065,0,0,0,700.815,1951.75Zm-55.486,5.551h49.992v15c0,25.175-24.988,35-24.988,35h-.016s-24.988-9.821-24.988-35Zm49.992,104.425H645.329v-15c0-.1,0-.212.008-.31.2-24.931,24.988-34.686,24.988-34.686s24.784,9.755,24.988,34.686c.008.1.008.212.008.31Zm-6.278-18.114-1.061-.669V2055.5a2.349,2.349,0,0,0,2.171-2.335v-7.567A2.331,2.331,0,0,0,689.044,2043.611Zm-5.755,11.894h2.18v-14.122l-2.18-1.355Zm-4.678,0h2.171v-17.029l-2.171-1.347Zm-4.686,0h2.163v-19.943l-2.163-1.355Zm-4.686-22.841v22.841H671.4v-22.849A2.378,2.378,0,0,0,669.239,2032.664Zm-4.686,22.841h2.171v-21.281l-2.171,1.339Zm-4.694,0h2.18V2037.13l-2.18,1.347Zm-4.677,0h2.171v-15.478l-2.171,1.355Zm-4.686-9.91v7.567a2.343,2.343,0,0,0,2.171,2.335v-12.555l-1.069.669A2.324,2.324,0,0,0,650.5,2045.595Z" transform="translate(-639.77 -1951.75)" fill="#2d0043"/>
        <path id="Path_233" data-name="Path 233" d="M661.383,2019.58a42.992,42.992,0,0,0-14.8,13.033v-26.077A42.942,42.942,0,0,0,661.383,2019.58Z" transform="translate(-641.02 -1961.813)" fill="#6ea1bc"/>
        <path id="Path_246" data-name="Path 246" d="M675.87,2010.58Z" transform="translate(-646.401 -1962.556)" fill="#fff"/>
        <path id="Path_250" data-name="Path 250" d="M689.69,2019.58a42.984,42.984,0,0,1,14.8,13.033v-26.077A42.934,42.934,0,0,1,689.69,2019.58Z" transform="translate(-648.939 -1961.813)" fill="#c39d4d"/>
      </g>
      <rect id="Rectangle_520" data-name="Rectangle 520" width="70.204" height="6.531" transform="translate(26.939 109.388)" fill="#2d0043"/>
      <rect id="Rectangle_521" data-name="Rectangle 521" width="70.204" height="6.531" transform="translate(26.939)" fill="#2d0043"/>
    </g>
    <path id="Path_565" data-name="Path 565" d="M3.952-3.692a10.42,10.42,0,0,1-1.144-.052V-6.227c.3-.013.611-.026.949-.026,1.079-.013,1.508.325,1.508,1.209a2.829,2.829,0,0,1-.325,1.3C4.472-3.705,4.212-3.692,3.952-3.692ZM4.03-2.34h.078L5.382,0h2.34L5.785-2.743A2.814,2.814,0,0,0,7.2-5.343C7.2-6.864,6.279-7.8,4.212-7.8H.858V0h1.95V-2.392C3.224-2.366,3.64-2.34,4.03-2.34ZM9.022,0H14.9V-1.547H10.972V-3.172c1.183.091,2.379.143,3.588.117V-4.394H10.972V-6.357c1.313.078,2.613.1,3.926.1V-7.8H9.022Zm13.91-2.262V-3.809h-3.9V-6.071h4.2V-7.8H17.082V0h1.95V-2.522A20.494,20.494,0,0,0,22.932-2.262ZM27.1,0V-7.8h-1.95V0ZM33.1,0h2.184V-7.8H33.735v2.444c0,.91.117,2.444.247,3.536h-.091a29.73,29.73,0,0,0-1.131-3.2L31.486-7.8H29.2V0h1.547V-2.34c0-.949-.117-2.743-.221-3.887h.091c.325.962.793,2.34,1.131,3.133Zm4.264,0h5.876V-1.547H39.312V-3.172c1.183.091,2.379.143,3.588.117V-4.394H39.312V-6.357c1.313.078,2.613.1,3.926.1V-7.8H37.362ZM53.5,0V-2.236L56.316-7.8H54.132L52.65-3.835h-.234L51-7.8H48.724l2.821,5.564V0Zm6.981.182c2.444,0,3.458-1.586,3.458-4.368,0-2.886-1.235-3.8-3.263-3.8-2.444,0-3.445,1.586-3.445,4.368C57.226-.728,58.461.182,60.476.182Zm.195-1.638c-1.17,0-1.56-.845-1.56-2.405a7.929,7.929,0,0,1,.312-2.353,3.961,3.961,0,0,1,1.053-.143c1.118,0,1.56.858,1.56,2.405A7.5,7.5,0,0,1,61.711-1.6,3.41,3.41,0,0,1,60.671-1.456ZM71.8-2.769V-7.8H69.862v5.122a3.027,3.027,0,0,1-.195,1.118,2.234,2.234,0,0,1-.78.13c-1.248,0-1.443-.6-1.443-1.4V-7.8h-1.95V-2.8c0,2.262,1.144,2.964,3.159,2.964C70.694.169,71.8-.949,71.8-2.769Zm4.953-.923a10.42,10.42,0,0,1-1.144-.052V-6.227c.3-.013.611-.026.949-.026,1.079-.013,1.508.325,1.508,1.209a2.829,2.829,0,0,1-.325,1.3C77.272-3.705,77.012-3.692,76.752-3.692ZM76.83-2.34h.078L78.182,0h2.34L78.585-2.743A2.814,2.814,0,0,0,80-5.343c0-1.521-.923-2.457-2.99-2.457H73.658V0h1.95V-2.392C76.024-2.366,76.44-2.34,76.83-2.34Zm15,.078V-3.809h-3.9V-6.071h4.2V-7.8H85.982V0h1.95V-2.522A20.494,20.494,0,0,0,91.832-2.262Zm5.2-1.43a10.42,10.42,0,0,1-1.144-.052V-6.227c.3-.013.611-.026.949-.026,1.079-.013,1.508.325,1.508,1.209a2.829,2.829,0,0,1-.325,1.3C97.552-3.705,97.292-3.692,97.032-3.692ZM97.11-2.34h.078L98.462,0h2.34L98.865-2.743a2.814,2.814,0,0,0,1.417-2.6c0-1.521-.923-2.457-2.99-2.457H93.938V0h1.95V-2.392C96.3-2.366,96.72-2.34,97.11-2.34ZM102.1,0h5.876V-1.547h-3.926V-3.172c1.183.091,2.379.143,3.588.117V-4.394h-3.588V-6.357c1.313.078,2.613.1,3.926.1V-7.8H102.1Zm8.06,0h5.876V-1.547h-3.926V-3.172c1.183.091,2.379.143,3.588.117V-4.394h-3.588V-6.357c1.313.078,2.613.1,3.926.1V-7.8h-5.876Zm11.583-7.8v1.729h2.587V0h1.95V-6.292a17.03,17.03,0,0,0,2.626.221V-7.8ZM132.4,0V-7.8h-1.95V0Zm3.965-3.328c0-.949,0-2-.013-2.9h.156c.286.9.6,1.846.975,2.951l.988,2.535h1.807L141.3-3.224c.377-1.027.728-2.08,1-3h.182c-.039.9-.091,1.963-.091,2.9V0h1.976V-7.8H141.4l-1.118,3.016a22.386,22.386,0,0,0-.611,2.158h-.13c-.208-.793-.442-1.625-.611-2.093L137.761-7.8h-3.146V0h1.755ZM146.562,0h5.876V-1.547h-3.926V-3.172c1.183.091,2.379.143,3.588.117V-4.394h-3.588V-6.357c1.313.078,2.613.1,3.926.1V-7.8h-5.876Z" transform="translate(1440 453.852)" fill="#902800"/>
  </g>
</svg>
