<svg xmlns="http://www.w3.org/2000/svg" xmlns:xlink="http://www.w3.org/1999/xlink" viewBox="0 0 533 800"><defs><style>.cls-1,.cls-6{fill:none;}.cls-2{fill:#00ffbc;}.cls-3{fill:#fd00fb;}.cls-4{fill:#022118;}.cls-5{fill:#fff;}.cls-6{stroke:#fff;stroke-width:2.23px;}.cls-7{fill:#023223;}.cls-8{fill:#00e5a8;}.cls-9{fill:url(#New_Pattern_3);}.cls-10{fill:url(#New_Pattern_3-7);}</style><pattern id="New_Pattern_3" data-name="New Pattern 3" width="8" height="8" patternTransform="translate(37.18 -25.3) scale(0.59)" patternUnits="userSpaceOnUse" viewBox="0 0 8 8"><rect class="cls-1" width="8" height="8"/><circle class="cls-2" cx="8" cy="6" r="1.03"/><circle class="cls-2" cx="4" cy="8" r="1.03"/><circle class="cls-2" cy="6" r="1.03"/><circle class="cls-2" cx="8" cy="2" r="1.03"/><circle class="cls-2" cx="4" cy="4" r="1.03"/><circle class="cls-2" cy="2" r="1.03"/><circle class="cls-2" cx="4" r="1.03"/></pattern><pattern id="New_Pattern_3-7" data-name="New Pattern 3" width="8" height="8" patternTransform="translate(27.72 -24.03) scale(0.59)" patternUnits="userSpaceOnUse" viewBox="0 0 8 8"><rect class="cls-1" width="8" height="8"/><circle class="cls-2" cx="8" cy="6" r="1.03"/><circle class="cls-2" cx="4" cy="8" r="1.03"/><circle class="cls-2" cy="6" r="1.03"/><circle class="cls-2" cx="8" cy="2" r="1.03"/><circle class="cls-2" cx="4" cy="4" r="1.03"/><circle class="cls-2" cy="2" r="1.03"/><circle class="cls-2" cx="4" r="1.03"/></pattern></defs><g id="embeded"><polygon class="cls-3" points="229.15 190.28 235.21 189.19 235.18 180.94 242.06 180.77 242.07 174.19 272.55 174.22 272.71 181.63 279.9 181.64 280.08 211.18 287.37 208.44 301.28 230.98 270.59 253.29 231.49 253.58 229.15 190.28"/><path class="cls-4" d="M250.43,182.56h13.94l0,1.72.13,5.68h7.06v1.75l.18,31.49,10.73-4,1.36-.52.76,1.24,4.6,7.45.86,1.39-1.32,1L268.3,244.61l-.45.34h-.57l-26,.19h-1.71l-.07-1.71-1.65-44.68-.06-1.53,1.51-.27,4.3-.77V189.1l1.73,0,5.12-.13v-6.36m-16.71-16.75v6.8l-6.91.17,0,9.42-6.3,1.13.54,14.52.06,1.53,1.65,44.68.07,1.71.6,16.23,16.24-.12h1.71l26-.19H268l5.37,0,4.35-3.16.45-.33,20.47-14.88,1.32-1,12.55-9.13L304.33,220l-.86-1.39-4.6-7.45-.76-1.23-7.24-11.72-2.5.94,0-7.49v-1.75l-.1-16.6-7.32,0-.17-7.4-16.34,0h-1.73l-10.45,0h-1.76l-16.73,0Z"/><path class="cls-5" d="M250.43,182.56h13.94l0,1.72.13,5.68h7.06v1.75l.18,31.49,10.73-4,1.36-.52.76,1.24,4.6,7.45.86,1.39-1.32,1L268.3,244.61l-.45.34h-.57l-26,.19h-1.71l-.07-1.71-1.65-44.68-.06-1.53,1.51-.27,4.3-.77V189.1l1.73,0,5.12-.13v-6.36m-11.8-11.82v6.67l-6.89.17,0,8.73-6.15,1.11.38,10.25.06,1.53,1.65,44.68.06,1.71.43,11.46,11.46-.09h1.71l26-.19h.56l3.79,0,3.07-2.23.46-.33,20.46-14.88,1.33-1,8.85-6.44-5.75-9.32-.86-1.39-4.6-7.45-.76-1.24-5.11-8.27-5.32,2-.08-14.55v-1.75l-.07-11.72h-7.25l-.16-7.41H238.63Z"/><path class="cls-2" d="M250.43,182.56h13.94l0,1.72.13,5.68h7.06v1.75l.18,31.49,10.73-4,1.36-.52.76,1.24,4.6,7.45.86,1.39-1.32,1L268.3,244.61l-.45.34h-.57l-26,.19h-1.71l-.07-1.71-1.65-44.68-.06-1.53,1.51-.27,4.3-.77V189.1l1.73,0,5.12-.13v-6.36m-6.88-6.89v6.54h-.14l-6.74.17,0,6.73v1.32l-.12,0-5.89,1.06.22,6,0,1.53,1.66,44.68.06,1.71.25,6.68,6.69-.05h1.71l26-.19h.57l2.21,0,1.79-1.3.46-.33,20.46-14.88,1.32-1,5.17-3.76L296,225.15l-.86-1.39-4.6-7.45-.76-1.23-3-4.83-5.3,2-1.36.51-1.47.55-.13-21.61V190l0-6.84h-7.17l0-.67-.14-6.73H243.55Z"/><polygon class="cls-6" points="250.43 182.56 250.42 184.33 250.42 188.92 245.3 189.05 243.57 189.1 243.58 190.82 243.59 196.19 239.29 196.96 237.78 197.23 237.84 198.76 239.49 243.44 239.56 245.15 241.27 245.14 267.28 244.95 267.85 244.95 268.3 244.61 288.77 229.74 290.09 228.77 289.23 227.38 284.63 219.93 283.87 218.69 282.51 219.21 271.79 223.23 271.6 191.74 271.59 189.99 269.83 189.99 264.53 189.98 264.4 184.3 264.37 182.58 262.64 182.58 252.19 182.56 250.43 182.56 250.43 182.56"/><path class="cls-3" d="M110.4,355c-1.05.21-1.58-.26-1.73-1.31a4.26,4.26,0,0,0-4.56-3.51c-2,0-3.3,1.2-3.09,2.41.73,4.09,17.29,4,17.29,16,0,1.57-1.78,10.84-14.2,10.84-11,0-13.37-7.23-13.63-11.32a1.54,1.54,0,0,1,1.36-1.73l5.93-1.31c1-.21,1.62.27,1.73,1.37a4.29,4.29,0,0,0,4.61,4c2.57,0,4.45-1.52,4.14-2.94-1-4.45-16.77-3.46-16.77-15.51-.06-1.57.89-10.85,12.63-10.85,10.79,0,13.31,7,13.63,10.8a1.54,1.54,0,0,1-1.37,1.73Z"/><path class="cls-3" d="M137.13,342a1.6,1.6,0,0,1,1.67,1.41l3.72,15.26c.11.52.53.52.63,0l3.73-15.26a1.59,1.59,0,0,1,1.67-1.41H159.4a1.39,1.39,0,0,1,1.57,1.57v33.55a1.41,1.41,0,0,1-1.57,1.57h-5.87a1.44,1.44,0,0,1-1.57-1.57V356.49a.29.29,0,0,0-.58-.06l-5.08,20.92a1.62,1.62,0,0,1-1.73,1.36h-3.46a1.62,1.62,0,0,1-1.73-1.36l-5.08-20.92a.29.29,0,0,0-.58.06v20.65a1.41,1.41,0,0,1-1.57,1.57h-5.87a1.42,1.42,0,0,1-1.58-1.57V343.59a1.39,1.39,0,0,1,1.58-1.57Z"/><path class="cls-3" d="M194.25,376.93c0,1.15-.52,1.78-1.57,1.78h-5.87a1.41,1.41,0,0,1-1.57-1.57v-4.56a1.39,1.39,0,0,0-1.57-1.58h-4.51a1.41,1.41,0,0,0-1.57,1.58v4.56a1.39,1.39,0,0,1-1.57,1.57h-5.87c-1,0-1.58-.63-1.58-1.78V354.7c0-6.6,1.05-13.62,12.84-13.62s12.84,7,12.84,13.62Zm-9-22.23c0-2.51-.37-3.77-3.83-3.77s-3.82,1.26-3.82,3.77v5.72a1.43,1.43,0,0,0,1.57,1.57h4.51a1.45,1.45,0,0,0,1.57-1.63Z"/><path class="cls-3" d="M209.3,342a1.39,1.39,0,0,1,1.57,1.57v24.53a1.43,1.43,0,0,0,1.57,1.57h11.69a1.39,1.39,0,0,1,1.57,1.58v5.87a1.39,1.39,0,0,1-1.57,1.57h-20.7a1.44,1.44,0,0,1-1.58-1.57V343.59a1.41,1.41,0,0,1,1.58-1.57Z"/><path class="cls-3" d="M239.17,342a1.39,1.39,0,0,1,1.57,1.57v24.53a1.43,1.43,0,0,0,1.57,1.57H254a1.4,1.4,0,0,1,1.58,1.58v5.87a1.39,1.39,0,0,1-1.58,1.57H233.3a1.43,1.43,0,0,1-1.57-1.57V343.59A1.41,1.41,0,0,1,233.3,342Z"/><path class="cls-7" d="M287.23,342a1.43,1.43,0,0,1,1.57,1.57V356.7a1.44,1.44,0,0,0,1.58,1.57h5A1.41,1.41,0,0,0,297,356.7V343.59a1.44,1.44,0,0,1,1.57-1.57h5.87a1.39,1.39,0,0,1,1.57,1.57v33.55a1.41,1.41,0,0,1-1.57,1.57h-5.87a1.44,1.44,0,0,1-1.57-1.57v-8.28a1.4,1.4,0,0,0-1.57-1.58h-5a1.42,1.42,0,0,0-1.58,1.58v8.28a1.41,1.41,0,0,1-1.57,1.57h-5.87a1.43,1.43,0,0,1-1.57-1.57V343.59a1.39,1.39,0,0,1,1.57-1.57Z"/><path class="cls-7" d="M339.28,376.93c0,1.15-.53,1.78-1.58,1.78h-5.87a1.41,1.41,0,0,1-1.57-1.57v-4.56a1.39,1.39,0,0,0-1.57-1.58h-4.51a1.41,1.41,0,0,0-1.57,1.58v4.56a1.39,1.39,0,0,1-1.57,1.57h-5.87c-1,0-1.58-.63-1.58-1.78V354.7c0-6.6,1.05-13.62,12.84-13.62s12.85,7,12.85,13.62Zm-9-22.23c0-2.51-.37-3.77-3.83-3.77s-3.82,1.26-3.82,3.77v5.72a1.43,1.43,0,0,0,1.57,1.57h4.51a1.45,1.45,0,0,0,1.57-1.63Z"/><path class="cls-7" d="M356.15,342a1.81,1.81,0,0,1,1.83,1.2l7.13,17.46c.21.47.63.37.63-.16V343.59a1.41,1.41,0,0,1,1.57-1.57h5.87a1.39,1.39,0,0,1,1.58,1.57v33.55a1.42,1.42,0,0,1-1.58,1.57h-7.7a1.8,1.8,0,0,1-1.83-1.21l-7.13-17.45c-.21-.47-.63-.37-.63.16v16.93a1.41,1.41,0,0,1-1.57,1.57h-5.87a1.44,1.44,0,0,1-1.58-1.57V343.59a1.41,1.41,0,0,1,1.58-1.57Z"/><path class="cls-7" d="M395.88,342c9.85,0,13.1,4,13.1,12.58v11.48c0,8.59-3.25,12.63-13.1,12.63H384.19a1.43,1.43,0,0,1-1.57-1.57V343.65a1.45,1.45,0,0,1,1.57-1.63Zm.16,27.67c2.51,0,3.77-.42,3.77-3.56V354.6c0-3.25-1.26-3.57-3.77-3.57h-2.83a1.42,1.42,0,0,0-1.58,1.58v15.51a1.43,1.43,0,0,0,1.58,1.57Z"/><path class="cls-7" d="M434.61,355c-1.05.21-1.57-.26-1.73-1.31a4.26,4.26,0,0,0-4.56-3.51c-2,0-3.3,1.2-3.09,2.41.73,4.09,17.29,4,17.29,16,0,1.57-1.78,10.84-14.2,10.84-11,0-13.37-7.23-13.63-11.32a1.54,1.54,0,0,1,1.36-1.73l5.93-1.31c1-.21,1.62.27,1.73,1.37a4.3,4.3,0,0,0,4.61,4c2.57,0,4.46-1.52,4.14-2.94-1-4.45-16.77-3.46-16.77-15.51-.05-1.57.89-10.85,12.63-10.85,10.8,0,13.31,7,13.63,10.8a1.54,1.54,0,0,1-1.37,1.73Z"/><path class="cls-8" d="M201.85,393.07a1.21,1.21,0,0,1,1.21-1.21h23.2c6.06,0,10.29,3.17,10.29,8.85v6.7c0,2.52-.65,4.26-1.89,5.37a1.16,1.16,0,0,0,.07,1.77c1.34,1.1,2.14,2.82,2.14,5.74v7.52c0,5.62-4.23,8.64-10.36,8.64H203.06a1.2,1.2,0,0,1-1.21-1.2Zm24.09,17.68c1.2,0,2.9-.19,2.9-2.15v-7.07c0-1.9-1.57-2.15-2.9-2.15H210.82a1.21,1.21,0,0,0-1.2,1.21v9a1.2,1.2,0,0,0,1.2,1.2Zm.32,18.25c1.2,0,2.9-.19,2.9-2.14V419c0-2-1.58-2.21-2.9-2.21H210.82a1.2,1.2,0,0,0-1.2,1.2v9.85a1.2,1.2,0,0,0,1.2,1.2Z"/><path class="cls-8" d="M246,391.86h5.36a1.21,1.21,0,0,1,1.2,1.21v42.18a1.2,1.2,0,0,1-1.2,1.2H246a1.2,1.2,0,0,1-1.21-1.2V393.07A1.21,1.21,0,0,1,246,391.86Z"/><path class="cls-8" d="M260.55,426.22v-24c0-6.38,4.23-10.79,10.29-10.79a10,10,0,0,1,10.26,9.09,1.22,1.22,0,0,1-1.2,1.39h-5.37a1.23,1.23,0,0,1-1.18-1,2.2,2.2,0,0,0-2.51-1.94c-1.19,0-2.52.32-2.52,3v24.57c0,2.65,1.45,3,2.52,3s2.59-.32,2.59-3v-4.4a1.2,1.2,0,0,0-1.2-1.2h-.12a1.21,1.21,0,0,1-1.2-1.21v-3.61a1.2,1.2,0,0,1,1.2-1.2h10.18a1.2,1.2,0,0,1,1.2,1.16l.12,3.62a1.2,1.2,0,0,1-1.2,1.24h0a1.21,1.21,0,0,0-1.21,1.2v4.14c0,6.32-4.23,10.74-10.36,10.74S260.55,432.54,260.55,426.22Z"/><path class="cls-7" d="M294.54,392.64a.58.58,0,0,1,.58-.58H304c5.8,0,9.83,3.84,9.83,10.77v11.4c0,6.92-4,10.64-9.83,10.64h-2.69a.58.58,0,0,0-.58.58v10.42a.58.58,0,0,1-.59.59h-5a.58.58,0,0,1-.58-.59ZM303.23,419c2.26,0,4.53-.94,4.53-4.91V402.89c0-4-2.2-4.91-4.53-4.91h-1.94a.58.58,0,0,0-.58.58v19.87a.58.58,0,0,0,.58.58Z"/><path class="cls-7" d="M320.49,392.06h5a.58.58,0,0,1,.58.58v17.92a.58.58,0,0,0,.58.58h5.89a.59.59,0,0,0,.59-.58V392.64a.58.58,0,0,1,.58-.58h4.94a.58.58,0,0,1,.58.58v43.23a.58.58,0,0,1-.58.59h-4.94a.58.58,0,0,1-.58-.59V417.14a.59.59,0,0,0-.59-.58h-5.89a.58.58,0,0,0-.58.58v18.73a.58.58,0,0,1-.58.59h-5a.58.58,0,0,1-.58-.59V392.64A.58.58,0,0,1,320.49,392.06Z"/><path class="cls-7" d="M346.67,426.7V402c0-6.05,4-10.27,9.89-10.27s9.89,4.22,9.89,10.27V426.7c0,6-4.1,10.2-9.89,10.2S346.67,432.68,346.67,426.7Zm13.6.19v-25.2c0-3.08-1.76-4.09-3.71-4.09s-3.78,1-3.78,4.09v25.2c0,3.08,1.83,4.09,3.78,4.09S360.27,430,360.27,426.89Z"/><path class="cls-7" d="M374.46,392.06h4.71a.59.59,0,0,1,.56.42l6.67,22.44a.58.58,0,0,0,1.14-.17V392.64a.58.58,0,0,1,.58-.58h5a.58.58,0,0,1,.58.58v43.23a.58.58,0,0,1-.58.59h-4.78a.58.58,0,0,1-.56-.42l-6.67-22a.58.58,0,0,0-1.14.17v21.62a.58.58,0,0,1-.58.59h-4.94a.58.58,0,0,1-.59-.59V392.64A.58.58,0,0,1,374.46,392.06Z"/><path class="cls-7" d="M402.1,392.06h15.39a.58.58,0,0,1,.59.58v4.76a.58.58,0,0,1-.59.58h-9.28a.58.58,0,0,0-.59.58v12a.58.58,0,0,0,.59.58h6.64a.58.58,0,0,1,.58.58V416a.58.58,0,0,1-.58.59h-6.64a.58.58,0,0,0-.59.58V430a.58.58,0,0,0,.59.58h9.28a.58.58,0,0,1,.59.58v4.75a.58.58,0,0,1-.59.59H402.1a.58.58,0,0,1-.59-.59V392.64A.58.58,0,0,1,402.1,392.06Z"/><path class="cls-7" d="M422.52,426.7h5a.58.58,0,0,1,.57.56,3.69,3.69,0,0,0,4,3.72,3.47,3.47,0,0,0,3.72-3.59c0-1.7-.44-3-2.2-5.61l-7.94-11.71a19.28,19.28,0,0,1-3-6.05c-1.66-6.68,4-13.26,10.86-12.29,4.49.64,7.73,4,8,9.22a.61.61,0,0,1-.6.62h-4.82a.58.58,0,0,1-.57-.56,3.52,3.52,0,0,0-3.63-3.6,3.18,3.18,0,0,0-3.41,3.28,9.18,9.18,0,0,0,2,5.29l7.93,11.65c2.9,4.28,3.53,6.8,3.53,9.95,0,5.67-4,9.38-9.89,9.38-5.67,0-9.8-3.65-10.06-9.65A.59.59,0,0,1,422.52,426.7Z"/><path class="cls-7" d="M98.53,401.16h3a.43.43,0,0,1,.41.35l4.6,24.58a.42.42,0,0,1-.41.49h-2.68a.43.43,0,0,1-.41-.35l-.71-4.27a.42.42,0,0,0-.41-.35H98.11a.43.43,0,0,0-.42.35L97,426.24a.41.41,0,0,1-.41.34H93.87a.42.42,0,0,1-.41-.49l4.66-24.59A.43.43,0,0,1,98.53,401.16Zm3.25,16.95-1.31-8.18a.42.42,0,0,0-.83,0l-1.34,8.18a.42.42,0,0,0,.41.48h2.66A.41.41,0,0,0,101.78,418.11Z"/><path class="cls-7" d="M110,421V406.85c0-3.49,2.3-5.9,5.62-5.9a5.49,5.49,0,0,1,5.63,5.3.43.43,0,0,1-.43.46h-2.65a.42.42,0,0,1-.41-.4,2,2,0,0,0-2.14-1.94c-1.12,0-2.13.57-2.13,2.34v14.4c0,1.87,1.15,2.38,2.13,2.38s2.16-.58,2.16-2.38v-3.46h-2.16V415a.41.41,0,0,1,.41-.42h4.82a.42.42,0,0,1,.42.42v6A5.64,5.64,0,1,1,110,421Z"/><path class="cls-7" d="M129.53,401.16h3a.43.43,0,0,1,.41.35l4.59,24.58a.41.41,0,0,1-.41.49h-2.67a.42.42,0,0,1-.41-.35l-.71-4.27a.43.43,0,0,0-.42-.35H129.1a.43.43,0,0,0-.41.35l-.74,4.28a.42.42,0,0,1-.41.34h-2.68a.42.42,0,0,1-.41-.49l4.67-24.59A.43.43,0,0,1,129.53,401.16Zm3.25,16.95-1.32-8.18a.41.41,0,0,0-.82,0l-1.34,8.18a.41.41,0,0,0,.41.48h2.66A.42.42,0,0,0,132.78,418.11Z"/><path class="cls-7" d="M141.81,401.2h2.65a.42.42,0,0,1,.42.42v24.55a.41.41,0,0,1-.42.41h-2.65a.41.41,0,0,1-.42-.41V401.62A.42.42,0,0,1,141.81,401.2Z"/><path class="cls-7" d="M150.7,401.2h2.55a.43.43,0,0,1,.4.3L158,416.14a0,0,0,0,0,.09,0V401.62a.42.42,0,0,1,.42-.42h2.69a.42.42,0,0,1,.42.42v24.55a.41.41,0,0,1-.42.41h-2.58a.42.42,0,0,1-.4-.29L153.87,412s-.1,0-.1,0v14.2a.41.41,0,0,1-.41.41H150.7a.41.41,0,0,1-.42-.41V401.62A.42.42,0,0,1,150.7,401.2Z"/><path class="cls-7" d="M166.09,421h2.67a.41.41,0,0,1,.4.4,2.1,2.1,0,0,0,2.29,2.05,2,2,0,0,0,2.13-2.05c0-1-.26-1.69-1.26-3.21l-4.54-6.69a11.38,11.38,0,0,1-1.61-3.14,5.75,5.75,0,0,1,6.49-7.28,5.2,5.2,0,0,1,4.18,5.11.44.44,0,0,1-.43.45h-2.59a.42.42,0,0,1-.41-.4,2,2,0,0,0-2.07-2,1.81,1.81,0,0,0-1.94,1.87,5.29,5.29,0,0,0,1.11,3l4.54,6.66c1.66,2.44,2,3.89,2,5.69,0,3.24-2.31,5.36-5.66,5.36a5.45,5.45,0,0,1-5.74-5.42A.43.43,0,0,1,166.09,421Z"/><path class="cls-7" d="M182.45,404.58h-2.52a.41.41,0,0,1-.42-.41v-2.55a.42.42,0,0,1,.42-.42h9.43a.41.41,0,0,1,.41.42v2.55a.41.41,0,0,1-.41.41h-2.55a.42.42,0,0,0-.42.42v21.17a.41.41,0,0,1-.42.41h-2.69a.41.41,0,0,1-.42-.41V405A.41.41,0,0,0,182.45,404.58Z"/><rect class="cls-7" x="91.52" y="391.39" width="100.09" height="3.11" rx="0.19"/><rect class="cls-7" x="91.52" y="433.31" width="100.09" height="3.11" rx="0.19"/><path class="cls-5" d="M460.46,326V452H72.54V326H460.46m5-5H67.5V457.08h398V321Z"/><path class="cls-9" d="M201.85,393.07a1.21,1.21,0,0,1,1.21-1.21h23.2c6.06,0,10.29,3.17,10.29,8.85v6.7c0,2.52-.65,4.26-1.89,5.37a1.16,1.16,0,0,0,.07,1.77c1.34,1.1,2.14,2.82,2.14,5.74v7.52c0,5.62-4.23,8.64-10.36,8.64H203.06a1.2,1.2,0,0,1-1.21-1.2Zm24.09,17.68c1.2,0,2.9-.19,2.9-2.15v-7.07c0-1.9-1.57-2.15-2.9-2.15H210.82a1.21,1.21,0,0,0-1.2,1.21v9a1.2,1.2,0,0,0,1.2,1.2Zm.32,18.25c1.2,0,2.9-.19,2.9-2.14V419c0-2-1.58-2.21-2.9-2.21H210.82a1.2,1.2,0,0,0-1.2,1.2v9.85a1.2,1.2,0,0,0,1.2,1.2Z"/><path class="cls-9" d="M246,391.86h5.36a1.21,1.21,0,0,1,1.2,1.21v42.18a1.2,1.2,0,0,1-1.2,1.2H246a1.2,1.2,0,0,1-1.21-1.2V393.07A1.21,1.21,0,0,1,246,391.86Z"/><path class="cls-9" d="M260.55,426.22v-24c0-6.38,4.23-10.79,10.29-10.79a10,10,0,0,1,10.26,9.09,1.22,1.22,0,0,1-1.2,1.39h-5.37a1.23,1.23,0,0,1-1.18-1,2.2,2.2,0,0,0-2.51-1.94c-1.19,0-2.52.32-2.52,3v24.57c0,2.65,1.45,3,2.52,3s2.59-.32,2.59-3v-4.4a1.2,1.2,0,0,0-1.2-1.2h-.12a1.21,1.21,0,0,1-1.2-1.21v-3.61a1.2,1.2,0,0,1,1.2-1.2h10.18a1.2,1.2,0,0,1,1.2,1.16l.12,3.62a1.2,1.2,0,0,1-1.2,1.24h0a1.21,1.21,0,0,0-1.21,1.2v4.14c0,6.32-4.23,10.74-10.36,10.74S260.55,432.54,260.55,426.22Z"/><rect class="cls-7" x="72.54" y="508.15" width="387.91" height="126.04" rx="5.32"/><path class="cls-3" d="M110.4,537.17c-1.05.21-1.58-.26-1.73-1.31a4.26,4.26,0,0,0-4.56-3.51c-2,0-3.3,1.2-3.09,2.41.73,4.09,17.29,4,17.29,16,0,1.57-1.78,10.85-14.2,10.85-11,0-13.37-7.24-13.63-11.32a1.53,1.53,0,0,1,1.36-1.73l5.93-1.32c1-.21,1.62.27,1.73,1.37a4.29,4.29,0,0,0,4.61,4c2.57,0,4.45-1.52,4.14-2.93-1-4.46-16.77-3.46-16.77-15.52-.06-1.57.89-10.85,12.63-10.85,10.79,0,13.31,7,13.63,10.8a1.54,1.54,0,0,1-1.37,1.73Z"/><path class="cls-3" d="M137.13,524.17a1.6,1.6,0,0,1,1.67,1.42l3.72,15.25c.11.52.53.52.63,0l3.73-15.25a1.59,1.59,0,0,1,1.67-1.42H159.4a1.39,1.39,0,0,1,1.57,1.57v33.55a1.41,1.41,0,0,1-1.57,1.57h-5.87a1.44,1.44,0,0,1-1.57-1.57V538.64c0-.37-.47-.42-.58,0L146.3,559.5a1.62,1.62,0,0,1-1.73,1.36h-3.46a1.62,1.62,0,0,1-1.73-1.36l-5.08-20.91c-.11-.37-.58-.32-.58,0v20.65a1.41,1.41,0,0,1-1.57,1.57h-5.87a1.42,1.42,0,0,1-1.58-1.57V525.74a1.39,1.39,0,0,1,1.58-1.57Z"/><path class="cls-3" d="M194.25,559.08c0,1.15-.52,1.78-1.57,1.78h-5.87a1.41,1.41,0,0,1-1.57-1.57v-4.56a1.39,1.39,0,0,0-1.57-1.58h-4.51a1.41,1.41,0,0,0-1.57,1.58v4.56a1.39,1.39,0,0,1-1.57,1.57h-5.87c-1,0-1.58-.63-1.58-1.78V536.86c0-6.61,1.05-13.63,12.84-13.63s12.84,7,12.84,13.63Zm-9-22.22c0-2.52-.37-3.78-3.83-3.78s-3.82,1.26-3.82,3.78v5.71a1.43,1.43,0,0,0,1.57,1.57h4.51a1.45,1.45,0,0,0,1.57-1.62Z"/><path class="cls-3" d="M209.3,524.17a1.39,1.39,0,0,1,1.57,1.57v24.53a1.43,1.43,0,0,0,1.57,1.58h11.69a1.39,1.39,0,0,1,1.57,1.57v5.87a1.39,1.39,0,0,1-1.57,1.57h-20.7a1.44,1.44,0,0,1-1.58-1.57V525.74a1.41,1.41,0,0,1,1.58-1.57Z"/><path class="cls-3" d="M239.17,524.17a1.39,1.39,0,0,1,1.57,1.57v24.53a1.44,1.44,0,0,0,1.57,1.58H254a1.39,1.39,0,0,1,1.58,1.57v5.87a1.39,1.39,0,0,1-1.58,1.57H233.3a1.43,1.43,0,0,1-1.57-1.57V525.74a1.41,1.41,0,0,1,1.57-1.57Z"/><path class="cls-5" d="M287.23,524.17a1.43,1.43,0,0,1,1.57,1.57v13.11a1.44,1.44,0,0,0,1.58,1.57h5a1.41,1.41,0,0,0,1.57-1.57V525.74a1.44,1.44,0,0,1,1.57-1.57h5.87a1.39,1.39,0,0,1,1.57,1.57v33.55a1.41,1.41,0,0,1-1.57,1.57h-5.87a1.44,1.44,0,0,1-1.57-1.57V551a1.4,1.4,0,0,0-1.57-1.58h-5A1.42,1.42,0,0,0,288.8,551v8.28a1.41,1.41,0,0,1-1.57,1.57h-5.87a1.43,1.43,0,0,1-1.57-1.57V525.74a1.39,1.39,0,0,1,1.57-1.57Z"/><path class="cls-5" d="M339.28,559.08c0,1.15-.53,1.78-1.58,1.78h-5.87a1.41,1.41,0,0,1-1.57-1.57v-4.56a1.39,1.39,0,0,0-1.57-1.58h-4.51a1.41,1.41,0,0,0-1.57,1.58v4.56a1.39,1.39,0,0,1-1.57,1.57h-5.87c-1,0-1.58-.63-1.58-1.78V536.86c0-6.61,1.05-13.63,12.84-13.63s12.85,7,12.85,13.63Zm-9-22.22c0-2.52-.37-3.78-3.83-3.78s-3.82,1.26-3.82,3.78v5.71a1.43,1.43,0,0,0,1.57,1.57h4.51a1.45,1.45,0,0,0,1.57-1.62Z"/><path class="cls-5" d="M356.15,524.17a1.8,1.8,0,0,1,1.83,1.21l7.13,17.45c.21.47.63.37.63-.16V525.74a1.41,1.41,0,0,1,1.57-1.57h5.87a1.39,1.39,0,0,1,1.58,1.57v33.55a1.42,1.42,0,0,1-1.58,1.57h-7.7a1.8,1.8,0,0,1-1.83-1.21l-7.13-17.45c-.21-.47-.63-.37-.63.16v16.93a1.41,1.41,0,0,1-1.57,1.57h-5.87a1.44,1.44,0,0,1-1.58-1.57V525.74a1.41,1.41,0,0,1,1.58-1.57Z"/><path class="cls-5" d="M395.88,524.17c9.85,0,13.1,4,13.1,12.58v11.48c0,8.59-3.25,12.63-13.1,12.63H384.19a1.43,1.43,0,0,1-1.57-1.57V525.8a1.45,1.45,0,0,1,1.57-1.63Zm.16,27.68c2.51,0,3.77-.42,3.77-3.57V536.75c0-3.25-1.26-3.56-3.77-3.56h-2.83a1.41,1.41,0,0,0-1.58,1.57v15.51a1.44,1.44,0,0,0,1.58,1.58Z"/><path class="cls-5" d="M434.61,537.17c-1.05.21-1.57-.26-1.73-1.31a4.26,4.26,0,0,0-4.56-3.51c-2,0-3.3,1.2-3.09,2.41.73,4.09,17.29,4,17.29,16,0,1.57-1.78,10.85-14.2,10.85-11,0-13.37-7.24-13.63-11.32a1.53,1.53,0,0,1,1.36-1.73l5.93-1.32c1-.21,1.62.27,1.73,1.37a4.3,4.3,0,0,0,4.61,4c2.57,0,4.46-1.52,4.14-2.93-1-4.46-16.77-3.46-16.77-15.52-.05-1.57.89-10.85,12.63-10.85,10.8,0,13.31,7,13.63,10.8a1.54,1.54,0,0,1-1.37,1.73Z"/><path class="cls-5" d="M98.53,583.32h3a.42.42,0,0,1,.41.34l4.6,24.58a.42.42,0,0,1-.41.49h-2.68a.42.42,0,0,1-.41-.35l-.71-4.27a.42.42,0,0,0-.41-.35H98.11a.43.43,0,0,0-.42.35L97,608.39a.41.41,0,0,1-.41.34H93.87a.41.41,0,0,1-.41-.49l4.66-24.58A.42.42,0,0,1,98.53,583.32Zm3.25,16.94-1.31-8.18a.42.42,0,0,0-.83,0l-1.34,8.18a.42.42,0,0,0,.41.48h2.66A.41.41,0,0,0,101.78,600.26Z"/><path class="cls-5" d="M110,603.15V589c0-3.49,2.3-5.9,5.62-5.9a5.49,5.49,0,0,1,5.63,5.3.43.43,0,0,1-.43.46h-2.65a.42.42,0,0,1-.41-.4,2,2,0,0,0-2.14-1.94c-1.12,0-2.13.58-2.13,2.34v14.4c0,1.87,1.15,2.38,2.13,2.38s2.16-.58,2.16-2.38V599.8h-2.16v-2.64a.41.41,0,0,1,.41-.42h4.82a.42.42,0,0,1,.42.42v6a5.64,5.64,0,1,1-11.27,0Z"/><path class="cls-5" d="M129.53,583.32h3a.42.42,0,0,1,.41.34l4.59,24.58a.41.41,0,0,1-.41.49h-2.67a.41.41,0,0,1-.41-.35l-.71-4.27a.43.43,0,0,0-.42-.35H129.1a.43.43,0,0,0-.41.35l-.74,4.28a.42.42,0,0,1-.41.34h-2.68a.42.42,0,0,1-.41-.49l4.67-24.58A.42.42,0,0,1,129.53,583.32Zm3.25,16.94-1.32-8.18a.41.41,0,0,0-.82,0l-1.34,8.18a.41.41,0,0,0,.41.48h2.66A.42.42,0,0,0,132.78,600.26Z"/><path class="cls-5" d="M141.81,583.35h2.65a.42.42,0,0,1,.42.42v24.55a.41.41,0,0,1-.42.41h-2.65a.41.41,0,0,1-.42-.41V583.77A.42.42,0,0,1,141.81,583.35Z"/><path class="cls-5" d="M150.7,583.35h2.55a.43.43,0,0,1,.4.3L158,598.29a0,0,0,0,0,.09,0V583.77a.42.42,0,0,1,.42-.42h2.69a.42.42,0,0,1,.42.42v24.55a.41.41,0,0,1-.42.41h-2.58a.42.42,0,0,1-.4-.29l-4.35-14.33a.05.05,0,0,0-.1,0v14.19a.41.41,0,0,1-.41.41H150.7a.41.41,0,0,1-.42-.41V583.77A.42.42,0,0,1,150.7,583.35Z"/><path class="cls-5" d="M166.09,603.15h2.67a.41.41,0,0,1,.4.4,2.1,2.1,0,0,0,2.29,2.05,2,2,0,0,0,2.13-2.05,5.38,5.38,0,0,0-1.26-3.21l-4.54-6.69a11.49,11.49,0,0,1-1.61-3.13,5.76,5.76,0,0,1,6.49-7.29,5.2,5.2,0,0,1,4.18,5.11.44.44,0,0,1-.43.45h-2.59a.42.42,0,0,1-.41-.4,2,2,0,0,0-2.07-2,1.81,1.81,0,0,0-1.94,1.87,5.29,5.29,0,0,0,1.11,3l4.54,6.66c1.66,2.45,2,3.89,2,5.69,0,3.24-2.31,5.36-5.66,5.36a5.45,5.45,0,0,1-5.74-5.42A.43.43,0,0,1,166.09,603.15Z"/><path class="cls-5" d="M182.45,586.74h-2.52a.42.42,0,0,1-.42-.42v-2.55a.42.42,0,0,1,.42-.42h9.43a.41.41,0,0,1,.41.42v2.55a.41.41,0,0,1-.41.42h-2.55a.41.41,0,0,0-.42.41v21.17a.41.41,0,0,1-.42.41h-2.69a.41.41,0,0,1-.42-.41V587.15A.41.41,0,0,0,182.45,586.74Z"/><path class="cls-8" d="M201.85,575.22a1.2,1.2,0,0,1,1.21-1.2h23.2c6.06,0,10.29,3.16,10.29,8.84v6.7c0,2.53-.65,4.26-1.89,5.37a1.16,1.16,0,0,0,.07,1.77c1.34,1.1,2.14,2.82,2.14,5.74V610c0,5.62-4.23,8.65-10.36,8.65H203.06a1.21,1.21,0,0,1-1.21-1.21Zm24.09,17.68c1.2,0,2.9-.19,2.9-2.15v-7.07c0-1.9-1.57-2.14-2.9-2.14H210.82a1.2,1.2,0,0,0-1.2,1.2v9a1.2,1.2,0,0,0,1.2,1.2Zm.32,18.26c1.2,0,2.9-.19,2.9-2.15v-7.9c0-2-1.58-2.21-2.9-2.21H210.82a1.21,1.21,0,0,0-1.2,1.21V610a1.21,1.21,0,0,0,1.2,1.21Z"/><path class="cls-8" d="M246,574h5.36a1.2,1.2,0,0,1,1.2,1.2V617.4a1.21,1.21,0,0,1-1.2,1.21H246a1.21,1.21,0,0,1-1.21-1.21V575.22A1.2,1.2,0,0,1,246,574Z"/><path class="cls-8" d="M260.55,608.37v-24c0-6.38,4.23-10.79,10.29-10.79a10,10,0,0,1,10.26,9.09,1.22,1.22,0,0,1-1.2,1.39h-5.37a1.23,1.23,0,0,1-1.18-1,2.2,2.2,0,0,0-2.51-1.94c-1.19,0-2.52.32-2.52,3v24.57c0,2.65,1.45,3,2.52,3s2.59-.32,2.59-3v-4.4a1.2,1.2,0,0,0-1.2-1.2h-.12a1.2,1.2,0,0,1-1.2-1.2v-3.62a1.2,1.2,0,0,1,1.2-1.2h10.18a1.2,1.2,0,0,1,1.2,1.16l.12,3.62a1.2,1.2,0,0,1-1.2,1.24h0a1.21,1.21,0,0,0-1.21,1.2v4.14c0,6.32-4.23,10.74-10.36,10.74S260.55,614.69,260.55,608.37Z"/><path class="cls-5" d="M294.54,574.79a.58.58,0,0,1,.58-.58H304c5.8,0,9.83,3.84,9.83,10.77v11.4c0,6.93-4,10.64-9.83,10.64h-2.69a.58.58,0,0,0-.58.58V618a.58.58,0,0,1-.59.58h-5a.58.58,0,0,1-.58-.58Zm8.69,26.37c2.26,0,4.53-.94,4.53-4.91V585c0-4-2.2-4.91-4.53-4.91h-1.94a.58.58,0,0,0-.58.58v19.87a.58.58,0,0,0,.58.58Z"/><path class="cls-5" d="M320.49,574.21h5a.58.58,0,0,1,.58.58v17.92a.58.58,0,0,0,.58.58h5.89a.59.59,0,0,0,.59-.58V574.79a.58.58,0,0,1,.58-.58h4.94a.58.58,0,0,1,.58.58V618a.58.58,0,0,1-.58.58h-4.94a.58.58,0,0,1-.58-.58V599.29a.59.59,0,0,0-.59-.58h-5.89a.58.58,0,0,0-.58.58V618a.58.58,0,0,1-.58.58h-5a.58.58,0,0,1-.58-.58V574.79A.58.58,0,0,1,320.49,574.21Z"/><path class="cls-5" d="M346.67,608.85V584.1c0-6.05,4-10.27,9.89-10.27s9.89,4.22,9.89,10.27v24.75c0,6-4.1,10.2-9.89,10.2S346.67,614.83,346.67,608.85Zm13.6.19V583.85c0-3.09-1.76-4.1-3.71-4.1s-3.78,1-3.78,4.1V609c0,3.08,1.83,4.09,3.78,4.09S360.27,612.12,360.27,609Z"/><path class="cls-5" d="M374.46,574.21h4.71a.59.59,0,0,1,.56.42l6.67,22.44a.58.58,0,0,0,1.14-.16V574.79a.58.58,0,0,1,.58-.58h5a.58.58,0,0,1,.58.58V618a.58.58,0,0,1-.58.58h-4.78a.58.58,0,0,1-.56-.41l-6.67-22a.58.58,0,0,0-1.14.17V618a.58.58,0,0,1-.58.58h-4.94a.58.58,0,0,1-.59-.58V574.79A.58.58,0,0,1,374.46,574.21Z"/><path class="cls-5" d="M402.1,574.21h15.39a.58.58,0,0,1,.59.58v4.76a.58.58,0,0,1-.59.58h-9.28a.58.58,0,0,0-.59.58v12a.58.58,0,0,0,.59.58h6.64a.58.58,0,0,1,.58.58v4.26a.58.58,0,0,1-.58.58h-6.64a.58.58,0,0,0-.59.58v12.82a.58.58,0,0,0,.59.58h9.28a.58.58,0,0,1,.59.58V618a.58.58,0,0,1-.59.58H402.1a.58.58,0,0,1-.59-.58V574.79A.58.58,0,0,1,402.1,574.21Z"/><path class="cls-5" d="M422.52,608.85h5a.58.58,0,0,1,.57.56,3.69,3.69,0,0,0,4,3.72,3.47,3.47,0,0,0,3.72-3.59c0-1.7-.44-3-2.2-5.6l-7.94-11.72a19.28,19.28,0,0,1-3-6.05c-1.66-6.68,4-13.26,10.86-12.29,4.49.64,7.73,4,8,9.22a.61.61,0,0,1-.6.62h-4.82a.58.58,0,0,1-.57-.56,3.52,3.52,0,0,0-3.63-3.6,3.18,3.18,0,0,0-3.41,3.28,9.18,9.18,0,0,0,2,5.29l7.93,11.65c2.9,4.28,3.53,6.8,3.53,10,0,5.67-4,9.38-9.89,9.38-5.67,0-9.8-3.65-10.06-9.65A.59.59,0,0,1,422.52,608.85Z"/><rect class="cls-5" x="91.52" y="573.55" width="100.09" height="3.11" rx="0.19"/><rect class="cls-5" x="91.52" y="615.46" width="100.09" height="3.11" rx="0.19"/><path class="cls-10" d="M201.85,575.22a1.2,1.2,0,0,1,1.21-1.2h23.2c6.06,0,10.29,3.16,10.29,8.84v6.7c0,2.53-.65,4.26-1.89,5.37a1.16,1.16,0,0,0,.07,1.77c1.34,1.1,2.14,2.82,2.14,5.74V610c0,5.62-4.23,8.65-10.36,8.65H203.06a1.21,1.21,0,0,1-1.21-1.21Zm24.09,17.68c1.2,0,2.9-.19,2.9-2.15v-7.07c0-1.9-1.57-2.14-2.9-2.14H210.82a1.2,1.2,0,0,0-1.2,1.2v9a1.2,1.2,0,0,0,1.2,1.2Zm.32,18.26c1.2,0,2.9-.19,2.9-2.15v-7.9c0-2-1.58-2.21-2.9-2.21H210.82a1.21,1.21,0,0,0-1.2,1.21V610a1.21,1.21,0,0,0,1.2,1.21Z"/><path class="cls-10" d="M246,574h5.36a1.2,1.2,0,0,1,1.2,1.2V617.4a1.21,1.21,0,0,1-1.2,1.21H246a1.21,1.21,0,0,1-1.21-1.21V575.22A1.2,1.2,0,0,1,246,574Z"/><path class="cls-10" d="M260.55,608.37v-24c0-6.38,4.23-10.79,10.29-10.79a10,10,0,0,1,10.26,9.09,1.22,1.22,0,0,1-1.2,1.39h-5.37a1.23,1.23,0,0,1-1.18-1,2.2,2.2,0,0,0-2.51-1.94c-1.19,0-2.52.32-2.52,3v24.57c0,2.65,1.45,3,2.52,3s2.59-.32,2.59-3v-4.4a1.2,1.2,0,0,0-1.2-1.2h-.12a1.2,1.2,0,0,1-1.2-1.2v-3.62a1.2,1.2,0,0,1,1.2-1.2h10.18a1.2,1.2,0,0,1,1.2,1.16l.12,3.62a1.2,1.2,0,0,1-1.2,1.24h0a1.21,1.21,0,0,0-1.21,1.2v4.14c0,6.32-4.23,10.74-10.36,10.74S260.55,614.69,260.55,608.37Z"/></g></svg>