<svg xmlns="http://www.w3.org/2000/svg" xmlns:xlink="http://www.w3.org/1999/xlink" viewBox="0 0 1066 800"><defs><style>.cls-1,.cls-10,.cls-13{fill:none;}.cls-2{fill:#00ffbc;}.cls-3{fill:#023223;}.cls-4{fill:#fd00fb;}.cls-5{fill:#00e5a8;}.cls-6{fill:url(#New_Pattern_3);}.cls-7{fill:url(#New_Pattern_3-5);}.cls-8{fill:#022118;}.cls-9{fill:#fff;}.cls-10{stroke:#fff;stroke-width:2.23px;}.cls-11{fill:url(#New_Pattern_3-13);}.cls-12{fill:url(#New_Pattern_3-19);}.cls-13{stroke:#d0d2d3;stroke-miterlimit:10;}</style><pattern id="New_Pattern_3" data-name="New Pattern 3" width="8" height="8" patternTransform="translate(22.96 -66.01) scale(1.07)" patternUnits="userSpaceOnUse" viewBox="0 0 8 8"><rect class="cls-1" width="8" height="8"/><circle class="cls-2" cx="8" cy="6" r="1.03"/><circle class="cls-2" cx="4" cy="8" r="1.03"/><circle class="cls-2" cy="6" r="1.03"/><circle class="cls-2" cx="8" cy="2" r="1.03"/><circle class="cls-2" cx="4" cy="4" r="1.03"/><circle class="cls-2" cy="2" r="1.03"/><circle class="cls-2" cx="4" r="1.03"/></pattern><pattern id="New_Pattern_3-5" data-name="New Pattern 3" width="8" height="8" patternTransform="translate(35.49 -61.46) scale(0.96)" patternUnits="userSpaceOnUse" viewBox="0 0 8 8"><rect class="cls-1" width="8" height="8"/><circle class="cls-2" cx="8" cy="6" r="1.03"/><circle class="cls-2" cx="4" cy="8" r="1.03"/><circle class="cls-2" cy="6" r="1.03"/><circle class="cls-2" cx="8" cy="2" r="1.03"/><circle class="cls-2" cx="4" cy="4" r="1.03"/><circle class="cls-2" cy="2" r="1.03"/><circle class="cls-2" cx="4" r="1.03"/></pattern><pattern id="New_Pattern_3-13" data-name="New Pattern 3" width="8" height="8" patternTransform="translate(29.72 -21.17) scale(0.5)" patternUnits="userSpaceOnUse" viewBox="0 0 8 8"><rect class="cls-1" width="8" height="8"/><circle class="cls-2" cx="8" cy="6" r="1.03"/><circle class="cls-2" cx="4" cy="8" r="1.03"/><circle class="cls-2" cy="6" r="1.03"/><circle class="cls-2" cx="8" cy="2" r="1.03"/><circle class="cls-2" cx="4" cy="4" r="1.03"/><circle class="cls-2" cy="2" r="1.03"/><circle class="cls-2" cx="4" r="1.03"/></pattern><pattern id="New_Pattern_3-19" data-name="New Pattern 3" width="8" height="8" patternTransform="translate(21.66 -20.09) scale(0.5)" patternUnits="userSpaceOnUse" viewBox="0 0 8 8"><rect class="cls-1" width="8" height="8"/><circle class="cls-2" cx="8" cy="6" r="1.03"/><circle class="cls-2" cx="4" cy="8" r="1.03"/><circle class="cls-2" cy="6" r="1.03"/><circle class="cls-2" cx="8" cy="2" r="1.03"/><circle class="cls-2" cx="4" cy="4" r="1.03"/><circle class="cls-2" cy="2" r="1.03"/><circle class="cls-2" cx="4" r="1.03"/></pattern></defs><g id="embeded"><path class="cls-3" d="M190.65,159.38l85.18.1,1.33,60.27,57.27.1,1.65,277.26L442.79,457l37.48,60.72L313.52,639l-212,1.55L88.08,276.46l46.91-8.4-.14-55.83,55.74-1.4.06-51.45M176.29,145l0,14.38,0,37.45-41.74,1.05-14.06.35,0,14.06.11,43.76-35,6.28-12.3,2.2L73.72,277,87.19,641.07,87.71,655l14-.1,212-1.55,4.62,0,3.73-2.72L488.73,529.38l10.78-7.84-7-11.34L455,449.48l-6.22-10.07-11.07,4.16-87.4,32.83-1.53-256.64-.09-14.27-14.27,0-43.23-.07-1-46.24-.31-14-14.05,0-85.17-.1-14.38,0Z"/><path class="cls-3" d="M148.92,535.17c.23,1-3.36,1.29-6.64,1.67-3.57.4-5.93.86-6.17-.42-1-5.15-1.46-8.67-2.44-13.74-.12-.93-1.64-.62-3.67-.44-2.44.21-3.73.12-3.87,1.09-.8,5.41-1.34,9-2,14.62-.13,1.06-3,1.3-7.27,1.78-2,.23-6.76.77-6.62-.13,5.15-25.93,8.71-43.08,13.17-66.36.27-1.34,3.91-1.42,6.73-1.4,3.18,0,6.44.13,6.81,1.72C141.5,497.33,144.23,511.62,148.92,535.17Zm-16.21-20.89c-.6-6.94-1-10.88-1.56-18.32,0-.47-.24-2.55-1.14-2.52-.64,0-.9,2.41-.91,2.79-.67,7.43-1.08,12.21-1.76,18.34,0,.66.64.71,2.56.57C131.56,515,132.83,515.12,132.71,514.28Z"/><path class="cls-3" d="M187.08,529.34a1.67,1.67,0,0,1-.82,1.7,6.26,6.26,0,0,1-2.15.24c-1,.12-1.84-2.86-2.88-3.18-1.15-.13-2.11,3.83-9.46,4.66-10.24,1.17-16.12-4.27-16.09-10.74l.19-37.66c0-6.2,5.75-12.64,16.22-12.58,10.27.06,15.26,6.17,15.23,12l0,4.57c0,.76-.92,1.12-6.18,1.28-3.67.11-5.05.24-5.05-.71,0-1.21-.08-3.72-.08-4.58a3.75,3.75,0,0,0-3.94-3.59c-3.26,0-4.16,2.86-4.17,5.06l-.17,33.11c0,2.28.3,5,4.11,4.61,3.43-.33,4-2.71,4-3.83l.05-11.33c0-.78-.31-1-1-1.15-1.07-.19-2.36-.11-2.89-.33s-.43-1.2-.42-2.59,0-2.44.44-2.64c1.41-.86,6.09-1.18,10.27-1.31s4.92.34,4.92,1.52Z"/><path class="cls-3" d="M224.77,526c.17.84-2.45,1-4.83,1.32-2.59.3-4.3.65-4.48-.44-.69-4.39-1-7.39-1.74-11.72-.09-.79-1.19-.54-2.66-.42-1.76.15-2.69.07-2.78.89-.59,4.58-1,7.62-1.47,12.37-.1.91-2.17,1.06-5.22,1.4-1.44.17-4.84.55-4.74-.2,3.71-21.87,6.27-36.36,9.5-56.07.19-1.14,2.81-1.21,4.85-1.19,2.29,0,4.65.1,4.91,1.46C219.41,493.63,221.38,505.83,224.77,526ZM213,508c-.42-5.9-.68-9.26-1.11-15.58,0-.4-.17-2.16-.81-2.14-.46,0-.66,2-.66,2.36-.5,6.31-.79,10.36-1.28,15.55,0,.57.46.62,1.84.52C212.2,508.61,213.11,508.7,213,508Z"/><path class="cls-3" d="M242.48,523.47c0,1.13-.09,1.21-4.55,1.72-4.05.46-4.22.48-4.21-.6l.27-51.16c0-1.15.34-1.23,4.23-1.21,4.3,0,4.54.1,4.53,1.31Z"/><path class="cls-3" d="M275,519.05c0,1.81.06,2-3.49,2.41-1.83.21-2.61.15-3.09-1.56-2.32-8-3.16-11.69-5.66-20.51-.42-1.56-1-4.19-1.51-4.16s-.53,1.54-.53,2.48l-.13,23.69c0,1.15-.23,1.32-4.11,1.76s-3.8.29-3.79-.81l.27-49.09c0-1,.16-1,3.5-1s3.66.31,4.16,2.33c1.59,5.89,3.67,13.5,5.79,21,.21.7.42,1.82.85,1.8s.51-1.37.51-2.15l.12-21.61c0-1.13.22-1.27,3.76-1.25s3.61.09,3.61,1.2Z"/><path class="cls-3" d="M301.18,506.83a15.6,15.6,0,0,1-1,6c-2.09,4.21-3.52,5.82-8,6.33-5.26.59-9.37-2.28-9.34-8.49l0-3.83c0-.61.6-.72,3.23-.93s3.81-.3,3.81.24l0,2.81c0,2.48.43,3.92,2.34,3.73,1.7-.16,2.14-1.53,2.27-2.67s.14-2.13.15-3.06c0-5.76-12.1-13.2-12-23.45a17.18,17.18,0,0,1,1.69-6.64,8.48,8.48,0,0,1,7.58-4.38,8.63,8.63,0,0,1,8.75,8.92v3.2c0,.46-.86.42-2.94.47-2.35.07-3.6.1-3.6-.36l0-3.06c0-1.86-1.18-3-2.25-3a2.41,2.41,0,0,0-2.18,2.17,20.3,20.3,0,0,0-.21,2.69C289.38,491.44,301.24,496.21,301.18,506.83Z"/><path class="cls-3" d="M322.52,475.51c0,2.83-.08,3.14-.67,3.15l-2.34,0a5.38,5.38,0,0,0-1.6.14c-.5.44-.39,1.5-.4,2.31l-.2,34.5c0,.56-.61.69-3.24,1-2.39.27-2.9.33-2.9-.3l.2-35.08c0-.83.13-1.91-.38-2.34a5.67,5.67,0,0,0-1.67-.11l-2.16,0c-.88,0-1.05-.44-1-3.14s.13-3.15.84-3.15l14.86.09C322.48,472.62,322.53,473.17,322.52,475.51Z"/><path class="cls-4" d="M132,299.1c-1.33.27-2-.33-2.19-1.66-.46-2.71-2.64-4.44-5.76-4.44-2.58,0-4.17,1.52-3.91,3,0,10.21,21.74,44.2,21.72,63.43,0,2-2.27,13.71-18,13.69-13.91,0-16.88-9.16-17.2-14.33a1.94,1.94,0,0,1,1.72-2.18l7.49-1.65c1.32-.26,2,.34,2.18,1.73.26,3.18,2.71,5,5.82,5s5.64-1.92,5.24-3.7c0-12.44-21.07-47.54-21.05-62.77-.06-2,1.14-13.71,16-13.69,13.64,0,16.81,8.89,17.2,13.66a2,2,0,0,1-1.72,2.19Z"/><path class="cls-4" d="M168.5,226.58a2.05,2.05,0,0,1,2.12,1.79l4.67,25c.13.67.66.67.79,0l4.74-25a2,2,0,0,1,2.12-1.79l13.71,0a1.75,1.75,0,0,1,2,2l-.19,152a1.78,1.78,0,0,1-2,2H189a1.82,1.82,0,0,1-2-2l.17-135.74a.37.37,0,0,0-.73-.07L180,273a2,2,0,0,1-2.18,1.72h-4.38a2,2,0,0,1-2.18-1.73l-6.39-28.2a.37.37,0,0,0-.73.07L164,380.6a1.77,1.77,0,0,1-2,2H154.6a1.79,1.79,0,0,1-2-2l.19-152a1.76,1.76,0,0,1,2-2Z"/><path class="cls-4" d="M243.42,343.06c0,1.46-.67,2.25-2,2.25H234a1.78,1.78,0,0,1-2-2l.1-87.23a1.75,1.75,0,0,0-2-2h-5.7a1.79,1.79,0,0,0-2,2l-.15,124.62a1.75,1.75,0,0,1-2,2H212.9c-1.26,0-2-.8-2-2.25l.17-141.25.07-50.48c0-8.35,1.34-17.22,16.25-17.2s16.21,8.89,16.2,17.24l-.06,49.75ZM232.22,188.7c0-3.17-.46-4.76-4.83-4.77s-4.84,1.58-4.84,4.76l-.07,52a1.82,1.82,0,0,0,2,2h5.7a1.83,1.83,0,0,0,2-2Z"/><path class="cls-4" d="M265.48,193.69a1.75,1.75,0,0,1,2,2l-.17,144.92a1.8,1.8,0,0,0,2,2l14.77,0a1.75,1.75,0,0,1,2,2V352a1.76,1.76,0,0,1-2,2l-26.17,0a1.81,1.81,0,0,1-2-2l.19-156.31a1.79,1.79,0,0,1,2-2Z"/><path class="cls-4" d="M303,230.82a1.75,1.75,0,0,1,2,2l-.17,136.6a1.82,1.82,0,0,0,2,2l11.89,0a1.75,1.75,0,0,1,2,2v7.41a1.75,1.75,0,0,1-2,2l-23.29,0a1.81,1.81,0,0,1-2-2l.18-148a1.78,1.78,0,0,1,2-2Z"/><path class="cls-4" d="M117.78,382.8a1.86,1.86,0,0,1,2,2.05l-.08,28.59a1.88,1.88,0,0,0,2.05,2.06h6.56a1.84,1.84,0,0,0,2.05-2.05l.09-28.59a1.87,1.87,0,0,1,2-2.05h7.66a1.81,1.81,0,0,1,2.05,2.05L142,457.39a1.84,1.84,0,0,1-2.05,2.05h-7.66a1.88,1.88,0,0,1-2-2.06l.11-28.05a1.82,1.82,0,0,0-2-2.06h-6.56a1.84,1.84,0,0,0-2,2.05l-.12,28.05a1.84,1.84,0,0,1-2,2.05H109.9a1.87,1.87,0,0,1-2.05-2l.22-72.51a1.81,1.81,0,0,1,2.05-2Z"/><path class="cls-4" d="M185.43,457.17c0,1.5-.68,2.32-2.05,2.32h-7.66a1.84,1.84,0,0,1-2.05-2.05l0-26.08a1.81,1.81,0,0,0-2.05-2.05h-5.88a1.85,1.85,0,0,0-2.06,2l0,26.07a1.81,1.81,0,0,1-2.05,2H154c-1.3,0-2-.82-2-2.32L152,408c0-8.61,1.39-17.77,16.77-17.75s16.73,9.18,16.72,17.79ZM173.73,408c0-3.28-.47-4.92-5-4.93s-5,1.64-5,4.92v7.45a1.87,1.87,0,0,0,2,2h5.88a1.9,1.9,0,0,0,2.06-2.12Z"/><path class="cls-4" d="M210.4,388.68a2.36,2.36,0,0,1,2.39,1.57l9.26,31.41c.27.61.82.48.82-.21l0-30.71a1.83,1.83,0,0,1,2.05-2h7.66a1.8,1.8,0,0,1,2,2.05l-.08,66.76a1.83,1.83,0,0,1-2.05,2H222.48a2.36,2.36,0,0,1-2.39-1.57l-9.26-31.41c-.27-.61-.82-.48-.82.21l0,30.7a1.83,1.83,0,0,1-2.05,2h-7.66a1.86,1.86,0,0,1-2-2l.08-66.76a1.83,1.83,0,0,1,2-2Z"/><path class="cls-4" d="M262.26,362.86c12.85,0,17.08,5.22,17.07,16.43l-.1,63.86c0,11.21-4.25,16.47-17.11,16.45l-15.24,0a1.87,1.87,0,0,1-2-2.05L245,365a1.89,1.89,0,0,1,2-2.12Zm.08,85c3.28,0,4.93-.54,4.93-4.64,0-.07.09-63.86.09-63.93,0-4.24-1.63-4.65-4.91-4.65h-3.69a1.85,1.85,0,0,0-2.06,2.05l-.1,69.12a1.88,1.88,0,0,0,2,2.06Z"/><path class="cls-4" d="M312.7,408.63c-1.37.28-2.05-.34-2.25-1.71-.48-2.8-2.73-4.58-5.95-4.59-2.66,0-4.3,1.57-4,3.14.95,5.34,22.52,25.36,22.5,41.08,0,2.05-2.34,14.15-18.54,14.13-14.35,0-17.42-9.46-17.75-14.79a2,2,0,0,1,1.78-2.25l7.72-1.7c1.37-.27,2.12.34,2.26,1.78.27,3.28,2.79,5.2,6,5.2s5.81-2,5.4-3.82c-1.29-5.81-21.84-24.67-21.82-40.39-.07-2,1.18-14.15,16.49-14.13,14.08,0,17.35,9.18,17.76,14.1a2,2,0,0,1-1.78,2.25Z"/><path class="cls-5" d="M306.17,553.65c-1.3-3.74-3.34-5-5.56-5a9.28,9.28,0,0,0-3.65.92L293.74,551a.83.83,0,0,0-.43,1l10.3,30.94a.79.79,0,0,0,.77.55.93.93,0,0,0,.4-.09l3-1.72c3.43-1.93,6.27-5.27,4.17-11.33Z"/><path class="cls-5" d="M367.68,523c-1.09-2.47-2.47-3.36-3.88-3.36a4,4,0,0,0-1.59.37c-1.92.83-3.13,2.73-1.61,6.3l12.89,30.14c1.09,2.53,2.44,3.48,3.77,3.48a3.48,3.48,0,0,0,1.95-.67c1.76-1.09,2.88-3.39,1.24-7.1Z"/><path class="cls-5" d="M455.3,507.43c-2.3-4.23-5.09-7-9.89-9.95L442.82,496a9.44,9.44,0,0,0,1.37-3.06c.65-2.59-.49-6.45-2.08-8.59a17.36,17.36,0,0,0-14-7.33,17.07,17.07,0,0,0-12.71,5.81,7.15,7.15,0,0,0-1.38-.12,9.11,9.11,0,0,0-3.6.72l-14.61,6a9.53,9.53,0,0,0-3.68,2.7,3.73,3.73,0,0,0-.83-.06,9.67,9.67,0,0,0-3.6.72l-3.1,1.3a9.46,9.46,0,0,0-3.4,2.41,2.8,2.8,0,0,0-.49,0,9.7,9.7,0,0,0-3.62.72l-2.38,1a11.49,11.49,0,0,0-5.33,4.22,8.2,8.2,0,0,0-1.12,2.47,17.65,17.65,0,0,0-12.19.55,18.33,18.33,0,0,0-9.95,9.92,1.59,1.59,0,0,0-.14.4,9.39,9.39,0,0,0-6.19-2.3,9.1,9.1,0,0,0-3.59.72l-5.41,2.24a9.35,9.35,0,0,0-4.28,3.57,9.27,9.27,0,0,0-2-.2,9.1,9.1,0,0,0-3.59.72l-6.27,2.59a9.36,9.36,0,0,0-5.84,8.51,20.77,20.77,0,0,0-7-1.18,26.38,26.38,0,0,0-10,2.1L278.73,538a9.41,9.41,0,0,0-5.32,11.59l22.83,70.63a9.43,9.43,0,0,0,14.12,5l7.42-4.86a9.41,9.41,0,0,0,3.8-10.87l-1.86-5.58c-1.24-3.75-1.5-6.41,1.34-9.16h0c1.52-1.49,5.21-2.31,7.25-1.3a13,13,0,0,1,4.72,4.38c1.86,2.65,5.13,4.71,8.16,4.64a9.37,9.37,0,0,0,5.09-1.63l6.33-4.29a9.52,9.52,0,0,0,3.68-4.92H357a9.37,9.37,0,0,0,5.26-1.61l5.41-3.65a9.48,9.48,0,0,0,3.71-10.61,16.42,16.42,0,0,0,6,1.15,17.48,17.48,0,0,0,9.89-3.16,20.08,20.08,0,0,0,8-11.16,9,9,0,0,0,3.81.68,10.2,10.2,0,0,0,5.36-1.85l3.08-2.08a9.35,9.35,0,0,0,3-3.25,9.67,9.67,0,0,0,4.11-1.55l2.91-2a9.77,9.77,0,0,0,3.16-3.62,9,9,0,0,0,4.49-1.58L439,537.94a9.27,9.27,0,0,0,3.33-4.05A16.39,16.39,0,0,0,450.1,531C457.86,525.75,460,516,455.3,507.43Zm-10.06,16.48a8.07,8.07,0,0,1-3.39,1.38,6.8,6.8,0,0,1-1.1.09,7.33,7.33,0,0,1-4.54-1.61,10.06,10.06,0,0,1-2.1-2.16l0,0a10,10,0,0,1-.78-1.18.8.8,0,0,1,.29-1.09l2.48-1.53.83-.51a.63.63,0,0,1,.4-.12.85.85,0,0,1,.69.38,3.27,3.27,0,1,0,5.5-3.54c-.75-1.41-1.64-2.3-4.09-3.77l-10.7-6.33-.49-.28c-4.25-2.53-5.69-4.55-6.84-6.7-.14-.26-.26-.55-.37-.81a7.63,7.63,0,0,1-.69-3.05,6.44,6.44,0,0,1,2.15-5.17,7.87,7.87,0,0,1,2.56-1.64,8.44,8.44,0,0,1,3.11-.64c2.87,0,5.63,1.59,7.59,4.63a.8.8,0,0,1-.34,1.15l-2.82,1.3a.57.57,0,0,1-.32.09.85.85,0,0,1-.69-.41,3.49,3.49,0,0,0-2.88-1.75,2.85,2.85,0,0,0-1.23.29,2.52,2.52,0,0,0-1.15,3.79,9.26,9.26,0,0,0,3.79,3.65l10.85,6.53c3.88,2.36,5.4,4.14,6.81,6.7C450.3,516.23,449.29,521.15,445.24,523.91Zm-10.79,5.87a.83.83,0,0,1-.25,1l-1.47,1-12.31,8.37-.14.08a.87.87,0,0,1-.46.15.81.81,0,0,1-.72-.46l-20.39-41.41a.82.82,0,0,1,.4-1.1l.58-.23,12-5,2.07-.86a.51.51,0,0,1,.29-.06.8.8,0,0,1,.72.43l1.32,2.56.54,1.06a.81.81,0,0,1-.11.89,1.6,1.6,0,0,1-.26.21l-3.71,1.64-6.67,3a.83.83,0,0,0-.4,1.09l5.35,10.7a.81.81,0,0,0,.71.46.88.88,0,0,0,.38-.09l8.54-4.43.23-.11a.77.77,0,0,1,.37-.12.78.78,0,0,1,.69.46l.58,1.07,1.21,2.36a.78.78,0,0,1-.35,1.06l-8.77,4.83a.82.82,0,0,0-.34,1.07l6,12a.74.74,0,0,0,.69.44.69.69,0,0,0,.44-.12l6.61-4.2,3.37-2.15a.67.67,0,0,1,.4-.12h0a.8.8,0,0,1,.72.43l.37.69Zm-25.19,17.77a.87.87,0,0,1-.63-.29l-14.35-18.32a.75.75,0,0,0-.63-.31.8.8,0,0,0-.72,1.15l10,21.45a.75.75,0,0,1-.29,1l-3.42,2.33a.71.71,0,0,1-.46.14.81.81,0,0,1-.72-.46l-10.24-22.37-8-17.37-3.13-6.85a.81.81,0,0,1,.4-1.09l3.34-1.38a1.13,1.13,0,0,1,.31-.06.85.85,0,0,1,.64.32l14,18a.75.75,0,0,0,.61.32.8.8,0,0,0,.74-1.15l-9.23-19.47a.8.8,0,0,1,.4-1.1l2.54-1.06.57-.23a1,1,0,0,1,.29-.06.77.77,0,0,1,.72.46l20.85,43.25a.86.86,0,0,1-.26,1l-.09.06-2.85,1.9A.6.6,0,0,1,409.26,547.55ZM382.4,566.64a8.77,8.77,0,0,1-5,1.67c-3.94,0-7.74-3-10-8.42L354.65,529.4c-3-7.1-1-13.66,4.72-16a9.16,9.16,0,0,1,3.59-.74c3.51,0,6.85,2.07,9.18,5.78a13.28,13.28,0,0,1,1.2,2.24l6.73,15.07,5.73,12.82C389,555.63,387.64,563.08,382.4,566.64ZM356.92,583a.81.81,0,0,1-.74-.49l-10.1-25.63a.76.76,0,0,0-.72-.51.69.69,0,0,0-.4.11l-6.93,3.8a.82.82,0,0,0-.35,1l10.39,27.18a.82.82,0,0,1-.32,1l-6.33,4.28a.75.75,0,0,1-.43.15.81.81,0,0,1-.75-.52l-22.72-61.28a.8.8,0,0,1,.44-1l6.29-2.62a1,1,0,0,1,.29-.05.78.78,0,0,1,.75.51l9,23.5a.84.84,0,0,0,.75.52.75.75,0,0,0,.37-.09l6.93-3.59a.82.82,0,0,0,.38-1l-9-22.83a.79.79,0,0,1,.43-1l5.4-2.24a1.07,1.07,0,0,1,.29-.06.78.78,0,0,1,.75.49l22.52,55.73a.77.77,0,0,1-.29,1l-5.41,3.68A.79.79,0,0,1,356.92,583Zm-44.77,7.27L307.66,593a.8.8,0,0,0-.37.94l6.09,18.29a.79.79,0,0,1-.31.93L305.65,618a.89.89,0,0,1-.43.11.8.8,0,0,1-.78-.55L281.63,547a.75.75,0,0,1,.46-1l13.09-5.53a17.94,17.94,0,0,1,6.67-1.43c5.64,0,10.33,3.45,12.86,10.46l5.89,16.4C324.31,576.19,320.66,585.19,312.15,590.31Z"/><path class="cls-5" d="M134.82,581.8l14.5-.69c1.84-.09,4.43-.49,4.28-3.37l-.64-10.5c-.16-2.38-1.93-2.87-3.7-2.87-.3,0-.64,0-.94,0l-14.48,1.12a1,1,0,0,0-.85,1l.88,14.46a.92.92,0,0,0,.92.84Z"/><path class="cls-5" d="M155.67,604.74,155,593c-.15-2.67-2.26-3.13-4.18-3.13h-.46l-15,.48a.88.88,0,0,0-.85.92l.94,15.71a1,1,0,0,0,1,.92h15C153.23,607.94,155.86,607.65,155.67,604.74Z"/><path class="cls-5" d="M262.13,590.66l-.58-8.63c-.2-5.43-4.83-7.27-10.24-7.07l-3.91,0h-4.05a2.44,2.44,0,0,1-2.52-2.28h0a2.43,2.43,0,0,1,2.3-2.58c4.42-.23,3.41-.25,3.41-.25a10.85,10.85,0,0,0,7.48-3.65,9.19,9.19,0,0,0,2.18-7.36c-1.9-13.49-13.26-22.52-28.27-22.52-1.2,0-2.47.06-3.68.17-10.9,1.1-19.52,6.76-23.81,14.81l-.09-1.64c-.31-5.06-4.8-9-10.21-9-.31,0-.77,0-1.06,0l-11.22,1.1a9.88,9.88,0,0,0-9.2,9.77c-4.2-4.37-10.49-6.93-18-6.93-1.12,0-2.27.06-3.42.15l-25.91,2.53a9.71,9.71,0,0,0-9,10.06L116,618a9.92,9.92,0,0,0,9.89,9l26.4.52a6.78,6.78,0,0,0,.78,0c7.76,0,14.2-2.33,18.55-6.7a15.89,15.89,0,0,0,1.12-1.21,10.1,10.1,0,0,0,10,8.49l11.27.23h.2a10.58,10.58,0,0,0,7.42-3,9.31,9.31,0,0,0,2.76-7.07l-.06-.92c5.21,7.48,14.27,12.31,25.08,12.54h.83c8.6,0,16.28-2.88,21.52-8.11a24.56,24.56,0,0,0,7.1-19.07l-.17-3.25C262.24,597.91,262.27,594.57,262.13,590.66ZM153,618.9h-.58L126,618.36a1,1,0,0,1-.92-.9l-3.68-60.67a1,1,0,0,1,.84-.95l25.88-2.53a24.26,24.26,0,0,1,2.5-.12c8.11,0,13.92,4.11,14.38,11.94l.6,10.15c.26,4.26-.85,7.09-3.23,8.82a.92.92,0,0,0,.1,1.56c2.76,1.52,4.51,4.14,4.83,9.09l.66,11.38C168.46,614.45,162.25,618.9,153,618.9Zm41.15.81h0l-11.27-.23a1.12,1.12,0,0,1-1.12-1l-3.94-67.12a1.09,1.09,0,0,1,1-1.07L190,549.22h.11a1,1,0,0,1,1,.89l4,68.62A1,1,0,0,1,194.17,619.71Zm55-25,.48,8.48c.61,10.73-7.47,18.09-19.47,18.09h-.63c-11.76-.26-20.13-7.59-20.73-17.8l-2.27-38.94c-.58-10.35,6.9-18.32,18.63-19.47a23.67,23.67,0,0,1,2.73-.14c10.24,0,17.89,5.84,19.21,15a1.25,1.25,0,0,1-1.29,1.26l-13.29.95h-.14a1.17,1.17,0,0,1-1.18-.92c-.52-3-2.47-3.65-4.4-3.65a8.89,8.89,0,0,0-.92.06c-2.39.17-4.92.92-4.66,5.32l2.36,40.81c.26,4.4,3.11,4.91,5.23,4.91s4.86-.49,4.86-4.48v-.52l-.46-8.2-5,.12-.57-10.27a1.12,1.12,0,0,1,1.17-1.09l5.18-.2,18-.69.43,11.21Z"/><path class="cls-6" d="M306.17,553.65c-1.3-3.74-3.34-5-5.56-5a9.28,9.28,0,0,0-3.65.92L293.74,551a.83.83,0,0,0-.43,1l10.3,30.94a.79.79,0,0,0,.77.55.93.93,0,0,0,.4-.09l3-1.72c3.43-1.93,6.27-5.27,4.17-11.33Z"/><path class="cls-6" d="M367.68,523c-1.09-2.47-2.47-3.36-3.88-3.36a4,4,0,0,0-1.59.37c-1.92.83-3.13,2.73-1.61,6.3l12.89,30.14c1.09,2.53,2.44,3.48,3.77,3.48a3.48,3.48,0,0,0,1.95-.67c1.76-1.09,2.88-3.39,1.24-7.1Z"/><path class="cls-7" d="M455.3,507.43c-2.3-4.23-5.09-7-9.89-9.95L442.82,496a9.44,9.44,0,0,0,1.37-3.06c.65-2.59-.49-6.45-2.08-8.59a17.36,17.36,0,0,0-14-7.33,17.07,17.07,0,0,0-12.71,5.81,7.15,7.15,0,0,0-1.38-.12,9.11,9.11,0,0,0-3.6.72l-14.61,6a9.53,9.53,0,0,0-3.68,2.7,3.73,3.73,0,0,0-.83-.06,9.67,9.67,0,0,0-3.6.72l-3.1,1.3a9.46,9.46,0,0,0-3.4,2.41,2.8,2.8,0,0,0-.49,0,9.7,9.7,0,0,0-3.62.72l-2.38,1a11.49,11.49,0,0,0-5.33,4.22,8.2,8.2,0,0,0-1.12,2.47,17.65,17.65,0,0,0-12.19.55,18.33,18.33,0,0,0-9.95,9.92,1.59,1.59,0,0,0-.14.4,9.39,9.39,0,0,0-6.19-2.3,9.1,9.1,0,0,0-3.59.72l-5.41,2.24a9.35,9.35,0,0,0-4.28,3.57,9.27,9.27,0,0,0-2-.2,9.1,9.1,0,0,0-3.59.72l-6.27,2.59a9.36,9.36,0,0,0-5.84,8.51,20.77,20.77,0,0,0-7-1.18,26.38,26.38,0,0,0-10,2.1L278.73,538a9.41,9.41,0,0,0-5.32,11.59l22.83,70.63a9.43,9.43,0,0,0,14.12,5l7.42-4.86a9.41,9.41,0,0,0,3.8-10.87l-1.86-5.58c-1.24-3.75-1.5-6.41,1.34-9.16h0c1.52-1.49,5.21-2.31,7.25-1.3a13,13,0,0,1,4.72,4.38c1.86,2.65,5.13,4.71,8.16,4.64a9.37,9.37,0,0,0,5.09-1.63l6.33-4.29a9.52,9.52,0,0,0,3.68-4.92H357a9.37,9.37,0,0,0,5.26-1.61l5.41-3.65a9.48,9.48,0,0,0,3.71-10.61,16.42,16.42,0,0,0,6,1.15,17.48,17.48,0,0,0,9.89-3.16,20.08,20.08,0,0,0,8-11.16,9,9,0,0,0,3.81.68,10.2,10.2,0,0,0,5.36-1.85l3.08-2.08a9.35,9.35,0,0,0,3-3.25,9.67,9.67,0,0,0,4.11-1.55l2.91-2a9.77,9.77,0,0,0,3.16-3.62,9,9,0,0,0,4.49-1.58L439,537.94a9.27,9.27,0,0,0,3.33-4.05A16.39,16.39,0,0,0,450.1,531C457.86,525.75,460,516,455.3,507.43Zm-10.06,16.48a8.07,8.07,0,0,1-3.39,1.38,6.8,6.8,0,0,1-1.1.09,7.33,7.33,0,0,1-4.54-1.61,10.06,10.06,0,0,1-2.1-2.16l0,0a10,10,0,0,1-.78-1.18.8.8,0,0,1,.29-1.09l2.48-1.53.83-.51a.63.63,0,0,1,.4-.12.85.85,0,0,1,.69.38,3.27,3.27,0,1,0,5.5-3.54c-.75-1.41-1.64-2.3-4.09-3.77l-10.7-6.33-.49-.28c-4.25-2.53-5.69-4.55-6.84-6.7-.14-.26-.26-.55-.37-.81a7.63,7.63,0,0,1-.69-3.05,6.44,6.44,0,0,1,2.15-5.17,7.87,7.87,0,0,1,2.56-1.64,8.44,8.44,0,0,1,3.11-.64c2.87,0,5.63,1.59,7.59,4.63a.8.8,0,0,1-.34,1.15l-2.82,1.3a.57.57,0,0,1-.32.09.85.85,0,0,1-.69-.41,3.49,3.49,0,0,0-2.88-1.75,2.85,2.85,0,0,0-1.23.29,2.52,2.52,0,0,0-1.15,3.79,9.26,9.26,0,0,0,3.79,3.65l10.85,6.53c3.88,2.36,5.4,4.14,6.81,6.7C450.3,516.23,449.29,521.15,445.24,523.91Zm-10.79,5.87a.83.83,0,0,1-.25,1l-1.47,1-12.31,8.37-.14.08a.87.87,0,0,1-.46.15.81.81,0,0,1-.72-.46l-20.39-41.41a.82.82,0,0,1,.4-1.1l.58-.23,12-5,2.07-.86a.51.51,0,0,1,.29-.06.8.8,0,0,1,.72.43l1.32,2.56.54,1.06a.81.81,0,0,1-.11.89,1.6,1.6,0,0,1-.26.21l-3.71,1.64-6.67,3a.83.83,0,0,0-.4,1.09l5.35,10.7a.81.81,0,0,0,.71.46.88.88,0,0,0,.38-.09l8.54-4.43.23-.11a.77.77,0,0,1,.37-.12.78.78,0,0,1,.69.46l.58,1.07,1.21,2.36a.78.78,0,0,1-.35,1.06l-8.77,4.83a.82.82,0,0,0-.34,1.07l6,12a.74.74,0,0,0,.69.44.69.69,0,0,0,.44-.12l6.61-4.2,3.37-2.15a.67.67,0,0,1,.4-.12h0a.8.8,0,0,1,.72.43l.37.69Zm-25.19,17.77a.87.87,0,0,1-.63-.29l-14.35-18.32a.75.75,0,0,0-.63-.31.8.8,0,0,0-.72,1.15l10,21.45a.75.75,0,0,1-.29,1l-3.42,2.33a.71.71,0,0,1-.46.14.81.81,0,0,1-.72-.46l-10.24-22.37-8-17.37-3.13-6.85a.81.81,0,0,1,.4-1.09l3.34-1.38a1.13,1.13,0,0,1,.31-.06.85.85,0,0,1,.64.32l14,18a.75.75,0,0,0,.61.32.8.8,0,0,0,.74-1.15l-9.23-19.47a.8.8,0,0,1,.4-1.1l2.54-1.06.57-.23a1,1,0,0,1,.29-.06.77.77,0,0,1,.72.46l20.85,43.25a.86.86,0,0,1-.26,1l-.09.06-2.85,1.9A.6.6,0,0,1,409.26,547.55ZM382.4,566.64a8.77,8.77,0,0,1-5,1.67c-3.94,0-7.74-3-10-8.42L354.65,529.4c-3-7.1-1-13.66,4.72-16a9.16,9.16,0,0,1,3.59-.74c3.51,0,6.85,2.07,9.18,5.78a13.28,13.28,0,0,1,1.2,2.24l6.73,15.07,5.73,12.82C389,555.63,387.64,563.08,382.4,566.64ZM356.92,583a.81.81,0,0,1-.74-.49l-10.1-25.63a.76.76,0,0,0-.72-.51.69.69,0,0,0-.4.11l-6.93,3.8a.82.82,0,0,0-.35,1l10.39,27.18a.82.82,0,0,1-.32,1l-6.33,4.28a.75.75,0,0,1-.43.15.81.81,0,0,1-.75-.52l-22.72-61.28a.8.8,0,0,1,.44-1l6.29-2.62a1,1,0,0,1,.29-.05.78.78,0,0,1,.75.51l9,23.5a.84.84,0,0,0,.75.52.75.75,0,0,0,.37-.09l6.93-3.59a.82.82,0,0,0,.38-1l-9-22.83a.79.79,0,0,1,.43-1l5.4-2.24a1.07,1.07,0,0,1,.29-.06.78.78,0,0,1,.75.49l22.52,55.73a.77.77,0,0,1-.29,1l-5.41,3.68A.79.79,0,0,1,356.92,583Zm-44.77,7.27L307.66,593a.8.8,0,0,0-.37.94l6.09,18.29a.79.79,0,0,1-.31.93L305.65,618a.89.89,0,0,1-.43.11.8.8,0,0,1-.78-.55L281.63,547a.75.75,0,0,1,.46-1l13.09-5.53a17.94,17.94,0,0,1,6.67-1.43c5.64,0,10.33,3.45,12.86,10.46l5.89,16.4C324.31,576.19,320.66,585.19,312.15,590.31Z"/><path class="cls-6" d="M134.82,581.8l14.5-.69c1.84-.09,4.43-.49,4.28-3.37l-.64-10.5c-.16-2.38-1.93-2.87-3.7-2.87-.3,0-.64,0-.94,0l-14.48,1.12a1,1,0,0,0-.85,1l.88,14.46a.92.92,0,0,0,.92.84Z"/><path class="cls-6" d="M155.67,604.74,155,593c-.15-2.67-2.26-3.13-4.18-3.13h-.46l-15,.48a.88.88,0,0,0-.85.92l.94,15.71a1,1,0,0,0,1,.92h15C153.23,607.94,155.86,607.65,155.67,604.74Z"/><path class="cls-7" d="M262.13,590.66l-.58-8.63c-.2-5.43-4.83-7.27-10.24-7.07l-3.91,0h-4.05a2.44,2.44,0,0,1-2.52-2.28h0a2.43,2.43,0,0,1,2.3-2.58c4.42-.23,3.41-.25,3.41-.25a10.85,10.85,0,0,0,7.48-3.65,9.19,9.19,0,0,0,2.18-7.36c-1.9-13.49-13.26-22.52-28.27-22.52-1.2,0-2.47.06-3.68.17-10.9,1.1-19.52,6.76-23.81,14.81l-.09-1.64c-.31-5.06-4.8-9-10.21-9-.31,0-.77,0-1.06,0l-11.22,1.1a9.88,9.88,0,0,0-9.2,9.77c-4.2-4.37-10.49-6.93-18-6.93-1.12,0-2.27.06-3.42.15l-25.91,2.53a9.71,9.71,0,0,0-9,10.06L116,618a9.92,9.92,0,0,0,9.89,9l26.4.52a6.78,6.78,0,0,0,.78,0c7.76,0,14.2-2.33,18.55-6.7a15.89,15.89,0,0,0,1.12-1.21,10.1,10.1,0,0,0,10,8.49l11.27.23h.2a10.58,10.58,0,0,0,7.42-3,9.31,9.31,0,0,0,2.76-7.07l-.06-.92c5.21,7.48,14.27,12.31,25.08,12.54h.83c8.6,0,16.28-2.88,21.52-8.11a24.56,24.56,0,0,0,7.1-19.07l-.17-3.25C262.24,597.91,262.27,594.57,262.13,590.66ZM153,618.9h-.58L126,618.36a1,1,0,0,1-.92-.9l-3.68-60.67a1,1,0,0,1,.84-.95l25.88-2.53a24.26,24.26,0,0,1,2.5-.12c8.11,0,13.92,4.11,14.38,11.94l.6,10.15c.26,4.26-.85,7.09-3.23,8.82a.92.92,0,0,0,.1,1.56c2.76,1.52,4.51,4.14,4.83,9.09l.66,11.38C168.46,614.45,162.25,618.9,153,618.9Zm41.15.81h0l-11.27-.23a1.12,1.12,0,0,1-1.12-1l-3.94-67.12a1.09,1.09,0,0,1,1-1.07L190,549.22h.11a1,1,0,0,1,1,.89l4,68.62A1,1,0,0,1,194.17,619.71Zm55-25,.48,8.48c.61,10.73-7.47,18.09-19.47,18.09h-.63c-11.76-.26-20.13-7.59-20.73-17.8l-2.27-38.94c-.58-10.35,6.9-18.32,18.63-19.47a23.67,23.67,0,0,1,2.73-.14c10.24,0,17.89,5.84,19.21,15a1.25,1.25,0,0,1-1.29,1.26l-13.29.95h-.14a1.17,1.17,0,0,1-1.18-.92c-.52-3-2.47-3.65-4.4-3.65a8.89,8.89,0,0,0-.92.06c-2.39.17-4.92.92-4.66,5.32l2.36,40.81c.26,4.4,3.11,4.91,5.23,4.91s4.86-.49,4.86-4.48v-.52l-.46-8.2-5,.12-.57-10.27a1.12,1.12,0,0,1,1.17-1.09l5.18-.2,18-.69.43,11.21Z"/><polygon class="cls-4" points="796.38 214.57 801.54 213.65 801.52 206.61 807.38 206.47 807.39 200.86 833.35 200.89 833.5 207.2 839.62 207.21 839.77 232.38 845.98 230.05 857.84 249.25 831.69 268.26 798.38 268.5 796.38 214.57"/><path class="cls-8" d="M814.51,208h11.87l0,1.47.1,4.83h6v1.49l.16,26.83,9.14-3.43,1.16-.44.65,1.05,3.92,6.35.73,1.19-1.13.82-17.43,12.68-.39.28h-.48l-22.17.16h-1.45l-.06-1.45-1.41-38.07,0-1.3,1.29-.23,3.66-.66v-6.05l1.47,0,4.36-.11V208m-14.24-14.27v5.79l-5.88.14,0,8-5.37,1,.46,12.37,0,1.31L791,260.39l0,1.46.51,13.83,13.84-.1h1.46l22.16-.16h.48l4.58,0,3.7-2.69.39-.29,17.44-12.67,1.12-.82,10.69-7.77-6.94-11.25-.73-1.19-3.92-6.34-.65-1.06-6.16-10-2.13.8,0-6.38v-1.49l-.08-14.15h-6.24l-.14-6.3-13.93,0h-1.47l-8.9,0H800.27Z"/><path class="cls-9" d="M814.51,208h11.87l0,1.47.1,4.83h6v1.49l.16,26.83,9.14-3.43,1.16-.44.65,1.05,3.92,6.35.73,1.19-1.13.82-17.43,12.68-.39.28h-.48l-22.17.16h-1.45l-.06-1.45-1.41-38.07,0-1.3,1.29-.23,3.66-.66v-6.05l1.47,0,4.36-.11V208m-10-10.08v5.68l-5.87.15,0,7.44-5.24.94.32,8.74.05,1.3,1.41,38.07.05,1.46.36,9.76,9.77-.07h1.46l22.16-.17h.48l3.23,0,2.62-1.9.39-.29,17.43-12.67,1.13-.82,7.54-5.49-4.9-7.94-.73-1.18-3.92-6.35-.65-1.05-4.35-7.05-4.53,1.7-.07-12.39v-1.49l-.06-10h-6.17l-.14-6.31H814.52l-10.06,0Z"/><path class="cls-2" d="M814.51,208h11.87l0,1.47.1,4.83h6v1.49l.16,26.83,9.14-3.43,1.16-.44.65,1.05,3.92,6.35.73,1.19-1.13.82-17.43,12.68-.39.28h-.48l-22.17.16h-1.45l-.06-1.45-1.41-38.07,0-1.3,1.29-.23,3.66-.66v-6.05l1.47,0,4.36-.11V208m-5.87-5.88v5.57h-.12l-5.74.14,0,5.74v1.12l-.1,0-5,.9.19,5.09,0,1.31,1.41,38.06,0,1.46.21,5.7,5.7-.05h1.46l22.16-.16h2.37l1.52-1.11.39-.29,17.44-12.67,1.12-.82,4.4-3.2-2.85-4.63-.74-1.19-3.92-6.35L848,235.7l-2.53-4.11-4.52,1.7-1.16.43-1.26.47-.11-18.41v-1.49l0-5.82h-6.1l0-.57-.12-5.73H808.64Z"/><polygon class="cls-10" points="814.51 208 814.5 209.5 814.5 213.42 810.14 213.53 808.67 213.56 808.67 215.03 808.68 219.61 805.02 220.26 803.73 220.5 803.78 221.8 805.19 259.87 805.25 261.32 806.71 261.31 828.87 261.15 829.35 261.15 829.74 260.87 847.17 248.19 848.3 247.37 847.57 246.18 843.65 239.84 843 238.78 841.84 239.22 832.7 242.65 832.54 215.82 832.53 214.32 831.04 214.32 826.52 214.31 826.42 209.48 826.38 208.01 824.92 208.01 816.01 208 814.51 208 814.51 208"/><path class="cls-4" d="M695.2,354.93c-.89.18-1.34-.22-1.47-1.12a3.63,3.63,0,0,0-3.89-3c-1.74,0-2.81,1-2.63,2.05.62,3.49,14.74,3.4,14.74,13.67,0,1.34-1.52,9.24-12.11,9.24-9.37,0-11.38-6.16-11.61-9.64a1.32,1.32,0,0,1,1.16-1.48l5.05-1.11c.89-.18,1.38.22,1.47,1.16a3.67,3.67,0,0,0,3.93,3.39c2.19,0,3.8-1.29,3.53-2.5-.85-3.79-14.29-3-14.29-13.22,0-1.34.76-9.24,10.76-9.24,9.2,0,11.35,6,11.61,9.2a1.3,1.3,0,0,1-1.16,1.47Z"/><path class="cls-4" d="M718,343.85a1.36,1.36,0,0,1,1.42,1.21l3.18,13c.08.45.44.45.53,0l3.17-13a1.38,1.38,0,0,1,1.43-1.21H737a1.18,1.18,0,0,1,1.34,1.34v28.58a1.2,1.2,0,0,1-1.34,1.34h-5a1.22,1.22,0,0,1-1.34-1.34V356.18a.25.25,0,0,0-.49,0L725.79,374a1.38,1.38,0,0,1-1.47,1.16h-3A1.37,1.37,0,0,1,719.9,374l-4.34-17.81a.25.25,0,0,0-.49,0v17.59a1.2,1.2,0,0,1-1.34,1.34h-5a1.2,1.2,0,0,1-1.34-1.34V345.19a1.19,1.19,0,0,1,1.34-1.34Z"/><path class="cls-4" d="M766.65,373.59c0,1-.45,1.52-1.34,1.52h-5a1.2,1.2,0,0,1-1.34-1.34v-3.88a1.19,1.19,0,0,0-1.34-1.34h-3.84a1.2,1.2,0,0,0-1.34,1.34v3.88a1.18,1.18,0,0,1-1.34,1.34h-5c-.85,0-1.34-.53-1.34-1.52V354.66c0-5.63.89-11.61,10.94-11.61s10.94,6,10.94,11.61ZM759,354.66c0-2.14-.31-3.21-3.26-3.21s-3.26,1.07-3.26,3.21v4.87a1.22,1.22,0,0,0,1.34,1.34h3.84a1.24,1.24,0,0,0,1.34-1.39Z"/><path class="cls-4" d="M779.46,343.85a1.18,1.18,0,0,1,1.34,1.34v20.9a1.22,1.22,0,0,0,1.34,1.34h10a1.19,1.19,0,0,1,1.34,1.34v5a1.18,1.18,0,0,1-1.34,1.34H774.46a1.22,1.22,0,0,1-1.34-1.34V345.19a1.2,1.2,0,0,1,1.34-1.34Z"/><path class="cls-4" d="M804.92,343.85a1.19,1.19,0,0,1,1.34,1.34v20.9a1.22,1.22,0,0,0,1.34,1.34h9.95a1.18,1.18,0,0,1,1.34,1.34v5a1.18,1.18,0,0,1-1.34,1.34H799.92a1.22,1.22,0,0,1-1.34-1.34V345.19a1.2,1.2,0,0,1,1.34-1.34Z"/><path class="cls-3" d="M845.86,343.85a1.23,1.23,0,0,1,1.34,1.34v11.17a1.22,1.22,0,0,0,1.34,1.34h4.29a1.2,1.2,0,0,0,1.34-1.34V345.19a1.23,1.23,0,0,1,1.34-1.34h5a1.19,1.19,0,0,1,1.34,1.34v28.58a1.2,1.2,0,0,1-1.34,1.34h-5a1.22,1.22,0,0,1-1.34-1.34v-7a1.18,1.18,0,0,0-1.34-1.34h-4.29a1.2,1.2,0,0,0-1.34,1.34v7a1.2,1.2,0,0,1-1.34,1.34h-5a1.22,1.22,0,0,1-1.34-1.34V345.19a1.19,1.19,0,0,1,1.34-1.34Z"/><path class="cls-3" d="M890.21,373.59c0,1-.45,1.52-1.34,1.52h-5a1.2,1.2,0,0,1-1.34-1.34v-3.88a1.19,1.19,0,0,0-1.34-1.34h-3.84a1.2,1.2,0,0,0-1.34,1.34v3.88a1.18,1.18,0,0,1-1.34,1.34h-5c-.84,0-1.34-.53-1.34-1.52V354.66c0-5.63.9-11.61,10.95-11.61s10.94,6,10.94,11.61Zm-7.68-18.93c0-2.14-.32-3.21-3.26-3.21s-3.26,1.07-3.26,3.21v4.87a1.22,1.22,0,0,0,1.34,1.34h3.84a1.24,1.24,0,0,0,1.34-1.39Z"/><path class="cls-3" d="M904.58,343.85a1.56,1.56,0,0,1,1.57,1l6.07,14.87c.18.4.54.31.54-.13V345.19a1.2,1.2,0,0,1,1.33-1.34h5a1.19,1.19,0,0,1,1.34,1.34v28.58a1.2,1.2,0,0,1-1.34,1.34h-6.57a1.54,1.54,0,0,1-1.56-1l-6.07-14.87c-.18-.41-.54-.32-.54.13v14.42a1.2,1.2,0,0,1-1.34,1.34h-5a1.22,1.22,0,0,1-1.34-1.34V345.19a1.2,1.2,0,0,1,1.34-1.34Z"/><path class="cls-3" d="M938.43,343.85c8.4,0,11.16,3.4,11.16,10.72v9.78c0,7.32-2.76,10.76-11.16,10.76h-10a1.22,1.22,0,0,1-1.34-1.34V345.24a1.24,1.24,0,0,1,1.34-1.39Zm.14,23.58c2.14,0,3.21-.36,3.21-3v-9.83c0-2.77-1.07-3-3.21-3h-2.42a1.21,1.21,0,0,0-1.34,1.34v13.22a1.23,1.23,0,0,0,1.34,1.34Z"/><path class="cls-3" d="M971.43,354.93c-.89.18-1.34-.22-1.47-1.12a3.64,3.64,0,0,0-3.89-3c-1.74,0-2.81,1-2.63,2.05.62,3.49,14.73,3.4,14.73,13.67,0,1.34-1.52,9.24-12.1,9.24-9.38,0-11.39-6.16-11.61-9.64a1.32,1.32,0,0,1,1.16-1.48l5-1.11c.89-.18,1.38.22,1.47,1.16a3.66,3.66,0,0,0,3.93,3.39c2.19,0,3.8-1.29,3.53-2.5-.85-3.79-14.29-3-14.29-13.22,0-1.34.76-9.24,10.76-9.24,9.2,0,11.34,6,11.61,9.2a1.31,1.31,0,0,1-1.16,1.47Z"/><path class="cls-5" d="M773.12,387.35a1,1,0,0,1,1-1h19.76c5.17,0,8.78,2.69,8.78,7.54v5.7c0,2.16-.56,3.64-1.62,4.58a1,1,0,0,0,.06,1.51c1.15.94,1.83,2.4,1.83,4.89v6.4c0,4.79-3.61,7.37-8.83,7.37h-20a1,1,0,0,1-1-1Zm20.52,15.06c1,0,2.48-.16,2.48-1.83v-6c0-1.62-1.35-1.83-2.48-1.83H780.77a1,1,0,0,0-1,1v7.64a1,1,0,0,0,1,1Zm.27,15.55c1,0,2.48-.16,2.48-1.83v-6.72c0-1.67-1.35-1.89-2.48-1.89H780.77a1,1,0,0,0-1,1v8.39a1,1,0,0,0,1,1Z"/><path class="cls-5" d="M810.71,386.32h4.56a1,1,0,0,1,1,1v35.94a1,1,0,0,1-1,1h-4.56a1,1,0,0,1-1-1V387.35A1,1,0,0,1,810.71,386.32Z"/><path class="cls-5" d="M823.13,415.59V395.15c0-5.44,3.61-9.2,8.77-9.2a8.48,8.48,0,0,1,8.74,7.74,1,1,0,0,1-1,1.19h-4.57a1,1,0,0,1-1-.88,1.88,1.88,0,0,0-2.14-1.65c-1,0-2.15.27-2.15,2.53v20.93c0,2.26,1.24,2.53,2.15,2.53s2.21-.27,2.21-2.53v-3.74a1,1,0,0,0-1-1H833a1,1,0,0,1-1-1v-3.08a1,1,0,0,1,1-1h8.67a1,1,0,0,1,1,1l.1,3.08a1,1,0,0,1-1,1.06h0a1,1,0,0,0-1,1v3.52c0,5.39-3.61,9.15-8.83,9.15S823.13,421,823.13,415.59Z"/><path class="cls-3" d="M852.09,387a.49.49,0,0,1,.49-.49h7.56c4.93,0,8.37,3.27,8.37,9.17v9.71c0,5.91-3.44,9.07-8.37,9.07h-2.3a.49.49,0,0,0-.49.5v8.88a.5.5,0,0,1-.5.49h-4.27a.49.49,0,0,1-.49-.49Zm7.4,22.47c1.93,0,3.87-.8,3.87-4.18v-9.55c0-3.38-1.88-4.19-3.87-4.19h-1.65a.49.49,0,0,0-.49.5V409a.49.49,0,0,0,.49.49Z"/><path class="cls-3" d="M874.2,386.49h4.27a.49.49,0,0,1,.49.49v15.27a.5.5,0,0,0,.5.49h5a.49.49,0,0,0,.49-.49V387a.5.5,0,0,1,.5-.49h4.21a.49.49,0,0,1,.5.49v36.84a.49.49,0,0,1-.5.49h-4.21a.5.5,0,0,1-.5-.49v-16a.49.49,0,0,0-.49-.5h-5a.5.5,0,0,0-.5.5v16a.49.49,0,0,1-.49.49H874.2a.49.49,0,0,1-.49-.49V387A.49.49,0,0,1,874.2,386.49Z"/><path class="cls-3" d="M896.51,416V394.91c0-5.15,3.43-8.75,8.42-8.75s8.42,3.6,8.42,8.75V416c0,5.1-3.48,8.69-8.42,8.69S896.51,421.1,896.51,416Zm11.59.16V394.7c0-2.63-1.51-3.49-3.17-3.49s-3.22.86-3.22,3.49v21.46c0,2.63,1.56,3.49,3.22,3.49S908.1,418.79,908.1,416.16Z"/><path class="cls-3" d="M920.18,386.49h4a.5.5,0,0,1,.48.35L930.35,406a.5.5,0,0,0,1-.14V387a.49.49,0,0,1,.49-.49h4.27a.49.49,0,0,1,.49.49v36.84a.49.49,0,0,1-.49.49H932a.5.5,0,0,1-.48-.35l-5.68-18.71a.5.5,0,0,0-1,.14v18.43a.5.5,0,0,1-.5.49h-4.21a.49.49,0,0,1-.5-.49V387A.49.49,0,0,1,920.18,386.49Z"/><path class="cls-3" d="M943.73,386.49h13.12a.49.49,0,0,1,.49.49v4a.49.49,0,0,1-.49.5h-7.92a.49.49,0,0,0-.49.5v10.22a.49.49,0,0,0,.49.49h5.66a.5.5,0,0,1,.5.5v3.62a.5.5,0,0,1-.5.5h-5.66a.49.49,0,0,0-.49.5v10.92a.49.49,0,0,0,.49.49h7.92a.49.49,0,0,1,.49.5v4.05a.49.49,0,0,1-.49.49H943.73a.5.5,0,0,1-.5-.49V387A.5.5,0,0,1,943.73,386.49Z"/><path class="cls-3" d="M961.13,416h4.22a.5.5,0,0,1,.49.48,3.14,3.14,0,0,0,3.41,3.17,3,3,0,0,0,3.17-3.06c0-1.45-.38-2.52-1.88-4.78l-6.76-10a16.38,16.38,0,0,1-2.53-5.15,8.51,8.51,0,0,1,9.25-10.47c3.82.54,6.59,3.42,6.79,7.85a.51.51,0,0,1-.51.53h-4.1a.5.5,0,0,1-.49-.48,3,3,0,0,0-3.1-3.06,2.7,2.7,0,0,0-2.9,2.79,7.76,7.76,0,0,0,1.67,4.5l6.76,9.93c2.47,3.65,3,5.8,3,8.48,0,4.83-3.43,8-8.42,8a8.12,8.12,0,0,1-8.57-8.22A.5.5,0,0,1,961.13,416Z"/><path class="cls-3" d="M685.09,394.25h2.57a.35.35,0,0,1,.35.29l3.92,20.94a.36.36,0,0,1-.35.42H689.3a.35.35,0,0,1-.35-.3l-.6-3.64a.35.35,0,0,0-.35-.29h-3.27a.35.35,0,0,0-.35.29l-.63,3.65a.35.35,0,0,1-.35.29h-2.28a.36.36,0,0,1-.35-.42l4-21A.36.36,0,0,1,685.09,394.25Zm2.77,14.43-1.12-7a.35.35,0,0,0-.7,0l-1.14,7a.35.35,0,0,0,.35.41h2.26A.35.35,0,0,0,687.86,408.68Z"/><path class="cls-3" d="M694.83,411.15V399.09a4.8,4.8,0,0,1,9.58-.51.37.37,0,0,1-.36.39h-2.26a.36.36,0,0,1-.35-.34,1.68,1.68,0,0,0-1.82-1.66c-1,0-1.81.5-1.81,2v12.27c0,1.59,1,2,1.81,2s1.84-.49,1.84-2v-2.95h-1.84V406a.35.35,0,0,1,.35-.35h4.11a.35.35,0,0,1,.35.35v5.11a4.8,4.8,0,1,1-9.6,0Z"/><path class="cls-3" d="M711.5,394.25h2.57a.35.35,0,0,1,.35.29l3.92,20.94a.36.36,0,0,1-.35.42h-2.28a.35.35,0,0,1-.35-.3l-.6-3.64a.36.36,0,0,0-.36-.29h-3.26a.35.35,0,0,0-.35.29l-.63,3.65a.35.35,0,0,1-.35.29h-2.28a.36.36,0,0,1-.35-.42l4-21A.36.36,0,0,1,711.5,394.25Zm2.77,14.43-1.12-7a.35.35,0,0,0-.7,0l-1.14,7a.35.35,0,0,0,.35.41h2.26A.35.35,0,0,0,714.27,408.68Z"/><path class="cls-3" d="M722,394.28h2.27a.35.35,0,0,1,.35.35v20.92a.35.35,0,0,1-.35.35H722a.35.35,0,0,1-.35-.35V394.63A.35.35,0,0,1,722,394.28Z"/><path class="cls-3" d="M729.54,394.28h2.17a.35.35,0,0,1,.34.25L735.76,407a0,0,0,0,0,.08,0V394.63a.35.35,0,0,1,.35-.35h2.3a.36.36,0,0,1,.36.35v20.92a.36.36,0,0,1-.36.35h-2.2a.35.35,0,0,1-.34-.25l-3.71-12.21s-.08,0-.08,0v12.09a.36.36,0,0,1-.36.35h-2.26a.36.36,0,0,1-.36-.35V394.63A.36.36,0,0,1,729.54,394.28Z"/><path class="cls-3" d="M742.66,411.15h2.27a.36.36,0,0,1,.34.33,1.79,1.79,0,0,0,2,1.75,1.69,1.69,0,0,0,1.81-1.75,4.49,4.49,0,0,0-1.07-2.73l-3.87-5.7a9.93,9.93,0,0,1-1.37-2.67,4.91,4.91,0,0,1,5.53-6.21,4.44,4.44,0,0,1,3.56,4.36.37.37,0,0,1-.36.38h-2.21a.37.37,0,0,1-.35-.34,1.71,1.71,0,0,0-1.76-1.69,1.55,1.55,0,0,0-1.66,1.6,4.5,4.5,0,0,0,.95,2.57l3.87,5.68a7.73,7.73,0,0,1,1.71,4.85c0,2.76-2,4.57-4.81,4.57a4.65,4.65,0,0,1-4.9-4.62A.37.37,0,0,1,742.66,411.15Z"/><path class="cls-3" d="M756.59,397.16h-2.14a.36.36,0,0,1-.36-.36v-2.17a.36.36,0,0,1,.36-.35h8a.35.35,0,0,1,.35.35v2.17a.36.36,0,0,1-.35.36H760.3a.35.35,0,0,0-.35.35v18a.36.36,0,0,1-.36.35H757.3a.36.36,0,0,1-.36-.35v-18A.35.35,0,0,0,756.59,397.16Z"/><rect class="cls-3" x="679.12" y="385.92" width="85.28" height="2.65" rx="0.19"/><rect class="cls-3" x="679.12" y="421.63" width="85.28" height="2.65" rx="0.19"/><path class="cls-9" d="M993.45,330.21V437.59H663V330.21h330.5m4.3-4.3H658.66v116H997.75v-116Z"/><path class="cls-11" d="M773.12,387.35a1,1,0,0,1,1-1h19.76c5.17,0,8.78,2.69,8.78,7.54v5.7c0,2.16-.56,3.64-1.62,4.58a1,1,0,0,0,.06,1.51c1.15.94,1.83,2.4,1.83,4.89v6.4c0,4.79-3.61,7.37-8.83,7.37h-20a1,1,0,0,1-1-1Zm20.52,15.06c1,0,2.48-.16,2.48-1.83v-6c0-1.62-1.35-1.83-2.48-1.83H780.77a1,1,0,0,0-1,1v7.64a1,1,0,0,0,1,1Zm.27,15.55c1,0,2.48-.16,2.48-1.83v-6.72c0-1.67-1.35-1.89-2.48-1.89H780.77a1,1,0,0,0-1,1v8.39a1,1,0,0,0,1,1Z"/><path class="cls-11" d="M810.71,386.32h4.56a1,1,0,0,1,1,1v35.94a1,1,0,0,1-1,1h-4.56a1,1,0,0,1-1-1V387.35A1,1,0,0,1,810.71,386.32Z"/><path class="cls-11" d="M823.13,415.59V395.15c0-5.44,3.61-9.2,8.77-9.2a8.48,8.48,0,0,1,8.74,7.74,1,1,0,0,1-1,1.19h-4.57a1,1,0,0,1-1-.88,1.88,1.88,0,0,0-2.14-1.65c-1,0-2.15.27-2.15,2.53v20.93c0,2.26,1.24,2.53,2.15,2.53s2.21-.27,2.21-2.53v-3.74a1,1,0,0,0-1-1H833a1,1,0,0,1-1-1v-3.08a1,1,0,0,1,1-1h8.67a1,1,0,0,1,1,1l.1,3.08a1,1,0,0,1-1,1.06h0a1,1,0,0,0-1,1v3.52c0,5.39-3.61,9.15-8.83,9.15S823.13,421,823.13,415.59Z"/><rect class="cls-3" x="662.95" y="485.4" width="330.5" height="107.38" rx="4.53"/><path class="cls-4" d="M695.2,510.12c-.89.18-1.34-.22-1.47-1.12a3.63,3.63,0,0,0-3.89-3c-1.74,0-2.81,1-2.63,2.06.62,3.48,14.74,3.39,14.74,13.66,0,1.34-1.52,9.24-12.11,9.24-9.37,0-11.38-6.16-11.61-9.64a1.31,1.31,0,0,1,1.16-1.47l5.05-1.12c.89-.18,1.38.22,1.47,1.16a3.67,3.67,0,0,0,3.93,3.39c2.19,0,3.8-1.29,3.53-2.5-.85-3.79-14.29-2.94-14.29-13.21,0-1.34.76-9.25,10.76-9.25,9.2,0,11.35,6,11.61,9.2a1.3,1.3,0,0,1-1.16,1.47Z"/><path class="cls-4" d="M718,499.05a1.35,1.35,0,0,1,1.42,1.2l3.18,13c.08.44.44.44.53,0l3.17-13a1.37,1.37,0,0,1,1.43-1.2H737a1.18,1.18,0,0,1,1.34,1.34V529A1.2,1.2,0,0,1,737,530.3h-5a1.22,1.22,0,0,1-1.34-1.33v-17.6a.25.25,0,0,0-.49,0l-4.33,17.81a1.38,1.38,0,0,1-1.47,1.16h-3a1.37,1.37,0,0,1-1.47-1.16l-4.34-17.81a.25.25,0,0,0-.49,0V529a1.2,1.2,0,0,1-1.34,1.33h-5a1.2,1.2,0,0,1-1.34-1.33V500.39a1.18,1.18,0,0,1,1.34-1.34Z"/><path class="cls-4" d="M766.65,528.79c0,1-.45,1.51-1.34,1.51h-5A1.2,1.2,0,0,1,759,529v-3.89a1.19,1.19,0,0,0-1.34-1.34h-3.84a1.2,1.2,0,0,0-1.34,1.34V529a1.18,1.18,0,0,1-1.34,1.33h-5c-.85,0-1.34-.53-1.34-1.51V509.85c0-5.62.89-11.61,10.94-11.61s10.94,6,10.94,11.61ZM759,509.85c0-2.14-.31-3.21-3.26-3.21s-3.26,1.07-3.26,3.21v4.87a1.22,1.22,0,0,0,1.34,1.34h3.84a1.23,1.23,0,0,0,1.34-1.38Z"/><path class="cls-4" d="M779.46,499.05a1.18,1.18,0,0,1,1.34,1.34v20.9a1.22,1.22,0,0,0,1.34,1.33h10a1.19,1.19,0,0,1,1.34,1.34v5a1.18,1.18,0,0,1-1.34,1.33H774.46a1.22,1.22,0,0,1-1.34-1.33V500.39a1.2,1.2,0,0,1,1.34-1.34Z"/><path class="cls-4" d="M804.92,499.05a1.18,1.18,0,0,1,1.34,1.34v20.9a1.22,1.22,0,0,0,1.34,1.33h9.95a1.18,1.18,0,0,1,1.34,1.34v5a1.18,1.18,0,0,1-1.34,1.33H799.92a1.22,1.22,0,0,1-1.34-1.33V500.39a1.2,1.2,0,0,1,1.34-1.34Z"/><path class="cls-9" d="M845.86,499.05a1.22,1.22,0,0,1,1.34,1.34v11.16a1.22,1.22,0,0,0,1.34,1.34h4.29a1.2,1.2,0,0,0,1.34-1.34V500.39a1.22,1.22,0,0,1,1.34-1.34h5a1.18,1.18,0,0,1,1.34,1.34V529a1.2,1.2,0,0,1-1.34,1.33h-5a1.22,1.22,0,0,1-1.34-1.33v-7.06a1.19,1.19,0,0,0-1.34-1.34h-4.29a1.2,1.2,0,0,0-1.34,1.34V529a1.2,1.2,0,0,1-1.34,1.33h-5a1.22,1.22,0,0,1-1.34-1.33V500.39a1.18,1.18,0,0,1,1.34-1.34Z"/><path class="cls-9" d="M890.21,528.79c0,1-.45,1.51-1.34,1.51h-5a1.2,1.2,0,0,1-1.34-1.33v-3.89a1.19,1.19,0,0,0-1.34-1.34h-3.84a1.2,1.2,0,0,0-1.34,1.34V529a1.18,1.18,0,0,1-1.34,1.33h-5c-.84,0-1.34-.53-1.34-1.51V509.85c0-5.62.9-11.61,10.95-11.61s10.94,6,10.94,11.61Zm-7.68-18.94c0-2.14-.32-3.21-3.26-3.21s-3.26,1.07-3.26,3.21v4.87a1.22,1.22,0,0,0,1.34,1.34h3.84a1.23,1.23,0,0,0,1.34-1.38Z"/><path class="cls-9" d="M904.58,499.05a1.56,1.56,0,0,1,1.57,1l6.07,14.87c.18.41.54.32.54-.13V500.39a1.2,1.2,0,0,1,1.33-1.34h5a1.18,1.18,0,0,1,1.34,1.34V529a1.2,1.2,0,0,1-1.34,1.33h-6.57a1.54,1.54,0,0,1-1.56-1l-6.07-14.87c-.18-.4-.54-.31-.54.13V529A1.2,1.2,0,0,1,903,530.3h-5a1.22,1.22,0,0,1-1.34-1.33V500.39a1.2,1.2,0,0,1,1.34-1.34Z"/><path class="cls-9" d="M938.43,499.05c8.4,0,11.16,3.39,11.16,10.71v9.78c0,7.33-2.76,10.76-11.16,10.76h-10a1.22,1.22,0,0,1-1.34-1.33V500.43a1.23,1.23,0,0,1,1.34-1.38Zm.14,23.57c2.14,0,3.21-.35,3.21-3v-9.83c0-2.76-1.07-3-3.21-3h-2.42a1.2,1.2,0,0,0-1.34,1.34v13.22a1.22,1.22,0,0,0,1.34,1.33Z"/><path class="cls-9" d="M971.43,510.12c-.89.18-1.34-.22-1.47-1.12a3.64,3.64,0,0,0-3.89-3c-1.74,0-2.81,1-2.63,2.06.62,3.48,14.73,3.39,14.73,13.66,0,1.34-1.52,9.24-12.1,9.24-9.38,0-11.39-6.16-11.61-9.64a1.31,1.31,0,0,1,1.16-1.47l5-1.12c.89-.18,1.38.22,1.47,1.16a3.66,3.66,0,0,0,3.93,3.39c2.19,0,3.8-1.29,3.53-2.5-.85-3.79-14.29-2.94-14.29-13.21,0-1.34.76-9.25,10.76-9.25,9.2,0,11.34,6,11.61,9.2a1.3,1.3,0,0,1-1.16,1.47Z"/><path class="cls-9" d="M685.09,549.44h2.57a.35.35,0,0,1,.35.29l3.92,20.94a.36.36,0,0,1-.35.42H689.3a.35.35,0,0,1-.35-.29l-.6-3.64a.35.35,0,0,0-.35-.3h-3.27a.35.35,0,0,0-.35.29l-.63,3.65a.35.35,0,0,1-.35.29h-2.28a.36.36,0,0,1-.35-.42l4-20.94A.36.36,0,0,1,685.09,549.44Zm2.77,14.43-1.12-7a.35.35,0,0,0-.7,0l-1.14,7a.35.35,0,0,0,.35.41h2.26A.35.35,0,0,0,687.86,563.87Z"/><path class="cls-9" d="M694.83,566.34V554.28a4.8,4.8,0,0,1,9.58-.51.37.37,0,0,1-.36.39h-2.26a.36.36,0,0,1-.35-.34,1.67,1.67,0,0,0-1.82-1.65c-1,0-1.81.49-1.81,2v12.27c0,1.6,1,2,1.81,2s1.84-.49,1.84-2v-2.94h-1.84v-2.26a.35.35,0,0,1,.35-.35h4.11a.35.35,0,0,1,.35.35v5.11a4.8,4.8,0,1,1-9.6,0Z"/><path class="cls-9" d="M711.5,549.44h2.57a.35.35,0,0,1,.35.29l3.92,20.94a.36.36,0,0,1-.35.42h-2.28a.35.35,0,0,1-.35-.29l-.6-3.64a.36.36,0,0,0-.36-.3h-3.26a.35.35,0,0,0-.35.29l-.63,3.65a.35.35,0,0,1-.35.29h-2.28a.36.36,0,0,1-.35-.42l4-20.94A.36.36,0,0,1,711.5,549.44Zm2.77,14.43-1.12-7a.35.35,0,0,0-.7,0l-1.14,7a.35.35,0,0,0,.35.41h2.26A.35.35,0,0,0,714.27,563.87Z"/><path class="cls-9" d="M722,549.47h2.27a.35.35,0,0,1,.35.35v20.92a.35.35,0,0,1-.35.35H722a.35.35,0,0,1-.35-.35V549.82A.35.35,0,0,1,722,549.47Z"/><path class="cls-9" d="M729.54,549.47h2.17a.35.35,0,0,1,.34.25l3.71,12.48s.08,0,.08,0V549.82a.35.35,0,0,1,.35-.35h2.3a.36.36,0,0,1,.36.35v20.92a.36.36,0,0,1-.36.35h-2.2a.35.35,0,0,1-.34-.25l-3.71-12.21s-.08,0-.08,0v12.09a.36.36,0,0,1-.36.35h-2.26a.36.36,0,0,1-.36-.35V549.82A.36.36,0,0,1,729.54,549.47Z"/><path class="cls-9" d="M742.66,566.34h2.27a.36.36,0,0,1,.34.34,1.79,1.79,0,0,0,2,1.74,1.69,1.69,0,0,0,1.81-1.74A4.47,4.47,0,0,0,748,564l-3.87-5.71a9.93,9.93,0,0,1-1.37-2.67,4.91,4.91,0,0,1,5.53-6.21,4.44,4.44,0,0,1,3.56,4.36.37.37,0,0,1-.36.38h-2.21a.36.36,0,0,1-.35-.34,1.7,1.7,0,0,0-1.76-1.68,1.54,1.54,0,0,0-1.66,1.59,4.52,4.52,0,0,0,.95,2.58l3.87,5.67a7.75,7.75,0,0,1,1.71,4.85c0,2.76-2,4.57-4.81,4.57a4.65,4.65,0,0,1-4.9-4.62A.37.37,0,0,1,742.66,566.34Z"/><path class="cls-9" d="M756.59,552.35h-2.14a.36.36,0,0,1-.36-.35v-2.18a.36.36,0,0,1,.36-.35h8a.35.35,0,0,1,.35.35V552a.35.35,0,0,1-.35.35H760.3a.36.36,0,0,0-.35.36v18a.36.36,0,0,1-.36.35H757.3a.36.36,0,0,1-.36-.35v-18A.36.36,0,0,0,756.59,552.35Z"/><path class="cls-5" d="M773.12,542.54a1,1,0,0,1,1-1h19.76c5.17,0,8.78,2.7,8.78,7.54v5.7c0,2.16-.56,3.64-1.62,4.58a1,1,0,0,0,.06,1.51c1.15.94,1.83,2.41,1.83,4.89v6.41c0,4.78-3.61,7.36-8.83,7.36h-20a1,1,0,0,1-1-1Zm20.52,15.06c1,0,2.48-.16,2.48-1.83v-6c0-1.62-1.35-1.83-2.48-1.83H780.77a1,1,0,0,0-1,1v7.63a1,1,0,0,0,1,1Zm.27,15.56c1,0,2.48-.17,2.48-1.83V564.6c0-1.67-1.35-1.88-2.48-1.88H780.77a1,1,0,0,0-1,1v8.39a1,1,0,0,0,1,1Z"/><path class="cls-5" d="M810.71,541.51h4.56a1,1,0,0,1,1,1v35.94a1,1,0,0,1-1,1h-4.56a1,1,0,0,1-1-1V542.54A1,1,0,0,1,810.71,541.51Z"/><path class="cls-5" d="M823.13,570.79V550.34c0-5.44,3.61-9.2,8.77-9.2a8.49,8.49,0,0,1,8.74,7.75,1,1,0,0,1-1,1.18h-4.57a1,1,0,0,1-1-.88,1.88,1.88,0,0,0-2.14-1.65c-1,0-2.15.27-2.15,2.53V571c0,2.26,1.24,2.53,2.15,2.53s2.21-.27,2.21-2.53v-3.74a1,1,0,0,0-1-1H833a1,1,0,0,1-1-1v-3.08a1,1,0,0,1,1-1h8.67a1,1,0,0,1,1,1l.1,3.07a1,1,0,0,1-1,1.06h0a1,1,0,0,0-1,1v3.53c0,5.38-3.61,9.15-8.83,9.15S823.13,576.17,823.13,570.79Z"/><path class="cls-9" d="M852.09,542.18a.49.49,0,0,1,.49-.5h7.56c4.93,0,8.37,3.27,8.37,9.17v9.72c0,5.9-3.44,9.06-8.37,9.06h-2.3a.5.5,0,0,0-.49.5V579a.51.51,0,0,1-.5.5h-4.27a.5.5,0,0,1-.49-.5Zm7.4,22.46c1.93,0,3.87-.8,3.87-4.18v-9.55c0-3.38-1.88-4.19-3.87-4.19h-1.65a.5.5,0,0,0-.49.5v16.93a.49.49,0,0,0,.49.49Z"/><path class="cls-9" d="M874.2,541.68h4.27a.49.49,0,0,1,.49.5v15.26a.51.51,0,0,0,.5.5h5a.5.5,0,0,0,.49-.5V542.18a.5.5,0,0,1,.5-.5h4.21a.5.5,0,0,1,.5.5V579a.5.5,0,0,1-.5.5h-4.21a.51.51,0,0,1-.5-.5v-16a.49.49,0,0,0-.49-.5h-5a.5.5,0,0,0-.5.5v16a.5.5,0,0,1-.49.5H874.2a.5.5,0,0,1-.49-.5V542.18A.49.49,0,0,1,874.2,541.68Z"/><path class="cls-9" d="M896.51,571.19V550.1c0-5.15,3.43-8.74,8.42-8.74s8.42,3.59,8.42,8.74v21.09c0,5.1-3.48,8.69-8.42,8.69S896.51,576.29,896.51,571.19Zm11.59.16V549.89c0-2.63-1.51-3.49-3.17-3.49s-3.22.86-3.22,3.49v21.46c0,2.63,1.56,3.49,3.22,3.49S908.1,574,908.1,571.35Z"/><path class="cls-9" d="M920.18,541.68h4a.5.5,0,0,1,.48.35l5.68,19.13a.5.5,0,0,0,1-.14V542.18a.49.49,0,0,1,.49-.5h4.27a.49.49,0,0,1,.49.5V579a.5.5,0,0,1-.49.5H932a.5.5,0,0,1-.48-.36l-5.68-18.71a.5.5,0,0,0-1,.14V579a.51.51,0,0,1-.5.5h-4.21a.5.5,0,0,1-.5-.5V542.18A.5.5,0,0,1,920.18,541.68Z"/><path class="cls-9" d="M943.73,541.68h13.12a.49.49,0,0,1,.49.5v4.05a.49.49,0,0,1-.49.49h-7.92a.5.5,0,0,0-.49.5v10.22a.5.5,0,0,0,.49.5h5.66a.49.49,0,0,1,.5.49v3.63a.49.49,0,0,1-.5.49h-5.66a.49.49,0,0,0-.49.5V574a.49.49,0,0,0,.49.49h7.92a.5.5,0,0,1,.49.5v4a.5.5,0,0,1-.49.5H943.73a.51.51,0,0,1-.5-.5V542.18A.5.5,0,0,1,943.73,541.68Z"/><path class="cls-9" d="M961.13,571.19h4.22a.51.51,0,0,1,.49.48,3.14,3.14,0,0,0,3.41,3.17,3,3,0,0,0,3.17-3.06c0-1.45-.38-2.52-1.88-4.77l-6.76-10a16.51,16.51,0,0,1-2.53-5.16,8.51,8.51,0,0,1,9.25-10.47c3.82.54,6.59,3.42,6.79,7.86a.51.51,0,0,1-.51.52h-4.1a.5.5,0,0,1-.49-.48,3,3,0,0,0-3.1-3.06,2.71,2.71,0,0,0-2.9,2.79,7.79,7.79,0,0,0,1.67,4.51l6.76,9.92c2.47,3.65,3,5.8,3,8.48,0,4.83-3.43,8-8.42,8a8.13,8.13,0,0,1-8.57-8.23A.5.5,0,0,1,961.13,571.19Z"/><rect class="cls-9" x="679.12" y="541.11" width="85.28" height="2.65" rx="0.19"/><rect class="cls-9" x="679.12" y="576.83" width="85.28" height="2.65" rx="0.19"/><path class="cls-12" d="M773.12,542.54a1,1,0,0,1,1-1h19.76c5.17,0,8.78,2.7,8.78,7.54v5.7c0,2.16-.56,3.64-1.62,4.58a1,1,0,0,0,.06,1.51c1.15.94,1.83,2.41,1.83,4.89v6.41c0,4.78-3.61,7.36-8.83,7.36h-20a1,1,0,0,1-1-1Zm20.52,15.06c1,0,2.48-.16,2.48-1.83v-6c0-1.62-1.35-1.83-2.48-1.83H780.77a1,1,0,0,0-1,1v7.63a1,1,0,0,0,1,1Zm.27,15.56c1,0,2.48-.17,2.48-1.83V564.6c0-1.67-1.35-1.88-2.48-1.88H780.77a1,1,0,0,0-1,1v8.39a1,1,0,0,0,1,1Z"/><path class="cls-12" d="M810.71,541.51h4.56a1,1,0,0,1,1,1v35.94a1,1,0,0,1-1,1h-4.56a1,1,0,0,1-1-1V542.54A1,1,0,0,1,810.71,541.51Z"/><path class="cls-12" d="M823.13,570.79V550.34c0-5.44,3.61-9.2,8.77-9.2a8.49,8.49,0,0,1,8.74,7.75,1,1,0,0,1-1,1.18h-4.57a1,1,0,0,1-1-.88,1.88,1.88,0,0,0-2.14-1.65c-1,0-2.15.27-2.15,2.53V571c0,2.26,1.24,2.53,2.15,2.53s2.21-.27,2.21-2.53v-3.74a1,1,0,0,0-1-1H833a1,1,0,0,1-1-1v-3.08a1,1,0,0,1,1-1h8.67a1,1,0,0,1,1,1l.1,3.07a1,1,0,0,1-1,1.06h0a1,1,0,0,0-1,1v3.53c0,5.38-3.61,9.15-8.83,9.15S823.13,576.17,823.13,570.79Z"/><line class="cls-13" x1="572.82" y1="144.98" x2="572.82" y2="655.02"/></g></svg>