<svg id="Layer_1" data-name="Layer 1" xmlns="http://www.w3.org/2000/svg" viewBox="0 0 800 460.67"><defs><style>.cls-1{fill:#30261d;}</style></defs><path class="cls-1" d="M130.26,191.15l2.07.65C131.73,191.63,131,191.4,130.26,191.15Z"/><path class="cls-1" d="M138.16,186.06c2,.8,3.6,1.51,4.58,2l-3.89-1.63Z"/><path class="cls-1" d="M142,178.43l11.45,10C146.29,185.76,142.45,181.29,142,178.43Z"/><path class="cls-1" d="M141,163.68H128.09a50.39,50.39,0,0,0-50.4,50.4v48.51A50.39,50.39,0,0,0,128.09,313H141a50.39,50.39,0,0,0,50.4-50.39V214.08A50.39,50.39,0,0,0,141,163.68Zm8,131.94c-1,1.51-11.52-2.39-18.21-5.18,1.93,1,7.85,4.05,8.92,4.55,2.89,1.37,5.83,6.06,4.31,7.92-.87,1-13.23-3-16.9-4.73l-.11-.1a2.53,2.53,0,0,1-.2,1.62c-1.1,2-24-8.18-25.35-14.07l-.4.1c-.53.64-1.06,1-1.49.83-1.72-.6-11-17.35-12.7-23.07-.73-2.47-.6-5.3-.59-7.86,0-4,.24-7.93.51-11.88Q87.23,236.83,88,230c.43-3.86.24-8.21,1.7-11.84a18.67,18.67,0,0,1,5.9-7.48c9.13-7.1,22.91-3.29,28,6.78,2.13,4.16,3.19,9,4.34,13.52a57.82,57.82,0,0,1,2.13,12.83c.19,6.84-3,17.17.57,24.54,1.26,2.6,5.39,9.57,10.31,11.27,4.37,1.52,7.24,6.08,6.3,7-.6.57-3.74.54-6.95-.56a20.54,20.54,0,0,1,6,3.36C148.71,291.63,149.52,294.72,148.94,295.62Zm33.71-63.25q-.42,6.93-1.13,13.81c-.39,3.85-.17,8.2-1.59,11.84a18.74,18.74,0,0,1-5.83,7.53c-9.07,7.19-22.88,3.5-28.11-6.53-2.15-4.14-3.27-9-4.47-13.47a58.89,58.89,0,0,1-2.24-12.82c-.25-6.83,2.86-17.19-.79-24.52-1.28-2.59-5.47-9.53-10.4-11.19-4.39-1.47-7.3-6-6.36-6.93.59-.59,3.73-.57,6.94.48a20,20,0,0,1-6-3.31c-2.41-2.2-3.26-5.29-2.7-6.2,1-1.52,11.41,2.23,18.11,5-2.09-1.06-7.75-3.93-8.79-4.42-2.92-1.33-5.9-6-4.4-7.86.85-1.06,13.26,2.87,17,4.57l.12.12a2.62,2.62,0,0,1,.18-1.65c1.08-2.05,24.07,8,25.47,13.85l.4-.11c.52-.65,1.05-1,1.48-.85,1.72.59,11.17,17.27,12.9,23,.76,2.48.66,5.3.67,7.86C183.08,224.44,182.89,228.41,182.65,232.37Zm-43.9,53.07c-1-.35-1.93-.64-2.62-.85Zm-12.5,3c.94.46,2.51,1.16,4.4,2l-.53-.28ZM115.57,288,127,298.08C126.49,295.2,122.67,290.69,115.57,288Z"/><path class="cls-1" d="M130.26,191.15l2.07.65C131.73,191.63,131,191.4,130.26,191.15Z"/><path class="cls-1" d="M138.16,186.06c2,.8,3.6,1.51,4.58,2l-3.89-1.63Z"/><path class="cls-1" d="M153.41,188.39c-7.12-2.63-11-7.1-11.45-10Z"/><path class="cls-1" d="M127,298.08,115.57,288C122.67,290.69,126.49,295.2,127,298.08Z"/><path class="cls-1" d="M130.12,290.12l.53.28c-1.89-.8-3.46-1.5-4.4-2Z"/><path class="cls-1" d="M136.13,284.59c.69.21,1.6.5,2.62.85Z"/><path class="cls-1" d="M166.54,190.42a4.45,4.45,0,0,0-1-1.5,12.81,12.81,0,0,0-1.47-1.37,31.92,31.92,0,0,0-3.43-2.35,64.78,64.78,0,0,0-7.5-3.87,60.54,60.54,0,0,0-7.84-3,19.44,19.44,0,0,0-1.94-.47,5.75,5.75,0,0,0-.84-.1h-.12l.14-.07a1.14,1.14,0,0,0,.26-.21.8.8,0,0,0,.13-.19l0,0h0a1.57,1.57,0,0,0,.06,1,5.12,5.12,0,0,0,.29.76,7.8,7.8,0,0,0,.44.79,17.57,17.57,0,0,0,5.76,5.35,27.06,27.06,0,0,0,3.69,1.85c.14.05.36.17.56.27l.59.32.95.73a22.12,22.12,0,0,1,1.61,1.6,58.25,58.25,0,0,1,5.25,7c.79,1.21,1.57,2.43,2.3,3.67s1.45,2.48,2.08,3.86a.49.49,0,0,1-.24.64.5.5,0,0,1-.63-.22l0,0a41.61,41.61,0,0,0-2.21-3.61c-.78-1.18-1.62-2.34-2.45-3.5a59,59,0,0,0-5.44-6.48,8.88,8.88,0,0,0-3.09-2.24,29.16,29.16,0,0,1-4.13-1.74,18.7,18.7,0,0,1-7.06-5.87,8.55,8.55,0,0,1-1.12-2.31,4.38,4.38,0,0,1,.12-3.17l0-.06.06-.1a1.94,1.94,0,0,1,.21-.29,1.75,1.75,0,0,1,.46-.38,2,2,0,0,1,.4-.18l.31-.08a3.22,3.22,0,0,1,.89-.06,7.92,7.92,0,0,1,1.29.17c.79.16,1.51.38,2.23.6a64.07,64.07,0,0,1,8.13,3.38,66.66,66.66,0,0,1,7.56,4.43,28.56,28.56,0,0,1,3.47,2.78,14.73,14.73,0,0,1,1.55,1.69,5.83,5.83,0,0,1,1.1,2.23.74.74,0,0,1-1.42.4Z"/><path class="cls-1" d="M141.06,178.75c-1.47-.47-3-.93-4.52-1.34s-3.06-.84-4.58-1.23-3.06-.77-4.57-1.07a15.22,15.22,0,0,0-2.14-.3,1,1,0,0,0-.29,0l.06,0,.06,0a1.26,1.26,0,0,0,.18-.1.77.77,0,0,0,.18-.18c0-.05,0,0,0,0s0,0,0,0-.08.2-.1.4a5,5,0,0,0,.38,1.76,8.85,8.85,0,0,0,1,1.89,8.08,8.08,0,0,0,1.46,1.63l.43.31.45.27,1.05.56c2.85,1.48,5.7,2.92,8.64,4.21a.74.74,0,0,1-.6,1.36l-.06,0h0c-2.8-1.53-5.67-2.92-8.56-4.26l-1.09-.5a7.81,7.81,0,0,1-1.18-.63,13.38,13.38,0,0,1-2-1.63,11.3,11.3,0,0,1-1.67-2.07,6.09,6.09,0,0,1-1-2.8,3.61,3.61,0,0,1,.46-1.89l.15-.24a.77.77,0,0,1,.09-.13,1.93,1.93,0,0,1,.3-.27,1.55,1.55,0,0,1,.3-.18l.2-.08.36-.09a4.09,4.09,0,0,1,.89,0,16.18,16.18,0,0,1,2.6.39c1.62.36,3.17.81,4.71,1.3a56.07,56.07,0,0,1,9,3.68.74.74,0,0,1,.31,1,.75.75,0,0,1-.89.36Z"/><path class="cls-1" d="M157.1,208.83c-1.8-3.32-3.77-6.56-5.87-9.7-1-1.57-2.15-3.11-3.3-4.59a35.9,35.9,0,0,0-3.7-4.15,9.66,9.66,0,0,0-2.07-1.54l-.26-.15-.32-.14-.64-.27-1.3-.54q-2.62-1.06-5.3-2c-3.55-1.27-7.15-2.51-10.73-3.41a19,19,0,0,0-2.61-.47,4.85,4.85,0,0,0-.54,0,.59.59,0,0,0-.17,0c-.07,0,0,0,0,0s.12-.06.15-.12a.3.3,0,0,0,.06-.11l0,0c0-.06,0,0,0,0a1.65,1.65,0,0,0,0,.39,6.17,6.17,0,0,0,.79,2.2,8.86,8.86,0,0,0,1.51,2,15.8,15.8,0,0,0,4.49,2.79,47.38,47.38,0,0,0,5.24,1.94,17.1,17.1,0,0,1,2.8,1.08,14.5,14.5,0,0,1,2.52,1.67,25.42,25.42,0,0,1,4,4.3c2.35,3.08,4.11,6.53,6.23,9.58v0a.53.53,0,0,1-.13.74.52.52,0,0,1-.72-.12c-1.19-1.55-2.19-3.17-3.24-4.75s-2.12-3.13-3.29-4.58c-2.35-2.9-5.11-5.44-8.71-6.18a49.35,49.35,0,0,1-5.53-1.78,17.56,17.56,0,0,1-5.27-3,10.34,10.34,0,0,1-2-2.48,8.47,8.47,0,0,1-1.13-3.13,4,4,0,0,1,0-1,2.7,2.7,0,0,1,.22-.69,1.9,1.9,0,0,1,.71-.76,2.3,2.3,0,0,1,.69-.26,2.76,2.76,0,0,1,.53-.07,5.24,5.24,0,0,1,.89,0,19.51,19.51,0,0,1,3,.53,92.67,92.67,0,0,1,10.95,3.7c1.78.71,3.54,1.44,5.3,2.21l1.32.58.66.31.33.16.35.21a12.18,12.18,0,0,1,2.44,1.92,37.56,37.56,0,0,1,3.73,4.5q1.69,2.34,3.2,4.79A104.44,104.44,0,0,1,158,208.39a.49.49,0,0,1-.23.66.5.5,0,0,1-.65-.21Z"/><path class="cls-1" d="M129.31,191.6a30.28,30.28,0,0,0-3.94-.66,18,18,0,0,0-1.93-.08c-.31,0-.61,0-.88.06s-.27,0-.35.07-.17.08-.07,0a.24.24,0,0,0,.09-.08.56.56,0,0,0,.12-.16.46.46,0,0,0,.07-.14.29.29,0,0,0,0-.09c0-.07,0,0,0,0a3.48,3.48,0,0,0,.25.65,8.8,8.8,0,0,0,1,1.52,10.78,10.78,0,0,0,2.82,2.56,6.78,6.78,0,0,0,.84.45,4.17,4.17,0,0,0,.44.19l.49.2a10.52,10.52,0,0,1,2,1,17.82,17.82,0,0,1,3.32,2.9,37.52,37.52,0,0,1,5,7,20.21,20.21,0,0,1,2.3,8.39,59.37,59.37,0,0,1-.14,8.55c-.17,2.8-.5,5.59-.39,8.25a44.88,44.88,0,0,0,1.18,8.08c.61,2.67,1.42,5.36,2.13,8.07a63.77,63.77,0,0,0,2.53,7.82q.39.93.84,1.83c.31.59.65,1.14,1,1.71s.77,1.06,1.15,1.6.89,1,1.33,1.46a19.24,19.24,0,0,0,6.66,4.28,18.46,18.46,0,0,0,7.93,1.16,16.21,16.21,0,0,0,7.63-2.59,19.27,19.27,0,0,0,1.65-1.2c.52-.44,1-.91,1.5-1.4a17,17,0,0,0,2.5-3.24,13.8,13.8,0,0,0,1.54-3.73,23.5,23.5,0,0,0,.54-4c.09-1.37.11-2.77.16-4.18s.16-2.84.25-4.22c.16-2.79.42-5.56.51-8.37.24-5.61.41-11.16.21-16.73a32.31,32.31,0,0,0-.3-4,13.19,13.19,0,0,0-.41-1.83c-.19-.59-.44-1.21-.7-1.82-1.09-2.48-2.39-4.94-3.73-7.37s-2.72-4.84-4.18-7.19c-.73-1.17-1.47-2.33-2.25-3.44-.38-.55-.78-1.09-1.17-1.56a4.81,4.81,0,0,0-.49-.53s-.08-.06.07,0a1.12,1.12,0,0,0,.39.11.94.94,0,0,0,.61-.12c.12-.09,0,0-.14.21a4.28,4.28,0,0,0-.35.68,10.27,10.27,0,0,0-.57,1.7A10.93,10.93,0,0,0,168,197a7.27,7.27,0,0,0,.13.75l.05.16.09.25.19.49.73,2c.48,1.32,1,2.63,1.5,3.94l.77,1.95.4,1c0,.14.15.38.22.61a4.23,4.23,0,0,1,.13.71,3.83,3.83,0,0,1-.12,1.43c-.1.36-.2.71-.31,1.06-.23.7-.49,1.38-.77,2.05a25.26,25.26,0,0,1-4.66,7.35,48.73,48.73,0,0,0-9.27,13.61,18.5,18.5,0,0,0-1.62,7.88,12.88,12.88,0,0,0,2.7,7.4.62.62,0,0,1-.11.88.63.63,0,0,1-.88-.11,14.13,14.13,0,0,1-3-8.11,20.8,20.8,0,0,1,1.6-8.49c2.14-5.35,5.58-10,9.24-14.29a23.25,23.25,0,0,0,4.12-6.9c.24-.63.45-1.26.64-1.91.1-.32.18-.64.26-1a1.77,1.77,0,0,0,0-.65,1.14,1.14,0,0,0-.07-.32,2.59,2.59,0,0,0-.15-.37l-.42-1-.86-1.91c-.58-1.28-1.17-2.55-1.78-3.81l-.9-1.9-.23-.48-.11-.23-.14-.33a6.59,6.59,0,0,1-.36-1.29,13.3,13.3,0,0,1,.09-4.76,12.9,12.9,0,0,1,.67-2.32,6.64,6.64,0,0,1,.6-1.19,4,4,0,0,1,1.26-1.33,2.43,2.43,0,0,1,3,.26,8.15,8.15,0,0,1,.94,1c.49.61.91,1.21,1.32,1.81.81,1.2,1.56,2.41,2.29,3.63,1.47,2.44,2.84,4.91,4.16,7.42s2.54,5.07,3.62,7.76c.27.68.52,1.38.74,2.13a15.28,15.28,0,0,1,.44,2.28,32.54,32.54,0,0,1,.18,4.37c0,5.64-.4,11.3-.84,16.88-.19,2.8-.56,5.61-.83,8.4-.14,1.42-.31,2.78-.41,4.16s-.18,2.8-.35,4.22a23.88,23.88,0,0,1-.8,4.23,15,15,0,0,1-1.81,4,21,21,0,0,1-6,6.13,19.4,19.4,0,0,1-16.68,2.3,20,20,0,0,1-7.63-4.35,20.42,20.42,0,0,1-5.06-7.23,56.39,56.39,0,0,1-2.75-8.13c-.73-2.71-1.48-5.41-2.08-8.21a46.86,46.86,0,0,1-1.11-8.56,71,71,0,0,1,.68-8.52,57.45,57.45,0,0,0,.5-8.25,17.65,17.65,0,0,0-1.88-7.76,30.27,30.27,0,0,0-4.77-6.64,16,16,0,0,0-3.09-2.52,8.84,8.84,0,0,0-1.73-.83l-.22-.08-.27-.09c-.18,0-.36-.13-.54-.19-.36-.14-.71-.3-1-.46a13.33,13.33,0,0,1-3.71-2.67,8.85,8.85,0,0,1-1.46-1.91,4.9,4.9,0,0,1-.51-1.3,3.12,3.12,0,0,1,0-1,3.38,3.38,0,0,1,.08-.34,2.64,2.64,0,0,1,.18-.38,2.57,2.57,0,0,1,.28-.37l.3-.23a2.58,2.58,0,0,1,.91-.36,4.68,4.68,0,0,1,.69-.11,8.25,8.25,0,0,1,1.21,0,15,15,0,0,1,2.26.31,14.47,14.47,0,0,1,4.14,1.6.75.75,0,0,1-.55,1.38Z"/><path class="cls-1" d="M102.5,286.25a4.55,4.55,0,0,0,1,1.5,12,12,0,0,0,1.47,1.37,33.44,33.44,0,0,0,3.43,2.35,65.54,65.54,0,0,0,7.5,3.87,61.45,61.45,0,0,0,7.84,3,19.44,19.44,0,0,0,1.94.47,5.63,5.63,0,0,0,.83.09c.12,0,.21,0,.18,0l0,0a.45.45,0,0,0-.14.07.8.8,0,0,0-.26.21.85.85,0,0,0-.14.19l0,0h0a1.57,1.57,0,0,0-.06-1,7.43,7.43,0,0,0-.29-.77,6.73,6.73,0,0,0-.44-.78,17.6,17.6,0,0,0-5.76-5.36,27.59,27.59,0,0,0-3.69-1.84l-.56-.28c-.2-.1-.4-.2-.59-.32l-1-.73c-.56-.52-1.11-1-1.6-1.59a57.2,57.2,0,0,1-5.25-7c-.79-1.21-1.57-2.43-2.3-3.68a42.64,42.64,0,0,1-2.08-3.85.48.48,0,0,1,.87-.42v0a39.27,39.27,0,0,0,2.22,3.6c.78,1.19,1.61,2.35,2.45,3.5a57.14,57.14,0,0,0,5.44,6.49,8.72,8.72,0,0,0,3.09,2.23,30.31,30.31,0,0,1,4.12,1.75,18.73,18.73,0,0,1,7.07,5.87,8.55,8.55,0,0,1,1.12,2.31,4.38,4.38,0,0,1-.12,3.17l0,.06s0,0-.05.09a2.73,2.73,0,0,1-.21.3,1.79,1.79,0,0,1-.47.38,1.7,1.7,0,0,1-.39.18l-.31.08a3.67,3.67,0,0,1-.89.06,9,9,0,0,1-1.29-.17,22.56,22.56,0,0,1-2.23-.61,64,64,0,0,1-8.13-3.37,68.19,68.19,0,0,1-7.56-4.43,28.56,28.56,0,0,1-3.47-2.78,13.27,13.27,0,0,1-1.55-1.7,5.72,5.72,0,0,1-1.1-2.22.74.74,0,0,1,1.42-.4Z"/><path class="cls-1" d="M128,297.91c1.47.48,3,.94,4.52,1.34s3.05.84,4.58,1.24,3.06.76,4.57,1.06a13.86,13.86,0,0,0,2.13.31,1.8,1.8,0,0,0,.3,0l-.06,0-.06,0a.69.69,0,0,0-.18.1.77.77,0,0,0-.18.18h0a0,0,0,0,1,0,0c.06,0,.08-.19.1-.4a4.73,4.73,0,0,0-.39-1.75,8.81,8.81,0,0,0-1-1.89,7.58,7.58,0,0,0-1.46-1.63l-.43-.31-.45-.27-1.06-.56c-2.84-1.48-5.69-2.92-8.63-4.21a.74.74,0,1,1,.6-1.36l.06,0h0c2.8,1.54,5.67,2.92,8.56,4.26l1.09.51a7.42,7.42,0,0,1,1.18.63,12.29,12.29,0,0,1,2,1.63,11,11,0,0,1,1.68,2.06,6.37,6.37,0,0,1,1,2.81,3.53,3.53,0,0,1-.47,1.89l-.14.23a.63.63,0,0,1-.1.14,2.56,2.56,0,0,1-.29.27,1.57,1.57,0,0,1-.31.18l-.19.07a1.42,1.42,0,0,1-.36.09,3.67,3.67,0,0,1-.9.05,18.63,18.63,0,0,1-2.59-.39c-1.62-.36-3.17-.82-4.72-1.31a55.38,55.38,0,0,1-9-3.67.74.74,0,0,1-.31-1,.75.75,0,0,1,.89-.36Z"/><path class="cls-1" d="M111.94,267.83c1.8,3.33,3.77,6.57,5.87,9.71,1,1.57,2.14,3.11,3.3,4.58a34.25,34.25,0,0,0,3.69,4.15,10.25,10.25,0,0,0,2.07,1.55l.27.15.31.14.65.27,1.3.54q2.63,1.05,5.3,2c3.55,1.27,7.15,2.51,10.73,3.41a17.28,17.28,0,0,0,2.61.46,4.89,4.89,0,0,0,.53,0,1.09,1.09,0,0,0,.17,0c.08,0,0,0,0,0s-.12.06-.15.12a.61.61,0,0,0-.07.1l0,0c0,.07,0,0,0,0a2.79,2.79,0,0,0,0-.39,6.19,6.19,0,0,0-.78-2.21,9.09,9.09,0,0,0-1.51-2,15.78,15.78,0,0,0-4.49-2.78,48.14,48.14,0,0,0-5.24-1.94,17.1,17.1,0,0,1-2.8-1.08,14,14,0,0,1-2.52-1.68,25,25,0,0,1-4-4.29c-2.35-3.08-4.11-6.53-6.23-9.58l0,0a.54.54,0,0,1,.14-.74.53.53,0,0,1,.72.11c1.19,1.56,2.19,3.18,3.24,4.75s2.12,3.14,3.29,4.59c2.35,2.9,5.11,5.44,8.71,6.17a51.57,51.57,0,0,1,5.53,1.79,17.19,17.19,0,0,1,5.26,3,10.19,10.19,0,0,1,2,2.48,8.41,8.41,0,0,1,1.13,3.13,3.93,3.93,0,0,1,0,1,2.64,2.64,0,0,1-.22.7,1.9,1.9,0,0,1-.71.76,2.09,2.09,0,0,1-.69.25,2.27,2.27,0,0,1-.53.08,8.63,8.63,0,0,1-.89,0,19.49,19.49,0,0,1-3-.54,90.88,90.88,0,0,1-11-3.7q-2.67-1-5.3-2.2l-1.32-.59-.66-.3-.33-.16-.36-.21a11.8,11.8,0,0,1-2.43-1.93,37.47,37.47,0,0,1-3.73-4.49c-1.14-1.56-2.2-3.16-3.2-4.79a106.75,106.75,0,0,1-5.53-10.06.5.5,0,0,1,.23-.66.49.49,0,0,1,.65.21Z"/><path class="cls-1" d="M139.73,285.07a30.28,30.28,0,0,0,3.94.66,15.62,15.62,0,0,0,1.92.07,8,8,0,0,0,.89-.06,2.39,2.39,0,0,0,.35-.07c.09,0,.17-.07.07,0a.24.24,0,0,0-.09.08.51.51,0,0,0-.13.16.35.35,0,0,0-.06.14.29.29,0,0,0,0,.09c0,.07,0,0,0-.05a3.16,3.16,0,0,0-.24-.65,9.63,9.63,0,0,0-1-1.52,11,11,0,0,0-2.82-2.56,8.44,8.44,0,0,0-.84-.45l-.44-.19-.49-.19a10,10,0,0,1-2-1.06,17.77,17.77,0,0,1-3.32-2.89,37.59,37.59,0,0,1-5-7,20,20,0,0,1-2.3-8.38,60.85,60.85,0,0,1,.13-8.55,80.43,80.43,0,0,0,.4-8.25,44.88,44.88,0,0,0-1.18-8.08c-.61-2.67-1.42-5.36-2.13-8.07a65,65,0,0,0-2.53-7.82c-.26-.63-.54-1.24-.85-1.83s-.65-1.14-1-1.71-.77-1.06-1.14-1.6-.89-1-1.33-1.46a19.36,19.36,0,0,0-6.66-4.29,18.61,18.61,0,0,0-7.93-1.16A16.32,16.32,0,0,0,96.34,211a19.27,19.27,0,0,0-1.65,1.2c-.52.45-1,.92-1.5,1.41a16.92,16.92,0,0,0-2.5,3.23,13.93,13.93,0,0,0-1.54,3.73,23.76,23.76,0,0,0-.54,4c-.09,1.38-.11,2.77-.16,4.18s-.16,2.85-.25,4.23c-.17,2.79-.43,5.56-.51,8.37-.24,5.6-.41,11.15-.21,16.73a32,32,0,0,0,.3,4,11.76,11.76,0,0,0,.41,1.84c.19.59.44,1.2.7,1.82,1.08,2.48,2.39,4.94,3.73,7.36s2.72,4.84,4.18,7.19c.72,1.18,1.47,2.34,2.25,3.44.38.55.78,1.1,1.17,1.57a4.76,4.76,0,0,0,.49.53s.08.06-.08,0a1.89,1.89,0,0,0-.38-.11,1,1,0,0,0-.61.12c-.12.1,0,0,.14-.2a6.07,6.07,0,0,0,.35-.68,10.59,10.59,0,0,0,.57-1.7,10.93,10.93,0,0,0,.37-3.59,5,5,0,0,0-.14-.75l-.05-.17-.09-.24-.18-.5-.73-2c-.48-1.32-1-2.63-1.5-3.94l-.77-2-.4-1c0-.14-.16-.38-.22-.61a4.23,4.23,0,0,1-.13-.71,4.12,4.12,0,0,1,.11-1.44c.1-.35.21-.7.32-1.05.23-.7.48-1.38.77-2.06a25.21,25.21,0,0,1,4.66-7.34A48.87,48.87,0,0,0,112,242.31a18.69,18.69,0,0,0,1.62-7.89A12.8,12.8,0,0,0,110.9,227a.63.63,0,0,1,1-.78,14.05,14.05,0,0,1,3,8.12,20.65,20.65,0,0,1-1.59,8.49c-2.14,5.35-5.58,10-9.25,14.28a23.48,23.48,0,0,0-4.11,6.91c-.24.62-.46,1.26-.65,1.9-.09.32-.18.65-.26,1a1.77,1.77,0,0,0,0,.65,1.67,1.67,0,0,0,.08.32,1.77,1.77,0,0,0,.15.37l.42,1,.86,1.92q.87,1.92,1.77,3.81l.91,1.9.23.47.11.24.14.33a7,7,0,0,1,.36,1.28,13.59,13.59,0,0,1-.09,4.77,12.81,12.81,0,0,1-.67,2.31,7.89,7.89,0,0,1-.6,1.2,4.1,4.1,0,0,1-1.26,1.33,2.54,2.54,0,0,1-1.61.37,2.6,2.6,0,0,1-1.38-.63,7.44,7.44,0,0,1-.94-1c-.49-.61-.91-1.21-1.32-1.81-.81-1.21-1.56-2.42-2.3-3.64-1.46-2.44-2.83-4.91-4.15-7.42s-2.54-5.06-3.63-7.76c-.26-.68-.52-1.37-.73-2.12a17.32,17.32,0,0,1-.45-2.28,34.32,34.32,0,0,1-.17-4.38c0-5.64.39-11.29.84-16.88.19-2.79.56-5.6.83-8.4.14-1.41.31-2.77.41-4.15s.18-2.8.34-4.22a25.15,25.15,0,0,1,.81-4.24,14.9,14.9,0,0,1,1.81-4,21.14,21.14,0,0,1,6-6.13,19.42,19.42,0,0,1,16.69-2.3,20.07,20.07,0,0,1,7.62,4.34,20.5,20.5,0,0,1,5.07,7.23,56.87,56.87,0,0,1,2.74,8.14c.74,2.71,1.49,5.4,2.09,8.21a45.89,45.89,0,0,1,1.1,8.56,69.17,69.17,0,0,1-.67,8.52,59,59,0,0,0-.51,8.25,17.72,17.72,0,0,0,1.89,7.75,30,30,0,0,0,4.77,6.65,16.72,16.72,0,0,0,3.09,2.52,8.71,8.71,0,0,0,1.72.82l.22.09.28.09c.18.05.36.12.54.19.35.14.7.29,1,.46a13.5,13.5,0,0,1,3.71,2.66,9,9,0,0,1,1.45,1.91,4.78,4.78,0,0,1,.52,1.31,3.1,3.1,0,0,1,.05,1c0,.11-.05.23-.09.34a1.84,1.84,0,0,1-.17.38,2,2,0,0,1-.28.36,2.34,2.34,0,0,1-.31.24,2.55,2.55,0,0,1-.9.36,4.68,4.68,0,0,1-.69.11,8.21,8.21,0,0,1-1.21,0,12.82,12.82,0,0,1-2.26-.31,13.9,13.9,0,0,1-4.14-1.6.75.75,0,0,1,.55-1.37Z"/><path class="cls-1" d="M138.12,158.85a58.77,58.77,0,0,1,58.77,58.77v41.43a58.77,58.77,0,0,1-58.77,58.77h-7.2a58.77,58.77,0,0,1-58.77-58.77V217.62a58.77,58.77,0,0,1,58.77-58.77h7.2m0-4.12h-7.2A63,63,0,0,0,68,217.62v41.43a63,63,0,0,0,62.88,62.88h7.2A63,63,0,0,0,201,259.05V217.62a63,63,0,0,0-62.88-62.89Z"/><path class="cls-1" d="M265.45,166.42V179h-14.7v60H238.21V179h-14.7V166.42Z"/><path class="cls-1" d="M346.15,166.45v50.79a21.75,21.75,0,0,1-37.26,15.27,21.76,21.76,0,0,1-37.26-15.27V166.45h12.55v50.79a9.22,9.22,0,0,0,18.44,0V166.45h12.55v50.79a9.22,9.22,0,0,0,18.44,0V166.45Z"/><path class="cls-1" d="M401.62,190.55v24.3a24.13,24.13,0,0,1-48.26,0v-24.3a24.13,24.13,0,1,1,48.26,0Zm-12.55,0a11.58,11.58,0,1,0-23.16,0v24.3a11.58,11.58,0,1,0,23.16,0Z"/><path class="cls-1" d="M480.57,226.6v12.55H438.62V166.59h12.54v60Z"/><path class="cls-1" d="M537,190.62V239H524.45V213.27H501.37v25.82H488.82V190.62a24.09,24.09,0,1,1,48.17,0Zm-12.54,10.1v-10.1a11.54,11.54,0,1,0-23.08,0v10.1Z"/><path class="cls-1" d="M595,189.77v26.07a23.27,23.27,0,0,1-23.24,23.25H548.62v-60h-5.45V166.53h28.58A23.27,23.27,0,0,1,595,189.77Zm-12.54,0a10.72,10.72,0,0,0-10.7-10.7H561.17v47.47h10.58a10.71,10.71,0,0,0,10.7-10.7Z"/><path class="cls-1" d="M621.31,179.27V226.6h5.44v12.55H603.33V226.6h5.44V179.27h-5.44V166.73h5.44v-.14h12.54v.14h5.44v12.54Z"/><path class="cls-1" d="M647.61,187.81a8.73,8.73,0,0,0,8.73,8.73h23.2v12.54h-23.2a21.37,21.37,0,0,1-8.73-1.87v10.6a8.74,8.74,0,0,0,8.73,8.73h23.2v12.55h-23.2a21.3,21.3,0,0,1-21.27-21.28v-30a21.29,21.29,0,0,1,21.27-21.28h23.2v12.54h-23.2A8.73,8.73,0,0,0,647.61,187.81Z"/><path class="cls-1" d="M731.94,219c-.5,11.43-10,20.05-22,20.05-15.18,0-20.4-10.66-21.63-13.92l11.94-4.53c1,2.58,3.46,5.67,9.69,5.67,5.17,0,9.07-3.3,9.27-7.83.07-1.64.29-6.63-11.34-10.62-17.08-5.86-20.28-15.88-20-23.26.51-11.43,10-20,22-20,15.17,0,20.39,10.65,21.63,13.92L719.6,183c-1-2.59-3.46-5.68-9.68-5.68-5.18,0-9.07,3.3-9.27,7.84-.08,1.64-.3,6.62,11.33,10.61C729.07,201.64,732.27,211.66,731.94,219Z"/><path class="cls-1" d="M262,282.5a14.31,14.31,0,0,1,4.49,10.4v12.23h-7.83V292.9a6.52,6.52,0,0,0-6-6.48h-7v18.72H237.8V259.88h7.83v18.7h7a6.51,6.51,0,0,0,6-6.47V259.88h7.83v12.23A14.27,14.27,0,0,1,262,282.5Z"/><path class="cls-1" d="M282.87,267.79v29.54h3.39v7.82H271.65v-7.82H275V267.79h-3.39V260H275v-.09h7.83V260h3.39v7.82Z"/><path class="cls-1" d="M316.32,259.77v7.83h-9.17V305h-7.82V267.6h-9.18v-7.83Z"/><path class="cls-1" d="M342.46,290h7.83a15.06,15.06,0,0,1-30.11,0V274.81a15.06,15.06,0,1,1,30.11,0h-7.83a7.23,7.23,0,1,0-14.45,0V290a7.23,7.23,0,1,0,14.45,0Z"/><path class="cls-1" d="M385.57,259.88V305.1h-7.83V286.4H363.28v18.75h-7.83V259.88h7.83v18.7h14.46v-18.7Z"/><path class="cls-1" d="M398.55,273.12a5.44,5.44,0,0,0,5.44,5.45h14.48v7.82H404a13,13,0,0,1-5.44-1.17v6.62a5.45,5.45,0,0,0,5.44,5.45h14.48v7.82H404a13.27,13.27,0,0,1-13.27-13.27V273.12A13.29,13.29,0,0,1,404,259.84h14.48v7.83H404A5.44,5.44,0,0,0,398.55,273.12Z"/><path class="cls-1" d="M454.84,274.17v30.89H447V274.17a6.55,6.55,0,1,0-13.09,0v30.89H426.1V267.7h-3.74v-7.82h3.92a7.63,7.63,0,0,1,5.78,2.64,14.36,14.36,0,0,1,22.78,11.65Z"/></svg>