<svg id="Layer_1" data-name="Layer 1" xmlns="http://www.w3.org/2000/svg" viewBox="0 0 800 460.67"><defs><style>.cls-1{fill:#30261d;}</style></defs><path class="cls-1" d="M468.93,162.13a7.48,7.48,0,0,1,.78,4.05,24.65,24.65,0,0,1-.43,3.86,58.13,58.13,0,0,1-1.93,7.39,54.89,54.89,0,0,1-2.93,7.09c-.3.58-.62,1.16-1,1.75a8.27,8.27,0,0,1-.7.91,2.88,2.88,0,0,1-.59.51,2.29,2.29,0,0,1-.59.27,1.81,1.81,0,0,1-.57,0,1.26,1.26,0,0,1-.28,0l-.12,0a3.8,3.8,0,0,1-2-1.89,7.4,7.4,0,0,1-.74-2.11,16.26,16.26,0,0,1,.73-8,24.32,24.32,0,0,1,1.48-3.62,7.89,7.89,0,0,0,.52-3.28,49.66,49.66,0,0,0-.65-7.35,57.29,57.29,0,0,0-1.5-7.26v0a.41.41,0,0,1,.28-.52.42.42,0,0,1,.52.26,58.41,58.41,0,0,1,1.94,7.34,49.25,49.25,0,0,1,1.07,7.54,9.29,9.29,0,0,1-.48,4.09,23.48,23.48,0,0,0-1.13,3.41,15.41,15.41,0,0,0-.27,6.86,5.44,5.44,0,0,0,.51,1.41,1.36,1.36,0,0,0,.6.67s0,0,0,0l-.16,0a.64.64,0,0,0-.34,0c-.1,0-.12,0-.17.06a.44.44,0,0,0,.11-.1,5.13,5.13,0,0,0,.46-.57c.31-.45.61-1,.9-1.48a52.89,52.89,0,0,0,3-6.69,56.68,56.68,0,0,0,2.24-7,27.49,27.49,0,0,0,.66-3.56,6.75,6.75,0,0,0-.26-3.28l0-.07a.64.64,0,0,1,1.14-.6Z"/><path class="cls-1" d="M460.52,186.16a51.34,51.34,0,0,1-3.29,7.81c-.65,1.26-1.33,2.49-2.1,3.71a15,15,0,0,1-1.36,1.84,3.47,3.47,0,0,1-.58.53,1.62,1.62,0,0,1-.28.16,1.26,1.26,0,0,1-.47.15,1.3,1.3,0,0,1-.34,0l-.15,0-.23-.06a3,3,0,0,1-1.45-.88,5.21,5.21,0,0,1-1.13-2.32,9.53,9.53,0,0,1-.25-2.3,12.42,12.42,0,0,1,.25-2.27,6.72,6.72,0,0,1,.34-1.11l.36-1c1-2.6,1.88-5.23,2.65-7.9a.64.64,0,0,1,1.24.35.11.11,0,0,1,0,.06c-1,2.61-1.88,5.26-2.72,7.92l-.31,1a6.52,6.52,0,0,0-.18.9,6.73,6.73,0,0,0,.1,1.9,6.24,6.24,0,0,0,1.39,3.11c.14.11.26.2.31.18h0a.81.81,0,0,0-.22,0l-.23.07-.05,0,.19-.18a12.35,12.35,0,0,0,1.13-1.51c.74-1.11,1.46-2.29,2.16-3.47s1.4-2.37,2.06-3.58,1.35-2.42,2-3.62v0a.65.65,0,0,1,.87-.29A.66.66,0,0,1,460.52,186.16Z"/><path class="cls-1" d="M451.48,157a90.9,90.9,0,0,1,2.79,9.6,47.31,47.31,0,0,1,1.45,10,10.59,10.59,0,0,1-.31,2.69c-.25.9-.57,1.62-.87,2.42q-.92,2.34-1.91,4.63a79.63,79.63,0,0,1-4.48,9,17.92,17.92,0,0,1-1.51,2.19,6.9,6.9,0,0,1-.54.55,2.32,2.32,0,0,1-1,.55,1.55,1.55,0,0,1-.91,0,1.83,1.83,0,0,1-.56-.3,3.48,3.48,0,0,1-.64-.63,8.63,8.63,0,0,1-1.52-5.38,14.67,14.67,0,0,1,1.36-5.12,43.46,43.46,0,0,1,2.31-4.51c1.77-2.67,1.9-5.94,1.56-9.18s-1.24-6.42-1.73-9.78a.47.47,0,0,1,.92-.15v0c.57,3.19,1.62,6.4,2.06,9.75a21.32,21.32,0,0,1,.18,5.12,12.05,12.05,0,0,1-.52,2.58,14.62,14.62,0,0,1-1.06,2.4,41,41,0,0,0-2,4.43,14.37,14.37,0,0,0-1.06,4.48,6.76,6.76,0,0,0,1.18,4,2.23,2.23,0,0,0,.24.23s.05,0,0,0-.28,0-.3,0,.24-.18.43-.43a15.69,15.69,0,0,0,1.32-1.89c1.67-2.76,3.09-5.76,4.51-8.73.69-1.49,1.37-3,2-4.51.3-.74.67-1.54.88-2.23a9.15,9.15,0,0,0,.32-2.23,46,46,0,0,0-1.07-9.7c-.64-3.23-1.43-6.44-2.37-9.61a.43.43,0,0,1,.29-.53A.44.44,0,0,1,451.48,157Z"/><path class="cls-1" d="M445.34,185.52a12.54,12.54,0,0,1-1.57,3.53,11.24,11.24,0,0,1-1.2,1.59,6.62,6.62,0,0,1-.76.73,3,3,0,0,1-1.27.69,1.66,1.66,0,0,1-1.31-.28,2.63,2.63,0,0,1-.62-.66,4.61,4.61,0,0,1-.48-1.12,7.57,7.57,0,0,1-.28-2.07,11.92,11.92,0,0,1,.64-3.94,15.54,15.54,0,0,1,.78-1.79,7.48,7.48,0,0,0,.55-1.57,14.12,14.12,0,0,0,.35-3.46,27.33,27.33,0,0,0-1.15-7c-3.07-9.15-14.51-12.3-19.28-21.51-1.36-2.1-2.56-4.22-3.77-6.35a55,55,0,0,1-3.33-6.7A17.92,17.92,0,0,1,411.3,128a17.51,17.51,0,0,1,2-7.38A16.92,16.92,0,0,1,425,111.73a18.43,18.43,0,0,1,7.47.1,15.53,15.53,0,0,1,6.65,3.44c1,.78,1.89,1.59,2.82,2.38s1.86,1.52,2.82,2.31c1.89,1.56,3.85,3.06,5.69,4.67,3.71,3.16,7.44,6.41,10.92,9.89a28,28,0,0,1,2.59,2.8,14.37,14.37,0,0,1,2,3.44c1,2.33,1.8,4.66,2.56,7s1.4,4.73,2,7.13c.3,1.21.58,2.42.82,3.66.12.62.23,1.26.31,1.93,0,.16,0,.38,0,.57l0,.28a2.12,2.12,0,0,1,0,.4,5.05,5.05,0,0,1-.12.56l-.09.27a1.78,1.78,0,0,1-.23.33,2.19,2.19,0,0,1-1.21.79,3.58,3.58,0,0,1-1.6,0,6.57,6.57,0,0,1-1.11-.37,12.07,12.07,0,0,1-1.85-1,11.82,11.82,0,0,1-3-2.88,6,6,0,0,1-.57-1c-.19-.41-.23-.61-.35-.92l-.61-1.73c-.4-1.16-.85-2.29-1.27-3.44l-.64-1.72-.33-.85a2.48,2.48,0,0,0-.29-.57,1.69,1.69,0,0,0-.42-.38l-.76-.43c-.51-.28-1-.53-1.57-.77a20.21,20.21,0,0,0-6.79-1.71,44.6,44.6,0,0,1-14.5-3.14,18.33,18.33,0,0,1-6.21-4.26,12.4,12.4,0,0,1-3.14-6.87.54.54,0,1,1,1.08-.14h0a11.27,11.27,0,0,0,2.92,6.21,16.24,16.24,0,0,0,5.85,3.86,43.06,43.06,0,0,0,14.1,2.67,22.24,22.24,0,0,1,7.41,1.67c.59.25,1.16.51,1.73.8l.85.46a3.43,3.43,0,0,1,1,.82,4.41,4.41,0,0,1,.59,1l.35.85.74,1.68c.5,1.11,1,2.24,1.49,3.35a18.35,18.35,0,0,0,1.51,3,9.85,9.85,0,0,0,2.45,2,8.69,8.69,0,0,0,1.39.71,4.09,4.09,0,0,0,.63.2c.1,0,.14,0,.22,0s0,0,0,0-.26.09-.46.3a.89.89,0,0,0-.09.16l0,0a.17.17,0,0,0,0,.11v-.22c0-.12,0-.22,0-.36-.06-.54-.14-1.1-.24-1.69-.21-1.16-.46-2.33-.74-3.5q-.82-3.53-1.85-7c-.67-2.32-1.39-4.64-2.25-6.83a12,12,0,0,0-1.56-3,26.57,26.57,0,0,0-2.3-2.65c-3.31-3.57-6.84-6.88-10.44-10.19-1.79-1.68-3.65-3.23-5.48-4.85-.9-.79-1.85-1.6-2.75-2.45s-1.77-1.69-2.67-2.48a14.08,14.08,0,0,0-6.09-3.51,15.45,15.45,0,0,0-3.53-.45,14.85,14.85,0,0,0-9.85,3.45,16.06,16.06,0,0,0-4.17,5.6,16.88,16.88,0,0,0-1.47,6.75,17.1,17.1,0,0,0,1.42,6.72,51.87,51.87,0,0,0,3.26,6.38c1.25,2.1,2.4,4.26,3.67,6.28a38.37,38.37,0,0,0,4.26,5.71,64.12,64.12,0,0,0,5.32,4.86,51.16,51.16,0,0,1,5.37,5.16,17.47,17.47,0,0,1,3.75,6.6,31.66,31.66,0,0,1,1.25,7.39,15.93,15.93,0,0,1-.26,3.82,9.81,9.81,0,0,1-.6,1.91,9.44,9.44,0,0,0-.57,1.61,9,9,0,0,0-.17,3.31,7,7,0,0,0,.34,1.53,3.39,3.39,0,0,0,.25.56s.08.1,0,0l-.05,0a.52.52,0,0,0-.15-.06.73.73,0,0,0-.26,0c-.14.06.16-.07.31-.2s.39-.33.58-.51c.4-.37.77-.81,1.15-1.23a28,28,0,0,0,2-2.85h0a.66.66,0,0,1,1.19.51Z"/><path class="cls-1" d="M335.08,162.8a6.87,6.87,0,0,0-.26,3.28,27.52,27.52,0,0,0,.67,3.56,55,55,0,0,0,2.24,7,52.89,52.89,0,0,0,3,6.69,14.19,14.19,0,0,0,.9,1.48,5.13,5.13,0,0,0,.46.57c.06.07.12.11.1.1s-.06,0-.17-.06a.61.61,0,0,0-.33,0l-.16,0c-.05,0,0,0,0,0a1.32,1.32,0,0,0,.61-.67,5.09,5.09,0,0,0,.5-1.41,15.26,15.26,0,0,0-.26-6.86,23.48,23.48,0,0,0-1.13-3.41,9.31,9.31,0,0,1-.49-4.09,51.86,51.86,0,0,1,1.07-7.54,58.46,58.46,0,0,1,2-7.34.43.43,0,0,1,.54-.26.43.43,0,0,1,.26.52l0,0a59.09,59.09,0,0,0-1.5,7.26,49.64,49.64,0,0,0-.64,7.35,7.73,7.73,0,0,0,.52,3.28,26.67,26.67,0,0,1,1.48,3.62,16.5,16.5,0,0,1,.73,8,7.75,7.75,0,0,1-.75,2.11,3.78,3.78,0,0,1-2,1.89l-.13,0a1.17,1.17,0,0,1-.27,0,1.79,1.79,0,0,1-.57,0,2.29,2.29,0,0,1-.59-.27,3.29,3.29,0,0,1-.6-.51,8.1,8.1,0,0,1-.69-.91,18.51,18.51,0,0,1-1-1.75,53.51,53.51,0,0,1-2.93-7.09,58.13,58.13,0,0,1-1.93-7.39,24.65,24.65,0,0,1-.43-3.86,7.48,7.48,0,0,1,.78-4.05.65.65,0,0,1,.88-.23.66.66,0,0,1,.26.82Z"/><path class="cls-1" d="M343.6,185.7c.61,1.2,1.27,2.42,2,3.62s1.35,2.4,2.06,3.58,1.41,2.36,2.16,3.47a11.41,11.41,0,0,0,1.13,1.51,2.09,2.09,0,0,0,.19.18s0,0-.06,0a1.22,1.22,0,0,0-.22-.07.81.81,0,0,0-.22,0h0c.06,0,.17-.07.32-.18a6.24,6.24,0,0,0,1.38-3.11,6.73,6.73,0,0,0,.11-1.9,6.52,6.52,0,0,0-.18-.9l-.32-1c-.84-2.66-1.7-5.31-2.72-7.92a.65.65,0,0,1,1.21-.47.11.11,0,0,0,0,.06c.77,2.67,1.7,5.3,2.65,7.9l.36,1a9.4,9.4,0,0,1,.34,1.11,11.59,11.59,0,0,1,.24,2.27,9,9,0,0,1-.24,2.3,5.24,5.24,0,0,1-1.14,2.32,3,3,0,0,1-1.44.88l-.24.06-.14,0a1.4,1.4,0,0,1-.35,0,1.33,1.33,0,0,1-.47-.15,1.19,1.19,0,0,1-.27-.16,3.11,3.11,0,0,1-.58-.53,15,15,0,0,1-1.36-1.84c-.78-1.22-1.46-2.45-2.1-3.71a49.39,49.39,0,0,1-3.29-7.81.65.65,0,0,1,.43-.81.63.63,0,0,1,.76.33Z"/><path class="cls-1" d="M352.25,157.26c-.94,3.17-1.72,6.38-2.36,9.61a46.65,46.65,0,0,0-1.08,9.7,8.69,8.69,0,0,0,.33,2.23c.21.69.57,1.49.88,2.23.64,1.52,1.32,3,2,4.51,1.42,3,2.83,6,4.5,8.73a15.72,15.72,0,0,0,1.33,1.89c.19.25.56.49.43.43s-.33,0-.31,0,0,0,0,0a1.21,1.21,0,0,0,.24-.23,6.69,6.69,0,0,0,1.18-4,13.83,13.83,0,0,0-1.06-4.48,40.93,40.93,0,0,0-2-4.43,14.62,14.62,0,0,1-1.06-2.4,11.47,11.47,0,0,1-.52-2.58,21.32,21.32,0,0,1,.17-5.12c.45-3.35,1.49-6.56,2.06-9.75v0a.46.46,0,0,1,.91.14c-.49,3.36-1.4,6.53-1.73,9.78s-.2,6.51,1.56,9.18a43.52,43.52,0,0,1,2.32,4.51,15.12,15.12,0,0,1,1.36,5.12,8.63,8.63,0,0,1-1.52,5.38,3.48,3.48,0,0,1-.64.63,2,2,0,0,1-.56.3,1.55,1.55,0,0,1-.91,0,2.32,2.32,0,0,1-.95-.55,5.52,5.52,0,0,1-.54-.55,18,18,0,0,1-1.52-2.19,81.34,81.34,0,0,1-4.48-9q-1-2.29-1.91-4.63c-.3-.8-.61-1.52-.86-2.42a9.76,9.76,0,0,1-.31-2.69,48,48,0,0,1,1.44-10,93.39,93.39,0,0,1,2.8-9.6.43.43,0,0,1,.82.26Z"/><path class="cls-1" d="M358.76,185a28,28,0,0,0,2,2.85c.38.42.75.86,1.15,1.23.2.18.39.36.59.51s.44.26.3.2a.73.73,0,0,0-.26,0,.45.45,0,0,0-.14.06l-.05,0c-.08.09,0,0,0,0a4.5,4.5,0,0,0,.25-.56,7.64,7.64,0,0,0,.34-1.53,9.24,9.24,0,0,0-.17-3.31,10.39,10.39,0,0,0-.57-1.61,9.81,9.81,0,0,1-.6-1.91,15.93,15.93,0,0,1-.26-3.82,31.66,31.66,0,0,1,1.25-7.39,17.59,17.59,0,0,1,3.74-6.6,52.25,52.25,0,0,1,5.38-5.16,64.12,64.12,0,0,0,5.32-4.86,38.31,38.31,0,0,0,4.25-5.71c1.28-2,2.43-4.18,3.68-6.28a51.79,51.79,0,0,0,3.25-6.38,16.92,16.92,0,0,0,1.42-6.72,16.7,16.7,0,0,0-1.46-6.75,16.06,16.06,0,0,0-4.17-5.6,14.85,14.85,0,0,0-9.85-3.45,15.45,15.45,0,0,0-3.53.45,14.08,14.08,0,0,0-6.09,3.51c-.91.79-1.78,1.64-2.67,2.48s-1.85,1.66-2.76,2.45c-1.82,1.62-3.69,3.17-5.47,4.85-3.6,3.31-7.13,6.62-10.45,10.19a27.8,27.8,0,0,0-2.29,2.65,12,12,0,0,0-1.57,3c-.86,2.19-1.57,4.51-2.24,6.83s-1.31,4.66-1.86,7c-.27,1.17-.53,2.34-.73,3.5-.11.59-.19,1.15-.25,1.69,0,.14,0,.24,0,.36v.16c0,.07,0,.14,0,.06a.17.17,0,0,0,0-.11l-.05,0a.79.79,0,0,0-.08-.16c-.21-.21-.32-.28-.46-.3s-.06,0,0,0,.11,0,.22,0a4.46,4.46,0,0,0,.63-.2,8.69,8.69,0,0,0,1.39-.71,9.62,9.62,0,0,0,2.44-2,18.35,18.35,0,0,0,1.51-3c.52-1.11,1-2.24,1.5-3.35l.73-1.68.36-.85a3.8,3.8,0,0,1,.59-1,3.54,3.54,0,0,1,1-.82l.85-.46c.57-.29,1.15-.55,1.74-.8a22.19,22.19,0,0,1,7.4-1.67,43,43,0,0,0,14.1-2.67,16.28,16.28,0,0,0,5.86-3.86,11.33,11.33,0,0,0,2.91-6.21h0a.55.55,0,0,1,1.09.14,12.47,12.47,0,0,1-3.14,6.87,18.43,18.43,0,0,1-6.21,4.26,44.66,44.66,0,0,1-14.5,3.14,20.21,20.21,0,0,0-6.79,1.71c-.54.24-1.06.49-1.58.77l-.75.43a1.69,1.69,0,0,0-.42.38,1.88,1.88,0,0,0-.29.57l-.33.85-.64,1.72c-.42,1.15-.87,2.28-1.27,3.44l-.61,1.73c-.12.31-.16.51-.35.92a6.71,6.71,0,0,1-.57,1,11.56,11.56,0,0,1-4.84,3.87,6.57,6.57,0,0,1-1.11.37,3.62,3.62,0,0,1-1.61,0,2.19,2.19,0,0,1-1.21-.79,1.72,1.72,0,0,1-.22-.33l-.09-.27a2.66,2.66,0,0,1-.12-.56,1.5,1.5,0,0,1,0-.4v-.28c0-.19,0-.41,0-.57.08-.67.18-1.31.31-1.93.24-1.24.52-2.45.82-3.66.6-2.4,1.28-4.77,2-7.13s1.55-4.69,2.56-7a14,14,0,0,1,2-3.44,29.26,29.26,0,0,1,2.6-2.8c3.47-3.48,7.2-6.73,10.92-9.89,1.84-1.61,3.8-3.11,5.69-4.67,1-.79,1.9-1.52,2.82-2.31s1.84-1.6,2.81-2.38a15.62,15.62,0,0,1,6.66-3.44,18.38,18.38,0,0,1,7.46-.1,16.93,16.93,0,0,1,11.7,8.88,17.35,17.35,0,0,1,2,7.38,17.77,17.77,0,0,1-1.34,7.58,53.53,53.53,0,0,1-3.32,6.7c-1.21,2.13-2.41,4.25-3.77,6.35C378.4,157.83,367,161,363.89,170.13a27.78,27.78,0,0,0-1.16,7,14.12,14.12,0,0,0,.35,3.46,7.51,7.51,0,0,0,.56,1.57,15.54,15.54,0,0,1,.78,1.79,11.91,11.91,0,0,1,.63,3.94,7.21,7.21,0,0,1-.28,2.07,3.94,3.94,0,0,1-.48,1.12,2.56,2.56,0,0,1-.61.66,1.66,1.66,0,0,1-1.31.28,3,3,0,0,1-1.27-.69,7.68,7.68,0,0,1-.77-.73,11.16,11.16,0,0,1-1.19-1.59,12.27,12.27,0,0,1-1.57-3.53.65.65,0,0,1,1.18-.51Z"/><path class="cls-1" d="M420.71,161.78A19.48,19.48,0,0,1,399.36,181a19.38,19.38,0,0,1-16.89-14.77,20.49,20.49,0,0,1-.24-7.88,17.92,17.92,0,0,1,2.89-7.38,34.9,34.9,0,0,1,2.48-3c.83-.94,1.66-1.88,2.44-2.84A26.56,26.56,0,0,0,394,139a31.21,31.21,0,0,0,2.17-7,43.08,43.08,0,0,0,.65-7.41l.34-7.57c.1-2.52.19-5,.1-7.53a24.77,24.77,0,0,0-1.15-7.26l0-.06,0-.07,0,.07-.21-.51-.05-.24a.49.49,0,0,0,.16.38l-.12-.17a53.86,53.86,0,0,0-3.69-6.25c-1.35-2-2.75-4-4.17-6q-4.29-6-8.78-11.8h0a.34.34,0,0,1,.51-.44c3.27,3.3,6.7,6.47,10.25,9.44,1.78,1.49,3.61,2.91,5.5,4.23a29.54,29.54,0,0,0,5.92,3.35h0l-.29,0a5.8,5.8,0,0,1,5,2.79,5.91,5.91,0,0,1,.17,5.83l0-.09a24,24,0,0,0-1,7.5c0,2.61.05,5.25.16,7.89l.33,8a33.36,33.36,0,0,0,1,7.62,31,31,0,0,0,2.73,7.08A33.37,33.37,0,0,0,414,146.8c.85,1,1.76,1.8,2.72,3a17,17,0,0,1,2.23,3.69A20.34,20.34,0,0,1,420.71,161.78Zm-2.74,0a17.4,17.4,0,0,0-1.58-7.14,13.91,13.91,0,0,0-1.89-3.09c-.71-.87-1.75-1.88-2.62-2.9a35.83,35.83,0,0,1-4.76-6.75,31.57,31.57,0,0,1-2.86-7.77,37.08,37.08,0,0,1-.89-8.16l-.15-8c-.05-2.66-.1-5.33,0-8,0-1.35.14-2.7.32-4.06a15.18,15.18,0,0,1,1-4.11v0l0-.06a4.1,4.1,0,0,0,0-4,4.16,4.16,0,0,0-3.54-2.1H401a.86.86,0,0,1-.23-.06h0a30.16,30.16,0,0,1-6.12-3.71c-1.89-1.41-3.7-2.91-5.45-4.47-3.5-3.12-6.82-6.4-10-9.82l.51-.45h0c3.06,3.85,6.06,7.73,9,11.68,1.46,2,2.9,4,4.3,6a54.07,54.07,0,0,1,3.88,6.35l-.11-.16a.63.63,0,0,1,.17.42l-.06-.24.26.57,0,.07,0,.07,0-.06a26.35,26.35,0,0,1,1.37,7.61c.13,2.56.1,5.1,0,7.63l-.19,7.57a43.47,43.47,0,0,1-.54,7.68,33.55,33.55,0,0,1-2.2,7.45,28.24,28.24,0,0,1-4.07,6.66c-1.56,2-3.38,3.92-4.78,5.79A17.46,17.46,0,0,0,384,158.7a17.16,17.16,0,0,0,28.58,15.62A16.94,16.94,0,0,0,418,161.78Z"/><path class="cls-1" d="M396.89,182.28a75.68,75.68,0,0,0,3.25,11.45l.5,1.39a3.79,3.79,0,0,0,.7,1.33c.69.8,1.61,1.53,1.82,2.5s-.26,2.2.15,3.1.54,1.91.84,2.85c1.2,3.78,2.59,7.48,3.81,11.25.5,1.92,1.23,3.76,1.84,5.65l1.93,5.61a.09.09,0,0,1-.05.11.08.08,0,0,1-.1-.05l-2.14-5.54c-.75-1.84-1.37-3.72-2.22-5.51-1.45-3.69-2.72-7.44-4.18-11.12-.37-.92-.76-1.83-1.15-2.74s-1.43-1.59-1.85-2.49-.21-2-.18-3.09a3.83,3.83,0,0,0-.31-1.47l-.49-1.4a75.6,75.6,0,0,0-4.74-10.91,1.38,1.38,0,1,1,2.42-1.33A1.56,1.56,0,0,1,396.89,182.28Z"/><path class="cls-1" d="M413.1,221.38l-5.82-4.91.51-.25c.13,3.08.34,6.14.51,9.21a.05.05,0,0,1-.05.06.06.06,0,0,1-.06-.05c-.34-3.06-.63-6.11-1-9.17a.3.3,0,0,1,.26-.33.33.33,0,0,1,.25.08l5.5,5.26a.08.08,0,0,1,0,.1A.08.08,0,0,1,413.1,221.38Z"/><path class="cls-1" d="M410.08,182.2c-.69,3.56-1.18,7.13-1.56,10.71-.2,1.8-.36,3.59-.49,5.39,0,.45-.09.9-.1,1.35a3.46,3.46,0,0,0,.34,1.39,2.59,2.59,0,0,1-.09,2.71,4.43,4.43,0,0,0-.67,1.29c-.09.44-.14.89-.21,1.34l-.41,2.67c-.29,1.78-.49,3.58-.72,5.36l-1.29,10.74v-.07a17.53,17.53,0,0,1-.51,5.31,7.76,7.76,0,0,1-2.8,4.45.11.11,0,0,1-.16,0,.11.11,0,0,1,0-.16,7.37,7.37,0,0,0,2.47-4.38,16.62,16.62,0,0,0,.25-5.12v-.06h0L405,214.3c.11-1.8.28-3.6.34-5.4l.13-2.71c0-.45,0-.9,0-1.35a4.76,4.76,0,0,0-.39-1.4,2.56,2.56,0,0,1,.43-2.67,3.61,3.61,0,0,0,.62-1.3c.07-.44.11-.89.16-1.34.22-1.79.42-3.58.58-5.37.34-3.59.55-7.19.58-10.81a1.3,1.3,0,0,1,2.59,0A1.79,1.79,0,0,1,410.08,182.2Z"/><path class="cls-1" d="M395.75,232l1.43-.19c.46-.11.93-.19,1.39-.34a9.52,9.52,0,0,0,2.56-1.2,7.42,7.42,0,0,0,2-2,6.35,6.35,0,0,0,1.05-2.51h0v0a.35.35,0,0,1,.69,0,14.89,14.89,0,0,0,2.25,5.17,9.43,9.43,0,0,0,2,2,7.41,7.41,0,0,0,2.59,1.13h0a.1.1,0,0,1,.08.12.11.11,0,0,1-.13.08,7.66,7.66,0,0,1-2.74-1.06,9.82,9.82,0,0,1-2.16-2,14.78,14.78,0,0,1-1.54-2.52,15.68,15.68,0,0,1-1-2.78l.7,0h0a6.84,6.84,0,0,1-1.29,2.75,8.3,8.3,0,0,1-2.2,2,10.44,10.44,0,0,1-2.72,1.13c-.48.13-1,.19-1.44.29l-1.46.12a.09.09,0,0,1-.11-.09.1.1,0,0,1,.09-.11Z"/><path class="cls-1" d="M400.66,127.06c.59,3.72,3,9.17,5.54,9.17-1.87-5.17-2.54-27.1-2.22-30.15a18.18,18.18,0,0,0-1.24-4.74c-.37-.74-.65-1.52-1-2.26a6.63,6.63,0,0,1-.52-4.89,9.51,9.51,0,0,0-4.34,1.32,4.1,4.1,0,0,0-1.73,3.7c.1.79,1.15,2.06,1.47,2.78C400.37,110.56,400.07,123.33,400.66,127.06Z"/><path class="cls-1" d="M396.17,96.83,379.41,77.31a0,0,0,0,1,0,0h0l17.21,19.12a.33.33,0,0,1,0,.47.35.35,0,0,1-.48,0Z"/><path class="cls-1" d="M401.45,69.16a88,88,0,1,1-88,88,88,88,0,0,1,88-88m0-4.65a92.66,92.66,0,1,0,92.66,92.66,92.76,92.76,0,0,0-92.66-92.66Z"/><path class="cls-1" d="M401.45,59.29a97.88,97.88,0,1,1-97.88,97.88,97.89,97.89,0,0,1,97.88-97.88m0-1.37a99.25,99.25,0,1,0,99.25,99.25,99.36,99.36,0,0,0-99.25-99.25Z"/><path class="cls-1" d="M182.09,344.16H169.64V293.73H155.19V283.55h41.26v10.18H182.09Z"/><path class="cls-1" d="M264.6,283.55h13l-16.9,60.61H248.16l-9.54-39.71-9.55,39.71H216.53L200,283.55h13.18l9.72,38.26,9.82-38.26h12.36l9.45,38.89Z"/><path class="cls-1" d="M335.21,292.54c5.18,5.82,7.73,12.82,7.73,21.63a31,31,0,0,1-31,31.17c-17.72,0-31.63-13.72-31.63-31.17a31.28,31.28,0,0,1,31.81-31.8A31,31,0,0,1,335.21,292.54ZM293.05,314c0,11.27,8.08,19.9,18.63,19.9s18.62-8.63,18.62-19.63c0-11.72-7.81-20.35-18.53-20.35S293.05,302.45,293.05,314Z"/><path class="cls-1" d="M412.72,333.89v10.27H380V283.55h12.45v50.34Z"/><path class="cls-1" d="M433.9,333.71l-3.64,10.45H417.08L438,283.55h15.54l20.71,60.61H460.61l-3.45-10.45Zm11.63-35.26-8.45,25.08h16.81Z"/><path class="cls-1" d="M480.69,283.55h17.18c9.81,0,16.45,2,21.81,6.72,6.18,5.46,9.54,13.36,9.54,22.9,0,9.73-3.45,18.45-9.63,24-5,4.55-12.27,7-21,7h-17.9Zm12.45,50.34h2.37c6.63,0,10.72-1.18,14.26-4.18,4.36-3.72,6.82-9.45,6.82-16.17,0-12.09-7.36-19.91-18.9-19.91h-4.55Z"/><path class="cls-1" d="M551.39,344.16H538.94V283.55h12.45Z"/><path class="cls-1" d="M574.38,308.63h21.27v10.18H574.38V334h21.27v10.18H561.93V283.55h33.72v10.18H574.38Z"/><path class="cls-1" d="M615.54,326.44v.82c0,4.09,3.55,7.09,8.27,7.09,4.55,0,8-2.82,8-6.46a6,6,0,0,0-2.45-4.81c-1.55-1.18-2.64-1.64-7.36-3.36-13.27-4.73-18-9.73-18-19,0-11,8.09-18.35,20-18.35s19.44,6.9,20.44,18.53H631.9c-.45-5.08-3-7.54-7.9-7.54-4.46,0-7.46,2.55-7.46,6.36,0,2.46,1.28,4.36,3.73,5.73a43.17,43.17,0,0,0,7.09,3c6.63,2.45,10,4.18,12.63,6.72a15.7,15.7,0,0,1,4.82,11.73c0,11.08-8.36,18.44-20.91,18.44-12.72,0-20.53-7.27-20.44-18.9Z"/><path class="cls-1" d="M307.34,402h-7.77V364.2h7.77v16.44l10.71-16.44h9l-12.24,18.19L327.06,402h-9.12l-10.6-16.84Z"/><path class="cls-1" d="M339.14,402h-7.76V364.2h7.76Z"/><path class="cls-1" d="M360,402h-7.76V370.55h-9V364.2H369v6.35h-9Z"/><path class="cls-1" d="M403,397c-4.37,4.08-8.45,5.73-14.06,5.73s-10.21-1.93-13.55-5.67a21,21,0,0,1-5.1-13.89c0-11.51,7.82-19.73,18.76-19.73,5.84,0,9.81,1.64,14.29,6l-5.05,5.1c-3.06-2.78-5.67-3.91-8.84-3.91-6.63,0-11.28,5.1-11.28,12.36s4.87,12.53,11.68,12.53a10.45,10.45,0,0,0,8.44-3.86Z"/><path class="cls-1" d="M415.85,402h-7.76V364.2h7.76v16H430.2v-16H438V402H430.2V386.53H415.85Z"/><path class="cls-1" d="M452.37,379.84h13.26v6.35H452.37v9.47h13.26V402h-21V364.2h21v6.35H452.37Z"/><path class="cls-1" d="M479.92,402h-7.77V364.2h7.66l15.82,23.58V364.2h7.76V402h-7.6l-15.87-23.93Z"/></svg>