<svg xmlns="http://www.w3.org/2000/svg" xmlns:xlink="http://www.w3.org/1999/xlink" width="1600" height="400" viewBox="0 0 1600 400">
  <defs>
    <linearGradient id="linear-gradient" x1="-0.23" y1="0.5" x2="0.633" y2="0.5" gradientUnits="objectBoundingBox">
      <stop offset="0" stop-color="#363940" stop-opacity="0.09"/>
      <stop offset="0.472" stop-color="#aeb0b2" stop-opacity="0.078"/>
      <stop offset="1" stop-color="#fff" stop-opacity="0"/>
    </linearGradient>
    <clipPath id="clip-styletile">
      <rect width="1600" height="400"/>
    </clipPath>
  </defs>
  <g id="styletile" clip-path="url(#clip-styletile)">
    <rect width="1600" height="400" fill="#fff"/>
    <g id="Group_755" data-name="Group 755" transform="translate(-9835 -5687)">
      <path id="Path_403" data-name="Path 403" d="M0,0H1600V400H0Z" transform="translate(9835 5687)" fill="#fcfcfc"/>
    </g>
    <g id="Group_753" data-name="Group 753" transform="translate(-397.489 -1863.755)">
      <g id="Prime" transform="translate(598.489 2127.194)" style="isolation: isolate">
        <g id="Group_544" data-name="Group 544" transform="translate(0)" style="isolation: isolate">
          <path id="Path_153" data-name="Path 153" d="M574.538,2164.765v-38.411h10.124v5.48c3.335-3.514,6.61-6.074,10.719-6.074,5.42,0,8.337,4.049,8.337,14.352,0,11.077-5.777,15.186-13.22,15.186a25.6,25.6,0,0,1-5.836-.536v10ZM593,2147.316a21.171,21.171,0,0,0,.953-6.253c0-5.3-1.548-6.611-4.824-6.611a7.592,7.592,0,0,0-3.752.774,17.738,17.738,0,0,0-.714,5.122v7.443c1.25.12,2.679.179,3.751.179A12.678,12.678,0,0,0,593,2147.316Z" transform="translate(-574.538 -2114.92)" fill="#2d0043"/>
          <path id="Path_154" data-name="Path 154" d="M648.065,2137.133v5.835H637.942V2138.8c0-2.323-.894-3.335-2.68-3.335-1.846,0-3.811,1.608-6.312,4.407a43.551,43.551,0,0,0-.656,7.8v7.146H618.17v-28.466H627.7v7.861c3.93-5.776,7.086-8.456,11.791-8.456C644.849,2125.759,648.065,2128.856,648.065,2137.133Z" transform="translate(-582.797 -2114.92)" fill="#2d0043"/>
          <rect id="Rectangle_504" data-name="Rectangle 504" width="10.243" height="8.04" transform="translate(71.341)" fill="#2d0043"/>
          <rect id="Rectangle_505" data-name="Rectangle 505" width="10.243" height="28.466" transform="translate(71.341 11.434)" fill="#2d0043"/>
          <path id="Path_155" data-name="Path 155" d="M694.842,2154.82H684.718v-28.466h10.124v5.6c3.156-3.752,6.193-6.193,10.54-6.193,3.394,0,6.372,1.905,7.206,6.491,3.155-3.93,6.193-6.491,10.6-6.491,4.109,0,7.622,2.679,7.622,9.35v19.711H720.687v-16.853c0-2.2-1.072-3.394-3.216-3.394a6.387,6.387,0,0,0-4.169,1.667,24.7,24.7,0,0,0-.476,6.075v12.505H702.7v-16.853c0-2.2-.952-3.394-2.858-3.394a7.243,7.243,0,0,0-4.526,1.667,24.7,24.7,0,0,0-.476,6.075Z" transform="translate(-595.394 -2114.92)" fill="#2d0043"/>
          <path id="Path_156" data-name="Path 156" d="M769.34,2147.545a9.781,9.781,0,0,0,.3-1.966h8.932a6.464,6.464,0,0,1,.06,1.013c0,6.491-4.109,9.052-14.114,9.052-9.528,0-15.3-3.692-15.3-14.292,0-10.064,5.656-15.959,16.079-15.959,9.408,0,13.637,4.7,13.637,12.625a33.335,33.335,0,0,1-.3,4.049H759.156c.238,3.633,1.489,6.194,5.955,6.194A10.163,10.163,0,0,0,769.34,2147.545Zm-9.231-15.305a26.681,26.681,0,0,0-1.013,7.027,42.34,42.34,0,0,1,10.6-1.37c0-4.168-1.726-5.955-5.3-5.955A30.908,30.908,0,0,0,760.109,2132.24Z" transform="translate(-607.603 -2114.851)" fill="#2d0043"/>
        </g>
      </g>
      <g id="Group_575" data-name="Group 575" transform="translate(642.453 1950.755)">
        <path id="Path_225" data-name="Path 225" d="M661.509,2000.342a36.389,36.389,0,0,1-2.859-3.761v-8.5h2.859Z" transform="translate(-638.361 -1949.038)" fill="#2d0043"/>
        <path id="Path_226" data-name="Path 226" d="M667.249,2006.273c-.946-.763-1.913-1.58-2.869-2.482V1988.08h2.869Z" transform="translate(-637.933 -1949.038)" fill="#2d0043"/>
        <path id="Path_227" data-name="Path 227" d="M672.988,2010.486c-.87-.494-1.838-1.1-2.858-1.784V1988.08h2.858Z" transform="translate(-637.504 -1949.038)" fill="#2d0043"/>
        <path id="Path_228" data-name="Path 228" d="M677.3,2012.883s-.527-.2-1.429-.623V1988.08h2.848v24.179C677.826,2012.678,677.3,2012.883,677.3,2012.883Z" transform="translate(-637.076 -1949.038)" fill="#2d0043"/>
        <path id="Path_229" data-name="Path 229" d="M684.458,2008.7c-1.021.688-1.967,1.29-2.848,1.784V1988.08h2.848Z" transform="translate(-636.647 -1949.038)" fill="#2d0043"/>
        <path id="Path_230" data-name="Path 230" d="M690.209,2003.8c-.956.892-1.924,1.709-2.859,2.472V1988.08h2.859Z" transform="translate(-636.219 -1949.038)" fill="#2d0043"/>
        <path id="Path_231" data-name="Path 231" d="M695.949,1996.57a35.5,35.5,0,0,1-2.869,3.772V1988.08h2.869Z" transform="translate(-635.791 -1949.038)" fill="#2d0043"/>
        <path id="Path_232" data-name="Path 232" d="M720.131,1951.75l-40.138.065-40.138-.065a.085.085,0,0,0-.086.086v151.911a.085.085,0,0,0,.086.086h80.275a.085.085,0,0,0,.086-.086V1951.836A.085.085,0,0,0,720.131,1951.75Zm-73.043,7.308H712.9V1978.8c0,33.142-32.895,46.07-32.895,46.07h-.021s-32.895-12.928-32.895-46.07ZM712.9,2096.525H647.088v-19.741c0-.129,0-.28.011-.408.269-32.819,32.895-45.661,32.895-45.661s32.626,12.842,32.895,45.661c.011.129.011.279.011.408Zm-8.264-23.846-1.4-.881v16.528a3.093,3.093,0,0,0,2.859-3.073v-9.962A3.069,3.069,0,0,0,704.635,2072.679Zm-7.576,15.657h2.869v-18.591l-2.869-1.784Zm-6.158,0h2.859v-22.417l-2.859-1.773Zm-6.168,0h2.848v-26.253l-2.848-1.784Zm-6.168-30.068v30.068h2.848v-30.079A3.13,3.13,0,0,0,678.564,2058.268Zm-6.168,30.068h2.858v-28.016l-2.858,1.762Zm-6.179,0h2.869v-24.19l-2.869,1.773Zm-6.158,0h2.859v-20.375l-2.859,1.784Zm-6.168-13.046v9.962a3.085,3.085,0,0,0,2.859,3.073V2071.8l-1.408.881A3.059,3.059,0,0,0,653.891,2075.29Z" transform="translate(-639.77 -1951.75)" fill="#2d0043"/>
        <path id="Path_233" data-name="Path 233" d="M666.068,2023.708a56.6,56.6,0,0,0-19.49,17.157v-34.328A56.528,56.528,0,0,0,666.068,2023.708Z" transform="translate(-639.262 -1947.661)" fill="#6ea1bc"/>
        <path id="Path_246" data-name="Path 246" d="M675.87,2010.58Z" transform="translate(-637.076 -1947.359)" fill="#fff"/>
        <path id="Path_250" data-name="Path 250" d="M689.69,2023.708a56.586,56.586,0,0,1,19.49,17.157v-34.328A56.518,56.518,0,0,1,689.69,2023.708Z" transform="translate(-636.044 -1947.661)" fill="#c39d4d"/>
      </g>
      <rect id="Rectangle_520" data-name="Rectangle 520" width="92.419" height="8.597" transform="translate(635.952 2094.756)" fill="#2d0043"/>
      <rect id="Rectangle_521" data-name="Rectangle 521" width="92.419" height="8.597" transform="translate(635.952 1950.755)" fill="#2d0043"/>
    </g>
    <g id="Group_868" data-name="Group 868" transform="translate(204 10.5)">
      <path id="Path_591" data-name="Path 591" d="M25.144,46.92a21.932,21.932,0,0,1-.84,5.32,15.383,15.383,0,0,1-6.1,1.176c-7.616,0-10.248-3.976-10.248-12.824A28.549,28.549,0,0,1,10.3,28.5,17.593,17.593,0,0,1,17.528,26.7c5.712,0,7.448,1.96,7.448,8.456h4.592c.336-8.792-4.144-12.32-11.256-12.32-10.7,0-14.952,6.608-14.952,18.592C3.36,53.7,8.736,57.56,17.528,57.56c7.672,0,12.208-3.248,12.208-10.64Zm12.824-2.3c0,9.968,4.648,12.936,12.656,12.936s12.208-4.928,12.208-13.776c0-10.08-4.592-13.16-12.488-13.1C42.224,30.624,37.968,35.72,37.968,44.624Zm12.1-10.08c7.056,0,8.12,3.416,8.12,10.472a24.971,24.971,0,0,1-1.176,7.616,17.277,17.277,0,0,1-5.88,1.008c-7.336,0-8.512-4.536-8.512-9.968a32.188,32.188,0,0,1,1.12-8.12A21.017,21.017,0,0,1,50.064,34.544ZM87.808,57,97.72,31.184H92.848l-3.192,9.688c-1.344,3.976-2.8,8.456-3.92,12.1H82.6c-1.12-3.976-2.408-8.12-3.92-12.264l-3.472-9.52H70.28L80.36,57Zm23.632,0V31.184h-4.48V57Zm.448-32.2V19.48h-5.376V24.8ZM128.3,57V45.52h6.048L143.08,57h5.992L137.648,43.784a49.336,49.336,0,0,0,10.3-12.6H142.52a60.265,60.265,0,0,1-7.784,11.368H128.3V19.48h-4.48V57Zm56.616.56c8.12,0,12.376-3.248,12.376-8.9,0-4.592-1.456-7.672-11.144-10.248-7.112-1.9-9.184-3.752-9.184-7.5a14.66,14.66,0,0,1,.28-3.08,25.463,25.463,0,0,1,7.448-1.008c5.488,0,7.168,1.4,7.168,6.384h4.536c.392-7.168-2.912-10.36-11.032-10.36-8.232,0-12.544,3.976-12.544,9.352,0,5.32,2.856,7.84,11.928,10.248,5.992,1.568,8.232,3.192,8.232,6.664a11.952,11.952,0,0,1-.392,2.912,15.071,15.071,0,0,1-7.168,1.624c-6.5,0-9.072-1.344-9.072-6.272h-4.592C171.416,54.424,174.944,57.56,184.912,57.56Zm44.408,0a19.311,19.311,0,0,0,2.24-.112v-4.2c-.56.056-1.12.112-1.68.112-1.792,0-2.128-1.064-2.128-2.744V38.688c0-5.712-3.3-8.064-9.464-8.064-6.552,0-10.864,3.08-10.472,8.232h4.648a20.352,20.352,0,0,1,.168-3.752,34.982,34.982,0,0,1,5.152-.448c4.032,0,5.488,1.736,5.488,4.872v3.808H215.6c-7.112,0-9.128,3.136-9.128,7.28,0,5.152,2.912,6.944,6.776,6.944,4.088,0,7.168-1.96,10.192-4.7C224.056,56.44,226.24,57.56,229.32,57.56Zm-14.448-4.2c-3.136,0-3.92-1.12-3.92-3.864a12.837,12.837,0,0,1,.224-2.408c3.36-1.008,9.072-.448,12.1-1.9v.168a21.323,21.323,0,0,1-.672,5.824A16.073,16.073,0,0,1,214.872,53.36ZM245.9,44.512a19.835,19.835,0,0,1,.728-5.936c2.912-2.352,5.712-3.64,8.512-3.64,2.688,0,3.64,1.512,3.64,4.424V57h4.48V37.736c0-5.1-3.416-7.112-6.5-7.112-4.312,0-7.56,2.408-10.864,5.88v-5.32h-4.48V57h4.48Zm40.32,13.048c6.776,0,10.808-2.576,10.808-7.168-.112-4.144-2.016-6.72-10.808-8.232-5.992-.84-6.888-2.688-6.888-4.7a6.546,6.546,0,0,1,.224-2.016,18.737,18.737,0,0,1,5.992-.784c4.7,0,5.936.9,5.936,4.368H296.3c.336-5.824-2.464-8.4-10.36-8.4-7,0-11.144,2.744-11.144,7.9,0,4.088,2.352,6.608,10.08,7.672,6.44.9,7.616,2.352,7.616,4.7a8.869,8.869,0,0,1-.168,1.9,16.646,16.646,0,0,1-6.16.784c-4.872,0-6.72-1.064-6.72-4.7h-4.984C274.12,54.928,277.2,57.56,286.216,57.56Zm43.232-19.6c0-3.64-.056-7.784-.168-10.92h.728c1.176,2.912,2.408,6.328,4.2,10.024l8.064,16.8h3.7l8.176-16.576c1.736-3.416,3.36-7.28,4.536-10.248h.672c-.056,3.08-.336,7.336-.336,10.92V57h4.48V23.4h-7l-8.512,18.088c-1.288,2.744-2.352,5.208-3.36,7.672h-.336c-.9-2.128-2.184-5.32-3.248-7.672L332.752,23.4H325.3V57h4.144Zm44.52,6.664c0,9.968,4.648,12.936,12.656,12.936s12.208-4.928,12.208-13.776c0-10.08-4.592-13.16-12.488-13.1C378.224,30.624,373.968,35.72,373.968,44.624Zm12.1-10.08c7.056,0,8.12,3.416,8.12,10.472a24.97,24.97,0,0,1-1.176,7.616,17.277,17.277,0,0,1-5.88,1.008c-7.336,0-8.512-4.536-8.512-9.968a32.189,32.189,0,0,1,1.12-8.12A21.017,21.017,0,0,1,386.064,34.544ZM413.9,44.512a19.835,19.835,0,0,1,.728-5.936c2.912-2.352,5.712-3.64,8.512-3.64,2.688,0,3.64,1.512,3.64,4.424V57h4.48V37.736c0-5.1-3.416-7.112-6.5-7.112-4.312,0-7.56,2.408-10.864,5.88v-5.32h-4.48V57h4.48Zm27.272.112c0,9.968,4.648,12.936,12.656,12.936s12.208-4.928,12.208-13.776c0-10.08-4.592-13.16-12.488-13.1C445.424,30.624,441.168,35.72,441.168,44.624Zm12.1-10.08c7.056,0,8.12,3.416,8.12,10.472a24.97,24.97,0,0,1-1.176,7.616,17.277,17.277,0,0,1-5.88,1.008c-7.336,0-8.512-4.536-8.512-9.968a32.189,32.189,0,0,1,1.12-8.12A21.017,21.017,0,0,1,453.264,34.544ZM15.736,115V92.04A69.388,69.388,0,0,0,29.512,93.1v-3.92H15.736V88.008c0-4.592.728-7.168,5.376-7.168a23.858,23.858,0,0,1,3.528.224,8.107,8.107,0,0,1,.56,3.024h4.592c-.056-4.816-2.464-7.168-8.848-7.168-6.272,0-9.688,2.968-9.688,11.312v.952h-7.5V93.1h7.5V115Zm22.232-12.376c0,9.968,4.648,12.936,12.656,12.936s12.208-4.928,12.208-13.776c0-10.08-4.592-13.16-12.488-13.1C42.224,88.624,37.968,93.72,37.968,102.624Zm12.1-10.08c7.056,0,8.12,3.416,8.12,10.472a24.971,24.971,0,0,1-1.176,7.616,17.277,17.277,0,0,1-5.88,1.008c-7.336,0-8.512-4.536-8.512-9.968a32.188,32.188,0,0,1,1.12-8.12A21.016,21.016,0,0,1,50.064,92.544Zm38.472-3.92c-4.592,0-7.392,1.96-10.64,5.32v-4.76h-4.48V115H77.9V101.952a19.834,19.834,0,0,1,.728-5.936c3.136-2.464,5.432-3.416,8.848-3.416,3.3,0,4.424,1.624,4.424,4.76v3.808h4.48V95.736C96.376,90.64,93.24,88.624,88.536,88.624ZM146.72,115V81.4h-4.48V98.032H126.56V81.4h-4.48V115h4.48V101.056a29.41,29.41,0,0,0,15.68,0V115ZM168,92.488c5.488,0,7.056,1.96,7.224,7.224a72.371,72.371,0,0,0-15.064,1.568,23.62,23.62,0,0,1,1.288-8.008A33.337,33.337,0,0,1,168,92.488Zm1.4,19.152c-7.168,0-8.9-3.584-9.184-8.456H179.48a31.385,31.385,0,0,0,.28-3.864c0-6.832-3.472-10.7-10.808-10.7-9.072,0-13.16,5.1-13.16,13.776,0,9.744,4.536,13.16,12.768,13.16,7.392,0,10.92-2.352,10.92-7.336v-.5h-4.256a23.322,23.322,0,0,1-.168,3.248A17.427,17.427,0,0,1,169.4,111.64Zm43.12,3.92a19.311,19.311,0,0,0,2.24-.112v-4.2c-.56.056-1.12.112-1.68.112-1.792,0-2.128-1.064-2.128-2.744V96.688c0-5.712-3.3-8.064-9.464-8.064-6.552,0-10.864,3.08-10.472,8.232h4.648a20.352,20.352,0,0,1,.168-3.752,34.982,34.982,0,0,1,5.152-.448c4.032,0,5.488,1.736,5.488,4.872v3.808H198.8c-7.112,0-9.128,3.136-9.128,7.28,0,5.152,2.912,6.944,6.776,6.944,4.088,0,7.168-1.96,10.192-4.7C207.256,114.44,209.44,115.56,212.52,115.56Zm-14.448-4.2c-3.136,0-3.92-1.12-3.92-3.864a12.837,12.837,0,0,1,.224-2.408c3.36-1.008,9.072-.448,12.1-1.9v.168a21.323,21.323,0,0,1-.672,5.824A16.073,16.073,0,0,1,198.072,111.36Zm34.552-.112c-3.584,0-5.32-1.792-5.32-9.24a42.181,42.181,0,0,1,.672-8.624,28.178,28.178,0,0,1,7.56-.84,39.531,39.531,0,0,1,5.768.5v8.512a20.6,20.6,0,0,1-.728,6.048C237.608,109.792,234.864,111.248,232.624,111.248ZM241.3,115h4.48V77.48H241.3v13.1a17.8,17.8,0,0,0-7.448-1.96c-6.272,0-11.088,3.864-11.088,14.28,0,9.016,2.688,12.544,7.616,12.544,4.144,0,7.56-2.464,10.92-5.824Zm21.336,0V89.184h-4.48V115Zm.448-32.2V77.48h-5.376V82.8ZM279.5,102.512a19.835,19.835,0,0,1,.728-5.936c2.912-2.352,5.712-3.64,8.512-3.64,2.688,0,3.64,1.512,3.64,4.424V115h4.48V95.736c0-5.1-3.416-7.112-6.5-7.112-4.312,0-7.56,2.408-10.864,5.88v-5.32h-4.48V115h4.48Zm37.968,24.248c11.144,0,14.672-2.856,14.672-8.792,0-3.864-2.744-5.768-7.112-5.768H315.84c-1.9,0-3.08-.728-3.08-2.184a3.844,3.844,0,0,1,.392-1.9,28.927,28.927,0,0,1,4.536-.336c7.672,0,12.152-3.192,12.152-8.848a10.575,10.575,0,0,0-1.848-6.664,9.884,9.884,0,0,0,5.208-3.248l-3.528-3.136-3.64,4.592a13.584,13.584,0,0,0-7.168-1.624c-7.336,0-11.592,3.584-11.592,10.472,0,4.256,1.624,6.552,4.48,7.616a6.965,6.965,0,0,0-2.632,4.928,3.8,3.8,0,0,0,1.008,2.912c-2.464,1.288-4.256,3.472-4.256,6.272C305.872,124.856,308.5,126.76,317.464,126.76Zm.84-34.384c6.1,0,7.224,2.632,7.224,6.216a23.421,23.421,0,0,1-.336,5.152,26.7,26.7,0,0,1-7.168.784c-5.432,0-6.5-2.688-6.5-6.328a24.114,24.114,0,0,1,.5-5.208A25.537,25.537,0,0,1,318.3,92.376Zm-.112,30.408c-6.44,0-8.064-1.344-8.064-3.528a4.084,4.084,0,0,1,.952-2.856c1.176-.392,3.808-.616,8.176-.616,8.064,0,8.624,1.232,8.624,4.088a7.918,7.918,0,0,1-.448,2.184A50.212,50.212,0,0,1,318.192,122.784Zm35.224-7.224c6.776,0,10.808-2.576,10.808-7.168-.112-4.144-2.016-6.72-10.808-8.232-5.992-.84-6.888-2.688-6.888-4.7a6.546,6.546,0,0,1,.224-2.016,18.737,18.737,0,0,1,5.992-.784c4.7,0,5.936.9,5.936,4.368H363.5c.336-5.824-2.464-8.4-10.36-8.4-7,0-11.144,2.744-11.144,7.9,0,4.088,2.352,6.608,10.08,7.672,6.44.9,7.616,2.352,7.616,4.7a8.869,8.869,0,0,1-.168,1.9,16.646,16.646,0,0,1-6.16.784c-4.872,0-6.72-1.064-6.72-4.7h-4.984C341.32,112.928,344.4,115.56,353.416,115.56ZM374.528,108v7h6.944v-7Z" transform="translate(347 96.5)" fill="#902800"/>
      <path id="Path_590" data-name="Path 590" d="M18.36-8.112c0-5.712-4.488-8.592-8.688-8.592A8.372,8.372,0,0,0,1.008-8.112,8.532,8.532,0,0,0,9.7.288,8.51,8.51,0,0,0,18.36-8.112Zm-2.592-.12c0,4.872-3.072,7.3-6.1,7.3S3.6-3.36,3.6-8.232s3.048-7.344,6.072-7.344S15.768-13.1,15.768-8.232ZM32.016-.1v-.936a5.832,5.832,0,0,1-1.128.192c-.624,0-.7-.432-.7-2.184V-17.952l-3.744.168v1.08h.96c.456,0,.744,0,.744,2.112v4.032a3.805,3.805,0,0,0-2.448-.888c-3.36,0-5.328,3.6-5.328,6.6,0,2.688,1.248,5.136,4.248,5.136a3.99,3.99,0,0,0,3.624-2.352H28.3l.144.912A1.721,1.721,0,0,0,30.312.288,5.651,5.651,0,0,0,32.016-.1ZM28.152-5.088c0,2.544-1.584,4.056-3.1,4.056-1.632,0-2.5-1.8-2.5-3.816,0-2.52,1.128-5.352,3.36-5.352a3.206,3.206,0,0,1,2.232,1.008ZM39.528,0V-.96H37.584V-11.448l-4.1.192V-10.2H34.8c.456,0,.744,0,.744,2.112V-.96H33.6V0ZM37.92-15.312A1.425,1.425,0,0,0,36.456-16.7a1.447,1.447,0,0,0-1.488,1.392,1.447,1.447,0,0,0,1.488,1.392A1.425,1.425,0,0,0,37.92-15.312ZM46.632,0V-.96H44.688V-17.952l-4.1.168v1.08H41.9c.456,0,.744,0,.744,2.112V-.96H40.7V0Zm10.56-5.76a4.942,4.942,0,0,0,.48-2.016c0-2.4-2.064-3.672-4.152-3.672-3.48,0-5.5,3.12-5.5,5.928,0,2.9,1.776,5.808,5.736,5.808a5.1,5.1,0,0,0,4.032-1.92l-.5-.552a4.91,4.91,0,0,1-3.1,1.224c-2.688,0-4.08-2.208-3.984-4.8Zm-1.68-1.08H50.328c.288-1.7,1.3-3.672,3.24-3.672A2.373,2.373,0,0,1,55.752-8.04,4.08,4.08,0,0,1,55.512-6.84ZM71.9,0V-.96H69.72V-10.2h3.024v-1.056H69.72v-3.768c0-1.272.336-2.184,1.56-2.256.192.84,1.032,1.992,2.016,1.992.624,0,1.1-.432,1.392-1.464a4.565,4.565,0,0,0-3-1.152,3.713,3.713,0,0,0-4.008,4.056v2.592H65.5V-10.2H67.68V-.96H65.5V0ZM84.792-5.592c0-3.888-2.736-5.856-5.376-5.856S74.04-9.48,74.04-5.592c0,3.5,2.28,5.88,5.376,5.88S84.792-2.088,84.792-5.592Zm-2.184.024c0,2.352-1.032,4.68-3.192,4.68s-3.192-2.328-3.192-4.68c0-2.424,1.1-4.9,3.192-4.9S82.608-7.992,82.608-5.568ZM91.824,0V-.96H90.24V-7.344l2.328-2.52a1.956,1.956,0,0,0,1.536.792,1.227,1.227,0,0,0,1.344-1.272,2.368,2.368,0,0,0-.288-1.1,3.915,3.915,0,0,0-3.7,1.512l-1.2,1.3-.216-2.808-3.552.192V-10.2h.984c.456,0,.72,0,.72,2.112V-.96H86.616V0Zm32.4,0V-1.1h-1.392c-.456,0-.744-.024-.744-2.136V-15.36h2.136v-1.1h-4.608v.552L113.4-3.12l-6.24-12.792v-.552h-4.824v1.1h1.392c.456,0,.744.024.744,2.136V-1.1h-2.136V0h5.856V-1.1h-2.136V-13.392L112.68.168,113.136,0l6.576-13.392V-1.1h-2.136V0ZM135.1-5.76a4.942,4.942,0,0,0,.48-2.016c0-2.4-2.064-3.672-4.152-3.672-3.48,0-5.5,3.12-5.5,5.928,0,2.9,1.776,5.808,5.736,5.808a5.1,5.1,0,0,0,4.032-1.92l-.5-.552A4.91,4.91,0,0,1,132.1-.96c-2.688,0-4.08-2.208-3.984-4.8Zm-1.68-1.08h-5.184c.288-1.7,1.3-3.672,3.24-3.672a2.373,2.373,0,0,1,2.184,2.472A4.079,4.079,0,0,1,133.416-6.84Zm12.12,6.192-.36-.864a5.932,5.932,0,0,1-1.92.456c-1.152,0-1.92-.216-1.92-1.7V-10.2h3.336v-1.056h-3.336v-3.5h-1.68l-.36,3.312-2.208.192V-10.2H139.3v7.416c0,2.28,1.32,3.072,3.192,3.072A6.984,6.984,0,0,0,145.536-.648ZM157.56-.1v-.936a6.33,6.33,0,0,1-1.176.192c-.576,0-.648-.432-.648-2.184V-7.656c0-2.472-1.464-3.792-3.96-3.792a5.711,5.711,0,0,0-3.768,1.2c.24,1.08.792,1.488,1.368,1.488.984,0,1.68-1.152,1.92-1.968,1.656,0,2.4,1.008,2.4,2.712V-6.7c-4.632.1-6.408,2.232-6.408,4.128a2.792,2.792,0,0,0,3,2.856,4.252,4.252,0,0,0,3.48-1.968h.024l.12.528a1.763,1.763,0,0,0,1.872,1.44A6.4,6.4,0,0,0,157.56-.1ZM153.7-2.64a4.224,4.224,0,0,1-2.688,1.608,1.522,1.522,0,0,1-1.56-1.656c0-1.7,1.824-2.952,4.248-3.024ZM170.808-.1v-.936a5.832,5.832,0,0,1-1.128.192c-.624,0-.7-.432-.7-2.184V-17.952l-3.744.168v1.08h.96c.456,0,.744,0,.744,2.112v4.032a3.805,3.805,0,0,0-2.448-.888c-3.36,0-5.328,3.6-5.328,6.6,0,2.688,1.248,5.136,4.248,5.136a3.99,3.99,0,0,0,3.624-2.352h.048l.144.912A1.721,1.721,0,0,0,169.1.288,5.651,5.651,0,0,0,170.808-.1Zm-3.864-4.992c0,2.544-1.584,4.056-3.1,4.056-1.632,0-2.5-1.8-2.5-3.816,0-2.52,1.128-5.352,3.36-5.352a3.206,3.206,0,0,1,2.232,1.008ZM182.736-.1v-.936a6.33,6.33,0,0,1-1.176.192c-.576,0-.648-.432-.648-2.184V-7.656c0-2.472-1.464-3.792-3.96-3.792a5.711,5.711,0,0,0-3.768,1.2c.24,1.08.792,1.488,1.368,1.488.984,0,1.68-1.152,1.92-1.968,1.656,0,2.4,1.008,2.4,2.712V-6.7c-4.632.1-6.408,2.232-6.408,4.128a2.792,2.792,0,0,0,3,2.856,4.252,4.252,0,0,0,3.48-1.968h.024l.12.528A1.763,1.763,0,0,0,180.96.288,6.4,6.4,0,0,0,182.736-.1ZM178.872-2.64a4.224,4.224,0,0,1-2.688,1.608,1.522,1.522,0,0,1-1.56-1.656c0-1.7,1.824-2.952,4.248-3.024ZM192.24-.648l-.36-.864a5.932,5.932,0,0,1-1.92.456c-1.152,0-1.92-.216-1.92-1.7V-10.2h3.336v-1.056H188.04v-3.5h-1.68L186-11.448l-2.208.192V-10.2H186v7.416C186-.5,187.32.288,189.192.288A6.984,6.984,0,0,0,192.24-.648ZM204.264-.1v-.936a6.33,6.33,0,0,1-1.176.192c-.576,0-.648-.432-.648-2.184V-7.656c0-2.472-1.464-3.792-3.96-3.792a5.711,5.711,0,0,0-3.768,1.2c.24,1.08.792,1.488,1.368,1.488.984,0,1.68-1.152,1.92-1.968,1.656,0,2.4,1.008,2.4,2.712V-6.7c-4.632.1-6.408,2.232-6.408,4.128a2.792,2.792,0,0,0,3,2.856,4.252,4.252,0,0,0,3.48-1.968h.024l.12.528a1.763,1.763,0,0,0,1.872,1.44A6.4,6.4,0,0,0,204.264-.1ZM200.4-2.64a4.224,4.224,0,0,1-2.688,1.608,1.522,1.522,0,0,1-1.56-1.656c0-1.7,1.824-2.952,4.248-3.024ZM222.1-.1v-.936a6.33,6.33,0,0,1-1.176.192c-.576,0-.648-.432-.648-2.184V-7.656c0-2.472-1.464-3.792-3.96-3.792a5.711,5.711,0,0,0-3.768,1.2c.24,1.08.792,1.488,1.368,1.488.984,0,1.68-1.152,1.92-1.968,1.656,0,2.4,1.008,2.4,2.712V-6.7c-4.632.1-6.408,2.232-6.408,4.128a2.792,2.792,0,0,0,3,2.856A4.252,4.252,0,0,0,218.3-1.68h.024l.12.528A1.763,1.763,0,0,0,220.32.288,6.4,6.4,0,0,0,222.1-.1ZM218.232-2.64a4.224,4.224,0,0,1-2.688,1.608,1.522,1.522,0,0,1-1.56-1.656c0-1.7,1.824-2.952,4.248-3.024ZM236.4,0V-.96h-1.584V-8.5c0-2.016-1.44-2.952-3.192-2.952a3.7,3.7,0,0,0-2.832,1.152L227.208-8.9l-.24-2.544-3.5.192V-10.2h.984c.456,0,.72,0,.72,2.112V-.96h-1.584V0h5.208V-.96h-1.584V-7.368l2.064-1.848a2.879,2.879,0,0,1,1.872-.984c1.1,0,1.632.768,1.632,2.256V-.96h-1.584V0Zm13.1-.1v-.936a5.832,5.832,0,0,1-1.128.192c-.624,0-.7-.432-.7-2.184V-17.952l-3.744.168v1.08h.96c.456,0,.744,0,.744,2.112v4.032a3.805,3.805,0,0,0-2.448-.888c-3.36,0-5.328,3.6-5.328,6.6,0,2.688,1.248,5.136,4.248,5.136a3.99,3.99,0,0,0,3.624-2.352h.048l.144.912A1.721,1.721,0,0,0,247.8.288,5.651,5.651,0,0,0,249.5-.1ZM245.64-5.088c0,2.544-1.584,4.056-3.1,4.056-1.632,0-2.5-1.8-2.5-3.816,0-2.52,1.128-5.352,3.36-5.352a3.206,3.206,0,0,1,2.232,1.008ZM267.888,0V-1.1H266.5c-.456,0-.744-.024-.744-2.136V-15.36h4.1l.432,3.552H271.7v-4.656h-14.28v4.656h1.416l.432-3.552h4.1V-1.1H261.24V0ZM281.76-.1v-.936a6.33,6.33,0,0,1-1.176.192c-.576,0-.648-.432-.648-2.184V-7.656c0-2.472-1.464-3.792-3.96-3.792a5.711,5.711,0,0,0-3.768,1.2c.24,1.08.792,1.488,1.368,1.488.984,0,1.68-1.152,1.92-1.968,1.656,0,2.4,1.008,2.4,2.712V-6.7c-4.632.1-6.408,2.232-6.408,4.128a2.792,2.792,0,0,0,3,2.856,4.252,4.252,0,0,0,3.48-1.968h.024l.12.528a1.763,1.763,0,0,0,1.872,1.44A6.4,6.4,0,0,0,281.76-.1ZM277.9-2.64a4.224,4.224,0,0,1-2.688,1.608,1.522,1.522,0,0,1-1.56-1.656c0-1.7,1.824-2.952,4.248-3.024Zm16.872,4.7c0-1.176-1.08-2.616-3.576-3l-3.96-.624a1.042,1.042,0,0,1-.96-.96c0-.456.432-.912,1.368-.816a2.111,2.111,0,0,0,.792.072c2.712,0,4.536-1.776,4.536-4.08a4.764,4.764,0,0,0-.72-2.5L294-10.2v-1.056l-3.528.264a5.68,5.68,0,0,0-2.04-.456c-3.072,0-4.632,1.992-4.632,3.984a3.913,3.913,0,0,0,2.28,3.672,2.022,2.022,0,0,0-1.7,1.872,2.111,2.111,0,0,0,1.248,1.848c-1.7.408-2.568,1.416-2.568,2.472,0,2.112,2.592,3.192,5.352,3.192C291.5,5.592,294.768,4.416,294.768,2.064Zm-1.992.192c0,1.608-2.136,2.424-4.248,2.424-2.136,0-3.792-1.248-3.792-2.448,0-.816.768-1.608,2.64-1.968l3.5.552C292.128,1.008,292.776,1.608,292.776,2.256ZM291.1-7.32c0,2.064-1.3,3.12-2.616,3.12s-2.664-1.032-2.664-3.12c0-1.584.96-3.192,2.664-3.192S291.1-8.9,291.1-7.32Zm14.328,4.272c0-2.544-2.592-3.024-4.44-3.744-1.344-.528-2.112-1.152-2.112-2.064,0-.984.792-1.9,2.664-1.9.24.816.984,1.968,1.92,1.968.576,0,1.056-.432,1.32-1.488a5.319,5.319,0,0,0-3.624-1.176c-2.04,0-4.392.864-4.392,3.024,0,1.824,1.992,2.76,3.576,3.408,1.632.672,3.168,1.08,3.168,2.376,0,1.2-1.272,1.872-2.664,1.872a4.4,4.4,0,0,1-2.52-.912l-.432-2.232h-1.3V-1.08A7.55,7.55,0,0,0,300.84.288C303.1.288,305.424-.576,305.424-3.048ZM311.64-1.32a1.654,1.654,0,0,0-1.656-1.632,1.654,1.654,0,0,0-1.656,1.632A1.634,1.634,0,0,0,309.984.288,1.634,1.634,0,0,0,311.64-1.32Z" transform="translate(345 263.5)" fill="#2d0043"/>
      <path id="Path_592" data-name="Path 592" d="M.609-12.6v2.226h4.41V-.021h2.52v-10.71a24.838,24.838,0,0,0,4.452.357V-12.6ZM16.128,3.717c3.192,0,4.011-1.281,5.1-4.41L24.36-9.828H21.546L20.6-6.3c-.315,1.113-.651,2.331-.924,3.591H18.312C18.018-3.99,17.7-5.1,17.346-6.237L16.3-9.828H13.461L16.653-.9h2.331a15.3,15.3,0,0,1-1.029,2.331,8.856,8.856,0,0,1-1.806.147,11.711,11.711,0,0,1-2.436-.294v2.2A11.642,11.642,0,0,0,16.128,3.717ZM31.5-1.764a16.739,16.739,0,0,1-1.911-.126V-4.851a6.427,6.427,0,0,1,.273-2.058,4.16,4.16,0,0,1,2.394-.924c1.2,0,1.764.588,1.764,2.982A10.94,10.94,0,0,1,33.726-2.1,6.032,6.032,0,0,1,31.5-1.764ZM29.589,3.507V-.336a6.579,6.579,0,0,0,2.583.5c2.394,0,4.284-1.449,4.284-5.355,0-3.486-.987-4.851-2.814-4.851-1.533,0-2.814.924-4.053,2.184V-9.828H27.153V3.507Zm9.555-8.253c0,3.822,1.89,5,5.082,5,3.171,0,4.83-2.016,4.83-5.25,0-3.864-1.869-5.082-5.019-5.061C40.908-10.08,39.144-8.106,39.144-4.746Zm4.851-3.339c2.163,0,2.6,1.008,2.6,3.4a9.4,9.4,0,0,1-.336,2.646,6.182,6.182,0,0,1-1.932.294c-2.247,0-2.73-1.323-2.73-3.213a13.626,13.626,0,0,1,.315-2.835A8.01,8.01,0,0,1,43.995-8.085ZM56.049,4.41c4.368,0,5.754-1.071,5.754-3.3,0-1.638-1.029-2.457-2.877-2.457H55.482c-.693,0-1.029-.252-1.029-.777a1.147,1.147,0,0,1,.084-.5,11.108,11.108,0,0,1,1.806-.126c2.919,0,4.746-1.2,4.746-3.4a3.812,3.812,0,0,0-.882-2.688,4.227,4.227,0,0,0,1.953-1.281L60.5-11.571,59.136-9.576a6.379,6.379,0,0,0-2.562-.441c-2.94,0-4.641,1.365-4.641,3.969a2.75,2.75,0,0,0,1.848,2.9A2.171,2.171,0,0,0,52.521-1.3a1.434,1.434,0,0,0,.525,1.2,2.635,2.635,0,0,0-1.533,2.289C51.513,3.675,52.542,4.41,56.049,4.41Zm.315-12.642c2.1,0,2.5.924,2.5,2.205A11.154,11.154,0,0,1,58.8-4.6a11.037,11.037,0,0,1-2.331.21c-1.953,0-2.331-.924-2.331-2.163a8.034,8.034,0,0,1,.147-1.533A12.4,12.4,0,0,1,56.364-8.232ZM56.322,2.583c-2.205,0-2.751-.483-2.751-1.239a1.55,1.55,0,0,1,.168-.756A11.071,11.071,0,0,1,56.721.336c2.772,0,3.087.441,3.087,1.491a2.515,2.515,0,0,1-.084.5A20.448,20.448,0,0,1,56.322,2.583ZM71.316-10.038c-1.7,0-2.772.819-4.053,2.373V-9.828H64.911V0h2.436V-3.948A10.77,10.77,0,0,1,67.578-6.3a4.2,4.2,0,0,1,2.9-1.47c.987,0,1.365.5,1.365,1.533v1.449h2.436V-6.825C74.277-9.135,73.122-10.038,71.316-10.038ZM85.869.21A7.067,7.067,0,0,0,87.045.105V-1.806a5.149,5.149,0,0,1-.567.042c-.567,0-.672-.294-.672-.819V-7.014c0-2.163-1.386-3.066-3.969-3.066-2.919,0-4.389,1.155-4.221,3.381h2.478a9.88,9.88,0,0,1,.042-1.386,6.926,6.926,0,0,1,1.449-.147c1.344,0,1.806.609,1.806,1.7v1.218H80.556c-2.646,0-3.465,1.2-3.465,2.793A2.454,2.454,0,0,0,79.821.21,4.7,4.7,0,0,0,83.475-1.6,2.1,2.1,0,0,0,85.869.21Zm-5-1.953c-1.092,0-1.365-.336-1.365-1.2a5.465,5.465,0,0,1,.084-.966c1.071-.231,2.814-.189,3.8-.63v.042a7.745,7.745,0,0,1-.252,2.163A4.805,4.805,0,0,1,80.871-1.743ZM94.5-1.764a16.739,16.739,0,0,1-1.911-.126V-4.851a6.427,6.427,0,0,1,.273-2.058,4.16,4.16,0,0,1,2.394-.924c1.2,0,1.764.588,1.764,2.982A10.94,10.94,0,0,1,96.726-2.1,6.032,6.032,0,0,1,94.5-1.764ZM92.589,3.507V-.336a6.579,6.579,0,0,0,2.583.5c2.394,0,4.284-1.449,4.284-5.355,0-3.486-.987-4.851-2.814-4.851-1.533,0-2.814.924-4.053,2.184V-9.828H90.153V3.507Zm12.6-8.085a8.127,8.127,0,0,1,.21-2.184,4.154,4.154,0,0,1,2.583-1.05c.861,0,1.218.5,1.218,1.47V0h2.436V-7.119c0-2.079-1.26-2.919-2.52-2.919-1.575,0-2.73.9-3.927,2.184V-14.07h-2.436V0h2.436Zm11.739,8.3c3.192,0,4.011-1.281,5.1-4.41l3.129-9.135h-2.814L121.4-6.3c-.315,1.113-.651,2.331-.924,3.591h-1.365c-.294-1.281-.609-2.394-.966-3.528L117.1-9.828h-2.835L117.453-.9h2.331a15.3,15.3,0,0,1-1.029,2.331,8.856,8.856,0,0,1-1.806.147,11.712,11.712,0,0,1-2.436-.294v2.2A11.642,11.642,0,0,0,116.928,3.717ZM0,2H12.713V3H0ZM21.139,2h5.014V3H21.139Zm9.45,0H50.513V3H30.589ZM62.8,2h26.35V3H62.8ZM93.589,2h19.924V3H93.589Zm28.35,0H126V3h-4.061Z" transform="translate(345 85.5)" fill="#0e6390"/>
      <path id="Path_589" data-name="Path 589" d="M.312-14.952v-1.656h12v1.656H7.248V0H5.424V-14.952ZM14.352,0V-12h1.8V0Zm0-14.712V-16.8h1.8v2.088ZM25.824-10.44H22.008V-4.7a7.746,7.746,0,0,0,.3,2.712q.3.648,1.428.648l2.136-.144L25.992,0a16.416,16.416,0,0,1-2.448.264,3.138,3.138,0,0,1-2.592-.912,5.948,5.948,0,0,1-.72-3.48V-10.44h-1.7V-12h1.7v-3.672h1.776V-12h3.816ZM28.032,0V-12h1.8V0Zm0-14.712V-16.8h1.8v2.088ZM33.432,0V-17.232h1.8V0Zm5.544,0V-17.232h1.8V0Zm5.4,0V-12h1.8V0Zm0-14.712V-16.8h1.8v2.088ZM57.12-12h1.8V0h-1.8V-.84A6.873,6.873,0,0,1,53.568.24q-2.448,0-3.252-1.272t-.8-4.7V-12h1.8v6.24a8.834,8.834,0,0,0,.456,3.5q.456.888,2.064.888A5.957,5.957,0,0,0,55.44-1.6a7.345,7.345,0,0,0,1.248-.444l.432-.216ZM64.176,0h-1.8V-12h1.776v.84a6.8,6.8,0,0,1,3.5-1.08,3.6,3.6,0,0,1,3.12,1.224,8.807,8.807,0,0,1,2.052-.852,7.974,7.974,0,0,1,2.22-.372q2.4,0,3.228,1.284t.828,4.62V0H77.3V-6.288a8.29,8.29,0,0,0-.48-3.42,2.079,2.079,0,0,0-2.04-.924,6.219,6.219,0,0,0-1.632.228,8.162,8.162,0,0,0-1.3.444l-.456.216a12.009,12.009,0,0,1,.312,3.5V0h-1.8V-6.192a8.828,8.828,0,0,0-.468-3.516,2.076,2.076,0,0,0-2.052-.924,5.747,5.747,0,0,0-1.572.228,7.412,7.412,0,0,0-1.236.444l-.408.216ZM86.712-16.608h1.92L91.464-1.632h.7l3.384-14.832H97.7l3.384,14.832h.7l2.832-14.976h1.9L103.152,0H99.768L96.624-14.184,93.48,0H90.1Zm29.952,15.12.7-.072.048,1.416a34.451,34.451,0,0,1-4.68.384,4.219,4.219,0,0,1-3.672-1.5,8.056,8.056,0,0,1-1.08-4.668q0-6.312,5.016-6.312a4.589,4.589,0,0,1,3.624,1.356,6.315,6.315,0,0,1,1.2,4.26l-.1,1.368H109.8a4.921,4.921,0,0,0,.72,2.952,2.943,2.943,0,0,0,2.508.96Q114.816-1.344,116.664-1.488ZM116.016-6.7a5.21,5.21,0,0,0-.708-3.12,2.737,2.737,0,0,0-2.3-.912,2.953,2.953,0,0,0-2.4.96,4.846,4.846,0,0,0-.828,3.072Zm9.912-5.544a3.868,3.868,0,0,1,3.4,1.38q.972,1.38.972,4.836t-1.212,4.86q-1.212,1.4-4.452,1.4-1.008,0-3.336-.192l-.672-.072V-17.232H122.4V-11.4A8.415,8.415,0,0,1,125.928-12.24Zm-1.32,10.872q2.352,0,3.108-1.068a6.471,6.471,0,0,0,.756-3.612,7.554,7.554,0,0,0-.6-3.564,2.268,2.268,0,0,0-2.136-1.02,8.39,8.39,0,0,0-2.856.528l-.48.168v8.448Q123.96-1.368,124.608-1.368Zm16.224-9.072V0h-1.8V-10.44H137.52V-12h1.512v-1.08a5.954,5.954,0,0,1,.72-3.468,3.018,3.018,0,0,1,2.52-.924l2.424.168-.024,1.488q-1.344-.048-2.22-.048a1.371,1.371,0,0,0-1.248.576,4.545,4.545,0,0,0-.372,2.232V-12h3.48v1.56Zm4.9,4.416q0-3.288,1.176-4.752t3.972-1.464q2.8,0,3.96,1.464T156-6.024a8.115,8.115,0,0,1-1.1,4.776Q153.792.24,150.864.24t-4.032-1.488A8.115,8.115,0,0,1,145.728-6.024Zm1.848-.036a7.645,7.645,0,0,0,.636,3.684q.636,1.056,2.664,1.056t2.652-1.044a7.73,7.73,0,0,0,.624-3.684,6.76,6.76,0,0,0-.7-3.636,2.942,2.942,0,0,0-2.58-1,2.976,2.976,0,0,0-2.592,1A6.634,6.634,0,0,0,147.576-6.06ZM158.928,0V-12H160.7v1.632a11.688,11.688,0,0,1,4.392-1.9v1.824a12.929,12.929,0,0,0-2.1.6,13.915,13.915,0,0,0-1.668.72l-.6.312V0Zm13.9-16.608h6.024a5.727,5.727,0,0,1,3.708,1.02,3.918,3.918,0,0,1,1.236,3.2,4.64,4.64,0,0,1-.54,2.436,3.67,3.67,0,0,1-1.6,1.38,3.736,3.736,0,0,1,2.64,3.912,4.369,4.369,0,0,1-1.32,3.576A5.894,5.894,0,0,1,179.16,0h-6.336Zm6.144,8.976h-4.3v6h4.416a3.894,3.894,0,0,0,2.484-.684,2.938,2.938,0,0,0,.852-2.412,3.115,3.115,0,0,0-.348-1.536,2.017,2.017,0,0,0-.924-.888A5.223,5.223,0,0,0,178.968-7.632Zm-.192-7.344h-4.1V-9.24h4.272a3.005,3.005,0,0,0,2.244-.732,3.064,3.064,0,0,0,.708-2.208,2.7,2.7,0,0,0-.756-2.136A3.535,3.535,0,0,0,178.776-14.976Zm7.992,8.952q0-3.288,1.176-4.752t3.972-1.464q2.8,0,3.96,1.464t1.164,4.752a8.115,8.115,0,0,1-1.1,4.776Q194.832.24,191.9.24t-4.032-1.488A8.115,8.115,0,0,1,186.768-6.024Zm1.848-.036a7.645,7.645,0,0,0,.636,3.684q.636,1.056,2.664,1.056t2.652-1.044a7.729,7.729,0,0,0,.624-3.684,6.76,6.76,0,0,0-.7-3.636,2.942,2.942,0,0,0-2.58-1,2.976,2.976,0,0,0-2.592,1A6.634,6.634,0,0,0,188.616-6.06Zm20.568-11.172V0h-1.776V-.816A7.315,7.315,0,0,1,203.76.24,5.318,5.318,0,0,1,202.08,0a3.446,3.446,0,0,1-1.344-.864q-1.3-1.3-1.3-4.788t1.164-5.04a4.51,4.51,0,0,1,3.852-1.548,15.076,15.076,0,0,1,2.952.312v-5.3ZM202.128-2.16a2.069,2.069,0,0,0,.816.624,3.122,3.122,0,0,0,1.116.168A6,6,0,0,0,205.6-1.6a9.14,9.14,0,0,0,1.332-.444l.48-.216v-8.136a15.559,15.559,0,0,0-2.856-.288,2.749,2.749,0,0,0-2.544,1.164,7.048,7.048,0,0,0-.72,3.612Q201.288-3.12,202.128-2.16ZM211.536-12h1.8l3,10.44h.792L220.152-12h1.8L216.96,5.328h-1.8L216.72,0h-1.776Zm16.584-2.952v-1.656h12v1.656h-5.064V0h-1.824V-14.952ZM248.136-1.488l.7-.072.048,1.416A34.451,34.451,0,0,1,244.2.24a4.219,4.219,0,0,1-3.672-1.5,8.056,8.056,0,0,1-1.08-4.668q0-6.312,5.016-6.312a4.589,4.589,0,0,1,3.624,1.356,6.315,6.315,0,0,1,1.2,4.26l-.1,1.368h-7.92a4.921,4.921,0,0,0,.72,2.952,2.943,2.943,0,0,0,2.508.96Q246.288-1.344,248.136-1.488ZM247.488-6.7a5.21,5.21,0,0,0-.708-3.12,2.737,2.737,0,0,0-2.3-.912,2.953,2.953,0,0,0-2.4.96,4.846,4.846,0,0,0-.828,3.072ZM250.8-12h1.968L255.7-7.3l2.928-4.7h1.968l-3.816,5.952L260.568,0H258.6l-2.9-4.68L252.768,0H250.8l3.768-6Zm18.264,1.56h-3.816V-4.7a7.745,7.745,0,0,0,.3,2.712q.3.648,1.428.648l2.136-.144L269.232,0a16.416,16.416,0,0,1-2.448.264,3.138,3.138,0,0,1-2.592-.912,5.948,5.948,0,0,1-.72-3.48V-10.44h-1.7V-12h1.7v-3.672h1.776V-12h3.816ZM271.152,0V-2.736h1.968V0Z" transform="translate(347 301.5)"/>
    </g>
    <g id="Group_867" data-name="Group 867" transform="translate(437.279 10.5)">
      <path id="Path_593" data-name="Path 593" d="M8.967-4.2a5.654,5.654,0,0,1-.294,1.932A5.007,5.007,0,0,1,6.7-1.911c-2.373,0-3.108-1.449-3.108-4.179a12.6,12.6,0,0,1,.672-4.242,7.179,7.179,0,0,1,2.226-.378c1.869,0,2.436.735,2.436,2.94H11.4c.063-3.591-1.638-5.082-4.662-5.082-4.032,0-5.691,2.478-5.691,7.014C1.05-1.2,3.171.252,6.636.252c3.024,0,4.83-1.365,4.83-4.452Zm4.977-.546c0,3.822,1.89,5,5.082,5,3.171,0,4.83-2.016,4.83-5.25,0-3.864-1.869-5.082-5.019-5.061C15.708-10.08,13.944-8.106,13.944-4.746ZM18.8-8.085c2.163,0,2.6,1.008,2.6,3.4a9.4,9.4,0,0,1-.336,2.646,6.182,6.182,0,0,1-1.932.294c-2.247,0-2.73-1.323-2.73-3.213a13.626,13.626,0,0,1,.315-2.835A8.01,8.01,0,0,1,18.8-8.085Zm8.064,5.313c0,1.932.945,2.94,2.835,2.94A6.313,6.313,0,0,0,31.059.021v-2.1a6.348,6.348,0,0,1-.84.063c-.672,0-.924-.378-.924-1.029V-14.07H26.859Zm5.985-1.974c0,3.822,1.89,5,5.082,5,3.171,0,4.83-2.016,4.83-5.25,0-3.864-1.869-5.082-5.019-5.061C34.608-10.08,32.844-8.106,32.844-4.746Zm4.851-3.339c2.163,0,2.6,1.008,2.6,3.4a9.4,9.4,0,0,1-.336,2.646,6.182,6.182,0,0,1-1.932.294c-2.247,0-2.73-1.323-2.73-3.213a13.626,13.626,0,0,1,.315-2.835A8.01,8.01,0,0,1,37.695-8.085Zm14.721-1.953c-1.7,0-2.772.819-4.053,2.373V-9.828H46.011V0h2.436V-3.948A10.77,10.77,0,0,1,48.678-6.3a4.2,4.2,0,0,1,2.9-1.47c.987,0,1.365.5,1.365,1.533v1.449h2.436V-6.825C55.377-9.135,54.222-10.038,52.416-10.038ZM63.168.252c2.9,0,4.368-1.008,4.368-2.877-.021-1.575-.672-2.583-4.221-3.255-1.974-.336-2.247-.882-2.247-1.533a2.287,2.287,0,0,1,.063-.63,6.035,6.035,0,0,1,1.827-.231c1.47,0,1.869.315,1.869,1.428h2.436c.126-2.247-1.008-3.234-4.158-3.234-2.877,0-4.431,1.05-4.431,3.045,0,1.68.9,2.583,3.843,3.087,2.205.357,2.562.84,2.562,1.617a3.856,3.856,0,0,1-.042.546,5.5,5.5,0,0,1-1.848.231c-1.6,0-2.163-.336-2.163-1.533H58.548C58.4-.756,59.64.252,63.168.252ZM0,2H69.3V3H0Z" transform="translate(747.125 85.5)" fill="#0e6390"/>
      <rect id="Rectangle_587" data-name="Rectangle 587" width="62.362" height="120.569" transform="translate(746.721 178.362) rotate(-90)" fill="#2d0043"/>
      <rect id="Rectangle_595" data-name="Rectangle 595" width="62.362" height="120.569" transform="translate(746.721 249.664) rotate(-90)" fill="#902800"/>
      <rect id="Rectangle_598" data-name="Rectangle 598" width="62.362" height="120.569" transform="translate(746.721 320.967) rotate(-90)" fill="#0e6390"/>
      <rect id="Rectangle_592" data-name="Rectangle 592" width="62.362" height="120.569" transform="translate(878.43 178.362) rotate(-90)" fill="#573369"/>
      <rect id="Rectangle_596" data-name="Rectangle 596" width="62.362" height="120.569" transform="translate(878.43 249.664) rotate(-90)" fill="#c39d4d"/>
      <rect id="Rectangle_597" data-name="Rectangle 597" width="62.362" height="120.569" transform="translate(878.43 320.967) rotate(-90)" fill="#363940"/>
    </g>
    <rect id="Rectangle_628" data-name="Rectangle 628" width="34" height="1600" transform="translate(0 400) rotate(-90)" fill="url(#linear-gradient)"/>
  </g>
</svg>
