<svg xmlns="http://www.w3.org/2000/svg" xmlns:xlink="http://www.w3.org/1999/xlink" width="1600" height="400" viewBox="0 0 1600 400">
  <defs>
    <linearGradient id="linear-gradient" x1="1.23" y1="0.5" x2="0.05" y2="0.5" gradientUnits="objectBoundingBox">
      <stop offset="0" stop-color="#fffef9"/>
      <stop offset="0.318" stop-color="#fffef9" stop-opacity="0.937"/>
      <stop offset="0.586" stop-color="#fffefa" stop-opacity="0.82"/>
      <stop offset="1" stop-color="#fff" stop-opacity="0"/>
    </linearGradient>
    <linearGradient id="linear-gradient-2" x1="-0.23" y1="0.5" x2="0.633" y2="0.5" gradientUnits="objectBoundingBox">
      <stop offset="0" stop-color="#363940" stop-opacity="0.09"/>
      <stop offset="0.472" stop-color="#aeb0b2" stop-opacity="0.078"/>
      <stop offset="1" stop-color="#fff" stop-opacity="0"/>
    </linearGradient>
    <clipPath id="clip-uielements">
      <rect width="1600" height="400"/>
    </clipPath>
  </defs>
  <g id="uielements" clip-path="url(#clip-uielements)">
    <rect width="1600" height="400" fill="#fff"/>
    <g id="Group_755" data-name="Group 755" transform="translate(-9835 -5687)">
      <path id="Path_403" data-name="Path 403" d="M0,0H1600V400H0Z" transform="translate(9835 5687)" fill="#fcfcfc"/>
    </g>
    <path id="Path_587" data-name="Path 587" d="M6.762-5.187a21.389,21.389,0,0,1-2.436-.126V-10.5c.651-.021,1.281-.042,1.911-.042,2.394,0,3.15.714,3.15,2.625a5.673,5.673,0,0,1-.609,2.625A19.855,19.855,0,0,1,6.762-5.187Zm.063,1.953c3.192,0,5-1.869,5-5.061,0-2.709-1.491-4.305-4.935-4.305H1.827V0h2.5V-3.507A13.175,13.175,0,0,0,6.825-3.234ZM22.869.21A7.067,7.067,0,0,0,24.045.105V-1.806a5.149,5.149,0,0,1-.567.042c-.567,0-.672-.294-.672-.819V-7.014c0-2.163-1.386-3.066-3.969-3.066-2.919,0-4.389,1.155-4.221,3.381h2.478a9.88,9.88,0,0,1,.042-1.386,6.926,6.926,0,0,1,1.449-.147c1.344,0,1.806.609,1.806,1.7v1.218H17.556c-2.646,0-3.465,1.2-3.465,2.793A2.454,2.454,0,0,0,16.821.21,4.7,4.7,0,0,0,20.475-1.6,2.1,2.1,0,0,0,22.869.21Zm-5-1.953c-1.092,0-1.365-.336-1.365-1.2a5.465,5.465,0,0,1,.084-.966c1.071-.231,2.814-.189,3.8-.63v.042a7.745,7.745,0,0,1-.252,2.163A4.805,4.805,0,0,1,17.871-1.743ZM30.618-12.2H28.182v2.373H26.25V-7.9h1.932v4.053C28.182-.693,29.967.21,32.4.21c3.108,0,4.1-1.428,4.116-4.263H34.23a9.409,9.409,0,0,1-.147,2.226,7.5,7.5,0,0,1-1.239.084c-1.764,0-2.226-.945-2.226-2.52V-8.274a25.522,25.522,0,0,0,5.817.483V-9.828H30.618Zm12.6,0H40.782v2.373H38.85V-7.9h1.932v4.053C40.782-.693,42.567.21,45,.21c3.108,0,4.1-1.428,4.116-4.263H46.83a9.408,9.408,0,0,1-.147,2.226,7.5,7.5,0,0,1-1.239.084c-1.764,0-2.226-.945-2.226-2.52V-8.274a25.522,25.522,0,0,0,5.817.483V-9.828H43.218ZM56.7-8.274c1.722,0,2.331.693,2.352,2.457a20.415,20.415,0,0,0-4.872.567,10.391,10.391,0,0,1,.42-2.814A10.774,10.774,0,0,1,56.7-8.274Zm.4,6.594c-2.226,0-2.793-1.155-2.9-2.772h7.077a11.737,11.737,0,0,0,.1-1.428c0-2.667-1.365-4.2-4.347-4.2-3.507,0-5.229,1.974-5.229,5.355,0,3.7,1.827,4.977,5.019,4.977,3.087,0,4.452-.882,4.452-2.919V-2.94H59.052a9.239,9.239,0,0,1-.084,1.029A5.625,5.625,0,0,1,57.1-1.68Zm14.217-8.358c-1.7,0-2.772.819-4.053,2.373V-9.828H64.911V0h2.436V-3.948A10.77,10.77,0,0,1,67.578-6.3a4.2,4.2,0,0,1,2.9-1.47c.987,0,1.365.5,1.365,1.533v1.449h2.436V-6.825C74.277-9.135,73.122-10.038,71.316-10.038Zm8.673,5.46a8.127,8.127,0,0,1,.21-2.184,4.154,4.154,0,0,1,2.583-1.05c.861,0,1.218.5,1.218,1.47V0h2.436V-7.119c0-2.079-1.26-2.919-2.52-2.919-1.575,0-2.73.9-3.927,2.184V-9.828H77.553V0h2.436ZM94.668.252c2.9,0,4.368-1.008,4.368-2.877-.021-1.575-.672-2.583-4.221-3.255-1.974-.336-2.247-.882-2.247-1.533a2.287,2.287,0,0,1,.063-.63,6.035,6.035,0,0,1,1.827-.231c1.47,0,1.869.315,1.869,1.428h2.436c.126-2.247-1.008-3.234-4.158-3.234-2.877,0-4.431,1.05-4.431,3.045,0,1.68.9,2.583,3.843,3.087,2.205.357,2.562.84,2.562,1.617a3.856,3.856,0,0,1-.042.546,5.5,5.5,0,0,1-1.848.231c-1.6,0-2.163-.336-2.163-1.533H90.048C89.9-.756,91.14.252,94.668.252ZM0,2H100.8V3H0Z" transform="translate(694 85.422)" fill="#0e6390"/>
    <g id="Group_757" data-name="Group 757" transform="translate(541.562 -1951.742)">
      <g id="Group_524" data-name="Group 524" transform="translate(426.899 2019.742)">
        <path id="Path_73" data-name="Path 73" d="M234.062,2104.363s102.558-.085,113.114,0c21.818.175,12.411-56.622,35.514-56.622s9.75,56.622,33.949,56.622H533.1c24.2,0,12.681,56.621,35.785,56.621s10.237-56.8,32.055-56.621c10.557.085,60.035,0,60.035,0H891.4" transform="translate(-234.062 -1877.876)" fill="none" stroke="#573369" stroke-miterlimit="10" stroke-width="3"/>
        <path id="Path_74" data-name="Path 74" d="M234.062,2086.916s89.024-.085,99.581,0c21.818.175,12.411-56.622,35.514-56.622s9.75,56.622,33.949,56.622H519.613c24.2,0,12.375,56.622,35.479,56.622s11.025-56.768,32.631-56.622c10.557.071,73.252,0,73.252,0H888.734" transform="translate(-234.062 -1869.866)" fill="none" stroke="#4b3b70" stroke-miterlimit="10" stroke-width="3"/>
        <path id="Path_75" data-name="Path 75" d="M234.062,2069.47s75.491-.085,86.047,0c21.818.175,12.411-56.622,35.514-56.622s9.75,56.622,33.949,56.622H506.126c24.2,0,12.069,56.622,35.173,56.622s11.814-56.739,33.208-56.622c10.556.057,86.468,0,86.468,0H888.734" transform="translate(-234.062 -1861.857)" fill="none" stroke="#3f4376" stroke-miterlimit="10" stroke-width="3"/>
        <path id="Path_76" data-name="Path 76" d="M234.062,2052.023s61.957-.085,72.514,0c21.818.175,12.411-56.622,35.514-56.622s9.75,56.622,33.949,56.622h116.6c24.2,0,11.763,56.622,34.867,56.622s12.6-56.71,33.785-56.622c10.557.042,99.685,0,99.685,0H886.067" transform="translate(-234.062 -1853.848)" fill="none" stroke="#334b7d" stroke-miterlimit="10" stroke-width="3"/>
        <path id="Path_77" data-name="Path 77" d="M234.062,2034.577s48.424-.085,58.98,0c21.818.175,12.411-56.622,35.515-56.622s9.75,56.622,33.949,56.622H479.152c24.2,0,11.457,56.622,34.561,56.622s13.392-56.68,34.362-56.622c10.556.028,112.9,0,112.9,0H889.8" transform="translate(-234.062 -1845.838)" fill="none" stroke="#265383" stroke-miterlimit="10" stroke-width="3"/>
        <path id="Path_78" data-name="Path 78" d="M234.062,2017.13s34.89-.085,45.447,0c21.818.175,12.411-56.621,35.515-56.621s9.75,56.621,33.949,56.621H465.665c24.2,0,11.151,56.621,34.255,56.621s14.182-56.651,34.938-56.621c10.556.014,126.117,0,126.117,0H883.4" transform="translate(-234.062 -1837.829)" fill="none" stroke="#1a5b89" stroke-miterlimit="10" stroke-width="3"/>
        <path id="Path_79" data-name="Path 79" d="M234.062,1999.683s21.357-.085,31.913,0c21.818.176,12.411-56.622,35.514-56.622s9.75,56.622,33.949,56.622H452.177c24.2,0,10.845,56.622,33.95,56.622s14.97-56.622,35.515-56.622H883.935" transform="translate(-234.062 -1829.819)" fill="none" stroke="#0e6390" stroke-miterlimit="10" stroke-width="3"/>
        <path id="Path_80" data-name="Path 80" d="M234.062,1982.237s39.438-.084,49.994,0c21.818.176,12.411-56.621,35.515-56.621s9.75,56.621,33.949,56.621H472.932c24.2,0,10.845,56.622,33.949,56.622s14.758-56.651,35.514-56.622h343.14" transform="translate(-234.062 -1821.809)" fill="none" stroke="#2c6d85" stroke-miterlimit="10" stroke-width="3"/>
        <path id="Path_81" data-name="Path 81" d="M234.062,1964.791s57.519-.085,68.075,0c21.819.175,12.411-56.622,35.515-56.622s9.75,56.622,33.949,56.622H493.686c24.2,0,10.845,56.622,33.949,56.622s14.546-56.68,35.515-56.622H887.136" transform="translate(-234.062 -1813.8)" fill="none" stroke="#4a767a" stroke-miterlimit="10" stroke-width="3"/>
        <path id="Path_82" data-name="Path 82" d="M234.062,1947.345s75.6-.085,86.156,0c21.819.175,12.411-56.622,35.515-56.622s9.75,56.622,33.949,56.622H514.44c24.2,0,10.845,56.622,33.949,56.622s14.333-56.666,35.515-56.622c5.278.011,77.071,0,77.071,0H889.269" transform="translate(-234.062 -1805.79)" fill="none" stroke="#69806f" stroke-miterlimit="10" stroke-width="3"/>
        <path id="Path_83" data-name="Path 83" d="M234.062,1929.9s93.681-.085,104.238,0c21.818.176,12.411-56.622,35.514-56.622s9.75,56.622,33.949,56.622H535.195c24.2,0,10.845,56.622,33.949,56.622s14.12-56.68,35.514-56.622c3.519.01,56.317,0,56.317,0H894.067" transform="translate(-234.062 -1797.781)" fill="none" stroke="#878a63" stroke-miterlimit="10" stroke-width="3"/>
        <path id="Path_84" data-name="Path 84" d="M234.062,1912.452s111.762-.085,122.319,0c21.818.175,12.411-56.622,35.514-56.622s9.75,56.622,33.949,56.622h130.1c24.2,0,10.845,56.621,33.949,56.621s13.908-56.694,35.514-56.621c1.76.006,35.563,0,35.563,0h229.36" transform="translate(-234.062 -1789.771)" fill="none" stroke="#a59358" stroke-miterlimit="10" stroke-width="3"/>
        <path id="Path_85" data-name="Path 85" d="M234.062,1895.005s129.843-.085,140.4,0c21.819.175,12.411-56.622,35.515-56.622s9.75,56.622,33.949,56.622H576.7c24.2,0,10.845,56.622,33.949,56.622s13.7-56.8,35.515-56.622h246.3" transform="translate(-234.062 -1781.762)" fill="none" stroke="#c39d4d" stroke-miterlimit="10" stroke-width="3"/>
        <path id="Path_86" data-name="Path 86" d="M234.062,1877.559s115.407-.085,125.964,0c21.819.175,12.411-56.622,35.515-56.622s9.75,56.622,33.949,56.622h135.3c24.2,0,10.845,56.621,33.949,56.621s13.7-56.8,35.515-56.621c1.76.014,26.718,0,26.718,0H895.136" transform="translate(-234.062 -1773.752)" fill="none" stroke="#ba8940" stroke-miterlimit="10" stroke-width="3"/>
        <path id="Path_87" data-name="Path 87" d="M234.062,1860.112s100.972-.085,111.528,0c21.819.175,12.411-56.622,35.515-56.622s9.75,56.622,33.949,56.622h137.83c24.2,0,10.845,56.622,33.949,56.622s13.7-56.8,35.514-56.622c3.519.028,38.627,0,38.627,0H894.6" transform="translate(-234.062 -1765.742)" fill="none" stroke="#b27633" stroke-miterlimit="10" stroke-width="3"/>
        <path id="Path_88" data-name="Path 88" d="M234.062,1842.666s86.536-.085,97.092,0c21.819.175,12.411-56.622,35.515-56.622s9.75,56.622,33.949,56.622H540.974c24.2,0,10.845,56.621,33.949,56.621s13.7-56.8,35.515-56.621c5.278.042,50.536,0,50.536,0H898.868" transform="translate(-234.062 -1757.733)" fill="none" stroke="#aa6327" stroke-miterlimit="10" stroke-width="3"/>
        <path id="Path_89" data-name="Path 89" d="M234.062,1825.219s72.1-.085,82.656,0c21.819.175,12.411-56.621,35.515-56.621s9.75,56.621,33.949,56.621H529.065c24.2,0,10.845,56.622,33.949,56.622s13.7-56.8,35.514-56.622c7.038.057,62.446,0,62.446,0H899.935" transform="translate(-234.062 -1749.724)" fill="none" stroke="#a14f1a" stroke-miterlimit="10" stroke-width="3"/>
        <path id="Path_90" data-name="Path 90" d="M234.062,1807.772s57.664-.085,68.221,0c21.819.175,12.411-56.622,35.515-56.622s9.75,56.622,33.949,56.622H517.156c24.2,0,10.845,56.622,33.949,56.622s13.7-56.8,35.515-56.622c8.8.071,74.355,0,74.355,0H899.4" transform="translate(-234.062 -1741.714)" fill="none" stroke="#993c0d" stroke-miterlimit="10" stroke-width="3"/>
        <path id="Path_91" data-name="Path 91" d="M234.062,1790.326s43.228-.084,53.785,0c21.819.176,12.411-56.621,35.515-56.621s9.75,56.621,33.949,56.621H505.246c24.2,0,10.845,56.622,33.949,56.622s13.7-56.8,35.515-56.622c10.557.085,86.265,0,86.265,0H901" transform="translate(-234.062 -1733.705)" fill="none" stroke="#902800" stroke-miterlimit="10" stroke-width="3"/>
      </g>
    </g>
    <g id="Group_772" data-name="Group 772" transform="translate(-10302 -6171.078)">
      <path id="Path_588" data-name="Path 588" d="M6.027-10.815c2.037-.021,2.541.693,2.541,2.142a3.288,3.288,0,0,1-.525,1.806,16.372,16.372,0,0,1-1.68.105h-2.2v-4.011C4.851-10.794,5.46-10.815,6.027-10.815ZM6.951.021c2.961,0,4.578-1.239,4.578-3.234,0-1.722-.777-2.52-2.562-2.793a3.306,3.306,0,0,0,1.953-3c0-2.331-1.281-3.591-4.305-3.591H1.638V0C3.612.021,5.586.021,6.951.021ZM7.014-1.7c-.966,0-1.911-.021-2.856-.084V-5.1c.819-.042,1.533-.063,2.184-.063C8.505-5.187,9.03-4.6,9.03-3.108a2.7,2.7,0,0,1-.294,1.344C8.127-1.722,7.539-1.7,7.014-1.7ZM20.811,0h2.436V-9.828H20.811V-5.25a8.127,8.127,0,0,1-.21,2.184,4.154,4.154,0,0,1-2.583,1.05c-.861,0-1.218-.5-1.218-1.47V-9.828H14.364v7.119c0,2.079,1.26,2.919,2.52,2.919,1.575,0,2.73-.9,3.927-2.184Zm9.807-12.2H28.182v2.373H26.25V-7.9h1.932v4.053C28.182-.693,29.967.21,32.4.21c3.108,0,4.1-1.428,4.116-4.263H34.23a9.409,9.409,0,0,1-.147,2.226,7.5,7.5,0,0,1-1.239.084c-1.764,0-2.226-.945-2.226-2.52V-8.274a25.522,25.522,0,0,0,5.817.483V-9.828H30.618Zm12.6,0H40.782v2.373H38.85V-7.9h1.932v4.053C40.782-.693,42.567.21,45,.21c3.108,0,4.1-1.428,4.116-4.263H46.83a9.408,9.408,0,0,1-.147,2.226,7.5,7.5,0,0,1-1.239.084c-1.764,0-2.226-.945-2.226-2.52V-8.274a25.522,25.522,0,0,0,5.817.483V-9.828H43.218Zm8.526,7.455c0,3.822,1.89,5,5.082,5,3.171,0,4.83-2.016,4.83-5.25,0-3.864-1.869-5.082-5.019-5.061C53.508-10.08,51.744-8.106,51.744-4.746Zm4.851-3.339c2.163,0,2.6,1.008,2.6,3.4a9.4,9.4,0,0,1-.336,2.646,6.182,6.182,0,0,1-1.932.294c-2.247,0-2.73-1.323-2.73-3.213a13.626,13.626,0,0,1,.315-2.835A8.01,8.01,0,0,1,56.595-8.085ZM67.389-4.578a8.127,8.127,0,0,1,.21-2.184,4.154,4.154,0,0,1,2.583-1.05c.861,0,1.218.5,1.218,1.47V0h2.436V-7.119c0-2.079-1.26-2.919-2.52-2.919-1.575,0-2.73.9-3.927,2.184V-9.828H64.953V0h2.436ZM82.068.252c2.9,0,4.368-1.008,4.368-2.877-.021-1.575-.672-2.583-4.221-3.255-1.974-.336-2.247-.882-2.247-1.533a2.288,2.288,0,0,1,.063-.63,6.035,6.035,0,0,1,1.827-.231c1.47,0,1.869.315,1.869,1.428h2.436C86.289-9.093,85.155-10.08,82-10.08c-2.877,0-4.431,1.05-4.431,3.045,0,1.68.9,2.583,3.843,3.087,2.205.357,2.562.84,2.562,1.617a3.856,3.856,0,0,1-.042.546,5.5,5.5,0,0,1-1.848.231c-1.6,0-2.163-.336-2.163-1.533H77.448C77.3-.756,78.54.252,82.068.252ZM0,2H88.2V3H0Z" transform="translate(10452.125 6256.5)" fill="#0e6390"/>
      <g id="Group_768" data-name="Group 768" transform="translate(7 10)">
        <path id="Path_595" data-name="Path 595" d="M-12.688,0h1.872V-9.6h-1.392v4.752c0,.976.08,2.224.16,3.216h-.112a28.254,28.254,0,0,0-1.264-3.1L-15.872-9.6h-2.112V0h1.376V-4.7c0-1.072-.032-2.528-.112-3.6h.128c.384,1.008.848,2.288,1.376,3.344ZM-4.8-6.368c1.44,0,1.9.56,1.936,1.968a17.23,17.23,0,0,0-4.016.448,7.736,7.736,0,0,1,.336-2.224A8.435,8.435,0,0,1-4.8-6.368Zm.352,5.248c-1.872,0-2.336-.944-2.416-2.256h5.456a8.967,8.967,0,0,0,.08-1.1c0-1.984-1.024-3.12-3.216-3.12-2.624,0-3.872,1.472-3.872,4,0,2.8,1.36,3.776,3.744,3.776,2.224,0,3.264-.672,3.264-2.16a.656.656,0,0,0-.016-.176h-1.44c-.016.256-.016.544-.064.848A4.39,4.39,0,0,1-4.448-1.12ZM6.576,0H8.592L5.776-3.632l2.8-3.792H6.7L4.88-4.464,3.008-7.424H.992l2.768,3.6L.96,0h1.9L4.656-2.992Zm7.088-9.2H12.1v1.776H10.5v1.28h1.6v3.232c0,2.4,1.28,3.072,3.072,3.072C17.424.16,18.144-.9,18.16-2.976H16.64A6.243,6.243,0,0,1,16.5-1.232a4.925,4.925,0,0,1-1.024.08c-1.488,0-1.808-.784-1.808-2.048V-6.416A22.875,22.875,0,0,0,18.1-6.1V-7.424H13.664ZM-19.2,2H19.2V3H-19.2Z" transform="translate(10679 6364.5)" fill="#0e6390"/>
        <g id="Group_759" data-name="Group 759" transform="translate(10388 5959)">
          <g id="Ellipse_8" data-name="Ellipse 8" transform="translate(270 345.5)" fill="none" stroke="#ca9e37" stroke-width="3">
            <circle cx="20" cy="20" r="20" stroke="none"/>
            <circle cx="20" cy="20" r="18.5" fill="none"/>
          </g>
          <path id="Path_296" data-name="Path 296" d="M442.289,2345.909a37.226,37.226,0,0,0-7.933,6.735,1.348,1.348,0,0,1-2.366-.88v-13.988a1.348,1.348,0,0,1,2.367-.879,37.159,37.159,0,0,0,7.932,6.74A1.343,1.343,0,0,1,442.289,2345.909Z" transform="translate(-145.99 -1978.433)" fill="#c39d4d"/>
        </g>
      </g>
      <g id="Group_767" data-name="Group 767" transform="translate(138 10)">
        <path id="Path_596" data-name="Path 596" d="M-14-3.872A16.488,16.488,0,0,1-16.08-4V-8.208q.84-.048,1.584-.048c2.08-.016,2.656.56,2.656,2.128a4.321,4.321,0,0,1-.528,2.16A13.057,13.057,0,0,1-14-3.872Zm-.016,1.28a3.418,3.418,0,0,0,3.776-3.76c0-2.08-1.1-3.248-3.68-3.248h-3.744V0h1.584V-2.832A10.488,10.488,0,0,0-14.016-2.592ZM-3.392-7.584A3.839,3.839,0,0,0-6.448-5.92v-1.5H-7.984V0h1.568V-3.36A6.741,6.741,0,0,1-6.24-5.088,3.466,3.466,0,0,1-3.856-6.16c.848,0,1.152.432,1.152,1.264v1.1h1.568V-5.36A1.983,1.983,0,0,0-3.392-7.584ZM4.8-6.368c1.44,0,1.9.56,1.936,1.968a17.23,17.23,0,0,0-4.016.448,7.736,7.736,0,0,1,.336-2.224A8.435,8.435,0,0,1,4.8-6.368ZM5.152-1.12c-1.872,0-2.336-.944-2.416-2.256H8.192a8.967,8.967,0,0,0,.08-1.1c0-1.984-1.024-3.12-3.216-3.12-2.624,0-3.872,1.472-3.872,4C1.184-.8,2.544.176,4.928.176c2.224,0,3.264-.672,3.264-2.16a.656.656,0,0,0-.016-.176H6.736c-.016.256-.016.544-.064.848A4.39,4.39,0,0,1,5.152-1.12ZM15.744,0l2.688-7.424h-1.7l-.864,2.816c-.336,1.088-.672,2.24-.96,3.264h-.944c-.272-1.088-.592-2.176-.96-3.3L12.1-7.424H10.368L13.088,0ZM-19.2,2H19.2V3H-19.2Z" transform="translate(10473 6364.5)" fill="#0e6390"/>
        <g id="Group_760" data-name="Group 760" transform="translate(10388 5959)">
          <g id="Ellipse_61" data-name="Ellipse 61" transform="translate(64 345.5)" fill="none" stroke="#5ea2c0" stroke-width="3">
            <circle cx="20" cy="20" r="20" stroke="none"/>
            <circle cx="20" cy="20" r="18.5" fill="none"/>
          </g>
          <path id="Path_298" data-name="Path 298" d="M432.617,2345.909a37.226,37.226,0,0,1,7.933,6.735,1.348,1.348,0,0,0,2.366-.88v-13.988a1.348,1.348,0,0,0-2.367-.879,37.159,37.159,0,0,1-7.932,6.74A1.343,1.343,0,0,0,432.617,2345.909Z" transform="translate(-354.916 -1978.433)" fill="#6ea1bc"/>
        </g>
      </g>
      <g id="Timer" transform="translate(10452 6297.605)">
        <path id="Path_594" data-name="Path 594" d="M4.9.224C7.648.224,8.912-.784,8.912-2.64c0-1.44-.48-2.416-3.7-3.184-1.7-.416-1.968-.8-1.968-1.5a3.309,3.309,0,0,1,.048-.56,6.319,6.319,0,0,1,1.488-.176c1.136,0,1.456.3,1.456,1.36h2.4c.128-2.16-.912-3.12-3.7-3.12-2.7,0-4.016,1.072-4.016,2.9,0,1.7.816,2.448,3.424,3.088,1.808.432,2.176.832,2.176,1.52a2.028,2.028,0,0,1-.064.544,5.054,5.054,0,0,1-1.472.192c-1.344,0-1.84-.288-1.84-1.376H.752C.64-.752,1.76.224,4.9.224ZM10.32-9.6v2.128H13.5V0h2.4V-7.744a20.96,20.96,0,0,0,3.232.272V-9.6ZM24.592-1.744a7.328,7.328,0,0,0,1.728-.192L26.8,0h2.592L26.528-9.6H22.736L19.9,0h2.48l.48-1.936A7.627,7.627,0,0,0,24.592-1.744Zm-.96-3.248c.24-.944.464-1.936.656-2.848h.656c.192.912.384,1.9.624,2.848l.368,1.52H23.248Zm10.992.448a12.825,12.825,0,0,1-1.408-.064V-7.664c.368-.016.752-.032,1.168-.032,1.328-.016,1.856.4,1.856,1.488a3.482,3.482,0,0,1-.4,1.6C35.264-4.56,34.944-4.544,34.624-4.544Zm.1,1.664h.1L36.384,0h2.88L36.88-3.376a3.463,3.463,0,0,0,1.744-3.2c0-1.872-1.136-3.024-3.68-3.024H30.816V0h2.4V-2.944C33.728-2.912,34.24-2.88,34.72-2.88ZM40.08-9.6v2.128h3.184V0h2.4V-7.744a20.96,20.96,0,0,0,3.232.272V-9.6Zm15.04,0v2.128H58.3V0h2.4V-7.744a20.96,20.96,0,0,0,3.232.272V-9.6ZM68.24,0V-9.6h-2.4V0Zm4.88-4.1c0-1.168,0-2.464-.016-3.568H73.3c.352,1.1.736,2.272,1.2,3.632l1.216,3.12h2.224l1.248-3.056c.464-1.264.9-2.56,1.232-3.7h.224c-.048,1.1-.112,2.416-.112,3.568V0H82.96V-9.6H79.312L77.936-5.888a27.552,27.552,0,0,0-.752,2.656h-.16c-.256-.976-.544-2-.752-2.576L74.832-9.6H70.96V0h2.16ZM85.664,0H92.9V-1.9H88.064v-2c1.456.112,2.928.176,4.416.144V-5.408H88.064V-7.824c1.616.1,3.216.128,4.832.128V-9.6H85.664Zm13.6-4.544a12.825,12.825,0,0,1-1.408-.064V-7.664c.368-.016.752-.032,1.168-.032,1.328-.016,1.856.4,1.856,1.488a3.482,3.482,0,0,1-.4,1.6C99.9-4.56,99.584-4.544,99.264-4.544Zm.1,1.664h.1L101.024,0h2.88L101.52-3.376a3.463,3.463,0,0,0,1.744-3.2c0-1.872-1.136-3.024-3.68-3.024H95.456V0h2.4V-2.944C98.368-2.912,98.88-2.88,99.36-2.88Z" transform="translate(0 99.895)" fill="#2d0043"/>
        <g id="Group_608" data-name="Group 608" transform="translate(-189.324 -2316.422)">
          <path id="Path_277" data-name="Path 277" d="M241.96,2371.183s15.9,6.256,15.9,22.266v9.542H226.056v-9.542c0-16.01,15.9-22.266,15.9-22.266m0-3.8-1.294.509c-.741.291-18.144,7.346-18.144,25.555v13.077H261.4v-13.077c0-18.208-17.4-25.264-18.145-25.555l-1.294-.509Z" transform="translate(-1.524 -14.94)" fill="#2d0043"/>
          <path id="Path_278" data-name="Path 278" d="M257.865,2320.6v9.542c0,16.017-15.9,22.266-15.9,22.266s-15.9-6.249-15.9-22.266V2320.6h31.808m3.534-3.534H222.522v13.077c0,18.216,17.4,25.264,18.146,25.555l1.293.508,1.292-.508c.741-.29,18.146-7.338,18.146-25.555v-13.077Z" transform="translate(-1.524 -0.189)" fill="#2d0043"/>
          <g id="Group_602" data-name="Group 602" transform="translate(230.678 2337.62)">
            <g id="Group_595" data-name="Group 595" transform="translate(0 0)">
              <path id="Path_279" data-name="Path 279" d="M237.612,2346.411v6a17.544,17.544,0,0,1-1.4-1.84v-4.16Z" transform="translate(-236.216 -2346.411)" fill="#2d0043"/>
            </g>
            <g id="Group_596" data-name="Group 596" transform="translate(3.014 0)">
              <path id="Path_280" data-name="Path 280" d="M241.884,2346.411v8.906c-.466-.372-.938-.773-1.4-1.217v-7.689Z" transform="translate(-240.48 -2346.411)" fill="#2d0043"/>
            </g>
            <g id="Group_597" data-name="Group 597" transform="translate(6.036 0)">
              <path id="Path_281" data-name="Path 281" d="M246.158,2346.411v10.968c-.43-.243-.9-.537-1.4-.873v-10.1Z" transform="translate(-244.755 -2346.411)" fill="#2d0043"/>
            </g>
            <g id="Group_598" data-name="Group 598" transform="translate(9.057 0)">
              <path id="Path_282" data-name="Path 282" d="M250.425,2346.411v11.835c-.437.207-.695.308-.695.308s-.257-.1-.7-.308v-11.835Z" transform="translate(-249.029 -2346.411)" fill="#2d0043"/>
            </g>
            <g id="Group_599" data-name="Group 599" transform="translate(12.078 0)">
              <path id="Path_283" data-name="Path 283" d="M254.7,2346.411v10.1c-.5.336-.966.63-1.4.873v-10.968Z" transform="translate(-253.303 -2346.411)" fill="#2d0043"/>
            </g>
            <g id="Group_600" data-name="Group 600" transform="translate(15.099 0)">
              <path id="Path_284" data-name="Path 284" d="M258.973,2346.411v7.7c-.465.437-.938.838-1.4,1.21v-8.906Z" transform="translate(-257.577 -2346.411)" fill="#2d0043"/>
            </g>
            <g id="Group_601" data-name="Group 601" transform="translate(18.113 0)">
              <path id="Path_285" data-name="Path 285" d="M263.245,2346.411v4.153a16.873,16.873,0,0,1-1.4,1.847v-6Z" transform="translate(-261.841 -2346.411)" fill="#2d0043"/>
            </g>
          </g>
          <g id="Group_603" data-name="Group 603" transform="translate(217.324 2316.422)">
            <rect id="Rectangle_518" data-name="Rectangle 518" width="46.224" height="3.534" fill="#2d0043"/>
          </g>
          <g id="Group_604" data-name="Group 604" transform="translate(217.324 2388.145)">
            <rect id="Rectangle_519" data-name="Rectangle 519" width="46.224" height="3.534" fill="#2d0043"/>
          </g>
          <g id="Group_607" data-name="Group 607" transform="translate(227.657 2370.48)">
            <g id="Group_605" data-name="Group 605" transform="translate(0 6.795)">
              <path id="Path_286" data-name="Path 286" d="M233.338,2402.513v8.09a1.508,1.508,0,0,1-1.4-1.5v-4.876a1.508,1.508,0,0,1,.709-1.281Z" transform="translate(-231.942 -2402.513)" fill="#2d0043"/>
            </g>
            <path id="Path_287" data-name="Path 287" d="M236.216,2400.732l1.4-.874v9.973h-1.4Z" transform="translate(-233.195 -2394.94)" fill="#2d0043"/>
            <path id="Path_288" data-name="Path 288" d="M240.48,2398.082l1.4-.866v11.841h-1.4Z" transform="translate(-234.445 -2394.165)" fill="#2d0043"/>
            <path id="Path_289" data-name="Path 289" d="M244.755,2395.428l1.4-.866v13.717h-1.4Z" transform="translate(-235.698 -2393.387)" fill="#2d0043"/>
            <path id="Path_290" data-name="Path 290" d="M250.425,2393.065v14.726h-1.4v-14.719A1.525,1.525,0,0,1,250.425,2393.065Z" transform="translate(-236.951 -2392.9)" fill="#2d0043"/>
            <path id="Path_291" data-name="Path 291" d="M253.3,2394.552l1.4.873v12.851h-1.4Z" transform="translate(-238.204 -2393.384)" fill="#2d0043"/>
            <path id="Path_292" data-name="Path 292" d="M257.577,2397.216l1.4.866v10.975h-1.4Z" transform="translate(-239.457 -2394.165)" fill="#2d0043"/>
            <path id="Path_293" data-name="Path 293" d="M261.841,2399.859l1.4.874v9.1h-1.4Z" transform="translate(-240.707 -2394.94)" fill="#2d0043"/>
            <g id="Group_606" data-name="Group 606" transform="translate(24.156 6.795)">
              <path id="Path_294" data-name="Path 294" d="M267.519,2404.224v4.876a1.515,1.515,0,0,1-1.4,1.5v-8.09l.687.429A1.515,1.515,0,0,1,267.519,2404.224Z" transform="translate(-266.116 -2402.513)" fill="#2d0043"/>
            </g>
          </g>
        </g>
      </g>
      <g id="Group_762" data-name="Group 762" transform="translate(7427 5068)">
        <g id="Ellipse_61-2" data-name="Ellipse 61" transform="translate(3250 1384.5)" fill="none" stroke="#006295" stroke-width="3">
          <circle cx="15.68" cy="15.68" r="15.68" stroke="none"/>
          <circle cx="15.68" cy="15.68" r="14.18" fill="none"/>
        </g>
        <g id="Group_651" data-name="Group 651" transform="translate(3256.664 1391.164)">
          <rect id="Rectangle_543" data-name="Rectangle 543" width="3.04" height="18.432" rx="1.52" transform="translate(18.432 7.696) rotate(90)" fill="#0e6390"/>
          <rect id="Rectangle_544" data-name="Rectangle 544" width="3.04" height="18.432" rx="1.52" transform="translate(10.736 18.432) rotate(180)" fill="#0e6390"/>
        </g>
      </g>
      <g id="Group_763" data-name="Group 763" transform="translate(7336 5024)">
        <g id="Rectangle_545" data-name="Rectangle 545" transform="translate(3116 1426)" fill="rgba(255,255,255,0.36)" stroke="#c39d4d" stroke-width="1">
          <rect width="144" height="38" rx="4" stroke="none"/>
          <rect x="0.5" y="0.5" width="143" height="37" rx="3.5" fill="none"/>
        </g>
        <g id="Group_656" data-name="Group 656" transform="translate(-0.958)">
          <path id="Path_598" data-name="Path 598" d="M5.346-1.962A8.244,8.244,0,0,0,7.29-2.178L7.83,0h2.916L7.524-10.8H3.258L.072,0h2.79L3.4-2.178A8.58,8.58,0,0,0,5.346-1.962ZM4.266-5.616c.27-1.062.522-2.178.738-3.2h.738c.216,1.026.432,2.142.7,3.2l.414,1.71H3.834ZM16.56-2.142c-.558,0-1.1-.018-1.6-.054v-6.39c.414-.018.81-.036,1.17-.036,1.8,0,2.25.828,2.25,3.132a9.026,9.026,0,0,1-.54,3.222A9.494,9.494,0,0,1,16.56-2.142Zm-.09,2.2c2.916,0,4.608-1.98,4.608-5.8,0-3.294-1.242-5.058-4.194-5.058H12.258V0h.018C13.05.036,15.282.054,16.47.054Zm11.16-2.2c-.558,0-1.1-.018-1.6-.054v-6.39c.414-.018.81-.036,1.17-.036,1.8,0,2.25.828,2.25,3.132a9.026,9.026,0,0,1-.54,3.222A9.494,9.494,0,0,1,27.63-2.142Zm-.09,2.2c2.916,0,4.608-1.98,4.608-5.8,0-3.294-1.242-5.058-4.194-5.058H23.328V0h.018C24.12.036,26.352.054,27.54.054ZM45.468,0h3.024V-10.8H46.35v3.384c0,1.26.162,3.384.342,4.9h-.126A41.164,41.164,0,0,0,45-6.948L43.236-10.8H40.068V0H42.21V-3.24c0-1.314-.162-3.8-.306-5.382h.126c.45,1.332,1.1,3.24,1.566,4.338Zm9.738.252c3.384,0,4.788-2.2,4.788-6.048,0-4-1.71-5.256-4.518-5.256-3.384,0-4.77,2.2-4.77,6.048C50.706-1.008,52.416.252,55.206.252Zm.27-2.268c-1.62,0-2.16-1.17-2.16-3.33A10.979,10.979,0,0,1,53.748-8.6a5.485,5.485,0,0,1,1.458-.2c1.548,0,2.16,1.188,2.16,3.33a10.385,10.385,0,0,1-.45,3.258A4.721,4.721,0,0,1,55.476-2.016ZM61.47-10.8v2.394h3.582V0h2.7V-8.712a23.58,23.58,0,0,0,3.636.306V-10.8ZM73.422,0h8.136V-2.142H76.122v-2.25c1.638.126,3.294.2,4.968.162V-6.084H76.122V-8.8c1.818.108,3.618.144,5.436.144V-10.8H73.422Z" transform="translate(3160 1451)" fill="#c39d4d"/>
          <g id="Group_655" data-name="Group 655" transform="translate(-161.542 57.458)">
            <rect id="Rectangle_543-2" data-name="Rectangle 543" width="2.737" height="16.595" rx="1.369" transform="translate(3312.095 1386.929) rotate(90)" fill="#c39d4d"/>
            <rect id="Rectangle_544-2" data-name="Rectangle 544" width="2.737" height="16.595" rx="1.369" transform="translate(3305.166 1396.595) rotate(180)" fill="#c39d4d"/>
          </g>
        </g>
      </g>
      <g id="menu_button" data-name="menu button" transform="translate(10627 6457)">
        <g id="Group_614" data-name="Group 614">
          <rect id="Rectangle_524" data-name="Rectangle 524" width="3.558" height="17.835" fill="#2d0043"/>
        </g>
        <g id="Group_615" data-name="Group 615" transform="translate(7.712 5.418)">
          <rect id="Rectangle_525" data-name="Rectangle 525" width="3.576" height="17.835" fill="#2d0043"/>
        </g>
        <g id="Group_616" data-name="Group 616" transform="translate(15.424)">
          <rect id="Rectangle_526" data-name="Rectangle 526" width="3.576" height="17.835" fill="#2d0043"/>
        </g>
      </g>
      <g id="Group_770" data-name="Group 770" transform="translate(10702.926 6437)">
        <g id="Group_697" data-name="Group 697">
          <path id="Path_597" data-name="Path 597" d="M4.848-7.984C6-8,6.272-7.52,6.272-6.528A2.293,2.293,0,0,1,6-5.392a9.176,9.176,0,0,1-1.088.08H3.5v-2.64C3.984-7.968,4.432-7.984,4.848-7.984Zm.7,8C7.712.016,8.9-.928,8.9-2.448a1.911,1.911,0,0,0-1.9-2.144,2.5,2.5,0,0,0,1.44-2.272c0-1.776-.976-2.736-3.28-2.736H1.1V0C2.768.016,4.416.016,5.552.016Zm-.1-1.536c-.656,0-1.312-.016-1.952-.064v-2.24c.528-.016.992-.032,1.44-.032,1.28,0,1.616.4,1.616,1.488a2.568,2.568,0,0,1-.128.816C6.08-1.52,5.744-1.52,5.456-1.52Zm9.216-.224A7.328,7.328,0,0,0,16.4-1.936L16.88,0h2.592L16.608-9.6H12.816L9.984,0h2.48l.48-1.936A7.627,7.627,0,0,0,14.672-1.744Zm-.96-3.248c.24-.944.464-1.936.656-2.848h.656c.192.912.384,1.9.624,2.848l.368,1.52H13.328Zm12.7,1.552a3.939,3.939,0,0,1-.192,1.424,3.533,3.533,0,0,1-1.344.24c-1.52,0-1.952-1.072-1.952-2.816a11.075,11.075,0,0,1,.4-3.024,6.257,6.257,0,0,1,1.392-.176c1.3,0,1.664.56,1.664,2.128H28.7c.032-2.912-1.312-4.16-3.792-4.16-3.088,0-4.384,1.9-4.384,5.376,0,3.552,1.68,4.672,4.4,4.672,2.4,0,3.84-1.12,3.84-3.664ZM36.256,0h2.96L35.824-4.624A16.041,16.041,0,0,0,39.008-9.6H36.32a15.3,15.3,0,0,1-2.048,4.208h-.928V-9.6h-2.4V0h2.4V-3.52h.848Z" transform="translate(66 37.5)" fill="#2d0043"/>
          <path id="Path_298-2" data-name="Path 298" d="M432.617,2345.909a37.226,37.226,0,0,1,7.933,6.735,1.348,1.348,0,0,0,2.366-.88v-13.988a1.348,1.348,0,0,0-2.367-.879,37.159,37.159,0,0,1-7.932,6.74A1.343,1.343,0,0,0,432.617,2345.909Z" transform="translate(-395.916 -2312.433)" fill="#2d0043"/>
        </g>
      </g>
      <g id="Group_771" data-name="Group 771" transform="translate(10586 5874)">
        <circle id="Ellipse_4" data-name="Ellipse 4" cx="7.5" cy="7.5" r="7.5" transform="translate(153 458.5)" fill="#0e6390"/>
        <circle id="Ellipse_5" data-name="Ellipse 5" cx="4.5" cy="4.5" r="4.5" transform="translate(177 461.5)" fill="#6ea1bc"/>
        <circle id="Ellipse_6" data-name="Ellipse 6" cx="4.5" cy="4.5" r="4.5" transform="translate(195 461.5)" fill="#6ea1bc"/>
        <circle id="Ellipse_7" data-name="Ellipse 7" cx="4.5" cy="4.5" r="4.5" transform="translate(213 461.5)" fill="#6ea1bc"/>
      </g>
    </g>
    <g id="Group_773" data-name="Group 773" transform="translate(605 -303)">
      <g id="Rectangle_499" data-name="Rectangle 499" transform="translate(89 415)" fill="none" stroke="#006295" stroke-width="2" opacity="0.37">
        <rect width="196" height="196" rx="98" stroke="none"/>
        <rect x="1" y="1" width="194" height="194" rx="97" fill="none"/>
      </g>
      <g id="Rectangle_497" data-name="Rectangle 497" transform="translate(114 440)" fill="none" stroke="#006295" stroke-width="3" opacity="0.18">
        <rect width="146" height="146" rx="73" stroke="none"/>
        <rect x="1.5" y="1.5" width="143" height="143" rx="71.5" fill="none"/>
      </g>
      <g id="Rectangle_498" data-name="Rectangle 498" transform="translate(138 464)" fill="none" stroke="#006295" stroke-width="2" opacity="0.3">
        <rect width="98" height="98" rx="49" stroke="none"/>
        <rect x="1" y="1" width="96" height="96" rx="48" fill="none"/>
      </g>
    </g>
    <rect id="Rectangle_627" data-name="Rectangle 627" width="272" height="400" transform="translate(1328)" fill="url(#linear-gradient)"/>
    <rect id="Rectangle_628" data-name="Rectangle 628" width="34" height="1600" transform="translate(0 400) rotate(-90)" fill="url(#linear-gradient-2)"/>
  </g>
</svg>
