<svg xmlns="http://www.w3.org/2000/svg" viewBox="0 0 800 400"><defs><style>.cls-1{isolation:isolate;}.cls-2{fill:#f5f6f6;}.cls-3{fill:#656a70;}.cls-4{fill:#19222a;}.cls-5{fill:#78ded4;}.cls-6{fill:#f8ae17;}.cls-7{fill:#4a4643;opacity:0.05;mix-blend-mode:multiply;}.cls-8{fill:#aaac24;}.cls-9{fill:#bc4700;}</style></defs><g class="cls-1"><g id="Layer_1" data-name="Layer 1"><rect class="cls-2" x="-10.91" width="821.83" height="400"/><path class="cls-3" d="M355,326.29V308.81h3.29c1.71,0,3.27,0,4.31,1.32.82,1,.89,1.93.89,6.16,0,.94,0,2-.05,4.43a7.74,7.74,0,0,1-.69,4c-1,1.59-2.63,1.59-4.51,1.59Zm2.18-1.93h1.41c1.39,0,2.38-.13,2.62-1.69.13-.81.15-3.26.15-4.18,0-1.61,0-2.23,0-3.91,0-1.9-.05-2.85-.82-3.39-.54-.37-1-.37-3.34-.37Z"/><path class="cls-3" d="M376.17,326.29H368.3V308.81H376v2h-5.49V316h4.82v2h-4.82v6.38h5.69Z"/><path class="cls-3" d="M388.91,326.29h-3.06l-3.42-15.15.3,15.15H380.6v-17.5h3l3.54,15.32-.3-15.32h2.1Z"/><path class="cls-3" d="M405.3,326.29h-2l.3-15.82L401,326.29h-2.75l-2.62-15.82.35,15.82h-2.11v-17.5h3.27l2.45,15.62,2.4-15.62h3.32Z"/><path class="cls-3" d="M418.81,326.29h-2.28l-.62-3.37h-4.06l-.59,3.37H409l3.76-17.48H415ZM415.54,321l-1.71-9-1.61,9Z"/><path class="cls-3" d="M431.87,326.29h-2.3l-3-7.65h-1.8v7.65h-2.16V308.81h3.81c2.31,0,4.63.37,4.63,4.76a9.1,9.1,0,0,1-.42,3,2.47,2.47,0,0,1-1.93,1.78Zm-7.07-9.38c2.45,0,2.79,0,3.26-.32.84-.57.84-1.91.84-2.78,0-1.06,0-2.17-.86-2.69-.52-.33-1-.33-3.24-.33Z"/><path class="cls-3" d="M445,326.29h-2.4l-3.12-8.94-1.39,2.11v6.83h-2.15V308.81h2.15v7.53l4.51-7.53H445l-4.11,6.59Z"/><path class="cls-4" d="M293.76,277.53V272.7c0-2.84-.48-4.44-3.54-4.44s-3.21,2.41-3.21,4.12v20.25c0,2.26.37,4.29,3.48,4.29,3.27,0,3.27-2.36,3.27-4.66v-4.93h6.91v5.36c0,3.05,0,9.64-10.29,9.64a14.29,14.29,0,0,1-7.34-1.82c-3-2-3-4.93-3-7V272.92c0-3.06.16-5.15,1.88-7,2.73-2.95,7-3,8.46-3,10.29,0,10.29,6.11,10.29,8.78v5.85Z"/><path class="cls-4" d="M325.21,293.44c0,2.78-.54,4.71-2,6.21-2.25,2.36-5.78,2.68-8.3,2.68-8.52,0-10.61-4.07-10.61-8.89V272.27c0-1.6.05-4.44,2-6.48,1.45-1.55,4.29-2.89,8.57-2.89a12.37,12.37,0,0,1,7.88,2.35c1.88,1.56,2.52,3.54,2.52,7.18Zm-7-20.52c0-2,0-4.72-3.38-4.72-3.59,0-3.59,2.9-3.59,5v19.08c0,2.14.11,4.61,3.54,4.61s3.43-2.63,3.43-4.45Z"/><path class="cls-4" d="M328.9,263.65h14c6.38,0,6.38,5,6.38,8.57v4.93c0,6.11-.65,8.63-7.5,8.63h-5.9v15.75h-7Zm7,16.71h3.38c2.62,0,3.16-.48,3.16-3.37v-3.86c0-2.57,0-3.86-3.11-3.86h-3.43Z"/><path class="cls-4" d="M353.17,263.65H371.5v5.78H360.14v8.9H370.8v5.73H360.14v11.63H372v5.84H353.17Z"/><path class="cls-4" d="M397.64,301.53h-8.79l-6.75-28.35.65,28.35h-6.54V263.7h9l6.8,27.76-.7-27.76h6.38Z"/><path class="cls-4" d="M403.16,263.7h7v14.9h6.37V263.7h7v37.83h-7V284.22h-6.37v17.31h-7Z"/><path class="cls-4" d="M434.18,263.7h8l7.07,37.83h-7.07l-.91-6.16h-6.43l-1,6.16h-7Zm1.5,25.83h4.83l-2.31-16.24Z"/><path class="cls-4" d="M465.42,275.92v-3.59c0-1.88,0-4-3.27-4-3.54,0-3.54,2.84-3.54,4.88v19.93c0,2.52.86,3.8,3.33,3.8,3.48,0,3.48-2.57,3.48-4.39v-5.89h-4.34V281h11.3v20.52h-5.94v-2.25a8,8,0,0,1-6.7,3.05c-3.38,0-8.2-1.44-8.2-7.71V273.08c0-3.81.32-10.18,10.77-10.18,1.72,0,5,.27,7.23,1.71a6.32,6.32,0,0,1,2.84,5.79v5.52Z"/><path class="cls-4" d="M476.45,263.65h18.33v5.78H483.42v8.9h10.66v5.73H483.42v11.63h11.84v5.84H476.45Z"/><path class="cls-4" d="M520,301.53h-8.79l-6.75-28.35.64,28.35h-6.53V263.7h8.94l6.81,27.76-.7-27.76H520Z"/><path class="cls-5" d="M450.61,133.87V182.1a5.24,5.24,0,0,1-3.43,4.67c-7.64,2.44-19.6,11.65-25.42,21.72a1.14,1.14,0,0,1-2.12-.57V108.05a1.14,1.14,0,0,1,2.12-.57c5.82,10.06,17.78,19.27,25.42,21.71A5.24,5.24,0,0,1,450.61,133.87Z"/><path class="cls-6" d="M407.12,76.49v164a2.77,2.77,0,0,1-3.43,2.7c-12.57-3.06-43.13-26.7-46-49.62V123.41c2.85-22.89,33.4-46.53,46-49.62A2.78,2.78,0,0,1,407.12,76.49Z"/><path class="cls-7" d="M407.12,76.49v164a2.77,2.77,0,0,1-3.43,2.7c-12.57-3.06-43.13-26.7-46-49.62V123.41c2.85-22.89,33.4-46.53,46-49.62A2.78,2.78,0,0,1,407.12,76.49Z"/><rect class="cls-8" x="463.13" y="138.95" width="19.42" height="38.08" rx="1.06"/><path class="cls-9" d="M319,207c3.48-6.66,12.31-21.56,23-24.17a4.2,4.2,0,0,0,3.19-4.09V137.23a4.2,4.2,0,0,0-3.19-4.09c-10.66-2.61-19.49-17.51-23-24.17a.84.84,0,0,0-1.58.39v97.25A.84.84,0,0,0,319,207Z"/></g></g></svg>