<?xml version="1.0" encoding="utf-8"?>
<!-- Generator: Adobe Illustrator 25.1.0, SVG Export Plug-In . SVG Version: 6.00 Build 0)  -->
<svg version="1.1" id="Layer_1" xmlns="http://www.w3.org/2000/svg" xmlns:xlink="http://www.w3.org/1999/xlink" x="0px" y="0px"
	 viewBox="0 0 800 800" style="enable-background:new 0 0 800 800;" xml:space="preserve">
<style type="text/css">
	.st0{fill:#FFFFFF;}
	.st1{fill:#19222A;}
	.st2{fill:#F5F6F6;}
	.st3{fill:#656A70;}
	.st4{fill:#78DED4;}
	.st5{fill:#F8AE17;}
	.st6{opacity:5.000000e-02;fill:#4A4643;enable-background:new    ;}
	.st7{fill:#AAAC24;}
	.st8{fill:#BC4700;}
</style>
<g>
	<rect class="st0" width="800" height="800"/>
	<path class="st1" d="M331.5,592.2v-26.6h5c2.6,0,5,0,6.6,2c1.2,1.5,1.4,2.9,1.4,9.4c0,1.4,0,3.1-0.1,6.7c0,2.6-0.1,4.5-1.1,6.1
		c-1.5,2.4-4,2.4-6.9,2.4L331.5,592.2z M334.9,589.2h2.1c2.1,0,3.6-0.2,4-2.6c0.2-1.2,0.2-5,0.2-6.4c0-2.4,0-3.4,0-6
		c0-2.9-0.1-4.3-1.2-5.2c-0.8-0.6-1.6-0.6-5.1-0.6L334.9,589.2z"/>
	<path class="st1" d="M363.7,592.2h-12v-26.6h11.7v3h-8.4v7.9h7.3v3h-7.3v9.7h8.7L363.7,592.2z"/>
	<path class="st1" d="M383.1,592.2h-4.7l-5.2-23l0.4,23h-3.2v-26.6h4.5l5.4,23.3l-0.4-23.3h3.2V592.2z"/>
	<path class="st1" d="M408.1,592.2h-3l0.4-24.1l-4,24.1h-4.2l-4-24.1l0.5,24.1h-3.2v-26.6h5l3.7,23.8l3.7-23.8h5L408.1,592.2z"/>
	<path class="st1" d="M428.6,592.2h-3.5l-1-5.1H418l-0.9,5.1h-3.4l5.7-26.6h3.3L428.6,592.2z M423.6,584.2l-2.6-13.7l-2.4,13.7
		H423.6z"/>
	<path class="st1" d="M448.5,592.2H445l-4.5-11.6h-2.8v11.6h-3.3v-26.6h5.8c3.5,0,7,0.6,7,7.2c0,1.6-0.2,3.1-0.6,4.6
		c-0.4,1.4-1.5,2.4-2.9,2.7L448.5,592.2z M437.7,577.9c3.7,0,4.3,0,5-0.5c1.3-0.9,1.3-2.9,1.3-4.2c0-1.6,0-3.3-1.3-4.1
		c-0.8-0.5-1.5-0.5-4.9-0.5L437.7,577.9z"/>
	<path class="st1" d="M468.5,592.2h-3.7l-4.8-13.6l-2.1,3.2v10.4h-3.3v-26.6h3.3V577l6.9-11.5h3.7l-6.2,10L468.5,592.2z"/>
	<path class="st1" d="M238.3,518v-7.3c0-4.3-0.7-6.8-5.4-6.8s-4.9,3.7-4.9,6.3V541c0,3.4,0.6,6.5,5.3,6.5c5,0,5-3.6,5-7.1v-7.5h10.5
		v8.2c0,4.7,0,14.7-15.7,14.7c-3,0-7.8-0.6-11.2-2.8c-4.6-3-4.6-7.5-4.6-10.7V511c0-4.6,0.2-7.8,2.9-10.7c4.2-4.5,10.7-4.6,12.9-4.6
		c15.7,0,15.7,9.3,15.7,13.4v8.9H238.3z"/>
	<path class="st1" d="M286.2,542.2c0,4.2-0.8,7.2-3.1,9.5c-3.4,3.6-8.8,4.1-12.6,4.1c-13,0-16.1-6.2-16.1-13.5V510
		c0-2.4,0.1-6.8,3-9.9c2.2-2.4,6.5-4.4,13-4.4c5.2,0,9.3,1.4,12,3.6c2.9,2.4,3.8,5.4,3.8,10.9L286.2,542.2z M275.5,511
		c0-3,0-7.2-5.1-7.2c-5.5,0-5.5,4.4-5.5,7.6v29c0,3.3,0.2,7,5.4,7s5.2-4,5.2-6.8V511z"/>
	<path class="st1" d="M291.8,496.9h21.4c9.7,0,9.7,7.6,9.7,13v7.5c0,9.3-1,13.1-11.4,13.1h-9v24h-10.7L291.8,496.9z M302.5,522.3
		h5.1c4,0,4.8-0.7,4.8-5.1v-5.9c0-3.9,0-5.9-4.7-5.9h-5.2V522.3z"/>
	<path class="st1" d="M328.7,496.9h27.9v8.8h-17.3v13.5h16.2v8.7h-16.2v17.7h18v8.9h-28.6L328.7,496.9z"/>
	<path class="st1" d="M396.4,554.5H383l-10.3-43.1l1,43.1h-9.9v-57.6h13.6l10.4,42.2l-1.1-42.2h9.7L396.4,554.5z"/>
	<path class="st1" d="M404.8,496.9h10.6v22.7h9.7v-22.7h10.6v57.6h-10.6v-26.3h-9.7v26.3h-10.6V496.9z"/>
	<path class="st1" d="M452,496.9h12.2l10.8,57.6h-10.8l-1.4-9.4H453l-1.6,9.4h-10.6L452,496.9z M454.3,536.2h7.3l-3.5-24.7
		L454.3,536.2z"/>
	<path class="st1" d="M499.6,515.5v-5.5c0-2.9,0-6-5-6c-5.4,0-5.4,4.3-5.4,7.4v30.3c0,3.8,1.3,5.8,5,5.8c5.3,0,5.3-3.9,5.3-6.7v-9
		H493v-8.7h17.2v31.2h-9.1v-3.4c-2.4,3.1-6.2,4.8-10.2,4.6c-5.1,0-12.5-2.2-12.5-11.7v-32.8c0-5.8,0.5-15.5,16.4-15.5
		c2.6,0,7.6,0.4,11,2.6c3.3,2.1,4.3,5.2,4.3,8.8v8.4L499.6,515.5z"/>
	<path class="st1" d="M516.3,496.9h27.9v8.8h-17.3v13.5h16.2v8.7h-16.2v17.7h18v8.9h-28.6L516.3,496.9z"/>
	<path class="st1" d="M582.6,554.5h-13.4l-10.3-43.1l1,43.1h-10v-57.6h13.6l10.3,42.2l-1.1-42.2h9.7L582.6,554.5z"/>
	<path class="st1" d="M477,299.4v73.4c-0.2,3.2-2.2,6-5.2,7.1c-11.6,3.7-29.8,17.7-38.7,33c-0.5,0.8-1.5,1.1-2.4,0.6
		c-0.5-0.3-0.9-0.9-0.9-1.5V260c0-1,0.8-1.7,1.7-1.7c0.6,0,1.2,0.3,1.5,0.9c8.9,15.3,27.1,29.3,38.7,33
		C474.8,293.3,476.9,296.1,477,299.4z"/>
	<path class="st1" d="M410.8,212.1v249.5c0,2.3-1.9,4.2-4.2,4.2c-0.3,0-0.7,0-1-0.1c-19.1-4.7-65.6-40.6-70-75.5V283.5
		c4.3-34.8,50.8-70.8,70-75.5c2.3-0.5,4.6,0.9,5.1,3.1C410.8,211.4,410.8,211.7,410.8,212.1z"/>
	<path class="st1" d="M497.1,307.1h27.4c0.6,0,1.1,0.5,1.1,1.1V364c0,0.6-0.5,1.1-1.1,1.1h-27.4c-0.6,0-1.1-0.5-1.1-1.1v-55.8
		C496.1,307.6,496.5,307.1,497.1,307.1z"/>
	<path class="st1" d="M276.8,410.6c5.3-10.1,18.7-32.8,35-36.8c2.9-0.7,4.9-3.3,4.8-6.2v-63.2c0-2.9-2-5.5-4.8-6.2
		c-16.2-4-29.7-26.7-35-36.8c-0.3-0.6-1.1-0.9-1.7-0.5c-0.4,0.2-0.7,0.7-0.7,1.1v148c0,0.7,0.6,1.3,1.3,1.3
		C276.1,411.3,276.6,411.1,276.8,410.6z"/>
</g>
<g>
	<rect x="-820" class="st2" width="800" height="800"/>
	<path class="st3" d="M-488.5,592.2v-26.6h5c2.6,0,5,0,6.5,2c1.2,1.5,1.4,2.9,1.4,9.4c0,1.4,0,3.1-0.1,6.7c0,2.6-0.1,4.5-1,6.1
		c-1.5,2.4-4,2.4-6.9,2.4L-488.5,592.2z M-485.1,589.2h2.1c2.1,0,3.6-0.2,4-2.6c0.2-1.2,0.2-5,0.2-6.4c0-2.4,0-3.4,0-6
		c0-2.9-0.1-4.3-1.2-5.2c-0.8-0.6-1.6-0.6-5.1-0.6L-485.1,589.2z"/>
	<path class="st3" d="M-456.3,592.2h-12v-26.6h11.7v3h-8.4v7.9h7.3v3h-7.3v9.7h8.7L-456.3,592.2z"/>
	<path class="st3" d="M-436.9,592.2h-4.7l-5.2-23l0.5,23h-3.2v-26.6h4.5l5.4,23.3l-0.5-23.3h3.2V592.2z"/>
	<path class="st3" d="M-411.9,592.2h-3.1l0.5-24.1l-4,24.1h-4.2l-4-24.1l0.5,24.1h-3.2v-26.6h5l3.7,23.8l3.6-23.8h5L-411.9,592.2z"
		/>
	<path class="st3" d="M-391.4,592.2h-3.5l-1-5.1h-6.2l-0.9,5.1h-3.4l5.7-26.6h3.3L-391.4,592.2z M-396.4,584.2l-2.6-13.7l-2.5,13.7
		H-396.4z"/>
	<path class="st3" d="M-371.5,592.2h-3.5l-4.5-11.6h-2.8v11.6h-3.3v-26.6h5.8c3.5,0,7,0.6,7,7.2c0,1.6-0.2,3.1-0.6,4.6
		c-0.4,1.4-1.5,2.4-2.9,2.7L-371.5,592.2z M-382.3,577.9c3.7,0,4.3,0,5-0.5c1.3-0.9,1.3-2.9,1.3-4.2c0-1.6,0-3.3-1.3-4.1
		c-0.8-0.5-1.5-0.5-4.9-0.5L-382.3,577.9z"/>
	<path class="st3" d="M-351.5,592.2h-3.6l-4.8-13.6l-2.1,3.2v10.4h-3.3v-26.6h3.3V577l6.9-11.5h3.6l-6.2,10L-351.5,592.2z"/>
	<path class="st1" d="M-581.7,518v-7.3c0-4.3-0.7-6.8-5.4-6.8c-4.6,0-4.9,3.7-4.9,6.3V541c0,3.4,0.6,6.5,5.3,6.5c5,0,5-3.6,5-7.1
		v-7.5h10.5v8.2c0,4.7,0,14.7-15.7,14.7c-3,0-7.8-0.6-11.2-2.8c-4.6-3-4.6-7.5-4.6-10.7V511c0-4.6,0.2-7.8,2.9-10.7
		c4.2-4.5,10.7-4.6,12.9-4.6c15.7,0,15.7,9.3,15.7,13.4v8.9H-581.7z"/>
	<path class="st1" d="M-533.8,542.2c0,4.2-0.8,7.2-3.1,9.5c-3.4,3.6-8.8,4.1-12.6,4.1c-13,0-16.1-6.2-16.1-13.5V510
		c0-2.4,0.1-6.8,3-9.9c2.2-2.4,6.5-4.4,13-4.4c5.2,0,9.3,1.4,12,3.6c2.9,2.4,3.8,5.4,3.8,10.9L-533.8,542.2z M-544.5,511
		c0-3,0-7.2-5.1-7.2c-5.5,0-5.5,4.4-5.5,7.6v29c0,3.3,0.2,7,5.4,7c5.2,0,5.2-4,5.2-6.8V511z"/>
	<path class="st1" d="M-528.2,496.9h21.4c9.7,0,9.7,7.6,9.7,13v7.5c0,9.3-1,13.1-11.4,13.1h-9v24h-10.6V496.9z M-517.5,522.3h5.1
		c4,0,4.8-0.7,4.8-5.1v-5.9c0-3.9,0-5.9-4.7-5.9h-5.2V522.3z"/>
	<path class="st1" d="M-491.3,496.9h27.9v8.8h-17.3v13.5h16.2v8.7h-16.2v17.7h18v8.9h-28.6V496.9z"/>
	<path class="st1" d="M-423.6,554.5H-437l-10.3-43.1l1,43.1h-9.9v-57.6h13.6l10.4,42.2l-1.1-42.2h9.7L-423.6,554.5z"/>
	<path class="st1" d="M-415.2,496.9h10.6v22.7h9.7v-22.7h10.6v57.6h-10.6v-26.3h-9.7v26.3h-10.6V496.9z"/>
	<path class="st1" d="M-368,496.9h12.1l10.8,57.6h-10.7l-1.4-9.4h-9.8l-1.5,9.4h-10.6L-368,496.9z M-365.7,536.2h7.3l-3.5-24.7
		L-365.7,536.2z"/>
	<path class="st1" d="M-320.5,515.5v-5.5c0-2.9,0-6-5-6c-5.4,0-5.4,4.3-5.4,7.4v30.3c0,3.8,1.3,5.8,5,5.8c5.3,0,5.3-3.9,5.3-6.7v-9
		h-6.5v-8.7h17.2v31.2h-9v-3.4c-2.4,3.1-6.2,4.8-10.2,4.6c-5.1,0-12.5-2.2-12.5-11.7v-32.8c0-5.8,0.5-15.5,16.4-15.5
		c2.6,0,7.6,0.4,11,2.6c3.3,2.1,4.3,5.2,4.3,8.8v8.4L-320.5,515.5z"/>
	<path class="st1" d="M-303.7,496.9h27.9v8.8h-17.3v13.5h16.2v8.7h-16.2v17.7h18v8.9h-28.6V496.9z"/>
	<path class="st1" d="M-237.5,554.5h-13.4l-10.3-43.1l1,43.1h-10v-57.6h13.6l10.3,42.2l-1.1-42.2h9.7L-237.5,554.5z"/>
	<path class="st4" d="M-343,299.4v73.4c-0.2,3.2-2.2,6-5.2,7.1c-11.6,3.7-29.8,17.7-38.7,33c-0.5,0.8-1.5,1.1-2.4,0.6
		c-0.5-0.3-0.9-0.9-0.9-1.5V260c0-1,0.8-1.7,1.7-1.7c0.6,0,1.2,0.3,1.5,0.9c8.9,15.3,27,29.3,38.7,33
		C-345.2,293.3-343.1,296.1-343,299.4z"/>
	<path class="st5" d="M-409.2,212.1v249.5c0,2.3-1.9,4.2-4.2,4.2c-0.3,0-0.7,0-1-0.1c-19.1-4.7-65.6-40.7-70-75.5V283.5
		c4.3-34.8,50.8-70.8,70-75.5c2.3-0.5,4.5,0.9,5.1,3.2C-409.2,211.4-409.2,211.7-409.2,212.1z"/>
	<path class="st6" d="M-409.2,212.1v249.5c0,2.3-1.9,4.2-4.2,4.2c-0.3,0-0.7,0-1-0.1c-19.1-4.7-65.6-40.7-70-75.5V283.5
		c4.3-34.8,50.8-70.8,70-75.5c2.3-0.5,4.5,0.9,5.1,3.2C-409.2,211.4-409.2,211.7-409.2,212.1z"/>
	<path class="st7" d="M-322.9,307.1h27.4c0.6,0,1.1,0.5,1.1,1.1V364c0,0.6-0.5,1.1-1.1,1.1h-27.4c-0.6,0-1.1-0.5-1.1-1.1v-55.8
		C-323.9,307.6-323.5,307.1-322.9,307.1z"/>
	<path class="st8" d="M-543.2,410.6c5.3-10.1,18.7-32.8,35-36.8c2.9-0.7,4.9-3.3,4.9-6.2v-63.2c0-2.9-2-5.5-4.9-6.2
		c-16.2-4-29.7-26.7-35-36.8c-0.3-0.6-1.1-0.9-1.7-0.5c-0.4,0.2-0.7,0.7-0.7,1.1v148c0,0.7,0.6,1.3,1.3,1.3
		C-543.9,411.3-543.4,411.1-543.2,410.6z"/>
</g>
</svg>
