<svg id="Layer_1" data-name="Layer 1" xmlns="http://www.w3.org/2000/svg" viewBox="0 0 800 800"><defs><style>.cls-1{fill:#fff;}.cls-2{fill:#19222a;}</style></defs><rect class="cls-1" width="800" height="800"/><path class="cls-2" d="M331.54,592.18V565.59h5c2.6,0,5,0,6.55,2,1.24,1.55,1.36,2.94,1.36,9.38,0,1.43,0,3.13-.08,6.74,0,2.6-.11,4.49-1.05,6.07-1.51,2.41-4,2.41-6.86,2.41Zm3.31-2.94H337c2.11,0,3.62-.19,4-2.56.19-1.24.23-5,.23-6.37v-5.95c0-2.9-.07-4.33-1.24-5.16-.83-.56-1.58-.56-5.09-.56Z"/><path class="cls-2" d="M363.74,592.18h-12V565.59h11.68v3h-8.36v7.91h7.34v3h-7.34v9.71h8.66Z"/><path class="cls-2" d="M383.13,592.18h-4.67l-5.2-23,.45,23h-3.24V565.55H375l5.38,23.31-.45-23.31h3.2Z"/><path class="cls-2" d="M408.06,592.18h-3l.45-24.07-4,24.07h-4.18l-4-24.07.53,24.07h-3.2V565.55h5l3.73,23.77L403,565.55h5Z"/><path class="cls-2" d="M428.62,592.18h-3.46l-1-5.12H418l-.91,5.12h-3.42l5.72-26.59h3.32Zm-5-8L421,570.51l-2.45,13.67Z"/><path class="cls-2" d="M448.51,592.18H445l-4.52-11.64h-2.75v11.64h-3.27V565.59h5.8c3.5,0,7,.56,7,7.23a14,14,0,0,1-.64,4.63,3.77,3.77,0,0,1-2.94,2.71ZM437.73,577.9c3.73,0,4.26,0,5-.49,1.29-.86,1.29-2.9,1.29-4.21,0-1.62,0-3.32-1.32-4.11-.8-.49-1.51-.49-4.94-.49Z"/><path class="cls-2" d="M468.46,592.18h-3.65l-4.75-13.6-2.11,3.2v10.4h-3.27V565.59H458V577l6.86-11.45h3.65l-6.25,10Z"/><path class="cls-2" d="M238.33,518v-7.33c0-4.33-.74-6.77-5.38-6.77s-4.89,3.67-4.89,6.28V541c0,3.42.57,6.52,5.29,6.52,5,0,5-3.59,5-7.09v-7.5h10.52v8.15c0,4.65,0,14.67-15.66,14.67-3,0-7.83-.57-11.17-2.77-4.57-3-4.57-7.5-4.57-10.68V511c0-4.65.25-7.83,2.86-10.68,4.16-4.48,10.68-4.57,12.88-4.57,15.66,0,15.66,9.3,15.66,13.38V518Z"/><path class="cls-2" d="M286.19,542.19c0,4.24-.82,7.17-3.1,9.46-3.43,3.58-8.81,4.07-12.64,4.07-13,0-16.14-6.19-16.14-13.53V510c0-2.44.08-6.76,3-9.86,2.2-2.37,6.52-4.41,13-4.41,5.22,0,9.29,1.39,12,3.59,2.86,2.37,3.84,5.38,3.84,10.93ZM275.5,511c0-3,0-7.17-5.13-7.17-5.47,0-5.47,4.4-5.47,7.58v29c0,3.26.17,7,5.39,7s5.21-4,5.21-6.77Z"/><path class="cls-2" d="M291.81,496.86h21.36c9.7,0,9.7,7.58,9.7,13v7.5c0,9.3-1,13.13-11.41,13.13h-9v24H291.78Zm10.68,25.43h5.13c4,0,4.82-.73,4.82-5.13v-5.87c0-3.92,0-5.87-4.73-5.87h-5.22Z"/><path class="cls-2" d="M328.74,496.86h27.88v8.8H339.34V519.2h16.22v8.72H339.34v17.69h18v8.89H328.72Z"/><path class="cls-2" d="M396.41,554.5H383l-10.28-43.13,1,43.13h-9.94V496.94h13.61l10.36,42.23-1.06-42.23h9.7Z"/><path class="cls-2" d="M404.81,496.94h10.6V519.6h9.71V496.94h10.6V554.5h-10.6V528.17h-9.71V554.5h-10.6Z"/><path class="cls-2" d="M452,496.94h12.15l10.76,57.56H464.15l-1.39-9.38H453l-1.55,9.38h-10.6Zm2.28,39.3h7.34l-3.51-24.71Z"/><path class="cls-2" d="M499.55,515.53v-5.47c0-2.85,0-6-5-6-5.38,0-5.38,4.32-5.38,7.42v30.33c0,3.83,1.3,5.79,5,5.79,5.3,0,5.3-3.91,5.3-6.68v-9H493v-8.65h17.2V554.5h-9.05v-3.42A12.17,12.17,0,0,1,491,555.72c-5.14,0-12.48-2.2-12.48-11.74V511.21c0-5.79.49-15.5,16.39-15.5,2.61,0,7.58.41,11,2.61,3.26,2.12,4.32,5.22,4.32,8.81v8.4Z"/><path class="cls-2" d="M516.34,496.86h27.89v8.8H526.94V519.2h16.23v8.72H526.94v17.69h18v8.89H516.32Z"/><path class="cls-2" d="M582.55,554.5H569.17L558.9,511.37l1,43.13h-10V496.94h13.62l10.35,42.23-1.06-42.23h9.71Z"/><path class="cls-2" d="M477,299.36v73.4a8,8,0,0,1-5.22,7.11c-11.62,3.72-29.81,17.72-38.67,33a1.73,1.73,0,0,1-3.23-.86V260a1.73,1.73,0,0,1,3.23-.86c8.86,15.31,27.05,29.32,38.67,33A8,8,0,0,1,477,299.36Z"/><path class="cls-2" d="M410.83,212.06V461.54a4.24,4.24,0,0,1-4.23,4.24,4,4,0,0,1-1-.12C386.48,461,340,425,335.62,390.14V283.45c4.34-34.83,50.82-70.8,70-75.51a4.24,4.24,0,0,1,5.21,4.12Z"/><rect class="cls-2" x="496.07" y="307.09" width="29.55" height="57.95" rx="1.06"/><path class="cls-2" d="M276.79,410.65c5.28-10.13,18.73-32.81,35-36.78a6.39,6.39,0,0,0,4.85-6.22V304.47a6.4,6.4,0,0,0-4.85-6.21c-16.23-4-29.68-26.66-35-36.79a1.28,1.28,0,0,0-2.41.6v148a1.28,1.28,0,0,0,2.41.58Z"/></svg>