<?xml version="1.0" encoding="utf-8"?>
<!-- Generator: Adobe Illustrator 25.1.0, SVG Export Plug-In . SVG Version: 6.00 Build 0)  -->
<svg version="1.1" id="Layer_1" xmlns="http://www.w3.org/2000/svg" xmlns:xlink="http://www.w3.org/1999/xlink" x="0px" y="0px"
	 viewBox="0 0 499.1 88.7" style="enable-background:new 0 0 499.1 88.7;" xml:space="preserve">
<style type="text/css">
	.st0{fill:#0C1C2A;}
</style>
<g id="Layer_2_1_">
	<g id="Layer_1-2">
		<path class="st0" d="M47.7,46.4C47,50.2,46,58.2,45.3,64c-1.7-0.2-5.8-0.3-11.4-0.4s-12.5-0.1-20.4-0.1C9,63.5,2.1,63.8,0,63.8
			l0.1-1.1l5.1-0.5c2.2-0.3,2.8-0.8,3-2.6c0.4-3.5,0.7-12.3,0.7-22.9V20.3C8.9,9.8,8.7,5.9,8.6,3.6c0-1.5-0.7-2.1-2.7-2.2L1.1,1.2
			L1.2,0C3.1,0,10,0.4,13.1,0.4c3.4,0,7.7-0.3,12-0.4l0.4,1.2l-4.9,0.4c-2.1,0.2-2.8,0.9-2.9,2.6c-0.2,4.3-0.5,11.3-0.5,22.1v10.4
			c0,10.9,0,21.3,0.3,24c0.2,1.1,1,1.5,7.9,1.5c11,0,14.2-0.6,16.3-3.8s3.7-7.6,4.8-11.9L47.7,46.4z"/>
		<path class="st0" d="M70.2,63.9c-2.3,0-5.6-0.4-10-0.4c-4.2,0-6.5,0.4-9.3,0.4l0.2-1.2c4.7-0.2,5.4-0.9,5.6-2.7s0.4-6.1,0.4-12.2
			V36.7c0.1-3.9-0.1-7.8-0.4-11.7c-0.1-1.3-1.1-1.6-5.4-1.4l0.2-1.2c4.6-0.2,9.1-0.7,13.6-1.7c-0.1,2.6-0.4,8.1-0.4,16v11
			c0,7.2,0.1,10.2,0.3,12.2s0.9,2.5,5.2,2.7L70.2,63.9z M60.7,1.6c2.8,0,4.1,1.8,4.1,4.4c0,2.4-2,4.3-4.4,4.3c-0.1,0-0.1,0-0.2,0
			c-2.2,0-4-1.8-4-4c0-0.1,0-0.2,0-0.2c-0.1-2.4,1.8-4.4,4.2-4.5C60.6,1.6,60.6,1.6,60.7,1.6L60.7,1.6z"/>
		<path class="st0" d="M101.3,31.1c0-4.6-2.2-8.9-8-8.9c-6.3,0-8.9,3.5-8.9,7.8c0.1,1.1,0.2,2.1,0.4,3.2c0.2,0.7-0.1,1.3-0.6,1.8
			c-0.8,0.6-1.8,0.8-2.9,0.8c-1.9,0-3.6-1.3-3.6-4c0-4.4,5.7-11,16.9-11c8,0,11.2,3.2,12.6,5.3c0.9,1.5,1.4,3.2,1.4,5v25.6
			c0,4.3,1.3,4.9,2.6,4.9c2,0,3.6-2.7,4.4-6.3l1.2,0.5c-1.2,6-4.3,8.9-9.1,8.9c-5.1,0-6.5-3.5-6.7-7.7c-4.4,5-9.5,7.7-14.2,7.7
			c-7.2,0-11.1-4.9-11.1-11.5c0-3.7,1.4-7,5-8.5c6.9-2.9,17.1-6.2,20.5-8.7L101.3,31.1z M84.2,52c0,4.9,2.5,9.2,6.9,9.2
			c5.4,0,8.2-3.5,9.6-7.2c0.3-1.3,0.5-2.7,0.6-4V37.7c-2.8,1.6-8.6,3.9-12.1,5.8C86.8,44.8,84.2,46.5,84.2,52L84.2,52z"/>
		<path class="st0" d="M118.5,62.7c4.5-0.2,5.5-0.4,5.6-2.9c0.2-3,0.4-5.7,0.4-11.2V37.5c0-5.5-0.2-9.8-0.3-12.2
			c-0.1-1.4-0.7-1.6-5.4-1.6l0.2-1.1c4.3,0,8.6-0.5,12.8-1.4c0.1,2.3,0.3,5.9,0.4,7.7c3.4-3.6,8.4-8.1,15.3-8.1
			c6.2,0,9.5,3.1,10.6,5.6c0.8,1.7,1.2,3.6,1.2,5.5V60c0,2.1,0.6,2.3,5.6,2.7l-0.2,1.2c-2.5,0-6-0.4-9.7-0.4c-3.8,0-7.1,0.4-9.2,0.4
			l0.1-1.2c4-0.2,5-0.8,5.2-2.6c0.2-2.3,0.5-6.6,0.5-15.9c0-13.5-0.2-14.4-1-16.1c-1.3-2.7-3.4-4-7-4c-4.5-0.1-8.7,2.5-10.6,6.6
			c-0.8,1.4-1.1,3-1,4.5v13.5c0,4.9,0.1,9.2,0.3,11.3c0.2,1.9,1,2.4,5.6,2.6l-0.2,1.2c-2.2,0-6.9-0.4-9.8-0.4c-3.8,0-7,0.4-9.6,0.4
			L118.5,62.7z"/>
		<path class="st0" d="M195.7,31.1c0-4.6-2.2-8.9-8-8.9c-6.3,0-8.9,3.5-8.9,7.8c0.1,1.1,0.2,2.1,0.4,3.2c0.2,0.7-0.1,1.4-0.6,1.8
			c-0.8,0.6-1.8,0.8-2.9,0.8c-1.9,0-3.6-1.3-3.6-4c0-4.4,5.7-11,16.9-11c8,0,11.2,3.2,12.6,5.3c0.9,1.5,1.4,3.2,1.4,5v25.6
			c0,4.3,1.3,4.9,2.6,4.9c2,0,3.6-2.7,4.4-6.3l1.2,0.5c-1.2,6-4.3,8.9-9.1,8.9c-5.1,0-6.5-3.5-6.7-7.7c-4.4,5-9.5,7.7-14.2,7.7
			c-7.2,0-11.1-4.9-11.1-11.5c0-3.7,1.4-7,5-8.5c6.9-2.9,17.1-6.2,20.5-8.7L195.7,31.1z M178.6,52c0,4.9,2.5,9.2,6.9,9.2
			c5.4,0,8.2-3.5,9.6-7.2c0.3-1.3,0.5-2.7,0.6-4V37.7c-2.8,1.6-8.6,3.9-12.1,5.8C181.2,44.8,178.6,46.5,178.6,52L178.6,52z"/>
		<path class="st0" d="M266,63.9c-4.2,0-9.8-0.4-14-0.4c-5.3,0-9.1,0.4-12.3,0.4l-0.4-1.2c1.9-0.1,3.8-0.3,5.7-0.7
			c2.3-0.3,3.1-1.3,3.4-3.5c0.3-3.7,0.6-15.2,0.6-20.9c0.1-1.6-0.2-3.2-0.9-4.7c-4.5-9.3-9.6-18.4-15.2-27.1
			c-2.6-4.1-3.4-4.4-8.5-4.6L224.3,0c2,0,6.4,0.4,10.4,0.4c4.9,0,9.5-0.4,12.3-0.4l0.3,1.2l-4.1,0.4c-1.7,0.1-2,0.7-1.4,2.1
			c2,4.6,10.4,19.7,14.8,28.1C263.8,18,267.3,11,270.1,4.5c0.9-2.2,0.3-2.7-1.2-2.8s-3.1-0.4-4.8-0.6l0.2-1.2c2.2,0,5.8,0.4,8.7,0.4
			s5.6-0.4,8.6-0.4l0.3,1.2c-5.2,0.2-6.6,0.8-9,4.5c-4,6.4-10.6,18.8-14.3,25.7c-0.9,1.6-1.3,3.4-1.3,5.2c0,6.2,0,18.7,0.4,23.3
			c0.1,1.2,0.5,1.9,2.4,2.1c1.4,0.1,3.5,0.4,5.4,0.7L266,63.9z"/>
		<path class="st0" d="M293.6,20.8c12.6,0,19.9,9,19.9,21.5c0,14-8,22.5-20.6,22.5c-13.3,0-20.3-9.2-20.3-21.5
			S279.9,20.8,293.6,20.8L293.6,20.8z M293,22.3c-4.1,0-7,2-9.1,5.5c-1.8,3.4-2.7,8.5-2.7,14.2s1,11.3,2.6,14.8
			c2.1,4.2,5.6,6.6,10,6.6c4,0,6.9-1.7,8.9-5.9c1.3-3,2.3-8,2.3-14.3c0-6-1-11.6-2.6-14.8c-1.9-3.6-4.7-6.1-9.3-6.1L293,22.3z"/>
		<path class="st0" d="M344.6,22c2.8,0,7-0.1,9.5-0.2c2.7-0.2,4.3-0.5,5.3-0.6c-0.2,3-0.4,8.2-0.4,14.4v11.6c0,6.9,0.2,11,0.4,13.2
			c0.3,1.6,0.8,1.9,6.1,1.8l-0.3,1.3c-2,0.1-4.3,0.3-7.1,0.5c-2.3,0.2-4.7,0.5-7,0.9c0.2-2.7,0-7.3,0.2-9.8
			c-2.8,3.8-9.5,9.7-17.5,9.7c-5.4,0-8-2.2-8.9-3.9c-0.9-1.7-1.3-3.5-1.2-5.4c0-5.2,0.3-14.9,0.3-23.2c0-4.4-0.1-6.4-0.2-7.8
			s-1.3-1.5-5.7-1.5l0.3-1.1c2.9,0,5.7-0.1,8.3-0.3s4.6-0.4,5.7-0.6c-0.4,2.8-0.8,9.9-0.8,20.8c0,9.6,0.1,13.8,0.6,16.2
			s2.2,3.8,4.9,3.8c5.9-0.1,11.1-3.7,13.2-9.2c0.8-1.8,1.1-3.7,1-5.6V35.4c0-5.8-0.1-8.8-0.3-10.7c-0.2-1.3-1.4-1.5-6.3-1.5
			L344.6,22z"/>
		<path class="st0" d="M368.5,62.7c4.5-0.2,5.5-0.4,5.6-2.9c0.2-3,0.4-5.7,0.4-11.2V37.5c0-5.5-0.2-9.8-0.3-12.2
			c-0.1-1.4-0.7-1.6-5.4-1.6l0.2-1.1c4.3,0,8.6-0.5,12.8-1.4c0.1,2.3,0.3,5.9,0.4,7.7c3.5-3.6,8.4-8.1,15.3-8.1
			c6.2,0,9.5,3.1,10.6,5.6c0.8,1.7,1.2,3.6,1.2,5.5V60c0,2.1,0.6,2.3,5.6,2.7l-0.2,1.2c-2.5,0-6-0.4-9.7-0.4c-3.9,0-7.1,0.4-9.2,0.4
			l0.1-1.2c4-0.2,5-0.8,5.2-2.6c0.2-2.3,0.5-6.6,0.5-15.9c0-13.5-0.2-14.4-1-16.1c-1.3-2.7-3.5-4-7-4c-4.6-0.1-8.7,2.5-10.6,6.6
			c-0.8,1.4-1.1,3-1,4.5v13.5c0,4.9,0.1,9.2,0.3,11.3c0.2,1.9,1,2.4,5.6,2.6l-0.2,1.2c-2.2,0-6.9-0.4-9.8-0.4c-3.7,0-7,0.4-9.6,0.4
			L368.5,62.7z"/>
		<path class="st0" d="M429.8,68.6c-2.7,0.8-5.6,2.6-5.6,7.5c0,7.1,7.1,10.4,14.6,10.4c11.1,0,16.6-6.3,16.6-13.2
			c0-4.6-3.6-7-7.2-7.1c-7.9,0-13.9,0-17.2-0.1c-3.6,0-6.9-0.9-9.1-3.3c-1.5-1.7-2.3-3.9-2.3-6.1c0-4.4,3.4-8,6.3-10
			c-2.3-2.5-3.4-6.5-3.4-10c0-10.7,7.8-16,16.5-16c3.4-0.1,6.8,0.8,9.7,2.6c3.3-2.6,6-4.2,8.3-4.2s3.6,1.6,3.6,2.6
			c-0.4,1.4-1.4,2.7-2.7,3.4c-1.3-1.1-2.9-1.7-4.6-1.7c-1.3,0-2.5,0.3-3.6,0.9c2.9,3.1,4.5,7.2,4.4,11.4c0,10.5-7.6,15.6-16,15.6
			c-5.1,0-9-1.5-11.1-3.4c-2.6,0.9-4.3,3.4-4.3,6.1c0,3,2.7,4.4,5.2,4.4c7.3,0,13.1-0.2,20.7-0.2c6-0.3,11.2,4.3,11.5,10.3
			c0,0.4,0,0.7,0,1.1c0,13.1-13.3,19.1-23.9,19.1c-11.3,0-17.3-4.6-17.3-11.4c-0.1-2.4,1.1-4.7,3.1-6c2.1-1.6,4.5-2.8,7-3.4
			L429.8,68.6z M438.3,22.4c-5.4,0-7.8,5.4-7.8,13.5c0,6.4,2,14,8,14s7.7-6.4,7.7-13.6c0-6.3-1.4-13.9-7.8-13.9L438.3,22.4z"/>
	</g>
</g>
</svg>
