<svg id="Layer_1" data-name="Layer 1" xmlns="http://www.w3.org/2000/svg" viewBox="0 0 460.68 88.73"><defs><style>.cls-1{fill:#0c1c2a;}</style></defs><g id="Layer_2" data-name="Layer 2"><g id="Layer_1-2" data-name="Layer 1-2"><path class="cls-1" d="M47.72,46.43C47,50.18,46,58.17,45.35,64c-1.68-.19-5.82-.29-11.44-.39s-12.52-.1-20.4-.1c-4.54,0-11.44.3-13.51.3L.1,62.7l5.12-.49c2.17-.3,2.77-.79,3-2.56.4-3.55.69-12.33.69-22.88V20.31c0-10.55-.2-14.39-.29-16.66,0-1.48-.69-2.07-2.66-2.17l-4.84-.3L1.18,0C3.06,0,10,.39,13.11.39c3.45,0,7.69-.29,12-.39l.39,1.18-4.93.4c-2.07.19-2.76.88-2.85,2.56-.2,4.34-.5,11.34-.5,22.08V36.58c0,10.94,0,21.29.3,24,.2,1.09,1,1.48,7.88,1.48,11,0,14.2-.59,16.27-3.75A43.77,43.77,0,0,0,46.5,46.39Z"/><path class="cls-1" d="M70.19,63.88c-2.27,0-5.62-.39-9.95-.39-4.15,0-6.51.39-9.27.39l.2-1.18c4.73-.2,5.42-.89,5.61-2.66s.4-6.11.4-12.23V36.67A108.27,108.27,0,0,0,56.78,25c-.09-1.28-1.08-1.58-5.42-1.38l.2-1.18a77.79,77.79,0,0,0,13.6-1.68c-.09,2.57-.39,8.09-.39,16v11c0,7.2.1,10.16.3,12.23S66,62.5,70.29,62.7ZM60.73,1.58c2.76,0,4.14,1.77,4.14,4.43a4.34,4.34,0,0,1-4.36,4.34h-.18a4,4,0,0,1-4-4c0-.09,0-.17,0-.25a4.37,4.37,0,0,1,4.19-4.53h.21Z"/><path class="cls-1" d="M101.25,31.15c0-4.63-2.17-8.87-8-8.87-6.31,0-8.87,3.45-8.87,7.79a23.78,23.78,0,0,0,.39,3.15A1.76,1.76,0,0,1,84.19,35a4.84,4.84,0,0,1-2.86.79c-1.87,0-3.55-1.28-3.55-4,0-4.44,5.72-10.95,16.86-10.95,8,0,11.24,3.16,12.62,5.33a10,10,0,0,1,1.38,5V56.79c0,4.33,1.28,4.93,2.56,4.93,2,0,3.55-2.67,4.44-6.31l1.18.49c-1.18,6-4.34,8.87-9.07,8.87-5.12,0-6.5-3.45-6.7-7.69-4.44,5-9.47,7.69-14.2,7.69-7.19,0-11.14-4.93-11.14-11.53,0-3.65,1.38-7,5-8.48,6.9-2.86,17.05-6.21,20.51-8.68ZM84.19,52.05c0,4.93,2.46,9.17,6.9,9.17,5.42,0,8.18-3.55,9.56-7.19a24.44,24.44,0,0,0,.6-4V37.66c-2.76,1.58-8.58,3.94-12.13,5.82-2.37,1.28-4.93,3-4.93,8.48Z"/><path class="cls-1" d="M118.5,62.7c4.53-.2,5.52-.39,5.62-2.86.19-3,.39-5.72.39-11.24V37.46c0-5.52-.2-9.76-.3-12.22-.09-1.38-.69-1.58-5.42-1.58l.2-1.08a62,62,0,0,0,12.82-1.38c.09,2.26.29,5.91.39,7.69,3.45-3.65,8.38-8.09,15.28-8.09,6.21,0,9.47,3.06,10.65,5.62a12.22,12.22,0,0,1,1.18,5.52V60c0,2.07.59,2.27,5.62,2.66l-.2,1.18c-2.46,0-6-.39-9.66-.39-3.84,0-7.1.39-9.17.39l.1-1.18c4-.2,5-.79,5.23-2.56.19-2.27.49-6.61.49-15.87,0-13.51-.2-14.4-1-16.07-1.28-2.67-3.45-4.05-7-4.05a11.41,11.41,0,0,0-10.64,6.61,8.12,8.12,0,0,0-1,4.53V48.8c0,4.93.1,9.17.3,11.34.19,1.87,1,2.36,5.62,2.56l-.2,1.18c-2.17,0-6.9-.39-9.76-.39-3.75,0-7,.39-9.56.39Z"/><path class="cls-1" d="M195.69,31.15c0-4.63-2.17-8.87-8-8.87-6.31,0-8.87,3.45-8.87,7.79a23.78,23.78,0,0,0,.39,3.15,1.73,1.73,0,0,1-.59,1.78,4.84,4.84,0,0,1-2.86.79c-1.87,0-3.55-1.28-3.55-4,0-4.44,5.72-10.95,16.86-10.95,8,0,11.24,3.16,12.62,5.33a10,10,0,0,1,1.38,5V56.79c0,4.33,1.28,4.93,2.56,4.93,2,0,3.55-2.67,4.44-6.31l1.18.49c-1.18,6-4.33,8.87-9.07,8.87-5.12,0-6.5-3.45-6.7-7.69-4.44,5-9.46,7.69-14.2,7.69-7.19,0-11.14-4.93-11.14-11.53,0-3.65,1.38-7,5-8.48,6.9-2.86,17.06-6.21,20.51-8.68Zm-17.06,20.9c0,4.93,2.47,9.17,6.9,9.17,5.43,0,8.18-3.55,9.57-7.19a25.73,25.73,0,0,0,.59-4V37.66c-2.76,1.58-8.58,3.94-12.13,5.82-2.37,1.28-4.93,3-4.93,8.48Z"/><path class="cls-1" d="M266,63.88c-4.24,0-9.76-.39-14-.39-5.33,0-9.07.39-12.33.39l-.39-1.18A44,44,0,0,0,245,62c2.26-.29,3.15-1.28,3.35-3.45.3-3.65.59-15.18.59-20.9a10.42,10.42,0,0,0-.89-4.73,273.6,273.6,0,0,0-15.2-27.1c-2.56-4.05-3.45-4.44-8.48-4.64L224.27,0c2,0,6.41.39,10.45.39C239.65.39,244.19,0,247,0l.29,1.18-4.14.4c-1.67.1-2,.69-1.38,2.07,2,4.63,10.36,19.72,14.79,28.1C263.81,18,267.26,11,270.12,4.54c.88-2.17.29-2.67-1.19-2.77s-3.15-.39-4.83-.59L264.3,0c2.17,0,5.82.39,8.68.39S278.59,0,281.55,0l.3,1.18c-5.23.2-6.61.79-9,4.54-4.05,6.41-10.65,18.83-14.3,25.73a10.57,10.57,0,0,0-1.28,5.22c0,6.22,0,18.74.39,23.27.1,1.18.5,1.87,2.37,2.07,1.38.1,3.55.4,5.42.69Z"/><path class="cls-1" d="M293.58,20.8c12.62,0,19.92,9,19.92,21.49,0,14-8,22.48-20.61,22.48-13.31,0-20.31-9.17-20.31-21.49s7.3-22.48,20.9-22.48ZM293,22.28c-4.14,0-7,2-9.07,5.52-1.78,3.35-2.66,8.48-2.66,14.2s1,11.34,2.56,14.79c2.07,4.24,5.62,6.6,10,6.6,4,0,6.9-1.67,8.87-5.91,1.28-3,2.27-8,2.27-14.3,0-6-1-11.63-2.57-14.79-1.87-3.64-4.73-6.11-9.26-6.11Z"/><path class="cls-1" d="M344.65,22c2.76,0,7-.09,9.46-.19,2.66-.2,4.34-.5,5.32-.59-.19,3.05-.39,8.18-.39,14.39V47.22c0,6.9.2,11,.39,13.21.3,1.58.79,1.88,6.12,1.78l-.3,1.28c-2,.1-4.34.3-7.1.49a60.87,60.87,0,0,0-7,.89c.2-2.66,0-7.29.2-9.76-2.76,3.85-9.47,9.66-17.45,9.66-5.42,0-8-2.17-8.87-3.94a10.43,10.43,0,0,1-1.19-5.42c0-5.23.3-14.89.3-23.17,0-4.44-.1-6.41-.2-7.79S322.66,23,318.22,23l.3-1.08c2.86,0,5.72-.1,8.28-.3s4.63-.39,5.72-.59c-.39,2.76-.79,9.86-.79,20.8,0,9.56.1,13.8.59,16.17s2.17,3.75,4.93,3.75a14.3,14.3,0,0,0,13.21-9.17,12.58,12.58,0,0,0,1-5.62V35.39c0-5.81-.1-8.77-.3-10.74-.19-1.28-1.38-1.48-6.31-1.48Z"/><path class="cls-1" d="M368.5,62.7c4.54-.2,5.52-.39,5.62-2.86.2-3,.4-5.72.4-11.24V37.46c0-5.52-.2-9.76-.3-12.22-.1-1.38-.69-1.58-5.42-1.58l.2-1.08a62,62,0,0,0,12.81-1.38c.1,2.26.3,5.91.4,7.69,3.45-3.65,8.38-8.09,15.28-8.09,6.21,0,9.46,3.06,10.64,5.62a12.23,12.23,0,0,1,1.19,5.52V60c0,2.07.59,2.27,5.62,2.66l-.2,1.18c-2.47,0-6-.39-9.66-.39-3.85,0-7.1.39-9.17.39l.1-1.18c4-.2,5-.79,5.22-2.56.2-2.27.5-6.61.5-15.87,0-13.51-.2-14.4-1-16.07-1.28-2.67-3.45-4.05-7-4.05a11.42,11.42,0,0,0-10.65,6.61,8.12,8.12,0,0,0-1,4.53V48.8c0,4.93.1,9.17.29,11.34.2,1.87,1,2.36,5.62,2.56l-.19,1.18c-2.17,0-6.91-.39-9.77-.39-3.74,0-7,.39-9.56.39Z"/><path class="cls-1" d="M429.82,68.62c-2.66.79-5.62,2.56-5.62,7.49,0,7.1,7.1,10.45,14.59,10.45,11.14,0,16.57-6.31,16.57-13.21,0-4.64-3.65-7-7.2-7.1-7.89,0-13.9,0-17.16-.1-3.64,0-6.9-.89-9.07-3.35a8.57,8.57,0,0,1-2.26-6.11c0-4.44,3.35-8,6.31-10-2.27-2.46-3.36-6.51-3.36-10,0-10.74,7.79-16,16.47-16a17.65,17.65,0,0,1,9.66,2.57C452,20.69,454.75,19,457,19s3.65,1.57,3.65,2.56A5.87,5.87,0,0,1,458,25a6.71,6.71,0,0,0-4.64-1.67,8.24,8.24,0,0,0-3.64.88,16.46,16.46,0,0,1,4.43,11.44c0,10.45-7.59,15.58-16,15.58-5.13,0-9-1.48-11.14-3.36A6.56,6.56,0,0,0,422.72,54c0,3,2.66,4.43,5.23,4.43,7.29,0,13.11-.2,20.7-.2A10.92,10.92,0,0,1,460.18,68.5a10.09,10.09,0,0,1,0,1.1c0,13.11-13.31,19.13-23.86,19.13-11.34,0-17.25-4.64-17.25-11.44a7,7,0,0,1,3.15-6,20.45,20.45,0,0,1,7-3.45Zm8.48-46.24c-5.42,0-7.79,5.42-7.79,13.51,0,6.4,2,14,8,14s7.69-6.4,7.69-13.6c0-6.31-1.38-13.9-7.79-13.9Z"/></g></g></svg>